G04 ================== begin FILE IDENTIFICATION RECORD ==================*
G04 Layout Name:  F:/MyTemporary/Github/GLPP2024/1-PSU/PSU-A1.brd*
G04 Film Name:    BOTTOM*
G04 File Format:  Gerber RS274X*
G04 File Origin:  Cadence Allegro 22.1-P001*
G04 Origin Date:  Tue Apr 23 14:00:41 2024*
G04 *
G04 Layer:  ETCH/BOTTOM*
G04 Layer:  PIN/BOTTOM*
G04 Layer:  VIA CLASS/BOTTOM*
G04 *
G04 Offset:    (0.0000 0.0000)*
G04 Mirror:    No*
G04 Mode:      Positive*
G04 Rotation:  0*
G04 FullContactRelief:  No*
G04 UndefLineWidth:     0.2540*
G04 ================== end FILE IDENTIFICATION RECORD ====================*
%FSLAX25Y25*MOMM*%
%IR0*IPPOS*OFA0.00000B0.00000*MIA0B0*SFA1.00000B1.00000*%
%ADD24R,1.X.35*%
%ADD23R,1.2X.6*%
%ADD27R,1.X.9*%
%ADD33R,.9X1.*%
%ADD34R,1.6X.8*%
%ADD32R,.8X1.6*%
%ADD30R,1.27X.51*%
%ADD19C,.3*%
%ADD12C,.4*%
%ADD35R,3.X2.*%
%ADD22R,1.X1.2*%
%ADD31R,2.X3.*%
%ADD14R,1.4X1.2*%
%ADD13R,1.2X1.4*%
%ADD21R,1.X1.8*%
%ADD11R,2.2X1.05*%
%ADD26C,1.*%
%ADD16R,1.5X1.8*%
%ADD29C,1.2*%
%ADD10C,3.1*%
%ADD18R,.8X.6*%
%ADD28C,1.5*%
%ADD17R,.8X.25*%
%ADD15R,.6X.8*%
%ADD20C,2.5*%
%ADD25C,1.8*%
%ADD36C,.2*%
%ADD37C,.22*%
%ADD38C,.32*%
%ADD39C,.5*%
%ADD40C,.15*%
%ADD41C,.6*%
%ADD42C,.42*%
%ADD43C,.16*%
%ADD44C,.25*%
%ADD45C,.26*%
%ADD46C,.36*%
%ADD47C,.28*%
%ADD48C,.127*%
%ADD49C,.38*%
G75*
%LPD*%
G75*
G36*
G01X660000Y-1690000D02*
Y-1455300D01*
X438800D01*
Y-1690000D01*
X660000D01*
G37*
G36*
G01X1120000Y-2007500D02*
X1007300D01*
X787300Y-2227500D01*
X630000D01*
Y-2332500D01*
X850000D01*
Y-2227500D01*
X1016400Y-2061100D01*
X1120000D01*
Y-2007500D01*
G37*
G36*
G01X1010300Y-1842800D02*
X955000Y-1787500D01*
Y-1666800D01*
X1011800Y-1610000D01*
X1120000D01*
Y-1550000D01*
X760000D01*
Y-1714000D01*
X686500Y-1787500D01*
X630000D01*
Y-1892500D01*
Y-1897500D01*
X906200D01*
X1120000D01*
Y-1872500D01*
Y-1842800D01*
X1010300D01*
G37*
G36*
G01X990000Y-577500D02*
X792500D01*
G03X758360Y-591640I-9J-48264D01*
G01X750000Y-600000D01*
X610000D01*
Y-720000D01*
X758400D01*
X861760Y-616640D01*
G02X895900Y-602500I34143J-34152D01*
G01X990000D01*
Y-577500D01*
G37*
G36*
G01X610000Y-105000D02*
X1060000D01*
Y-310000D01*
X940000D01*
Y-170000D01*
Y-169800D01*
X710000D01*
G03X690000Y-189800I0J-20000D01*
G01Y-300000D01*
G03X704140Y-334140I48287J1D01*
G01X750000Y-380000D01*
Y-500000D01*
X610000D01*
Y-105000D01*
G37*
G36*
G01X1174500Y-1842800D02*
X1274500D01*
Y-2060500D01*
X1224600Y-2110400D01*
Y-2340000D01*
X1025000D01*
Y-2160000D01*
X1101100D01*
X1174500Y-2086600D01*
Y-1987500D01*
X1040000D01*
Y-1917500D01*
X1174500D01*
Y-1842800D01*
G37*
G36*
G01X1200000Y-627500D02*
Y-652500D01*
X1078500Y-774000D01*
X1068500Y-784000D01*
X1050000D01*
Y-880000D01*
X1110000D01*
Y-797100D01*
X1254600Y-652500D01*
X1280000D01*
Y-627500D01*
X1200000D01*
G37*
G36*
G01X1320000Y-2007500D02*
X1417500D01*
X1420000Y-2010000D01*
X1570000Y-2160000D01*
X1745000D01*
Y-2340000D01*
X1350000D01*
Y-2070000D01*
X1320000Y-2040000D01*
Y-2007500D01*
G37*
G36*
G01X1476110Y-498710D02*
X1584900Y-607500D01*
X1598600D01*
X1730000D01*
Y-712000D01*
X1510000D01*
Y-653000D01*
Y-609000D01*
X1417140Y-516140D01*
G03X1383000Y-502000I-34136J-34135D01*
G01X1200000D01*
Y-477500D01*
X1424900D01*
G02X1476110Y-498710I-2J-72431D01*
G37*
G36*
G01X1200000Y-577500D02*
X1356500D01*
G02X1390640Y-591640I2J-48279D01*
G01X1410860Y-611860D01*
G02X1425000Y-646000I-34121J-34130D01*
G01Y-800000D01*
G03X1435000Y-810000I10000J0D01*
G01X1560000D01*
Y-950000D01*
X1440000D01*
X1347070Y-857070D01*
G03X1330000Y-850000I-17069J-17069D01*
G01X1200000D01*
Y-790000D01*
X1298900D01*
G03X1315970Y-782930I-2J24146D01*
G01X1355930Y-742970D01*
G03X1363000Y-725900I-17071J17069D01*
G01Y-634500D01*
G03X1355930Y-617430I-24126J7D01*
G01X1348070Y-609570D01*
G03X1331000Y-602500I-17067J-17066D01*
G01X1200000D01*
Y-577500D01*
G37*
G36*
G01Y-452500D02*
Y-370000D01*
G03X1185860Y-335860I-48278J3D01*
G01X1160000Y-310000D01*
Y-170000D01*
Y-167500D01*
X1730000D01*
Y-272500D01*
X1455000D01*
G03X1420860Y-286640I2J-48290D01*
G01X1389600Y-317900D01*
X1280000Y-427500D01*
Y-452500D01*
X1239100D01*
X1200000D01*
G37*
G36*
G01X1860000Y-1850000D02*
X1920000D01*
Y-1994000D01*
X2016000Y-2090000D01*
X2075000D01*
Y-2340000D01*
X1925000D01*
Y-2160000D01*
X1860000Y-2095000D01*
Y-1850000D01*
G37*
G36*
G01X1926600Y-950000D02*
Y-795000D01*
X1660000D01*
Y-847800D01*
Y-950000D01*
X1926600D01*
G37*
G36*
G01X2163300Y-623000D02*
X2390000D01*
Y-794600D01*
X2163300D01*
Y-623000D01*
G37*
G36*
G01X2028300D02*
Y-831000D01*
X2103300D01*
Y-679400D01*
Y-623000D01*
X2028300D01*
G37*
G36*
G01X2450000Y-720000D02*
X2737800D01*
X2841160Y-616640D01*
G02X2875300Y-602500I34143J-34151D01*
G01X2970000D01*
Y-577500D01*
X2772500D01*
G03X2738360Y-591640I-9J-48264D01*
G01X2730000Y-600000D01*
X2510000D01*
G03X2475860Y-614140I-3J-48278D01*
G01X2450000Y-640000D01*
Y-720000D01*
G37*
G36*
G01X2872500Y-2012500D02*
Y-2107500D01*
X3007500D01*
Y-2012500D01*
X2872500D01*
G37*
G36*
G01X2590000Y-500000D02*
Y-105000D01*
X3020000D01*
Y-310000D01*
X2900000D01*
Y-170000D01*
X2670000D01*
G03X2650000Y-190000I0J-20000D01*
G01Y-215200D01*
Y-300000D01*
X2730000Y-380000D01*
Y-500000D01*
X2590000D01*
G37*
G36*
G01X3180000Y-627500D02*
Y-652500D01*
X3048500Y-784000D01*
X3030000D01*
Y-880000D01*
X3090000D01*
Y-812200D01*
Y-800000D01*
X3237500Y-652500D01*
X3260000D01*
Y-627500D01*
X3180000D01*
G37*
G36*
G01X3180100Y-577500D02*
X3308200D01*
G02X3342340Y-591640I-4J-48293D01*
G01X3400860Y-650160D01*
G02X3415000Y-684300I-34145J-34140D01*
G01Y-790000D01*
G03X3435000Y-810000I20000J0D01*
G01X3560000D01*
Y-950000D01*
X3439100D01*
G02X3404960Y-935860I-3J48277D01*
G01X3333240Y-864140D01*
G03X3299100Y-850000I-34141J-34146D01*
G01X3180000D01*
Y-790000D01*
X3283800D01*
G03X3317940Y-775860I2J48279D01*
G01X3340860Y-752940D01*
G03X3355000Y-718800I-34130J34134D01*
G01Y-676200D01*
G03X3340860Y-642060I-48288J-1D01*
G01X3315440Y-616640D01*
G03X3281300Y-602500I-34140J-34144D01*
G01X3180000D01*
Y-577600D01*
X3180100Y-577500D01*
G37*
G36*
G01X3120000Y-167500D02*
X3690000D01*
Y-272500D01*
X3435000D01*
G03X3400860Y-286640I2J-48289D01*
G01X3260000Y-427500D01*
Y-430100D01*
Y-452500D01*
X3180000D01*
Y-330000D01*
G03X3160000Y-310000I-20000J0D01*
G01X3120000D01*
Y-167500D01*
G37*
G36*
G01X3180000Y-478000D02*
X3380200D01*
G02X3414340Y-492140I-1J-48287D01*
G01X3515560Y-593360D01*
G03X3549700Y-607500I34142J34150D01*
G01X3690000D01*
Y-713000D01*
X3470000D01*
Y-637400D01*
G03X3455860Y-603260I-48294J-4D01*
G01X3369240Y-516640D01*
G03X3335100Y-502500I-34141J-34148D01*
G01X3180000D01*
Y-478000D01*
G37*
G36*
G01X3926600Y-965000D02*
Y-795000D01*
X3660000D01*
Y-847800D01*
Y-965000D01*
X3926600D01*
G37*
G36*
G01X4554000Y-1503400D02*
X4686000D01*
Y-1295000D01*
X4615700D01*
X4554000D01*
Y-1503400D01*
G37*
G36*
G01X4564000Y-1128000D02*
Y-1229500D01*
X5060000D01*
Y-1128000D01*
X4564000D01*
G37*
G36*
G01X5950000Y-510000D02*
Y-309000D01*
X6650000D01*
Y-510000D01*
X6850000D01*
Y-105000D01*
X5855000D01*
X5750000D01*
Y-210000D01*
Y-510000D01*
X5950000D01*
G37*
G36*
G01X8187600Y-605000D02*
X8475200D01*
Y-685000D01*
X8187600D01*
Y-605000D01*
G37*
G36*
G01Y-480000D02*
X8475200D01*
Y-560000D01*
X8187600D01*
Y-480000D01*
G37*
G36*
G01X8830000Y-1810000D02*
Y-2347000D01*
X8530000D01*
Y-1810000D01*
X8830000D01*
G37*
G36*
G01X8530000Y-143000D02*
Y-437000D01*
X8855000D01*
Y-143000D01*
X8530000D01*
G37*
G54D10*
X300000Y-2200000D03*
Y-300000D03*
X5800000Y-1100000D03*
G54D20*
X1030000Y-1240000D03*
X1530000D03*
X3390000D03*
X3890000D03*
G54D11*
X740000Y-2280000D03*
Y-1840000D03*
X1620000Y-660000D03*
Y-220000D03*
X3580000Y-660000D03*
Y-220000D03*
G54D21*
X1095600Y-537800D03*
X3075600D03*
G54D12*
G01X2620000Y-840000D02*
Y-934200D01*
G01X3778100Y-1852800D02*
Y-1929200D01*
X3778500Y-1929600D01*
Y-1982300D01*
G01X3908100Y-1982800D02*
X3831700D01*
X3831200Y-1982300D01*
X3778500D01*
G01X3778100Y-1613300D02*
Y-1732800D01*
G01X3908100Y-1612800D02*
X3824300D01*
X3823800Y-1613300D01*
X3778100D01*
X805000Y-1742400D03*
X471500Y-1644800D03*
X602800Y-1490500D03*
X471500Y-1563700D03*
X498600Y-1492800D03*
X542800Y-840000D03*
X782700Y-639800D03*
X657700Y-338800D03*
X819200Y-490000D03*
X649400Y-137700D03*
X755100D03*
X901400Y-1740500D03*
X900500Y-1864700D03*
X976500Y-1584800D03*
X926900Y-1630700D03*
X960000Y-745600D03*
X834200Y-601600D03*
X860300Y-137100D03*
X992900Y-137300D03*
X1197700Y-2181700D03*
X1197200Y-2305600D03*
X1196600Y-2245600D03*
X1470000Y-2110000D03*
X1400000D03*
X1224300Y-1867100D03*
X1224500Y-2036200D03*
X1240000Y-1500000D03*
X1251400Y-350500D03*
X1550000Y-2192700D03*
Y-2250000D03*
Y-2307300D03*
X1630000Y-1855000D03*
X1740000Y-1402000D03*
X1564500Y-1576500D03*
X1716600Y-1580000D03*
X1812700Y-827700D03*
X1852200Y-897800D03*
X2024870Y-2127300D03*
X1943400Y-2124600D03*
X1890000Y-1970000D03*
X1979800Y-1890000D03*
X2222500Y-1979800D03*
X2162900Y-1724200D03*
X2159500Y-1277200D03*
X1893900Y-827700D03*
X2196000Y-761900D03*
X2070600Y-751700D03*
X2059960Y-803320D03*
X2462500Y-2105200D03*
X2555200Y-2042500D03*
X2369800D03*
X2572500Y-1852500D03*
X2277600Y-1692500D03*
X2591000D03*
X2262900Y-1523500D03*
X2460000Y-1154600D03*
X2306100D03*
X2255830Y-655700D03*
X2297300Y-703300D03*
X2346000Y-761900D03*
X2460000Y-470600D03*
X2648500Y-1555100D03*
X2756900Y-1370700D03*
X2625100Y-1154600D03*
X2620000Y-934200D03*
X2940000Y-741800D03*
X2803300Y-490000D03*
X2632900Y-342100D03*
X2623700Y-137700D03*
X2719500Y-137300D03*
X2823800D03*
X2951300Y-137600D03*
X3153200Y-1844100D03*
X3174500Y-1924400D03*
X3208000Y-1402000D03*
X3191000Y-1632000D03*
X3232800Y-348900D03*
X3600000Y-1834400D03*
X3381000Y-1924400D03*
X3537800Y-2016300D03*
X3556400Y-1588000D03*
X3878100Y-1792800D03*
Y-1722800D03*
X3778500Y-1982300D03*
X3778100Y-1613300D03*
X3812700Y-827700D03*
Y-930100D03*
X3893900Y-827700D03*
Y-932300D03*
X3853900Y-876800D03*
X4074900Y-1792800D03*
X4288100Y-1892800D03*
X4286100Y-1700400D03*
X4288100Y-1526000D03*
X4586700Y-1417700D03*
X4653300D03*
X4586700Y-1470700D03*
X4653300D03*
X4799700Y-1065600D03*
X4875000Y-1002700D03*
X5001400Y-1196800D03*
X4869400Y-1205500D03*
X4797100Y-1205100D03*
X4777700Y-896800D03*
X4790500Y-973600D03*
X5384100Y-2244200D03*
X5160000Y-1740000D03*
X5437300Y-1550000D03*
X5428100Y-1138300D03*
X5118000Y-1340000D03*
X5440700Y-905200D03*
X5530000Y-1487300D03*
X5656700Y-1340000D03*
X5499100Y-898700D03*
X5544450Y-926710D03*
X5779790Y-668800D03*
X5792700Y-744100D03*
X5776500Y-607710D03*
X5917300Y-2270000D03*
X5830000Y-2069800D03*
X6100000Y-2197300D03*
X5830000Y-1759400D03*
X6080000Y-1692700D03*
X6070000Y-1090000D03*
X6040000Y-870000D03*
X6070000Y-950000D03*
X5832490Y-668400D03*
X5829200Y-607690D03*
X6131900Y-226000D03*
X6048600Y-213450D03*
X6334400Y-1903900D03*
X6166600Y-1750000D03*
X6320000Y-1370000D03*
X6370000Y-280000D03*
X6212200Y-224900D03*
X6311400Y-221900D03*
X6464000Y-224700D03*
X6581200Y-2290000D03*
X6860000Y-2080000D03*
X6690000Y-2310000D03*
X6810000Y-1960000D03*
X6860000Y-2010000D03*
X6785000Y-1777700D03*
X6540000Y-1700000D03*
X6780000Y-1370000D03*
X6744000Y-1156700D03*
X6672700D03*
X6673800Y-1212100D03*
X6744000Y-1213200D03*
X6556400Y-222400D03*
X7125000Y-2253300D03*
X6910000Y-1960000D03*
X6967820Y-1778320D03*
X6980000Y-1500800D03*
X6920000Y-965000D03*
X7080000Y-442700D03*
X7012700Y-510000D03*
X7010000Y-440000D03*
X6920000Y-220000D03*
X7530000Y-1860000D03*
X7470000Y-1020000D03*
X7235000Y-597700D03*
X7694800Y-1474500D03*
X7770000Y-1420030D03*
X7700000Y-960000D03*
X7735900Y-680900D03*
X7680000Y-615000D03*
X8180000Y-2100000D03*
X8017300Y-1980000D03*
X8054500Y-1420000D03*
X8090000Y-1165000D03*
X7967700Y-1115000D03*
X8060000Y-1065000D03*
X7980000Y-1015000D03*
X8217300Y-645000D03*
Y-520000D03*
X8479200Y-2098500D03*
X8371700Y-2314300D03*
X8486200D03*
X8389800Y-2093000D03*
X8579300Y-2093400D03*
X8431500Y-2222300D03*
X8480800Y-1094600D03*
X8554400Y-1094500D03*
X8634200Y-1093600D03*
X8478900Y-1218000D03*
X8554400Y-1219700D03*
X8635200Y-1221700D03*
X8442700Y-644900D03*
X8565200Y-409100D03*
X8641200Y-410500D03*
X8442700Y-521200D03*
X8298700Y-220000D03*
X8797100Y-2090400D03*
X8687300Y-2093000D03*
X8733000Y-411000D03*
X8815000Y-410500D03*
G54D30*
X5383400Y-2110900D03*
Y-2302400D03*
X5385830Y-1891500D03*
X5654170Y-2208500D03*
X5656600Y-1989100D03*
Y-1797600D03*
G54D40*
G01X7331800Y-1839300D02*
X7216100Y-1955000D01*
X7115000D01*
G01X8330000Y-1270000D02*
X7979310D01*
X7839310Y-1130000D01*
X7190000D01*
G01X7945000Y-1955000D02*
Y-2055000D01*
X7930000Y-2070000D01*
X7815000D01*
X7790000Y-2095000D01*
Y-2180000D01*
X7753200Y-2216800D01*
X7597910D01*
X7477900Y-2096790D01*
Y-1758660D01*
X7556400Y-1680160D01*
Y-1466000D01*
X7585000Y-1437400D01*
G01X8330000Y-1395000D02*
X8225000D01*
X8148700Y-1318700D01*
X7917900D01*
X7774800Y-1175600D01*
X7234900D01*
G01X8330000Y-1645000D02*
X8135000D01*
X8099600Y-1680400D01*
Y-2131900D01*
X8003900Y-2227600D01*
X7849200D01*
G01X7635000Y-1400000D02*
Y-1894400D01*
X7579500Y-1949900D01*
Y-2044500D01*
X7695000Y-2160000D01*
G01X8330000Y-1520000D02*
X8127200D01*
X7991000Y-1656200D01*
X7784200D01*
X7695000Y-1745400D01*
Y-1800000D01*
G01X8330000Y-1145000D02*
X8229800D01*
X8209800Y-1165000D01*
X8090000D01*
G01X8330000Y-1020000D02*
X8229800D01*
X8134800Y-1115000D01*
X7967700D01*
G01X8330000Y-895000D02*
X8187900D01*
X8060000Y-1022900D01*
Y-1065000D01*
G01X8330000Y-770000D02*
X8184800D01*
X7980000Y-974800D01*
Y-1015000D01*
G54D13*
X600000Y-1620000D03*
X820000D03*
X1000000Y-240000D03*
X1220000D03*
X1500000Y-880000D03*
X1720000D03*
X2960000Y-240000D03*
X3180000D03*
X3500000Y-880000D03*
X3720000D03*
G54D31*
X5850000Y-360000D03*
X6750000D03*
G54D22*
X1224500Y-1952400D03*
G54D41*
G01X1860000Y-1240000D02*
X1530000D01*
G01X3390000D02*
X3080000D01*
G54D14*
X680000Y-660000D03*
Y-440000D03*
X2660000Y-660000D03*
Y-440000D03*
G54D32*
X6100000Y-710000D03*
X6475000D03*
X6350000D03*
X6225000D03*
G54D23*
X2222500Y-2042500D03*
Y-1852500D03*
X2462500Y-2042500D03*
Y-1947500D03*
Y-1852500D03*
X2692500Y-2042500D03*
X2932500D03*
Y-1947500D03*
X2692500Y-1852500D03*
X2932500D03*
G54D42*
G01X620000Y-840000D02*
X542800D01*
G01X960000Y-745600D02*
Y-840000D01*
G01X1890000Y-1890000D02*
X1979800D01*
G01X1863500Y-1724200D02*
Y-1783260D01*
X1890000Y-1809760D01*
Y-1890000D01*
G01X2462500Y-2042500D02*
Y-2105200D01*
G01X2369800Y-2042500D02*
X2462500D01*
G01D02*
X2555200D01*
G01X2591000Y-1692500D02*
X2492500D01*
G01X2692500D02*
X2591000D01*
G01X2692500Y-1852500D02*
Y-1692500D01*
G01X2648500Y-1555100D02*
Y-1569500D01*
X2692500Y-1613500D01*
Y-1692500D01*
G01X3311000Y-1744400D02*
X3480000D01*
G01X3120000Y-1402000D02*
X3208000D01*
G01X3600000Y-1924400D02*
Y-1834400D01*
G01X3556400Y-1588000D02*
X3600000Y-1631600D01*
Y-1744400D01*
G01D02*
Y-1834400D01*
G01X3452700Y-1588000D02*
X3556400D01*
G01X5460000Y-1640000D02*
Y-1572700D01*
X5437300Y-1550000D01*
G01X6200000Y-1590000D02*
X6130000D01*
X6080000Y-1640000D01*
Y-1692700D01*
G01X6930000Y-2170000D02*
Y-2110940D01*
X6899060Y-2080000D01*
X6860000D01*
G01X6790000Y-2170000D02*
Y-2110940D01*
X6820940Y-2080000D01*
X6860000D01*
G01X6660000Y-1590000D02*
X6580000D01*
X6540000Y-1630000D01*
Y-1700000D01*
G01X7390000Y-1020000D02*
X7470000D01*
G01X7260000Y-670000D02*
Y-622700D01*
X7235000Y-597700D01*
G01X7560000Y-870000D02*
Y-781060D01*
X7543900Y-764960D01*
Y-705900D01*
G01X7700000Y-760000D02*
X7641300D01*
X7587200Y-705900D01*
X7543900D01*
G01X7700000Y-880000D02*
Y-960000D01*
G01X7980000Y-1420000D02*
X8054500D01*
G54D15*
X620000Y-840000D03*
X740000D03*
X660000Y-260000D03*
X780000D03*
X960000Y-840000D03*
X1080000D03*
X1770000Y-2050000D03*
X1890000D03*
X1770000Y-1890000D03*
X1890000D03*
X1863500Y-1724200D03*
X1860000Y-1240000D03*
X1983500Y-1724200D03*
X1980000Y-1240000D03*
X2073300Y-679000D03*
X2193300D03*
X2372500Y-1692500D03*
X2492500D03*
X2480000Y-680000D03*
X2360000D03*
X2692500Y-1692500D03*
X2812500D03*
X2960000Y-1240000D03*
X2620000Y-840000D03*
X2740000D03*
X2940000D03*
X2620000Y-260000D03*
X2740000D03*
X3211000Y-2104400D03*
X3311000Y-1744400D03*
X3191000D03*
X3080000Y-1240000D03*
X3060000Y-840000D03*
X3602000Y-2104400D03*
X3482000D03*
X3331000D03*
X3480000Y-1924400D03*
X3600000D03*
X3480000Y-1744400D03*
X3600000D03*
X3452700Y-1588000D03*
X3332700D03*
X3908100Y-1982800D03*
X4028100D03*
Y-1612800D03*
X3908100D03*
X4288100Y-1982800D03*
X4168100D03*
X4166100Y-1792800D03*
X4286100D03*
X4168100Y-1612800D03*
X4288100D03*
X5460000Y-1640000D03*
X5340000D03*
X5980000Y-2270000D03*
X6100000D03*
Y-2100000D03*
X5980000D03*
X7270000Y-1020000D03*
X7390000D03*
X7543900Y-705900D03*
X7423900D03*
X7860000Y-1420000D03*
X7980000D03*
G54D33*
X7400000Y-870000D03*
X7560000D03*
G54D24*
X2262900Y-1407200D03*
Y-1472200D03*
Y-1277200D03*
Y-1342200D03*
X2648500Y-1407200D03*
Y-1472200D03*
Y-1277200D03*
Y-1342200D03*
G54D43*
G01X5284900Y-1410000D02*
X5217940Y-1476960D01*
Y-1477160D01*
X5118300Y-1576800D01*
X4622600D01*
X4520600Y-1678800D01*
Y-2059100D01*
X4382900Y-2196800D01*
X2885500D01*
X2812500Y-2123800D01*
Y-1984800D01*
X2849800Y-1947500D01*
X2932500D01*
G01X5284400Y-1410700D02*
X5967500D01*
X6094800Y-1283400D01*
X6368410D01*
X6432600Y-1347590D01*
Y-1797200D01*
X6474200Y-1838800D01*
Y-2047700D01*
X6505800Y-2079300D01*
X6661400D01*
X6691200Y-2049500D01*
Y-1929500D01*
X6751800Y-1868900D01*
X6967900D01*
X7015200Y-1916200D01*
Y-2094000D01*
X7053600Y-2132400D01*
X7116300D01*
G01X7485000Y-1447400D02*
Y-1653260D01*
X7432600Y-1705660D01*
Y-1901300D01*
X7201500Y-2132400D01*
X7116300D01*
G54D25*
X2210000Y-430000D03*
X2010000Y-250000D03*
X4330000Y-220000D03*
X4550000Y-400000D03*
G54D16*
X1100000Y-2250000D03*
X1430000D03*
X1670000D03*
X2000000D03*
G54D34*
X8330000Y-1645000D03*
Y-1520000D03*
Y-1395000D03*
Y-1270000D03*
Y-1145000D03*
Y-1020000D03*
Y-895000D03*
Y-770000D03*
Y-645000D03*
Y-520000D03*
G54D44*
G01X740000Y-840000D02*
X797700D01*
X860000Y-777700D01*
Y-702500D01*
X922500Y-640000D01*
X950000D01*
G01X780000Y-260000D02*
X837700D01*
X862900Y-285200D01*
Y-380400D01*
X922500Y-440000D01*
X950000D01*
G01Y-540000D02*
X1090000D01*
G01X950000Y-490000D02*
X819200D01*
G01X1240000Y-1700000D02*
Y-1759900D01*
X1270100Y-1790000D01*
X1410000D01*
X1440000Y-1820000D01*
Y-1862690D01*
X1417690Y-1885000D01*
X1360000D01*
G01Y-1930000D02*
X1460000D01*
X1516300Y-1873700D01*
Y-1789300D01*
X1484270Y-1757270D01*
Y-1698370D01*
G01X1630000Y-2060000D02*
X1562300D01*
X1477300Y-1975000D01*
X1360000D01*
G01X1367900Y-1568100D02*
Y-1679400D01*
X1347300Y-1700000D01*
X1240000D01*
G01X1484270Y-1698370D02*
X1577070D01*
X1578700Y-1700000D01*
X1643900D01*
G01X2648500Y-1277200D02*
X2782000D01*
X2832900Y-1328100D01*
Y-1481600D01*
X2871300Y-1520000D01*
X2960000D01*
G01X2930000Y-640000D02*
X2902500D01*
X2820000Y-722500D01*
Y-817700D01*
X2797700Y-840000D01*
X2740000D01*
G01X2930000Y-490000D02*
X2803300D01*
G01X2740000Y-260000D02*
X2800000D01*
X2840000Y-300000D01*
Y-417700D01*
X2862300Y-440000D01*
X2930000D01*
G01Y-540000D02*
X3070000D01*
G01X4028100Y-1612800D02*
X4168100D01*
G54D17*
X1080000Y-2020000D03*
Y-1975000D03*
Y-1930000D03*
Y-1885000D03*
X950000Y-440000D03*
Y-490000D03*
Y-540000D03*
Y-590000D03*
Y-640000D03*
X1360000Y-2020000D03*
Y-1975000D03*
Y-1930000D03*
Y-1885000D03*
X1240000Y-440000D03*
Y-490000D03*
Y-540000D03*
Y-590000D03*
Y-640000D03*
X2930000Y-440000D03*
Y-490000D03*
Y-540000D03*
Y-590000D03*
Y-640000D03*
X3220000Y-440000D03*
Y-490000D03*
Y-540000D03*
Y-590000D03*
Y-640000D03*
G54D26*
G01X1500000Y-880000D02*
Y-1020000D01*
X1530000Y-1050000D01*
Y-1240000D01*
G01X1620000Y-220000D02*
X1870940D01*
X1900940Y-250000D01*
X2010000D01*
G01X3500000Y-880000D02*
Y-1130000D01*
X3390000Y-1240000D01*
G01X3580000Y-220000D02*
X4330000D01*
X2960000Y-1680000D03*
X5284900Y-1410000D03*
X7730000Y-370000D03*
X7990000Y-710000D03*
G54D35*
X8680000Y-1910000D03*
Y-260000D03*
G54D45*
G01X3301000Y-1974400D02*
X3331000Y-2004400D01*
Y-2104400D01*
G01X3301000Y-1874400D02*
Y-1820100D01*
X3311000Y-1810100D01*
Y-1744400D01*
G54D36*
G01X2572500Y-1852500D02*
X2462500D01*
G01X3602000Y-2104400D02*
Y-2037800D01*
X3580500Y-2016300D01*
X3537800D01*
G01X3948100Y-1842800D02*
X3908100Y-1882800D01*
Y-1982800D01*
G01X3998100Y-1742800D02*
X4028100Y-1712800D01*
Y-1612800D01*
G01X3998100Y-1842800D02*
X4028100Y-1872800D01*
Y-1982800D01*
G54D18*
X1080000Y-1700000D03*
Y-1580000D03*
X1483900Y-1698000D03*
X1240000Y-1700000D03*
X1483900Y-1578000D03*
X1240000Y-1580000D03*
Y-940000D03*
Y-820000D03*
X1630000Y-2060000D03*
Y-1940000D03*
X1643900Y-1700000D03*
X1830000Y-1522000D03*
Y-1402000D03*
X1643900Y-1580000D03*
X1980000Y-1400000D03*
Y-1520000D03*
X2960000Y-1400000D03*
Y-1520000D03*
X3120000Y-1522000D03*
Y-1402000D03*
X3220000Y-940000D03*
Y-820000D03*
X3778100Y-1732800D03*
Y-1852800D03*
X5830000Y-2290000D03*
Y-2170000D03*
Y-1840000D03*
Y-1960000D03*
X5980000Y-1840000D03*
Y-1960000D03*
X6160000D03*
Y-1840000D03*
X6200000Y-1470000D03*
Y-1590000D03*
X6790000Y-2170000D03*
Y-2290000D03*
X6660000Y-1470000D03*
Y-1590000D03*
X6930000Y-2290000D03*
Y-2170000D03*
X7046700Y-341600D03*
Y-221600D03*
X7260000Y-670000D03*
Y-790000D03*
X7700000Y-760000D03*
Y-880000D03*
G54D27*
X4620000Y-1340000D03*
Y-1180000D03*
G54D46*
G01X1240000Y-940000D02*
X769300D01*
X740000Y-910700D01*
Y-840000D01*
G01X1483900Y-1578000D02*
X1563000D01*
X1564500Y-1576500D01*
G01X1630000Y-1855000D02*
Y-1940000D01*
G01X1564500Y-1576500D02*
X1568000Y-1580000D01*
X1643900D01*
G01D02*
X1716600D01*
G01X1830000Y-1522000D02*
X1918940D01*
X1920940Y-1520000D01*
X1980000D01*
G01X2162900Y-1724200D02*
X1983500D01*
G01X2372500Y-1692500D02*
X2277600D01*
G01X2648500Y-1472200D02*
X2579440D01*
X2568400Y-1483240D01*
Y-1542400D01*
X2581100Y-1555100D01*
X2648500D01*
G01X3191000Y-1632000D02*
Y-1744400D01*
G01X3332700Y-1588000D02*
X3235000D01*
X3191000Y-1632000D01*
G01X4286100Y-1792800D02*
Y-1700400D01*
G01X4288100Y-1612800D02*
Y-1526000D01*
G01X5383400Y-2110900D02*
X5421400D01*
X5543200Y-1989100D01*
X5656600D01*
G01X5383400Y-2302400D02*
X5384100Y-2301700D01*
Y-2244200D01*
G01X5340000Y-1640000D02*
Y-1710700D01*
X5310700Y-1740000D01*
X5160000D01*
G01X5654170Y-2208500D02*
Y-2253060D01*
X5691110Y-2290000D01*
X5830000D01*
G01X5656600Y-1989100D02*
X5741840D01*
X5770940Y-1960000D01*
X5830000D01*
G01X5656600Y-1797600D02*
Y-1731200D01*
X5708700Y-1679100D01*
X5926100D01*
X5980000Y-1733000D01*
Y-1840000D01*
G01Y-2270000D02*
X5917300D01*
G01X5830000Y-2170000D02*
Y-2069800D01*
G01D02*
X5880700D01*
X5910900Y-2100000D01*
X5980000D01*
G01D02*
Y-1960000D01*
G01X6100000Y-2197300D02*
Y-2270000D01*
G01Y-2197300D02*
Y-2100000D01*
G01D02*
X6250900D01*
X6383100Y-1967800D01*
G01X5980000Y-1840000D02*
X6160000D01*
G01X6350000Y-710000D02*
Y-835000D01*
X6315000Y-870000D01*
X6040000D01*
G01X6475000Y-710000D02*
Y-885000D01*
X6410000Y-950000D01*
X6070000D01*
G01X6160000Y-1960000D02*
X6278300D01*
X6334400Y-1903900D01*
G01X6200000Y-1470000D02*
X6270700D01*
X6320000Y-1420700D01*
Y-1370000D01*
G01X6790000Y-2290000D02*
X6710000D01*
X6690000Y-2310000D01*
G01X6660000Y-1470000D02*
X6719060D01*
X6780000Y-1409060D01*
Y-1370000D01*
G01X6930000Y-2290000D02*
X7074700D01*
X7075540Y-2289160D01*
X7089140D01*
X7125000Y-2253300D01*
G01X7046700Y-341600D02*
Y-409400D01*
X7080000Y-442700D01*
G01X7046700Y-221600D02*
X6976000D01*
X6974400Y-220000D01*
X6920000D01*
G54D37*
G01X3211000Y-2104400D02*
X3129400D01*
X3074900Y-2049900D01*
Y-1881700D01*
X3045700Y-1852500D01*
X2932500D01*
G54D28*
X4930000Y-2220000D03*
Y-2020000D03*
X5130000Y-2220000D03*
Y-2020000D03*
G54D19*
G01X1080000Y-1700000D02*
X1240000D01*
G01X1770000Y-2050000D02*
X1707700D01*
X1697700Y-2060000D01*
X1630000D01*
G01X1643900Y-1700000D02*
X1670000D01*
X1770000Y-1800000D01*
Y-1890000D01*
G01X2222500Y-2042500D02*
Y-1979800D01*
G01X2262900Y-1342200D02*
X2190200D01*
X2190100Y-1342100D01*
X2141200D01*
X2111200Y-1372100D01*
Y-1490000D01*
X2081200Y-1520000D01*
X1980000D01*
G01X2462500Y-1947500D02*
X2567500D01*
X2662500Y-2042500D01*
X2692500D01*
G01X2262900Y-1407200D02*
X2336100D01*
X2348800Y-1419900D01*
Y-1460900D01*
X2338100Y-1471600D01*
X2332560D01*
X2331960Y-1472200D01*
X2262900D01*
G01X3220000Y-940000D02*
X2772300D01*
X2740000Y-907700D01*
Y-840000D01*
G01X3251000Y-1974400D02*
X3211000Y-2014400D01*
Y-2104400D01*
G01X3251000Y-1924400D02*
X3174500D01*
G01X3251000Y-1874400D02*
X3220700Y-1844100D01*
X3153200D01*
G01X3381000Y-1924400D02*
X3301000D01*
G01X3480000D02*
X3381000D01*
G01X3948100Y-1792800D02*
X3878100D01*
G01X3948100Y-1742800D02*
X3898100D01*
X3878100Y-1722800D01*
G01X3998100Y-1792800D02*
X4074900D01*
G01D02*
X4166100D01*
G01X7270000Y-1020000D02*
X7219800D01*
X7214800Y-1015000D01*
X7180000D01*
G01X7179000Y-915000D02*
Y-861000D01*
X7250000Y-790000D01*
X7260000D01*
G01X7400000Y-870000D02*
X7327300D01*
X7270000Y-927300D01*
Y-1020000D01*
G01X7543900Y-705900D02*
Y-638200D01*
X7567100Y-615000D01*
X7680000D01*
G01X7260000Y-790000D02*
X7307210D01*
X7332210Y-765000D01*
X7332600D01*
X7391700Y-705900D01*
X7423900D01*
G01X7860000Y-1420000D02*
X7774090D01*
X7774060Y-1420030D01*
X7770000D01*
X1145000Y-1951900D03*
X1070000Y-470000D03*
X1090000Y-540000D03*
X1120000Y-470000D03*
Y-600000D03*
X1070000D03*
X1367900Y-1568100D03*
X2896500Y-2088700D03*
X2937000Y-2088800D03*
X2979700Y-2088900D03*
X3251000Y-1974400D03*
X3301000D03*
X3251000Y-1924400D03*
X3301000D03*
X3251000Y-1874400D03*
X3301000D03*
X3050000Y-470000D03*
X3100000D03*
X3070000Y-540000D03*
X3050000Y-600000D03*
X3100000D03*
X3948100Y-1842800D03*
X3998100D03*
X3948100Y-1792800D03*
X3998100D03*
X3948100Y-1742800D03*
X3998100D03*
X5029700Y-1155700D03*
X4937600Y-1201800D03*
X5310000Y-1020000D03*
X6383100Y-1967800D03*
X6530000Y-2230300D03*
X6595000Y-2005000D03*
X6780000Y-1700000D03*
X7116300Y-2132400D03*
X7115000Y-1955000D03*
X7091700Y-2055000D03*
X7190000Y-1130000D03*
X7180000Y-1015000D03*
X7179000Y-915000D03*
X7331800Y-1839300D03*
X7485000Y-1447400D03*
X7435000Y-1400000D03*
X7234900Y-1175600D03*
X7849200Y-2227600D03*
X7695000Y-2160000D03*
X7720000Y-1980000D03*
X7660000Y-2000600D03*
X7778900Y-1961200D03*
X7695000Y-1800000D03*
X7635000Y-1400000D03*
X7585000Y-1437400D03*
X7735000Y-370000D03*
X7945000Y-1955000D03*
X7990000Y-715000D03*
G54D47*
G01X6780000Y-1700000D02*
X6680000D01*
X6595000Y-1785000D01*
Y-2005000D01*
G54D38*
G01X2262900Y-1277200D02*
X2159500D01*
G01X2262900Y-1472200D02*
Y-1523500D01*
G01X2648500Y-1342200D02*
X2728400D01*
X2756900Y-1370700D01*
G01X2648500Y-1407200D02*
X2720400D01*
X2756900Y-1370700D01*
G01X3120000Y-1522000D02*
X3024700D01*
X3022700Y-1520000D01*
X2960000D01*
G54D29*
X4970000Y-1700000D03*
Y-1446000D03*
G54D48*
G01X1484270Y-1698370D02*
X1483900Y-1698000D01*
G01X5284900Y-1410000D02*
Y-1410200D01*
X5284400Y-1410700D01*
G01X6100000Y-710000D02*
Y-610940D01*
X6200840Y-510100D01*
X6557310D01*
X6637210Y-590000D01*
X7048410D01*
X7166210Y-472200D01*
X7687800D01*
X7735000Y-425000D01*
Y-370000D01*
G01X6225000Y-710000D02*
Y-610940D01*
X6275940Y-560000D01*
X6527190D01*
X6608790Y-641600D01*
X7078400D01*
X7190000Y-530000D01*
X7740000D01*
X7925000Y-715000D01*
X7990000D01*
G01X7435000Y-1400000D02*
Y-1617000D01*
X7382500Y-1669500D01*
Y-1880100D01*
X7207600Y-2055000D01*
X7091700D01*
G54D39*
G01X2222500Y-1852500D02*
Y-1783800D01*
X2162900Y-1724200D01*
G01X1980000Y-1240000D02*
Y-1400000D01*
G01X2306100Y-1154600D02*
X2006340D01*
X1980000Y-1180940D01*
Y-1240000D01*
G01X2460000Y-1154600D02*
X2625100D01*
G01X2306100D02*
X2460000D01*
G01X2960000Y-1240000D02*
Y-1400000D01*
G01X2625100Y-1154600D02*
X2884600D01*
X2960000Y-1230000D01*
Y-1240000D01*
G01X5385830Y-1891500D02*
X5232190D01*
X5186490Y-1845800D01*
X4998700D01*
X4930000Y-1914500D01*
Y-2020000D01*
G54D49*
G01X1240000Y-1580000D02*
Y-1500000D01*
G01X1830000Y-1402000D02*
X1740000D01*
G01X2960000Y-1680000D02*
Y-1775940D01*
X2932500Y-1803440D01*
Y-1852500D01*
G01X2960000Y-1680000D02*
X2874060D01*
X2861560Y-1692500D01*
X2812500D01*
G01X2940000Y-840000D02*
Y-741800D01*
G01X3331000Y-2104400D02*
X3482000D01*
G01X4288100Y-1982800D02*
Y-1892800D01*
G01X4028100Y-1982800D02*
X4168100D01*
G01X5830000Y-1840000D02*
Y-1759400D01*
G01X7694800Y-1474500D02*
X7749400Y-1529100D01*
X7948200D01*
X7980000Y-1497300D01*
Y-1420000D01*
M02*
