G04 ================== begin FILE IDENTIFICATION RECORD ==================*
G04 Layout Name:  F:/MyTemporary/Github/GLPP2024/1-PSU/PSU-A1.brd*
G04 Film Name:    DIMENSION*
G04 File Format:  Gerber RS274X*
G04 File Origin:  Cadence Allegro 22.1-P001*
G04 Origin Date:  Tue Apr 23 14:00:41 2024*
G04 *
G04 Layer:  MANUFACTURING/PHOTOPLOT_OUTLINE*
G04 Layer:  MANUFACTURING/NO_GLOSS_ALL*
G04 Layer:  MANUFACTURING/NO_GLOSS_TOP*
G04 Layer:  MANUFACTURING/NO_GLOSS_BOTTOM*
G04 Layer:  MANUFACTURING/NO_GLOSS_INTERNAL*
G04 Layer:  MANUFACTURING/NCDRILL_LEGEND*
G04 Layer:  MANUFACTURING/NCDRILL_FIGURE*
G04 Layer:  MANUFACTURING/PROBE_TOP*
G04 Layer:  MANUFACTURING/PROBE_BOTTOM*
G04 Layer:  MANUFACTURING/AUTOSILK_TOP*
G04 Layer:  MANUFACTURING/AUTOSILK_BOTTOM*
G04 Layer:  MANUFACTURING/NO_PROBE_TOP*
G04 Layer:  MANUFACTURING/NO_PROBE_BOTTOM*
G04 Layer:  MANUFACTURING/XSECTION_CHART*
G04 Layer:  MANUFACTURING/NCLEGEND-1-4*
G04 Layer:  BOARD GEOMETRY/OUTLINE*
G04 Layer:  BOARD GEOMETRY/DIMENSION*
G04 *
G04 Offset:    (0.0000 0.0000)*
G04 Mirror:    No*
G04 Mode:      Positive*
G04 Rotation:  0*
G04 FullContactRelief:  No*
G04 UndefLineWidth:     0.2540*
G04 ================== end FILE IDENTIFICATION RECORD ====================*
%FSLAX25Y25*MOMM*%
%IR0*IPPOS*OFA0.00000B0.00000*MIA0B0*SFA1.00000B1.00000*%
%AMMACRO13*
1,1,.254,.1,.1*
20,1,.254,.1,.1,.1,-.1,0.0*
1,1,.254,.1,-.1*
20,1,.254,.1,-.1,-.1,-.1,0.0*
1,1,.254,-.1,-.1*
20,1,.254,-.1,-.1,-.1,.1,0.0*
1,1,.254,-.1,.1*
20,1,.254,-.1,.1,.1,.1,0.0*
1,1,.254,.1,.1*
%
%ADD13MACRO13*%
%AMMACRO15*
1,1,.254,.075,0.0*
20,1,.254,.075,0.0,-.075,0.0,0.0*
1,1,.254,-.075,0.0*
1,1,.254,0.0,.075*
20,1,.254,0.0,.075,0.0,-.075,0.0*
1,1,.254,0.0,-.075*
%
%ADD15MACRO15*%
%AMMACRO17*
1,1,.254,.9,0.0*
20,1,.254,.9,0.0,0.0,-.9,0.0*
1,1,.254,0.0,-.9*
20,1,.254,0.0,-.9,-.9,0.0,0.0*
1,1,.254,-.9,0.0*
20,1,.254,-.9,0.0,0.0,.9,0.0*
1,1,.254,0.0,.9*
20,1,.254,0.0,.9,.9,0.0,0.0*
1,1,.254,.9,0.0*
%
%ADD17MACRO17*%
%AMMACRO21*
1,1,.254,0.0,.5*
20,1,.254,0.0,.5,-.433013,.25,0.0*
1,1,.254,-.433013,.25*
20,1,.254,-.433013,.25,-.433013,-.25,0.0*
1,1,.254,-.433013,-.25*
20,1,.254,-.433013,-.25,0.0,-.5,0.0*
1,1,.254,0.0,-.5*
20,1,.254,0.0,-.5,.433013,-.25,0.0*
1,1,.254,.433013,-.25*
20,1,.254,.433013,-.25,.433013,.25,0.0*
1,1,.254,.433013,.25*
20,1,.254,.433013,.25,0.0,.5,0.0*
1,1,.254,0.0,.5*
%
%ADD21MACRO21*%
%AMMACRO22*
1,1,.254,0.0,.6*
20,1,.254,0.0,.6,.519615,-.3,0.0*
1,1,.254,.519615,-.3*
20,1,.254,.519615,-.3,-.519615,-.3,0.0*
1,1,.254,-.519615,-.3*
20,1,.254,-.519615,-.3,0.0,.6,0.0*
1,1,.254,0.0,.6*
%
%ADD22MACRO22*%
%AMMACRO11*
1,1,.254,0.0,1.5*
20,1,.254,0.0,1.5,1.299038,-.75,0.0*
1,1,.254,1.299038,-.75*
20,1,.254,1.299038,-.75,-1.299038,-.75,0.0*
1,1,.254,-1.299038,-.75*
20,1,.254,-1.299038,-.75,0.0,1.5,0.0*
1,1,.254,0.0,1.5*
%
%ADD11MACRO11*%
%AMMACRO10*
1,1,.254,0.0,1.55*
20,1,.254,0.0,1.55,1.342339,-.775,0.0*
1,1,.254,1.342339,-.775*
20,1,.254,1.342339,-.775,-1.342339,-.775,0.0*
1,1,.254,-1.342339,-.775*
20,1,.254,-1.342339,-.775,0.0,1.55,0.0*
1,1,.254,0.0,1.55*
%
%ADD10MACRO10*%
%AMMACRO14*
1,1,.254,0.0,.15*
20,1,.254,0.0,.15,.129904,-.075,0.0*
1,1,.254,.129904,-.075*
20,1,.254,.129904,-.075,-.129904,-.075,0.0*
1,1,.254,-.129904,-.075*
20,1,.254,-.129904,-.075,0.0,.15,0.0*
1,1,.254,0.0,.15*
%
%ADD14MACRO14*%
%AMMACRO20*
1,1,.254,0.0,.75*
20,1,.254,0.0,.75,.649519,-.375,0.0*
1,1,.254,.649519,-.375*
20,1,.254,.649519,-.375,-.649519,-.375,0.0*
1,1,.254,-.649519,-.375*
20,1,.254,-.649519,-.375,0.0,.75,0.0*
1,1,.254,0.0,.75*
%
%ADD20MACRO20*%
%AMMACRO12*
1,1,.254,0.0,.2*
20,1,.254,0.0,.2,.173205,-.1,0.0*
1,1,.254,.173205,-.1*
20,1,.254,.173205,-.1,-.173205,-.1,0.0*
1,1,.254,-.173205,-.1*
20,1,.254,-.173205,-.1,0.0,.2,0.0*
1,1,.254,0.0,.2*
%
%ADD12MACRO12*%
%AMMACRO16*
1,1,.254,0.0,1.25*
20,1,.254,0.0,1.25,1.082531,-.625,0.0*
1,1,.254,1.082531,-.625*
20,1,.254,1.082531,-.625,-1.082531,-.625,0.0*
1,1,.254,-1.082531,-.625*
20,1,.254,-1.082531,-.625,0.0,1.25,0.0*
1,1,.254,0.0,1.25*
%
%ADD16MACRO16*%
%AMMACRO18*
1,1,.254,0.0,.9*
20,1,.254,0.0,.9,.779423,-.45,0.0*
1,1,.254,.779423,-.45*
20,1,.254,.779423,-.45,-.779423,-.45,0.0*
1,1,.254,-.779423,-.45*
20,1,.254,-.779423,-.45,0.0,.9,0.0*
1,1,.254,0.0,.9*
%
%ADD18MACRO18*%
%AMMACRO23*
1,1,.254,.45,0.0*
20,1,.254,.45,0.0,.225,.389711,0.0*
1,1,.254,.225,.389711*
20,1,.254,.225,.389711,-.225,.389711,0.0*
1,1,.254,-.225,.389711*
20,1,.254,-.225,.389711,-.45,0.0,0.0*
1,1,.254,-.45,0.0*
20,1,.254,-.45,0.0,-.225,-.389711,0.0*
1,1,.254,-.225,-.389711*
20,1,.254,-.225,-.389711,.225,-.389711,0.0*
1,1,.254,.225,-.389711*
20,1,.254,.225,-.389711,.45,0.0,0.0*
1,1,.254,.45,0.0*
%
%ADD23MACRO23*%
%AMMACRO19*
1,1,.254,.248528,-.6*
20,1,.254,.248528,-.6,-.248528,-.6,0.0*
1,1,.254,-.248528,-.6*
20,1,.254,-.248528,-.6,-.6,-.248528,0.0*
1,1,.254,-.6,-.248528*
20,1,.254,-.6,-.248528,-.6,.248528,0.0*
1,1,.254,-.6,.248528*
20,1,.254,-.6,.248528,-.248528,.6,0.0*
1,1,.254,-.248528,.6*
20,1,.254,-.248528,.6,.248528,.6,0.0*
1,1,.254,.248528,.6*
20,1,.254,.248528,.6,.6,.248528,0.0*
1,1,.254,.6,.248528*
20,1,.254,.6,.248528,.6,-.248528,0.0*
1,1,.254,.6,-.248528*
20,1,.254,.6,-.248528,.248528,-.6,0.0*
1,1,.254,.248528,-.6*
%
%ADD19MACRO19*%
%ADD24C,.254*%
%ADD25C,.06*%
G75*
%LPD*%
G75*
G36*
G01X24268000Y1891980D02*
Y1716980D01*
X24331500D01*
Y-3039020D01*
X24268000D01*
Y-3214020D01*
X24649000D01*
Y-3039020D01*
X24585500D01*
Y1716980D01*
X24649000D01*
Y1891980D01*
X24268000D01*
G37*
G36*
G01X23760000Y-3214010D02*
Y-3039010D01*
X25284000D01*
Y-3214010D01*
X23760000D01*
G37*
G36*
G01Y-1987010D02*
Y-1911010D01*
X25284000D01*
Y-1987010D01*
X23760000D01*
G37*
G36*
G01Y588980D02*
Y664980D01*
X25284000D01*
Y588980D01*
X23760000D01*
G37*
G36*
G01Y1716980D02*
Y1891980D01*
X25284000D01*
Y1716980D01*
X23760000D01*
G37*
G54D10*
X300000Y-2200000D03*
D03*
Y-300000D03*
D03*
X5800000Y-1100000D03*
D03*
G54D20*
X4930000Y-2220000D03*
D03*
Y-2020000D03*
D03*
X5130000Y-2220000D03*
D03*
Y-2020000D03*
D03*
G54D11*
X300000Y-2200000D03*
Y-300000D03*
X5800000Y-1100000D03*
X11061730Y-3827500D03*
G54D12*
X805000Y-1742400D03*
D03*
X471500Y-1644800D03*
D03*
X602800Y-1490500D03*
D03*
X471500Y-1563700D03*
D03*
X498600Y-1492800D03*
D03*
X542800Y-840000D03*
D03*
X782700Y-639800D03*
D03*
X657700Y-338800D03*
D03*
X819200Y-490000D03*
D03*
X649400Y-137700D03*
D03*
X755100D03*
D03*
X901400Y-1740500D03*
D03*
X900500Y-1864700D03*
D03*
X976500Y-1584800D03*
D03*
X926900Y-1630700D03*
D03*
X960000Y-745600D03*
D03*
X834200Y-601600D03*
D03*
X860300Y-137100D03*
D03*
X992900Y-137300D03*
D03*
X1197700Y-2181700D03*
D03*
X1197200Y-2305600D03*
D03*
X1196600Y-2245600D03*
D03*
X1470000Y-2110000D03*
D03*
X1400000D03*
D03*
X1224300Y-1867100D03*
D03*
X1224500Y-2036200D03*
D03*
X1240000Y-1500000D03*
D03*
X1251400Y-350500D03*
D03*
X1550000Y-2192700D03*
D03*
Y-2250000D03*
D03*
Y-2307300D03*
D03*
X1630000Y-1855000D03*
D03*
X1740000Y-1402000D03*
D03*
X1564500Y-1576500D03*
D03*
X1716600Y-1580000D03*
D03*
X1812700Y-827700D03*
D03*
X1852200Y-897800D03*
D03*
X2024870Y-2127300D03*
D03*
X1943400Y-2124600D03*
D03*
X1890000Y-1970000D03*
D03*
X1979800Y-1890000D03*
D03*
X2222500Y-1979800D03*
D03*
X2162900Y-1724200D03*
D03*
X2159500Y-1277200D03*
D03*
X1893900Y-827700D03*
D03*
X2196000Y-761900D03*
D03*
X2070600Y-751700D03*
D03*
X2059960Y-803320D03*
D03*
X2462500Y-2105200D03*
D03*
X2555200Y-2042500D03*
D03*
X2369800D03*
D03*
X2572500Y-1852500D03*
D03*
X2277600Y-1692500D03*
D03*
X2591000D03*
D03*
X2262900Y-1523500D03*
D03*
X2460000Y-1154600D03*
D03*
X2306100D03*
D03*
X2255830Y-655700D03*
D03*
X2297300Y-703300D03*
D03*
X2346000Y-761900D03*
D03*
X2460000Y-470600D03*
D03*
X2648500Y-1555100D03*
D03*
X2756900Y-1370700D03*
D03*
X2625100Y-1154600D03*
D03*
X2620000Y-934200D03*
D03*
X2940000Y-741800D03*
D03*
X2803300Y-490000D03*
D03*
X2632900Y-342100D03*
D03*
X2623700Y-137700D03*
D03*
X2719500Y-137300D03*
D03*
X2823800D03*
D03*
X2951300Y-137600D03*
D03*
X3153200Y-1844100D03*
D03*
X3174500Y-1924400D03*
D03*
X3208000Y-1402000D03*
D03*
X3191000Y-1632000D03*
D03*
X3232800Y-348900D03*
D03*
X3600000Y-1834400D03*
D03*
X3381000Y-1924400D03*
D03*
X3537800Y-2016300D03*
D03*
X3556400Y-1588000D03*
D03*
X3878100Y-1792800D03*
D03*
Y-1722800D03*
D03*
X3778500Y-1982300D03*
D03*
X3778100Y-1613300D03*
D03*
X3812700Y-827700D03*
D03*
Y-930100D03*
D03*
X3893900Y-827700D03*
D03*
Y-932300D03*
D03*
X3853900Y-876800D03*
D03*
X4074900Y-1792800D03*
D03*
X4288100Y-1892800D03*
D03*
X4286100Y-1700400D03*
D03*
X4288100Y-1526000D03*
D03*
X4586700Y-1417700D03*
D03*
X4653300D03*
D03*
X4586700Y-1470700D03*
D03*
X4653300D03*
D03*
X4799700Y-1065600D03*
D03*
X4875000Y-1002700D03*
D03*
X5001400Y-1196800D03*
D03*
X4869400Y-1205500D03*
D03*
X4797100Y-1205100D03*
D03*
X4777700Y-896800D03*
D03*
X4790500Y-973600D03*
D03*
X5384100Y-2244200D03*
D03*
X5160000Y-1740000D03*
D03*
X5437300Y-1550000D03*
D03*
X5428100Y-1138300D03*
D03*
X5118000Y-1340000D03*
D03*
X5440700Y-905200D03*
D03*
X5530000Y-1487300D03*
D03*
X5656700Y-1340000D03*
D03*
X5499100Y-898700D03*
D03*
X5544450Y-926710D03*
D03*
X5779790Y-668800D03*
D03*
X5792700Y-744100D03*
D03*
X5776500Y-607710D03*
D03*
X5917300Y-2270000D03*
D03*
X5830000Y-2069800D03*
D03*
X6100000Y-2197300D03*
D03*
X5830000Y-1759400D03*
D03*
X6080000Y-1692700D03*
D03*
X6070000Y-1090000D03*
D03*
X6040000Y-870000D03*
D03*
X6070000Y-950000D03*
D03*
X5832490Y-668400D03*
D03*
X5829200Y-607690D03*
D03*
X6131900Y-226000D03*
D03*
X6048600Y-213450D03*
D03*
X6334400Y-1903900D03*
D03*
X6166600Y-1750000D03*
D03*
X6320000Y-1370000D03*
D03*
X6370000Y-280000D03*
D03*
X6212200Y-224900D03*
D03*
X6311400Y-221900D03*
D03*
X6464000Y-224700D03*
D03*
X6581200Y-2290000D03*
D03*
X6860000Y-2080000D03*
D03*
X6690000Y-2310000D03*
D03*
X6810000Y-1960000D03*
D03*
X6860000Y-2010000D03*
D03*
X6785000Y-1777700D03*
D03*
X6540000Y-1700000D03*
D03*
X6780000Y-1370000D03*
D03*
X6744000Y-1156700D03*
D03*
X6672700D03*
D03*
X6673800Y-1212100D03*
D03*
X6744000Y-1213200D03*
D03*
X6556400Y-222400D03*
D03*
X7125000Y-2253300D03*
D03*
X6910000Y-1960000D03*
D03*
X6967820Y-1778320D03*
D03*
X6980000Y-1500800D03*
D03*
X6920000Y-965000D03*
D03*
X7080000Y-442700D03*
D03*
X7012700Y-510000D03*
D03*
X7010000Y-440000D03*
D03*
X6920000Y-220000D03*
D03*
X7530000Y-1860000D03*
D03*
X7470000Y-1020000D03*
D03*
X7235000Y-597700D03*
D03*
X7694800Y-1474500D03*
D03*
X7770000Y-1420030D03*
D03*
X7700000Y-960000D03*
D03*
X7735900Y-680900D03*
D03*
X7680000Y-615000D03*
D03*
X8180000Y-2100000D03*
D03*
X8017300Y-1980000D03*
D03*
X8054500Y-1420000D03*
D03*
X8090000Y-1165000D03*
D03*
X7967700Y-1115000D03*
D03*
X8060000Y-1065000D03*
D03*
X7980000Y-1015000D03*
D03*
X8217300Y-645000D03*
D03*
Y-520000D03*
D03*
X8479200Y-2098500D03*
D03*
X8371700Y-2314300D03*
D03*
X8486200D03*
D03*
X8389800Y-2093000D03*
D03*
X8579300Y-2093400D03*
D03*
X8431500Y-2222300D03*
D03*
X8480800Y-1094600D03*
D03*
X8554400Y-1094500D03*
D03*
X8634200Y-1093600D03*
D03*
X8478900Y-1218000D03*
D03*
X8554400Y-1219700D03*
D03*
X8635200Y-1221700D03*
D03*
X8442700Y-644900D03*
D03*
X8565200Y-409100D03*
D03*
X8641200Y-410500D03*
D03*
X8442700Y-521200D03*
D03*
X8298700Y-220000D03*
D03*
X8797100Y-2090400D03*
D03*
X8687300Y-2093000D03*
D03*
X8733000Y-411000D03*
D03*
X8815000Y-410500D03*
D03*
G54D21*
X4930000Y-2220000D03*
Y-2020000D03*
X5130000Y-2220000D03*
Y-2020000D03*
X11061730Y-1922500D03*
G54D22*
X4970000Y-1700000D03*
D03*
Y-1446000D03*
D03*
G54D13*
X805000Y-1742400D03*
X471500Y-1644800D03*
X602800Y-1490500D03*
X471500Y-1563700D03*
X498600Y-1492800D03*
X542800Y-840000D03*
X782700Y-639800D03*
X657700Y-338800D03*
X819200Y-490000D03*
X649400Y-137700D03*
X755100D03*
X901400Y-1740500D03*
X900500Y-1864700D03*
X976500Y-1584800D03*
X926900Y-1630700D03*
X960000Y-745600D03*
X834200Y-601600D03*
X860300Y-137100D03*
X992900Y-137300D03*
X1197700Y-2181700D03*
X1197200Y-2305600D03*
X1196600Y-2245600D03*
X1470000Y-2110000D03*
X1400000D03*
X1224300Y-1867100D03*
X1224500Y-2036200D03*
X1240000Y-1500000D03*
X1251400Y-350500D03*
X1550000Y-2192700D03*
Y-2250000D03*
Y-2307300D03*
X1630000Y-1855000D03*
X1740000Y-1402000D03*
X1564500Y-1576500D03*
X1716600Y-1580000D03*
X1812700Y-827700D03*
X1852200Y-897800D03*
X2024870Y-2127300D03*
X1943400Y-2124600D03*
X1890000Y-1970000D03*
X1979800Y-1890000D03*
X2222500Y-1979800D03*
X2162900Y-1724200D03*
X2159500Y-1277200D03*
X1893900Y-827700D03*
X2196000Y-761900D03*
X2070600Y-751700D03*
X2059960Y-803320D03*
X2462500Y-2105200D03*
X2555200Y-2042500D03*
X2369800D03*
X2572500Y-1852500D03*
X2277600Y-1692500D03*
X2591000D03*
X2262900Y-1523500D03*
X2460000Y-1154600D03*
X2306100D03*
X2255830Y-655700D03*
X2297300Y-703300D03*
X2346000Y-761900D03*
X2460000Y-470600D03*
X2648500Y-1555100D03*
X2756900Y-1370700D03*
X2625100Y-1154600D03*
X2620000Y-934200D03*
X2940000Y-741800D03*
X2803300Y-490000D03*
X2632900Y-342100D03*
X2623700Y-137700D03*
X2719500Y-137300D03*
X2823800D03*
X2951300Y-137600D03*
X3153200Y-1844100D03*
X3174500Y-1924400D03*
X3208000Y-1402000D03*
X3191000Y-1632000D03*
X3232800Y-348900D03*
X3600000Y-1834400D03*
X3381000Y-1924400D03*
X3537800Y-2016300D03*
X3556400Y-1588000D03*
X3878100Y-1792800D03*
Y-1722800D03*
X3778500Y-1982300D03*
X3778100Y-1613300D03*
X3812700Y-827700D03*
Y-930100D03*
X3893900Y-827700D03*
Y-932300D03*
X3853900Y-876800D03*
X4074900Y-1792800D03*
X4288100Y-1892800D03*
X4286100Y-1700400D03*
X4288100Y-1526000D03*
X4586700Y-1417700D03*
X4653300D03*
X4586700Y-1470700D03*
X4653300D03*
X4799700Y-1065600D03*
X4875000Y-1002700D03*
X5001400Y-1196800D03*
X4869400Y-1205500D03*
X4797100Y-1205100D03*
X4777700Y-896800D03*
X4790500Y-973600D03*
X5384100Y-2244200D03*
X5160000Y-1740000D03*
X5437300Y-1550000D03*
X5428100Y-1138300D03*
X5118000Y-1340000D03*
X5440700Y-905200D03*
X5530000Y-1487300D03*
X5656700Y-1340000D03*
X5499100Y-898700D03*
X5544450Y-926710D03*
X5779790Y-668800D03*
X5792700Y-744100D03*
X5776500Y-607710D03*
X5917300Y-2270000D03*
X5830000Y-2069800D03*
X6100000Y-2197300D03*
X5830000Y-1759400D03*
X6080000Y-1692700D03*
X6070000Y-1090000D03*
X6040000Y-870000D03*
X6070000Y-950000D03*
X5832490Y-668400D03*
X5829200Y-607690D03*
X6131900Y-226000D03*
X6048600Y-213450D03*
X6334400Y-1903900D03*
X6166600Y-1750000D03*
X6320000Y-1370000D03*
X6370000Y-280000D03*
X6212200Y-224900D03*
X6311400Y-221900D03*
X6464000Y-224700D03*
X6581200Y-2290000D03*
X6860000Y-2080000D03*
X6690000Y-2310000D03*
X6810000Y-1960000D03*
X6860000Y-2010000D03*
X6785000Y-1777700D03*
X6540000Y-1700000D03*
X6780000Y-1370000D03*
X6744000Y-1156700D03*
X6672700D03*
X6673800Y-1212100D03*
X6744000Y-1213200D03*
X6556400Y-222400D03*
X7125000Y-2253300D03*
X6910000Y-1960000D03*
X6967820Y-1778320D03*
X6980000Y-1500800D03*
X6920000Y-965000D03*
X7080000Y-442700D03*
X7012700Y-510000D03*
X7010000Y-440000D03*
X6920000Y-220000D03*
X7530000Y-1860000D03*
X7470000Y-1020000D03*
X7235000Y-597700D03*
X7694800Y-1474500D03*
X7770000Y-1420030D03*
X7700000Y-960000D03*
X7735900Y-680900D03*
X7680000Y-615000D03*
X8180000Y-2100000D03*
X8017300Y-1980000D03*
X8054500Y-1420000D03*
X8090000Y-1165000D03*
X7967700Y-1115000D03*
X8060000Y-1065000D03*
X7980000Y-1015000D03*
X8217300Y-645000D03*
Y-520000D03*
X8479200Y-2098500D03*
X8371700Y-2314300D03*
X8486200D03*
X8389800Y-2093000D03*
X8579300Y-2093400D03*
X8431500Y-2222300D03*
X8480800Y-1094600D03*
X8554400Y-1094500D03*
X8634200Y-1093600D03*
X8478900Y-1218000D03*
X8554400Y-1219700D03*
X8635200Y-1221700D03*
X8442700Y-644900D03*
X8565200Y-409100D03*
X8641200Y-410500D03*
X8442700Y-521200D03*
X8298700Y-220000D03*
X8797100Y-2090400D03*
X8687300Y-2093000D03*
X8733000Y-411000D03*
X8815000Y-410500D03*
X11061730Y-652500D03*
G54D23*
X4970000Y-1700000D03*
Y-1446000D03*
X11061730Y-1287500D03*
G54D14*
X1145000Y-1951900D03*
D03*
X1070000Y-470000D03*
D03*
X1090000Y-540000D03*
D03*
X1120000Y-470000D03*
D03*
Y-600000D03*
D03*
X1070000D03*
D03*
X1367900Y-1568100D03*
D03*
X2896500Y-2088700D03*
D03*
X2937000Y-2088800D03*
D03*
X2979700Y-2088900D03*
D03*
X3050000Y-470000D03*
D03*
X3100000D03*
D03*
X3070000Y-540000D03*
D03*
X3050000Y-600000D03*
D03*
X3100000D03*
D03*
X5029700Y-1155700D03*
D03*
X4937600Y-1201800D03*
D03*
X5310000Y-1020000D03*
D03*
X6383100Y-1967800D03*
D03*
X6530000Y-2230300D03*
D03*
X6595000Y-2005000D03*
D03*
X6780000Y-1700000D03*
D03*
X7116300Y-2132400D03*
D03*
X7115000Y-1955000D03*
D03*
X7091700Y-2055000D03*
D03*
X7190000Y-1130000D03*
D03*
X7180000Y-1015000D03*
D03*
X7179000Y-915000D03*
D03*
X7331800Y-1839300D03*
D03*
X7485000Y-1447400D03*
D03*
X7435000Y-1400000D03*
D03*
X7234900Y-1175600D03*
D03*
X7849200Y-2227600D03*
D03*
X7695000Y-2160000D03*
D03*
X7720000Y-1980000D03*
D03*
X7660000Y-2000600D03*
D03*
X7778900Y-1961200D03*
D03*
X7695000Y-1800000D03*
D03*
X7635000Y-1400000D03*
D03*
X7585000Y-1437400D03*
D03*
X7735000Y-370000D03*
D03*
X7945000Y-1955000D03*
D03*
X7990000Y-715000D03*
D03*
G54D24*
G01X-3420000Y-5600000D02*
Y3400000D01*
X27720000D01*
Y-5600000D01*
X-3420000D01*
G01X-250000Y-2500000D02*
X-1810000D01*
G01X-1792290Y-1194170D02*
X-1768660Y-1162420D01*
X-1741100Y-1146540D01*
X-1709600Y-1141250D01*
X-1670240Y-1151830D01*
X-1642670Y-1178290D01*
X-1634800Y-1210040D01*
X-1638740Y-1241800D01*
X-1654490Y-1268250D01*
X-1733230Y-1321170D01*
X-1768660Y-1358210D01*
X-1792290Y-1411140D01*
X-1800160Y-1458750D01*
X-1634800D01*
G01X-1489130Y-1411140D02*
X-1465520Y-1437590D01*
X-1437960Y-1453460D01*
X-1402520Y-1458750D01*
X-1367080Y-1448170D01*
X-1339530Y-1427010D01*
X-1319840Y-1389960D01*
X-1315910Y-1347630D01*
X-1323780Y-1305300D01*
X-1343470Y-1278830D01*
X-1371030Y-1257670D01*
X-1398580Y-1252380D01*
X-1426140Y-1257670D01*
X-1461570Y-1278830D01*
X-1449760Y-1141250D01*
X-1343470D01*
G01X-250000Y0D02*
X-1810000D01*
G01X-1560000Y-1696870D02*
Y-2500000D01*
G01X-1622500Y-2100000D02*
X-1560000Y-2500000D01*
X-1497500Y-2100000D01*
X-1622500D01*
G01X-1560000Y-903130D02*
Y0D01*
G01X-1497500Y-400000D02*
X-1560000Y0D01*
X-1622500Y-400000D01*
X-1497500D01*
G01X50000Y-2200000D02*
X-850000D01*
G01X-662500Y-1800000D02*
X-600000Y-2200000D01*
X-537500Y-1800000D01*
X-662500D01*
G01X-757480Y-1478750D02*
Y-1161250D01*
X-804720Y-1224750D01*
G01Y-1478750D02*
X-710240D01*
G01X-509450Y-1441720D02*
X-481890Y-1468170D01*
X-450400Y-1478750D01*
X-418900Y-1468170D01*
X-391340Y-1436430D01*
X-371650Y-1388790D01*
X-363780Y-1341170D01*
Y-1282960D01*
X-371650Y-1235340D01*
X-391340Y-1193000D01*
X-414960Y-1171830D01*
X-442520Y-1161250D01*
X-474020Y-1171830D01*
X-497640Y-1193000D01*
X-513390Y-1224750D01*
X-521260Y-1267090D01*
X-513390Y-1304120D01*
X-493700Y-1341170D01*
X-470080Y-1362340D01*
X-442520Y-1367630D01*
X-411030Y-1357050D01*
X-387400Y-1330590D01*
X-363780Y-1282960D01*
G01X-537500Y-700000D02*
X-600000Y-300000D01*
X-662500Y-700000D01*
X-537500D01*
G01X50000Y-300000D02*
X-850000D01*
G01X-600000Y-1716870D02*
Y-2200000D01*
G01Y-923130D02*
Y-300000D01*
G01X0Y-2500000D02*
Y0D01*
X9000000D01*
Y-2500000D01*
X0D01*
G01Y250000D02*
Y890000D01*
G01X4266290Y640000D02*
X0D01*
G01X400000Y702500D02*
X0Y640000D01*
X400000Y577500D01*
Y702500D01*
G01X4555590Y518280D02*
X4583150Y491830D01*
X4614640Y481250D01*
X4646140Y491830D01*
X4673700Y523570D01*
X4693390Y571210D01*
X4701260Y618830D01*
Y677040D01*
X4693390Y724660D01*
X4673700Y767000D01*
X4650080Y788170D01*
X4622520Y798750D01*
X4591020Y788170D01*
X4567400Y767000D01*
X4551650Y735250D01*
X4543780Y692910D01*
X4551650Y655880D01*
X4571340Y618830D01*
X4594960Y597660D01*
X4622520Y592370D01*
X4654010Y602950D01*
X4677640Y629410D01*
X4701260Y677040D01*
G01X4937480Y798750D02*
X4905980Y788170D01*
X4882360Y761710D01*
X4866610Y729960D01*
X4854800Y687620D01*
X4850870Y640000D01*
X4854800Y592370D01*
X4866610Y550040D01*
X4882360Y518280D01*
X4905980Y491830D01*
X4937480Y481250D01*
X4968970Y491830D01*
X4992600Y518280D01*
X5008350Y550040D01*
X5020160Y592370D01*
X5024090Y640000D01*
X5020160Y687620D01*
X5008350Y729960D01*
X4992600Y761710D01*
X4968970Y788170D01*
X4937480Y798750D01*
G01X5293710Y640000D02*
X9000000D01*
G01X8600000Y577500D02*
X9000000Y640000D01*
X8600000Y702500D01*
Y577500D01*
G01X9000000Y250000D02*
Y890000D01*
G01X9920000Y-4145000D02*
Y2220000D01*
X22518400D01*
Y-4145000D01*
X9920000D01*
G01Y-3510000D02*
X22518400D01*
G01X9920000Y-2875000D02*
X22518400D01*
G01X9920000Y-2240000D02*
X22518400D01*
G01X9920000Y-1605000D02*
X22518400D01*
G01X9920000Y-970000D02*
X22518400D01*
G01X9920000Y-335000D02*
X22518400D01*
G01X9920000Y300000D02*
X22518400D01*
G01X9920000Y935000D02*
X22518400D01*
G01X9920000Y1570000D02*
X22518400D01*
G01X10199520Y458750D02*
Y776250D01*
X10349140D01*
G01X10294010Y622800D02*
X10199520D01*
G01X10542050Y776250D02*
X10636530D01*
G01X10589290D02*
Y458750D01*
G01X10542050D02*
X10636530D01*
G01X10927870Y617500D02*
X11006620D01*
Y522250D01*
X10982990Y490490D01*
X10955430Y469330D01*
X10916060Y458750D01*
X10876690Y469330D01*
X10849130Y490490D01*
X10825510Y522250D01*
X10809760Y559290D01*
X10801880Y601620D01*
Y638670D01*
X10809760Y670410D01*
X10825510Y707460D01*
X10849130Y739210D01*
X10872750Y760370D01*
X10904250Y776250D01*
X10931810D01*
X10963300Y765670D01*
X10986930Y744500D01*
G01X11132600Y776250D02*
Y548710D01*
X11148340Y501070D01*
X11179840Y469330D01*
X11219210Y458750D01*
X11258580Y469330D01*
X11290080Y501070D01*
X11305820Y548710D01*
Y776250D01*
G01X11455430Y458750D02*
Y776250D01*
X11553850D01*
X11585350Y760370D01*
X11605040Y739210D01*
X11612910Y696870D01*
X11605040Y654540D01*
X11581410Y628090D01*
X11553850Y612200D01*
X11455430D01*
G01X11553850D02*
X11612910Y458750D01*
G01X11927870D02*
X11770390D01*
Y776250D01*
X11927870D01*
G01X11864880Y622800D02*
X11770390D01*
G01X11868810Y1093750D02*
X11967240Y1411250D01*
X12065670Y1093750D01*
G01X12030230Y1204870D02*
X11904240D01*
G01X12203460Y1411250D02*
Y1093750D01*
X12360940D01*
G01X12518420Y1411250D02*
Y1093750D01*
X12675900D01*
G01X13140470Y1411250D02*
Y1183710D01*
X13156210Y1136070D01*
X13187710Y1104330D01*
X13227080Y1093750D01*
X13266450Y1104330D01*
X13297950Y1136070D01*
X13313690Y1183710D01*
Y1411250D01*
G01X13451490Y1093750D02*
Y1411250D01*
X13632590Y1093750D01*
Y1411250D01*
G01X13809760D02*
X13904240D01*
G01X13857000D02*
Y1093750D01*
G01X13809760D02*
X13904240D01*
G01X14171960Y1411250D02*
Y1093750D01*
G01X14081410Y1411250D02*
X14262510D01*
G01X14404240Y1136070D02*
X14435740Y1109620D01*
X14471170Y1093750D01*
X14502670D01*
X14534160Y1109620D01*
X14557790Y1136070D01*
X14569600Y1173130D01*
X14561730Y1210160D01*
X14542040Y1241910D01*
X14506600Y1263090D01*
X14459360Y1273670D01*
X14431800Y1294830D01*
X14419990Y1331870D01*
X14427870Y1368920D01*
X14447550Y1395370D01*
X14475110Y1411250D01*
X14502670D01*
X14530230Y1400670D01*
X14553850Y1374210D01*
G01X15018410Y1093750D02*
X15116840Y1411250D01*
X15215270Y1093750D01*
G01X15179830Y1204870D02*
X15053840D01*
G01X15353060Y1093750D02*
Y1411250D01*
X15451480D01*
X15482980Y1395370D01*
X15502670Y1374210D01*
X15510540Y1331870D01*
X15502670Y1289540D01*
X15479040Y1263090D01*
X15451480Y1247200D01*
X15353060D01*
G01X15451480D02*
X15510540Y1093750D01*
G01X15825500D02*
X15668020D01*
Y1411250D01*
X15825500D01*
G01X15762510Y1257800D02*
X15668020D01*
G01X16329440Y1411250D02*
X16423920D01*
G01X16376680D02*
Y1093750D01*
G01X16329440D02*
X16423920D01*
G01X16601090D02*
Y1411250D01*
X16782190Y1093750D01*
Y1411250D01*
G01X17219190Y1093750D02*
Y1411250D01*
X17321560Y1146670D01*
X17423930Y1411250D01*
Y1093750D01*
G01X17589280Y1411250D02*
X17683760D01*
G01X17636520D02*
Y1093750D01*
G01X17589280D02*
X17683760D01*
G01X17872740Y1411250D02*
Y1093750D01*
X18030220D01*
G01X18187700Y1411250D02*
Y1093750D01*
X18345180D01*
G01X18534160Y1411250D02*
X18628640D01*
G01X18581400D02*
Y1093750D01*
G01X18534160D02*
X18628640D01*
G01X18793990D02*
Y1411250D01*
X18896360Y1146670D01*
X18998730Y1411250D01*
Y1093750D01*
G01X19290060D02*
X19132580D01*
Y1411250D01*
X19290060D01*
G01X19227070Y1257800D02*
X19132580D01*
G01X19526280Y1411250D02*
Y1093750D01*
G01X19435730Y1411250D02*
X19616830D01*
G01X19919980Y1093750D02*
X19762500D01*
Y1411250D01*
X19919980D01*
G01X19856990Y1257800D02*
X19762500D01*
G01X20077460Y1093750D02*
Y1411250D01*
X20175880D01*
X20207380Y1395370D01*
X20227070Y1374210D01*
X20234940Y1331870D01*
X20227070Y1289540D01*
X20203440Y1263090D01*
X20175880Y1247200D01*
X20077460D01*
G01X20175880D02*
X20234940Y1093750D01*
G01X20388480Y1136070D02*
X20419980Y1109620D01*
X20455410Y1093750D01*
X20486910D01*
X20518400Y1109620D01*
X20542030Y1136070D01*
X20553840Y1173130D01*
X20545970Y1210160D01*
X20526280Y1241910D01*
X20490840Y1263090D01*
X20443600Y1273670D01*
X20416040Y1294830D01*
X20404230Y1331870D01*
X20412110Y1368920D01*
X20431790Y1395370D01*
X20459350Y1411250D01*
X20486910D01*
X20514470Y1400670D01*
X20538090Y1374210D01*
G01X12195590Y1743750D02*
Y2061250D01*
X12274320D01*
X12305820Y2045370D01*
X12329440Y2024210D01*
X12349130Y1992460D01*
X12364880Y1955410D01*
X12368810Y1902500D01*
X12364880Y1849580D01*
X12349130Y1812540D01*
X12329440Y1780780D01*
X12305820Y1759620D01*
X12274320Y1743750D01*
X12195590D01*
G01X12518420D02*
Y2061250D01*
X12616840D01*
X12648340Y2045370D01*
X12668030Y2024210D01*
X12675900Y1981870D01*
X12668030Y1939540D01*
X12644400Y1913090D01*
X12616840Y1897200D01*
X12518420D01*
G01X12616840D02*
X12675900Y1743750D01*
G01X12864880Y2061250D02*
X12959360D01*
G01X12912120D02*
Y1743750D01*
G01X12864880D02*
X12959360D01*
G01X13148340Y2061250D02*
Y1743750D01*
X13305820D01*
G01X13463300Y2061250D02*
Y1743750D01*
X13620780D01*
G01X14258570Y2034790D02*
X14234950Y2050670D01*
X14207400Y2061250D01*
X14175900D01*
X14140460Y2045370D01*
X14112910Y2018920D01*
X14093220Y1987160D01*
X14077470Y1934250D01*
X14073530Y1886620D01*
X14081410Y1839000D01*
X14093220Y1807250D01*
X14116840Y1775490D01*
X14144400Y1754330D01*
X14171960Y1743750D01*
X14199520D01*
X14227080Y1754330D01*
X14250700Y1770200D01*
X14270390Y1791360D01*
G01X14404240Y1743750D02*
Y2061250D01*
G01X14569600D02*
Y1743750D01*
G01Y1902500D02*
X14404240D01*
G01X14703450Y1743750D02*
X14801880Y2061250D01*
X14900310Y1743750D01*
G01X14864870Y1854870D02*
X14738880D01*
G01X15038100Y1743750D02*
Y2061250D01*
X15136520D01*
X15168020Y2045370D01*
X15187710Y2024210D01*
X15195580Y1981870D01*
X15187710Y1939540D01*
X15164080Y1913090D01*
X15136520Y1897200D01*
X15038100D01*
G01X15136520D02*
X15195580Y1743750D01*
G01X15431800Y2061250D02*
Y1743750D01*
G01X15341250Y2061250D02*
X15522350D01*
G01X15746760Y1733170D02*
X15738880Y1738460D01*
Y1749040D01*
X15746760Y1754330D01*
X15754640Y1749040D01*
Y1738460D01*
X15746760Y1733170D01*
G01Y1876030D02*
X15738880Y1881330D01*
Y1891910D01*
X15746760Y1897200D01*
X15754640Y1891910D01*
Y1881330D01*
X15746760Y1876030D01*
G01X16376680Y2061250D02*
Y1743750D01*
G01X16286130Y2061250D02*
X16467230D01*
G01X16691640Y1743750D02*
X16660140Y1749040D01*
X16632590Y1770200D01*
X16608960Y1801960D01*
X16593210Y1839000D01*
X16585340Y1881330D01*
Y1923670D01*
X16593210Y1966000D01*
X16608960Y2003040D01*
X16632590Y2034790D01*
X16660140Y2055960D01*
X16691640Y2061250D01*
X16723130Y2055960D01*
X16750690Y2034790D01*
X16774320Y2003040D01*
X16790070Y1966000D01*
X16797940Y1923670D01*
Y1881330D01*
X16790070Y1839000D01*
X16774320Y1801960D01*
X16750690Y1770200D01*
X16723130Y1749040D01*
X16691640Y1743750D01*
G01X16927860D02*
Y2061250D01*
X17022350D01*
X17053840Y2045370D01*
X17077470Y2008330D01*
X17085340Y1966000D01*
X17077470Y1923670D01*
X17057780Y1891910D01*
X17022350Y1876030D01*
X16927860D01*
G01X17636520Y2061250D02*
Y1743750D01*
G01X17581400Y1955410D02*
X17691640D01*
G01X17951480Y1743750D02*
X17927860Y1749040D01*
X17904240Y1770200D01*
X17888480Y1807250D01*
X17880610Y1849580D01*
X17888480Y1891910D01*
X17904240Y1928960D01*
X17927860Y1950120D01*
X17951480Y1955410D01*
X17975100Y1950120D01*
X17998720Y1928960D01*
X18014470Y1891910D01*
X18018410Y1849580D01*
X18014470Y1807250D01*
X17998720Y1770200D01*
X17975100Y1749040D01*
X17951480Y1743750D01*
G01X18612890Y1913090D02*
X18628640Y1928960D01*
X18640450Y1955410D01*
X18648330Y1992460D01*
X18640450Y2024210D01*
X18624710Y2045370D01*
X18597150Y2061250D01*
X18490850D01*
Y1743750D01*
X18620770D01*
X18648330Y1764910D01*
X18664080Y1796670D01*
X18671950Y1833710D01*
X18664080Y1870740D01*
X18640450Y1902500D01*
X18612890Y1913090D01*
X18490850D01*
G01X18896360Y1743750D02*
X18864860Y1749040D01*
X18837310Y1770200D01*
X18813680Y1801960D01*
X18797930Y1839000D01*
X18790060Y1881330D01*
Y1923670D01*
X18797930Y1966000D01*
X18813680Y2003040D01*
X18837310Y2034790D01*
X18864860Y2055960D01*
X18896360Y2061250D01*
X18927850Y2055960D01*
X18955410Y2034790D01*
X18979040Y2003040D01*
X18994790Y1966000D01*
X19002660Y1923670D01*
Y1881330D01*
X18994790Y1839000D01*
X18979040Y1801960D01*
X18955410Y1770200D01*
X18927850Y1749040D01*
X18896360Y1743750D01*
G01X19211320Y2061250D02*
Y1743750D01*
G01X19120770Y2061250D02*
X19301870D01*
G01X19526280D02*
Y1743750D01*
G01X19435730Y2061250D02*
X19616830D01*
G01X19841240Y1743750D02*
X19809740Y1749040D01*
X19782190Y1770200D01*
X19758560Y1801960D01*
X19742810Y1839000D01*
X19734940Y1881330D01*
Y1923670D01*
X19742810Y1966000D01*
X19758560Y2003040D01*
X19782190Y2034790D01*
X19809740Y2055960D01*
X19841240Y2061250D01*
X19872730Y2055960D01*
X19900290Y2034790D01*
X19923920Y2003040D01*
X19939670Y1966000D01*
X19947540Y1923670D01*
Y1881330D01*
X19939670Y1839000D01*
X19923920Y1801960D01*
X19900290Y1770200D01*
X19872730Y1749040D01*
X19841240Y1743750D01*
G01X20053830D02*
Y2061250D01*
X20156200Y1796670D01*
X20258570Y2061250D01*
Y1743750D01*
G01X12203460Y935000D02*
Y-4145000D01*
G01X12797940Y458750D02*
Y776250D01*
X12947560D01*
G01X12892430Y622800D02*
X12797940D01*
G01X13140470Y776250D02*
X13234950D01*
G01X13187710D02*
Y458750D01*
G01X13140470D02*
X13234950D01*
G01X13412120D02*
Y776250D01*
X13593220Y458750D01*
Y776250D01*
G01X13770390D02*
X13864870D01*
G01X13817630D02*
Y458750D01*
G01X13770390D02*
X13864870D01*
G01X14049910Y501070D02*
X14081410Y474620D01*
X14116840Y458750D01*
X14148340D01*
X14179830Y474620D01*
X14203460Y501070D01*
X14215270Y538130D01*
X14207400Y575160D01*
X14187710Y606910D01*
X14152270Y628090D01*
X14105030Y638670D01*
X14077470Y659830D01*
X14065660Y696870D01*
X14073540Y733920D01*
X14093220Y760370D01*
X14120780Y776250D01*
X14148340D01*
X14175900Y765670D01*
X14199520Y739210D01*
G01X14364870Y458750D02*
Y776250D01*
G01X14530230D02*
Y458750D01*
G01Y617500D02*
X14364870D01*
G01X14841250Y458750D02*
X14683770D01*
Y776250D01*
X14841250D01*
G01X14778260Y622800D02*
X14683770D01*
G01X14990860Y458750D02*
Y776250D01*
X15069590D01*
X15101090Y760370D01*
X15124710Y739210D01*
X15144400Y707460D01*
X15160150Y670410D01*
X15164080Y617500D01*
X15160150Y564580D01*
X15144400Y527540D01*
X15124710Y495780D01*
X15101090Y474620D01*
X15069590Y458750D01*
X14990860D01*
G01X15274320Y352920D02*
X15510540D01*
G01X15624710Y501070D02*
X15656210Y474620D01*
X15691640Y458750D01*
X15723140D01*
X15754630Y474620D01*
X15778260Y501070D01*
X15790070Y538130D01*
X15782200Y575160D01*
X15762510Y606910D01*
X15727070Y628090D01*
X15679830Y638670D01*
X15652270Y659830D01*
X15640460Y696870D01*
X15648340Y733920D01*
X15668020Y760370D01*
X15695580Y776250D01*
X15723140D01*
X15750700Y765670D01*
X15774320Y739210D01*
G01X15975110Y776250D02*
X16069590D01*
G01X16022350D02*
Y458750D01*
G01X15975110D02*
X16069590D01*
G01X16262500Y776250D02*
X16412120D01*
X16262500Y458750D01*
X16412120D01*
G01X16731010D02*
X16573530D01*
Y776250D01*
X16731010D01*
G01X16668020Y622800D02*
X16573530D01*
G01X14290070Y141250D02*
X14258570Y130670D01*
X14234950Y104210D01*
X14219200Y72460D01*
X14207390Y30120D01*
X14203460Y-17500D01*
X14207390Y-65130D01*
X14219200Y-107460D01*
X14234950Y-139220D01*
X14258570Y-165670D01*
X14290070Y-176250D01*
X14321560Y-165670D01*
X14345190Y-139220D01*
X14360940Y-107460D01*
X14372750Y-65130D01*
X14376680Y-17500D01*
X14372750Y30120D01*
X14360940Y72460D01*
X14345190Y104210D01*
X14321560Y130670D01*
X14290070Y141250D01*
G01X14605030Y-186830D02*
X14597150Y-181540D01*
Y-170960D01*
X14605030Y-165670D01*
X14612910Y-170960D01*
Y-181540D01*
X14605030Y-186830D01*
G01X14919990Y-176250D02*
Y141250D01*
X14872750Y77750D01*
G01Y-176250D02*
X14967230D01*
G01X15148340Y-128640D02*
X15171950Y-155090D01*
X15199510Y-170960D01*
X15234950Y-176250D01*
X15270390Y-165670D01*
X15297940Y-144510D01*
X15317630Y-107460D01*
X15321560Y-65130D01*
X15313690Y-22800D01*
X15294000Y3670D01*
X15266440Y24830D01*
X15238890Y30120D01*
X15211330Y24830D01*
X15175900Y3670D01*
X15187710Y141250D01*
X15294000D01*
G01X14360940Y-3922750D02*
X14384550Y-3959800D01*
X14416050Y-3980960D01*
X14451490Y-3986250D01*
X14482990Y-3980960D01*
X14514480Y-3954510D01*
X14534160Y-3922750D01*
X14538100Y-3891000D01*
X14530230Y-3853970D01*
X14502670Y-3827500D01*
X14475110Y-3816910D01*
X14439670D01*
G01X14475110D02*
X14498730Y-3801040D01*
X14518420Y-3774590D01*
X14526290Y-3742840D01*
X14518420Y-3711080D01*
X14498730Y-3684630D01*
X14463300Y-3668750D01*
X14427870Y-3674040D01*
X14392430Y-3695210D01*
G01X14762510Y-3996830D02*
X14754630Y-3991540D01*
Y-3980960D01*
X14762510Y-3975670D01*
X14770390Y-3980960D01*
Y-3991540D01*
X14762510Y-3996830D01*
G01X15077470Y-3668750D02*
X15045970Y-3679330D01*
X15022350Y-3705790D01*
X15006600Y-3737540D01*
X14994790Y-3779880D01*
X14990860Y-3827500D01*
X14994790Y-3875130D01*
X15006600Y-3917460D01*
X15022350Y-3949220D01*
X15045970Y-3975670D01*
X15077470Y-3986250D01*
X15108960Y-3975670D01*
X15132590Y-3949220D01*
X15148340Y-3917460D01*
X15160150Y-3875130D01*
X15164080Y-3827500D01*
X15160150Y-3779880D01*
X15148340Y-3737540D01*
X15132590Y-3705790D01*
X15108960Y-3679330D01*
X15077470Y-3668750D01*
G01X14447550Y-3351250D02*
Y-3033750D01*
X14400310Y-3097250D01*
G01Y-3351250D02*
X14494790D01*
G01X14762510Y-3361830D02*
X14754630Y-3356540D01*
Y-3345960D01*
X14762510Y-3340670D01*
X14770390Y-3345960D01*
Y-3356540D01*
X14762510Y-3361830D01*
G01X15077470Y-3351250D02*
X15105030Y-3345960D01*
X15136520Y-3330090D01*
X15156210Y-3303640D01*
X15164080Y-3266580D01*
X15156210Y-3229550D01*
X15132590Y-3197800D01*
X15097150Y-3181910D01*
X15057790D01*
X15034160Y-3171330D01*
X15014470Y-3144880D01*
X15006600Y-3107840D01*
X15018420Y-3070790D01*
X15045970Y-3044330D01*
X15077470Y-3033750D01*
X15108960Y-3044330D01*
X15136520Y-3070790D01*
X15148340Y-3107840D01*
X15140460Y-3144880D01*
X15120780Y-3171330D01*
X15097150Y-3181910D01*
X15057790D01*
X15022350Y-3197800D01*
X14998730Y-3229550D01*
X14990860Y-3266580D01*
X14998730Y-3303640D01*
X15018420Y-3330090D01*
X15049910Y-3345960D01*
X15077470Y-3351250D01*
G01X14447550Y-2716250D02*
Y-2398750D01*
X14400310Y-2462250D01*
G01Y-2716250D02*
X14494790D01*
G01X14762510Y-2726830D02*
X14754630Y-2721540D01*
Y-2710960D01*
X14762510Y-2705670D01*
X14770390Y-2710960D01*
Y-2721540D01*
X14762510Y-2726830D01*
G01X15002660Y-2451670D02*
X15026290Y-2419920D01*
X15053850Y-2404040D01*
X15085350Y-2398750D01*
X15124710Y-2409330D01*
X15152280Y-2435790D01*
X15160150Y-2467540D01*
X15156210Y-2499300D01*
X15140460Y-2525750D01*
X15061720Y-2578670D01*
X15026290Y-2615710D01*
X15002660Y-2668640D01*
X14994790Y-2716250D01*
X15160150D01*
G01X14447550Y-2081250D02*
Y-1763750D01*
X14400310Y-1827250D01*
G01Y-2081250D02*
X14494790D01*
G01X14762510Y-2091830D02*
X14754630Y-2086540D01*
Y-2075960D01*
X14762510Y-2070670D01*
X14770390Y-2075960D01*
Y-2086540D01*
X14762510Y-2091830D01*
G01X15077470Y-1763750D02*
X15045970Y-1774330D01*
X15022350Y-1800790D01*
X15006600Y-1832540D01*
X14994790Y-1874880D01*
X14990860Y-1922500D01*
X14994790Y-1970130D01*
X15006600Y-2012460D01*
X15022350Y-2044220D01*
X15045970Y-2070670D01*
X15077470Y-2081250D01*
X15108960Y-2070670D01*
X15132590Y-2044220D01*
X15148340Y-2012460D01*
X15160150Y-1970130D01*
X15164080Y-1922500D01*
X15160150Y-1874880D01*
X15148340Y-1832540D01*
X15132590Y-1800790D01*
X15108960Y-1774330D01*
X15077470Y-1763750D01*
G01X14447550Y-1128750D02*
X14416050Y-1139330D01*
X14392430Y-1165790D01*
X14376680Y-1197540D01*
X14364870Y-1239880D01*
X14360940Y-1287500D01*
X14364870Y-1335130D01*
X14376680Y-1377460D01*
X14392430Y-1409220D01*
X14416050Y-1435670D01*
X14447550Y-1446250D01*
X14479040Y-1435670D01*
X14502670Y-1409220D01*
X14518420Y-1377460D01*
X14530230Y-1335130D01*
X14534160Y-1287500D01*
X14530230Y-1239880D01*
X14518420Y-1197540D01*
X14502670Y-1165790D01*
X14479040Y-1139330D01*
X14447550Y-1128750D01*
G01X14762510Y-1456830D02*
X14754630Y-1451540D01*
Y-1440960D01*
X14762510Y-1435670D01*
X14770390Y-1440960D01*
Y-1451540D01*
X14762510Y-1456830D01*
G01X15010540Y-1409220D02*
X15038100Y-1435670D01*
X15069590Y-1446250D01*
X15101090Y-1435670D01*
X15128650Y-1403930D01*
X15148340Y-1356290D01*
X15156210Y-1308670D01*
Y-1250460D01*
X15148340Y-1202840D01*
X15128650Y-1160500D01*
X15105030Y-1139330D01*
X15077470Y-1128750D01*
X15045970Y-1139330D01*
X15022350Y-1160500D01*
X15006600Y-1192250D01*
X14998730Y-1234590D01*
X15006600Y-1271620D01*
X15026290Y-1308670D01*
X15049910Y-1329840D01*
X15077470Y-1335130D01*
X15108960Y-1324550D01*
X15132590Y-1298090D01*
X15156210Y-1250460D01*
G01X14447550Y-493750D02*
X14416050Y-504330D01*
X14392430Y-530790D01*
X14376680Y-562540D01*
X14364870Y-604880D01*
X14360940Y-652500D01*
X14364870Y-700130D01*
X14376680Y-742460D01*
X14392430Y-774220D01*
X14416050Y-800670D01*
X14447550Y-811250D01*
X14479040Y-800670D01*
X14502670Y-774220D01*
X14518420Y-742460D01*
X14530230Y-700130D01*
X14534160Y-652500D01*
X14530230Y-604880D01*
X14518420Y-562540D01*
X14502670Y-530790D01*
X14479040Y-504330D01*
X14447550Y-493750D01*
G01X14762510Y-821830D02*
X14754630Y-816540D01*
Y-805960D01*
X14762510Y-800670D01*
X14770390Y-805960D01*
Y-816540D01*
X14762510Y-821830D01*
G01X15002660Y-546670D02*
X15026290Y-514920D01*
X15053850Y-499040D01*
X15085350Y-493750D01*
X15124710Y-504330D01*
X15152280Y-530790D01*
X15160150Y-562540D01*
X15156210Y-594300D01*
X15140460Y-620750D01*
X15061720Y-673670D01*
X15026290Y-710710D01*
X15002660Y-763640D01*
X14994790Y-811250D01*
X15160150D01*
G01X17427860Y-3986250D02*
Y-3668750D01*
X17608960Y-3986250D01*
Y-3668750D01*
G01X17833370Y-3986250D02*
X17801870Y-3980960D01*
X17774320Y-3959800D01*
X17750690Y-3928040D01*
X17734940Y-3891000D01*
X17727070Y-3848670D01*
Y-3806330D01*
X17734940Y-3764000D01*
X17750690Y-3726960D01*
X17774320Y-3695210D01*
X17801870Y-3674040D01*
X17833370Y-3668750D01*
X17864860Y-3674040D01*
X17892420Y-3695210D01*
X17916050Y-3726960D01*
X17931800Y-3764000D01*
X17939670Y-3806330D01*
Y-3848670D01*
X17931800Y-3891000D01*
X17916050Y-3928040D01*
X17892420Y-3959800D01*
X17864860Y-3980960D01*
X17833370Y-3986250D01*
G01X18057780D02*
Y-3668750D01*
X18238880Y-3986250D01*
Y-3668750D01*
G01X18412110Y-3880420D02*
X18514470D01*
G01X18699510Y-3986250D02*
Y-3668750D01*
X18794000D01*
X18825490Y-3684630D01*
X18849120Y-3721670D01*
X18856990Y-3764000D01*
X18849120Y-3806330D01*
X18829430Y-3838090D01*
X18794000Y-3853970D01*
X18699510D01*
G01X19014470Y-3668750D02*
Y-3986250D01*
X19171950D01*
G01X19309740D02*
X19408170Y-3668750D01*
X19506600Y-3986250D01*
G01X19471160Y-3875130D02*
X19345170D01*
G01X19723130Y-3668750D02*
Y-3986250D01*
G01X19632580Y-3668750D02*
X19813680D01*
G01X20116830Y-3986250D02*
X19959350D01*
Y-3668750D01*
X20116830D01*
G01X20053840Y-3822200D02*
X19959350D01*
G01X20266440Y-3986250D02*
Y-3668750D01*
X20345170D01*
X20376670Y-3684630D01*
X20400290Y-3705790D01*
X20419980Y-3737540D01*
X20435730Y-3774590D01*
X20439660Y-3827500D01*
X20435730Y-3880420D01*
X20419980Y-3917460D01*
X20400290Y-3949220D01*
X20376670Y-3970380D01*
X20345170Y-3986250D01*
X20266440D01*
G01X17321560Y935000D02*
Y-4145000D01*
G01X18069590Y-3351250D02*
Y-3033750D01*
X18164080D01*
X18195570Y-3049630D01*
X18219200Y-3086670D01*
X18227070Y-3129000D01*
X18219200Y-3171330D01*
X18199510Y-3203090D01*
X18164080Y-3218970D01*
X18069590D01*
G01X18384550Y-3033750D02*
Y-3351250D01*
X18542030D01*
G01X18679820D02*
X18778250Y-3033750D01*
X18876680Y-3351250D01*
G01X18841240Y-3240130D02*
X18715250D01*
G01X19093210Y-3033750D02*
Y-3351250D01*
G01X19002660Y-3033750D02*
X19183760D01*
G01X19486910Y-3351250D02*
X19329430D01*
Y-3033750D01*
X19486910D01*
G01X19423920Y-3187200D02*
X19329430D01*
G01X19636520Y-3351250D02*
Y-3033750D01*
X19715250D01*
X19746750Y-3049630D01*
X19770370Y-3070790D01*
X19790060Y-3102540D01*
X19805810Y-3139590D01*
X19809740Y-3192500D01*
X19805810Y-3245420D01*
X19790060Y-3282460D01*
X19770370Y-3314220D01*
X19746750Y-3335380D01*
X19715250Y-3351250D01*
X19636520D01*
G01X18069590Y-2716250D02*
Y-2398750D01*
X18164080D01*
X18195570Y-2414630D01*
X18219200Y-2451670D01*
X18227070Y-2494000D01*
X18219200Y-2536330D01*
X18199510Y-2568090D01*
X18164080Y-2583970D01*
X18069590D01*
G01X18384550Y-2398750D02*
Y-2716250D01*
X18542030D01*
G01X18679820D02*
X18778250Y-2398750D01*
X18876680Y-2716250D01*
G01X18841240Y-2605130D02*
X18715250D01*
G01X19093210Y-2398750D02*
Y-2716250D01*
G01X19002660Y-2398750D02*
X19183760D01*
G01X19486910Y-2716250D02*
X19329430D01*
Y-2398750D01*
X19486910D01*
G01X19423920Y-2552200D02*
X19329430D01*
G01X19636520Y-2716250D02*
Y-2398750D01*
X19715250D01*
X19746750Y-2414630D01*
X19770370Y-2435790D01*
X19790060Y-2467540D01*
X19805810Y-2504590D01*
X19809740Y-2557500D01*
X19805810Y-2610420D01*
X19790060Y-2647460D01*
X19770370Y-2679220D01*
X19746750Y-2700380D01*
X19715250Y-2716250D01*
X19636520D01*
G01X18069590Y-2081250D02*
Y-1763750D01*
X18164080D01*
X18195570Y-1779630D01*
X18219200Y-1816670D01*
X18227070Y-1859000D01*
X18219200Y-1901330D01*
X18199510Y-1933090D01*
X18164080Y-1948970D01*
X18069590D01*
G01X18384550Y-1763750D02*
Y-2081250D01*
X18542030D01*
G01X18679820D02*
X18778250Y-1763750D01*
X18876680Y-2081250D01*
G01X18841240Y-1970130D02*
X18715250D01*
G01X19093210Y-1763750D02*
Y-2081250D01*
G01X19002660Y-1763750D02*
X19183760D01*
G01X19486910Y-2081250D02*
X19329430D01*
Y-1763750D01*
X19486910D01*
G01X19423920Y-1917200D02*
X19329430D01*
G01X19636520Y-2081250D02*
Y-1763750D01*
X19715250D01*
X19746750Y-1779630D01*
X19770370Y-1800790D01*
X19790060Y-1832540D01*
X19805810Y-1869590D01*
X19809740Y-1922500D01*
X19805810Y-1975420D01*
X19790060Y-2012460D01*
X19770370Y-2044220D01*
X19746750Y-2065380D01*
X19715250Y-2081250D01*
X19636520D01*
G01X18069590Y-1446250D02*
Y-1128750D01*
X18164080D01*
X18195570Y-1144630D01*
X18219200Y-1181670D01*
X18227070Y-1224000D01*
X18219200Y-1266330D01*
X18199510Y-1298090D01*
X18164080Y-1313970D01*
X18069590D01*
G01X18384550Y-1128750D02*
Y-1446250D01*
X18542030D01*
G01X18679820D02*
X18778250Y-1128750D01*
X18876680Y-1446250D01*
G01X18841240Y-1335130D02*
X18715250D01*
G01X19093210Y-1128750D02*
Y-1446250D01*
G01X19002660Y-1128750D02*
X19183760D01*
G01X19486910Y-1446250D02*
X19329430D01*
Y-1128750D01*
X19486910D01*
G01X19423920Y-1282200D02*
X19329430D01*
G01X19636520Y-1446250D02*
Y-1128750D01*
X19715250D01*
X19746750Y-1144630D01*
X19770370Y-1165790D01*
X19790060Y-1197540D01*
X19805810Y-1234590D01*
X19809740Y-1287500D01*
X19805810Y-1340420D01*
X19790060Y-1377460D01*
X19770370Y-1409220D01*
X19746750Y-1430380D01*
X19715250Y-1446250D01*
X19636520D01*
G01X18069590Y-811250D02*
Y-493750D01*
X18164080D01*
X18195570Y-509630D01*
X18219200Y-546670D01*
X18227070Y-589000D01*
X18219200Y-631330D01*
X18199510Y-663090D01*
X18164080Y-678970D01*
X18069590D01*
G01X18384550Y-493750D02*
Y-811250D01*
X18542030D01*
G01X18679820D02*
X18778250Y-493750D01*
X18876680Y-811250D01*
G01X18841240Y-700130D02*
X18715250D01*
G01X19093210Y-493750D02*
Y-811250D01*
G01X19002660Y-493750D02*
X19183760D01*
G01X19486910Y-811250D02*
X19329430D01*
Y-493750D01*
X19486910D01*
G01X19423920Y-647200D02*
X19329430D01*
G01X19636520Y-811250D02*
Y-493750D01*
X19715250D01*
X19746750Y-509630D01*
X19770370Y-530790D01*
X19790060Y-562540D01*
X19805810Y-599590D01*
X19809740Y-652500D01*
X19805810Y-705420D01*
X19790060Y-742460D01*
X19770370Y-774220D01*
X19746750Y-795380D01*
X19715250Y-811250D01*
X19636520D01*
G01X18069590Y-176250D02*
Y141250D01*
X18164080D01*
X18195570Y125370D01*
X18219200Y88330D01*
X18227070Y46000D01*
X18219200Y3670D01*
X18199510Y-28090D01*
X18164080Y-43970D01*
X18069590D01*
G01X18384550Y141250D02*
Y-176250D01*
X18542030D01*
G01X18679820D02*
X18778250Y141250D01*
X18876680Y-176250D01*
G01X18841240Y-65130D02*
X18715250D01*
G01X19093210Y141250D02*
Y-176250D01*
G01X19002660Y141250D02*
X19183760D01*
G01X19486910Y-176250D02*
X19329430D01*
Y141250D01*
X19486910D01*
G01X19423920Y-12200D02*
X19329430D01*
G01X19636520Y-176250D02*
Y141250D01*
X19715250D01*
X19746750Y125370D01*
X19770370Y104210D01*
X19790060Y72460D01*
X19805810Y35410D01*
X19809740Y-17500D01*
X19805810Y-70420D01*
X19790060Y-107460D01*
X19770370Y-139220D01*
X19746750Y-160380D01*
X19715250Y-176250D01*
X19636520D01*
G01X18069590Y458750D02*
Y776250D01*
X18164080D01*
X18195570Y760370D01*
X18219200Y723330D01*
X18227070Y681000D01*
X18219200Y638670D01*
X18199510Y606910D01*
X18164080Y591030D01*
X18069590D01*
G01X18384550Y776250D02*
Y458750D01*
X18542030D01*
G01X18679820D02*
X18778250Y776250D01*
X18876680Y458750D01*
G01X18841240Y569870D02*
X18715250D01*
G01X19093210Y776250D02*
Y458750D01*
G01X19002660Y776250D02*
X19183760D01*
G01X19486910Y458750D02*
X19329430D01*
Y776250D01*
X19486910D01*
G01X19423920Y622800D02*
X19329430D01*
G01X19636520Y458750D02*
Y776250D01*
X19715250D01*
X19746750Y760370D01*
X19770370Y739210D01*
X19790060Y707460D01*
X19805810Y670410D01*
X19809740Y617500D01*
X19805810Y564580D01*
X19790060Y527540D01*
X19770370Y495780D01*
X19746750Y474620D01*
X19715250Y458750D01*
X19636520D01*
G01X20549900Y935000D02*
Y-4145000D01*
G01X21447540Y-3922750D02*
X21471150Y-3959800D01*
X21502650Y-3980960D01*
X21538090Y-3986250D01*
X21569590Y-3980960D01*
X21601080Y-3954510D01*
X21620760Y-3922750D01*
X21624700Y-3891000D01*
X21616830Y-3853970D01*
X21589270Y-3827500D01*
X21561710Y-3816910D01*
X21526270D01*
G01X21561710D02*
X21585330Y-3801040D01*
X21605020Y-3774590D01*
X21612890Y-3742840D01*
X21605020Y-3711080D01*
X21585330Y-3684630D01*
X21549900Y-3668750D01*
X21514470Y-3674040D01*
X21479030Y-3695210D01*
G01X21581390Y-3351250D02*
Y-3033750D01*
X21435720Y-3261290D01*
X21632580D01*
G01X21581390Y-2716250D02*
Y-2398750D01*
X21435720Y-2626290D01*
X21632580D01*
G01X21581390Y-2081250D02*
Y-1763750D01*
X21435720Y-1991290D01*
X21632580D01*
G01X21459340Y-1181670D02*
X21482970Y-1149920D01*
X21510530Y-1134040D01*
X21542030Y-1128750D01*
X21581390Y-1139330D01*
X21608960Y-1165790D01*
X21616830Y-1197540D01*
X21612890Y-1229300D01*
X21597140Y-1255750D01*
X21518400Y-1308670D01*
X21482970Y-1345710D01*
X21459340Y-1398640D01*
X21451470Y-1446250D01*
X21616830D01*
G01X21219190Y-811250D02*
Y-493750D01*
X21171950Y-557250D01*
G01Y-811250D02*
X21266430D01*
G01X21467220Y-774220D02*
X21494780Y-800670D01*
X21526270Y-811250D01*
X21557770Y-800670D01*
X21585330Y-768930D01*
X21605020Y-721290D01*
X21612890Y-673670D01*
Y-615460D01*
X21605020Y-567840D01*
X21585330Y-525500D01*
X21561710Y-504330D01*
X21534150Y-493750D01*
X21502650Y-504330D01*
X21479030Y-525500D01*
X21463280Y-557250D01*
X21455410Y-599590D01*
X21463280Y-636620D01*
X21482970Y-673670D01*
X21506590Y-694840D01*
X21534150Y-700130D01*
X21565640Y-689550D01*
X21589270Y-663090D01*
X21612890Y-615460D01*
G01X21841230Y-811250D02*
X21849110Y-742460D01*
X21860920Y-684260D01*
X21876670Y-631330D01*
X21896350Y-573130D01*
X21927850Y-493750D01*
X21770370D01*
G01X21423910Y-176250D02*
Y141250D01*
X21278240Y-86290D01*
X21475100D01*
G01X21605020Y-112750D02*
X21628630Y-149800D01*
X21660130Y-170960D01*
X21695570Y-176250D01*
X21727070Y-170960D01*
X21758560Y-144510D01*
X21778240Y-112750D01*
X21782180Y-81000D01*
X21774310Y-43970D01*
X21746750Y-17500D01*
X21719190Y-6910D01*
X21683750D01*
G01X21719190D02*
X21742810Y8960D01*
X21762500Y35410D01*
X21770370Y67160D01*
X21762500Y98920D01*
X21742810Y125370D01*
X21707380Y141250D01*
X21671950Y135960D01*
X21636510Y114790D01*
G01X21219190Y458750D02*
X21187690Y464040D01*
X21160140Y485200D01*
X21136510Y516960D01*
X21120760Y554000D01*
X21112890Y596330D01*
Y638670D01*
X21120760Y681000D01*
X21136510Y718040D01*
X21160140Y749790D01*
X21187690Y770960D01*
X21219190Y776250D01*
X21250680Y770960D01*
X21278240Y749790D01*
X21301870Y718040D01*
X21317620Y681000D01*
X21325490Y638670D01*
Y596330D01*
X21317620Y554000D01*
X21301870Y516960D01*
X21278240Y485200D01*
X21250680Y464040D01*
X21219190Y458750D01*
G01X21250680Y543420D02*
X21297930Y458750D01*
G01X21534150Y776250D02*
Y458750D01*
G01X21443600Y776250D02*
X21624700D01*
G01X21849110Y458750D02*
Y601620D01*
X21770370Y776250D01*
G01X21927850D02*
X21849110Y601620D01*
G01X23760000Y-3039010D02*
Y-1987010D01*
X25284000D01*
Y-3039010D01*
X23760000D01*
G01Y-1911010D02*
Y588980D01*
X25284000D01*
Y-1911010D01*
X23760000D01*
G01Y664980D02*
Y1716980D01*
X25284000D01*
Y664980D01*
X23760000D01*
G54D15*
X1145000Y-1951900D03*
X1070000Y-470000D03*
X1090000Y-540000D03*
X1120000Y-470000D03*
Y-600000D03*
X1070000D03*
X1367900Y-1568100D03*
X2896500Y-2088700D03*
X2937000Y-2088800D03*
X2979700Y-2088900D03*
X3050000Y-470000D03*
X3100000D03*
X3070000Y-540000D03*
X3050000Y-600000D03*
X3100000D03*
X5029700Y-1155700D03*
X4937600Y-1201800D03*
X5310000Y-1020000D03*
X6383100Y-1967800D03*
X6530000Y-2230300D03*
X6595000Y-2005000D03*
X6780000Y-1700000D03*
X7116300Y-2132400D03*
X7115000Y-1955000D03*
X7091700Y-2055000D03*
X7190000Y-1130000D03*
X7180000Y-1015000D03*
X7179000Y-915000D03*
X7331800Y-1839300D03*
X7485000Y-1447400D03*
X7435000Y-1400000D03*
X7234900Y-1175600D03*
X7849200Y-2227600D03*
X7695000Y-2160000D03*
X7720000Y-1980000D03*
X7660000Y-2000600D03*
X7778900Y-1961200D03*
X7695000Y-1800000D03*
X7635000Y-1400000D03*
X7585000Y-1437400D03*
X7735000Y-370000D03*
X7945000Y-1955000D03*
X7990000Y-715000D03*
X11061730Y-17500D03*
G54D25*
G01X-15830Y-3640000D02*
X5000Y-3540000D01*
X25830Y-3640000D01*
G01X18330Y-3605000D02*
X-8330D01*
G01X37830Y-3640000D02*
Y-3540000D01*
X76170Y-3640000D01*
Y-3540000D01*
G01X109000Y-3640000D02*
Y-3595000D01*
X92330Y-3540000D01*
G01X125670D02*
X109000Y-3595000D01*
G01X213000Y-3640000D02*
X206330Y-3638330D01*
X200500Y-3631670D01*
X195500Y-3621670D01*
X192170Y-3610000D01*
X190500Y-3596670D01*
Y-3583330D01*
X192170Y-3570000D01*
X195500Y-3558330D01*
X200500Y-3548330D01*
X206330Y-3541670D01*
X213000Y-3540000D01*
X219670Y-3541670D01*
X225500Y-3548330D01*
X230500Y-3558330D01*
X233830Y-3570000D01*
X235500Y-3583330D01*
Y-3596670D01*
X233830Y-3610000D01*
X230500Y-3621670D01*
X225500Y-3631670D01*
X219670Y-3638330D01*
X213000Y-3640000D01*
G01X219670Y-3613330D02*
X229670Y-3640000D01*
G01X246670Y-3540000D02*
Y-3611670D01*
X250000Y-3626670D01*
X256670Y-3636670D01*
X265000Y-3640000D01*
X273330Y-3636670D01*
X280000Y-3626670D01*
X283330Y-3611670D01*
Y-3540000D01*
G01X333670Y-3640000D02*
X300330D01*
Y-3540000D01*
X333670D01*
G01X320330Y-3588330D02*
X300330D01*
G01X351500Y-3626670D02*
X358170Y-3635000D01*
X365670Y-3640000D01*
X372330D01*
X379000Y-3635000D01*
X384000Y-3626670D01*
X386500Y-3615000D01*
X384830Y-3603340D01*
X380670Y-3593330D01*
X373170Y-3586670D01*
X363170Y-3583330D01*
X357330Y-3576670D01*
X354830Y-3565000D01*
X356500Y-3553330D01*
X360670Y-3545000D01*
X366500Y-3540000D01*
X372330D01*
X378170Y-3543330D01*
X383170Y-3551670D01*
G01X421000Y-3540000D02*
Y-3640000D01*
G01X401830Y-3540000D02*
X440170D01*
G01X463000D02*
X483000D01*
G01X473000D02*
Y-3640000D01*
G01X463000D02*
X483000D01*
G01X525000D02*
X518330Y-3638330D01*
X512500Y-3631670D01*
X507500Y-3621670D01*
X504170Y-3610000D01*
X502500Y-3596670D01*
Y-3583330D01*
X504170Y-3570000D01*
X507500Y-3558330D01*
X512500Y-3548330D01*
X518330Y-3541670D01*
X525000Y-3540000D01*
X531670Y-3541670D01*
X537500Y-3548330D01*
X542500Y-3558330D01*
X545830Y-3570000D01*
X547500Y-3583330D01*
Y-3596670D01*
X545830Y-3610000D01*
X542500Y-3621670D01*
X537500Y-3631670D01*
X531670Y-3638330D01*
X525000Y-3640000D01*
G01X557830D02*
Y-3540000D01*
X596170Y-3640000D01*
Y-3540000D01*
G01X611500Y-3626670D02*
X618170Y-3635000D01*
X625670Y-3640000D01*
X632330D01*
X639000Y-3635000D01*
X644000Y-3626670D01*
X646500Y-3615000D01*
X644830Y-3603340D01*
X640670Y-3593330D01*
X633170Y-3586670D01*
X623170Y-3583330D01*
X617330Y-3576670D01*
X614830Y-3565000D01*
X616500Y-3553330D01*
X620670Y-3545000D01*
X626500Y-3540000D01*
X632330D01*
X638170Y-3543330D01*
X643170Y-3551670D01*
G01X716330Y-3640000D02*
Y-3540000D01*
X736330D01*
X743000Y-3545000D01*
X748000Y-3556670D01*
X749670Y-3570000D01*
X748000Y-3583330D01*
X743830Y-3593330D01*
X736330Y-3598340D01*
X716330D01*
G01X768330Y-3540000D02*
Y-3640000D01*
X801670D01*
G01X853670D02*
X820330D01*
Y-3540000D01*
X853670D01*
G01X840330Y-3588330D02*
X820330D01*
G01X868170Y-3640000D02*
X889000Y-3540000D01*
X909830Y-3640000D01*
G01X902330Y-3605000D02*
X875670D01*
G01X923500Y-3626670D02*
X930170Y-3635000D01*
X937670Y-3640000D01*
X944330D01*
X951000Y-3635000D01*
X956000Y-3626670D01*
X958500Y-3615000D01*
X956830Y-3603340D01*
X952670Y-3593330D01*
X945170Y-3586670D01*
X935170Y-3583330D01*
X929330Y-3576670D01*
X926830Y-3565000D01*
X928500Y-3553330D01*
X932670Y-3545000D01*
X938500Y-3540000D01*
X944330D01*
X950170Y-3543330D01*
X955170Y-3551670D01*
G01X1009670Y-3640000D02*
X976330D01*
Y-3540000D01*
X1009670D01*
G01X996330Y-3588330D02*
X976330D01*
G01X1115330Y-3548330D02*
X1110330Y-3543330D01*
X1104500Y-3540000D01*
X1097830D01*
X1090330Y-3545000D01*
X1084500Y-3553330D01*
X1080330Y-3563330D01*
X1077000Y-3580000D01*
X1076170Y-3595000D01*
X1077830Y-3610000D01*
X1080330Y-3620000D01*
X1085330Y-3630000D01*
X1091170Y-3636670D01*
X1097000Y-3640000D01*
X1102830D01*
X1108670Y-3636670D01*
X1113670Y-3631670D01*
X1117830Y-3625000D01*
G01X1149000Y-3640000D02*
X1142330Y-3638330D01*
X1136500Y-3631670D01*
X1131500Y-3621670D01*
X1128170Y-3610000D01*
X1126500Y-3596670D01*
Y-3583330D01*
X1128170Y-3570000D01*
X1131500Y-3558330D01*
X1136500Y-3548330D01*
X1142330Y-3541670D01*
X1149000Y-3540000D01*
X1155670Y-3541670D01*
X1161500Y-3548330D01*
X1166500Y-3558330D01*
X1169830Y-3570000D01*
X1171500Y-3583330D01*
Y-3596670D01*
X1169830Y-3610000D01*
X1166500Y-3621670D01*
X1161500Y-3631670D01*
X1155670Y-3638330D01*
X1149000Y-3640000D01*
G01X1181830D02*
Y-3540000D01*
X1220170Y-3640000D01*
Y-3540000D01*
G01X1253000D02*
Y-3640000D01*
G01X1233830Y-3540000D02*
X1272170D01*
G01X1284170Y-3640000D02*
X1305000Y-3540000D01*
X1325830Y-3640000D01*
G01X1318330Y-3605000D02*
X1291670D01*
G01X1375330Y-3548330D02*
X1370330Y-3543330D01*
X1364500Y-3540000D01*
X1357830D01*
X1350330Y-3545000D01*
X1344500Y-3553330D01*
X1340330Y-3563330D01*
X1337000Y-3580000D01*
X1336170Y-3595000D01*
X1337830Y-3610000D01*
X1340330Y-3620000D01*
X1345330Y-3630000D01*
X1351170Y-3636670D01*
X1357000Y-3640000D01*
X1362830D01*
X1368670Y-3636670D01*
X1373670Y-3631670D01*
X1377830Y-3625000D01*
G01X1409000Y-3540000D02*
Y-3640000D01*
G01X1389830Y-3540000D02*
X1428170D01*
G01X1491330Y-3640000D02*
Y-3540000D01*
X1513000Y-3623330D01*
X1534670Y-3540000D01*
Y-3640000D01*
G01X1581670D02*
X1548330D01*
Y-3540000D01*
X1581670D01*
G01X1568330Y-3588330D02*
X1548330D01*
G01X1617000Y-3643330D02*
X1615330Y-3641670D01*
Y-3638330D01*
X1617000Y-3636670D01*
X1618670Y-3638330D01*
Y-3641670D01*
X1617000Y-3643330D01*
G01Y-3598340D02*
X1615330Y-3596670D01*
Y-3593330D01*
X1617000Y-3591670D01*
X1618670Y-3593330D01*
Y-3596670D01*
X1617000Y-3598340D01*
G01X1711830Y-3606670D02*
X1731830D01*
G01X1721000Y-3585000D02*
Y-3628340D01*
G01X1773000Y-3640000D02*
X1778830Y-3638330D01*
X1785500Y-3633330D01*
X1789670Y-3625000D01*
X1791330Y-3613330D01*
X1789670Y-3601670D01*
X1784670Y-3591670D01*
X1777170Y-3586670D01*
X1768830D01*
X1763830Y-3583330D01*
X1759670Y-3575000D01*
X1758000Y-3563330D01*
X1760500Y-3551670D01*
X1766330Y-3543330D01*
X1773000Y-3540000D01*
X1779670Y-3543330D01*
X1785500Y-3551670D01*
X1788000Y-3563330D01*
X1786330Y-3575000D01*
X1782170Y-3583330D01*
X1777170Y-3586670D01*
X1768830D01*
X1761330Y-3591670D01*
X1756330Y-3601670D01*
X1754670Y-3613330D01*
X1756330Y-3625000D01*
X1760500Y-3633330D01*
X1767170Y-3638330D01*
X1773000Y-3640000D01*
G01X1809170Y-3598340D02*
X1815000Y-3586670D01*
X1820000Y-3580000D01*
X1826670Y-3576670D01*
X1832500Y-3580000D01*
X1836670Y-3586670D01*
X1840000Y-3596670D01*
X1840830Y-3608330D01*
X1840000Y-3618330D01*
X1836670Y-3628340D01*
X1831670Y-3636670D01*
X1825830Y-3640000D01*
X1819170Y-3636670D01*
X1813330Y-3626670D01*
X1810000Y-3611670D01*
X1809170Y-3595000D01*
X1810830Y-3573340D01*
X1813330Y-3561670D01*
X1817500Y-3550000D01*
X1823330Y-3541670D01*
X1829170Y-3540000D01*
X1835000Y-3543330D01*
X1839170Y-3551670D01*
G01X1877000Y-3640000D02*
Y-3540000D01*
X1867000Y-3560000D01*
G01Y-3640000D02*
X1887000D01*
G01X1910670Y-3620000D02*
X1915670Y-3631670D01*
X1922330Y-3638330D01*
X1929830Y-3640000D01*
X1936500Y-3638330D01*
X1943170Y-3630000D01*
X1947330Y-3620000D01*
X1948170Y-3610000D01*
X1946500Y-3598340D01*
X1940670Y-3590000D01*
X1934830Y-3586670D01*
X1927330D01*
G01X1934830D02*
X1939830Y-3581670D01*
X1944000Y-3573340D01*
X1945670Y-3563330D01*
X1944000Y-3553330D01*
X1939830Y-3545000D01*
X1932330Y-3540000D01*
X1924830Y-3541670D01*
X1917330Y-3548330D01*
G01X1962670Y-3625000D02*
X1967670Y-3633330D01*
X1973500Y-3638330D01*
X1981000Y-3640000D01*
X1988500Y-3636670D01*
X1994330Y-3630000D01*
X1998500Y-3618330D01*
X1999330Y-3605000D01*
X1997670Y-3591670D01*
X1993500Y-3583330D01*
X1987670Y-3576670D01*
X1981830Y-3575000D01*
X1976000Y-3576670D01*
X1968500Y-3583330D01*
X1971000Y-3540000D01*
X1993500D01*
G01X2017170Y-3556670D02*
X2022170Y-3546670D01*
X2028000Y-3541670D01*
X2034670Y-3540000D01*
X2043000Y-3543330D01*
X2048830Y-3551670D01*
X2050500Y-3561670D01*
X2049670Y-3571670D01*
X2046330Y-3580000D01*
X2029670Y-3596670D01*
X2022170Y-3608330D01*
X2017170Y-3625000D01*
X2015500Y-3640000D01*
X2050500D01*
G01X2069170Y-3556670D02*
X2074170Y-3546670D01*
X2080000Y-3541670D01*
X2086670Y-3540000D01*
X2095000Y-3543330D01*
X2100830Y-3551670D01*
X2102500Y-3561670D01*
X2101670Y-3571670D01*
X2098330Y-3580000D01*
X2081670Y-3596670D01*
X2074170Y-3608330D01*
X2069170Y-3625000D01*
X2067500Y-3640000D01*
X2102500D01*
G01X2121170Y-3556670D02*
X2126170Y-3546670D01*
X2132000Y-3541670D01*
X2138670Y-3540000D01*
X2147000Y-3543330D01*
X2152830Y-3551670D01*
X2154500Y-3561670D01*
X2153670Y-3571670D01*
X2150330Y-3580000D01*
X2133670Y-3596670D01*
X2126170Y-3608330D01*
X2121170Y-3625000D01*
X2119500Y-3640000D01*
X2154500D01*
G01X2174830Y-3628340D02*
X2180670Y-3636670D01*
X2187330Y-3640000D01*
X2194000Y-3636670D01*
X2199830Y-3626670D01*
X2204000Y-3611670D01*
X2205670Y-3596670D01*
Y-3578330D01*
X2204000Y-3563330D01*
X2199830Y-3550000D01*
X2194830Y-3543330D01*
X2189000Y-3540000D01*
X2182330Y-3543330D01*
X2177330Y-3550000D01*
X2174000Y-3560000D01*
X2172330Y-3573340D01*
X2174000Y-3585000D01*
X2178170Y-3596670D01*
X2183170Y-3603340D01*
X2189000Y-3605000D01*
X2195670Y-3601670D01*
X2200670Y-3593330D01*
X2205670Y-3578330D01*
G01X2225170Y-3598340D02*
X2231000Y-3586670D01*
X2236000Y-3580000D01*
X2242670Y-3576670D01*
X2248500Y-3580000D01*
X2252670Y-3586670D01*
X2256000Y-3596670D01*
X2256830Y-3608330D01*
X2256000Y-3618330D01*
X2252670Y-3628340D01*
X2247670Y-3636670D01*
X2241830Y-3640000D01*
X2235170Y-3636670D01*
X2229330Y-3626670D01*
X2226000Y-3611670D01*
X2225170Y-3595000D01*
X2226830Y-3573340D01*
X2229330Y-3561670D01*
X2233500Y-3550000D01*
X2239330Y-3541670D01*
X2245170Y-3540000D01*
X2251000Y-3543330D01*
X2255170Y-3551670D01*
G01X2277170Y-3556670D02*
X2282170Y-3546670D01*
X2288000Y-3541670D01*
X2294670Y-3540000D01*
X2303000Y-3543330D01*
X2308830Y-3551670D01*
X2310500Y-3561670D01*
X2309670Y-3571670D01*
X2306330Y-3580000D01*
X2289670Y-3596670D01*
X2282170Y-3608330D01*
X2277170Y-3625000D01*
X2275500Y-3640000D01*
X2310500D01*
G01X2326670Y-3620000D02*
X2331670Y-3631670D01*
X2338330Y-3638330D01*
X2345830Y-3640000D01*
X2352500Y-3638330D01*
X2359170Y-3630000D01*
X2363330Y-3620000D01*
X2364170Y-3610000D01*
X2362500Y-3598340D01*
X2356670Y-3590000D01*
X2350830Y-3586670D01*
X2343330D01*
G01X2350830D02*
X2355830Y-3581670D01*
X2360000Y-3573340D01*
X2361670Y-3563330D01*
X2360000Y-3553330D01*
X2355830Y-3545000D01*
X2348330Y-3540000D01*
X2340830Y-3541670D01*
X2333330Y-3548330D01*
G01X2382830Y-3628340D02*
X2388670Y-3636670D01*
X2395330Y-3640000D01*
X2402000Y-3636670D01*
X2407830Y-3626670D01*
X2412000Y-3611670D01*
X2413670Y-3596670D01*
Y-3578330D01*
X2412000Y-3563330D01*
X2407830Y-3550000D01*
X2402830Y-3543330D01*
X2397000Y-3540000D01*
X2390330Y-3543330D01*
X2385330Y-3550000D01*
X2382000Y-3560000D01*
X2380330Y-3573340D01*
X2382000Y-3585000D01*
X2386170Y-3596670D01*
X2391170Y-3603340D01*
X2397000Y-3605000D01*
X2403670Y-3601670D01*
X2408670Y-3593330D01*
X2413670Y-3578330D01*
G01X15000Y-3420000D02*
Y-3320000D01*
X-15830Y-3391670D01*
X25830D01*
G01X92330Y-3320000D02*
Y-3420000D01*
X125670D01*
G01X140170D02*
X161000Y-3320000D01*
X181830Y-3420000D01*
G01X174330Y-3385000D02*
X147670D01*
G01X213000Y-3420000D02*
Y-3375000D01*
X196330Y-3320000D01*
G01X229670D02*
X213000Y-3375000D01*
G01X281670Y-3420000D02*
X248330D01*
Y-3320000D01*
X281670D01*
G01X268330Y-3368330D02*
X248330D01*
G01X300330Y-3420000D02*
Y-3320000D01*
X321170D01*
X327830Y-3325000D01*
X332000Y-3331670D01*
X333670Y-3345000D01*
X332000Y-3358330D01*
X327000Y-3366670D01*
X321170Y-3371670D01*
X300330D01*
G01X321170D02*
X333670Y-3420000D01*
G01X351500Y-3406670D02*
X358170Y-3415000D01*
X365670Y-3420000D01*
X372330D01*
X379000Y-3415000D01*
X384000Y-3406670D01*
X386500Y-3395000D01*
X384830Y-3383340D01*
X380670Y-3373330D01*
X373170Y-3366670D01*
X363170Y-3363330D01*
X357330Y-3356670D01*
X354830Y-3345000D01*
X356500Y-3333330D01*
X360670Y-3325000D01*
X366500Y-3320000D01*
X372330D01*
X378170Y-3323330D01*
X383170Y-3331670D01*
G01X456330Y-3420000D02*
Y-3320000D01*
X476330D01*
X483000Y-3325000D01*
X488000Y-3336670D01*
X489670Y-3350000D01*
X488000Y-3363330D01*
X483830Y-3373330D01*
X476330Y-3378340D01*
X456330D01*
G01X543330Y-3328330D02*
X538330Y-3323330D01*
X532500Y-3320000D01*
X525830D01*
X518330Y-3325000D01*
X512500Y-3333330D01*
X508330Y-3343330D01*
X505000Y-3360000D01*
X504170Y-3375000D01*
X505830Y-3390000D01*
X508330Y-3400000D01*
X513330Y-3410000D01*
X519170Y-3416670D01*
X525000Y-3420000D01*
X530830D01*
X536670Y-3416670D01*
X541670Y-3411670D01*
X545830Y-3405000D01*
G01X583670Y-3366670D02*
X587000Y-3361670D01*
X589500Y-3353340D01*
X591170Y-3341670D01*
X589500Y-3331670D01*
X586170Y-3325000D01*
X580330Y-3320000D01*
X557830D01*
Y-3420000D01*
X585330D01*
X591170Y-3413330D01*
X594500Y-3403330D01*
X596170Y-3391670D01*
X594500Y-3380000D01*
X589500Y-3370000D01*
X583670Y-3366670D01*
X557830D01*
G01X663500Y-3406670D02*
X670170Y-3415000D01*
X677670Y-3420000D01*
X684330D01*
X691000Y-3415000D01*
X696000Y-3406670D01*
X698500Y-3395000D01*
X696830Y-3383340D01*
X692670Y-3373330D01*
X685170Y-3366670D01*
X675170Y-3363330D01*
X669330Y-3356670D01*
X666830Y-3345000D01*
X668500Y-3333330D01*
X672670Y-3325000D01*
X678500Y-3320000D01*
X684330D01*
X690170Y-3323330D01*
X695170Y-3331670D01*
G01X733000Y-3320000D02*
Y-3420000D01*
G01X713830Y-3320000D02*
X752170D01*
G01X764170Y-3420000D02*
X785000Y-3320000D01*
X805830Y-3420000D01*
G01X798330Y-3385000D02*
X771670D01*
G01X855330Y-3328330D02*
X850330Y-3323330D01*
X844500Y-3320000D01*
X837830D01*
X830330Y-3325000D01*
X824500Y-3333330D01*
X820330Y-3343330D01*
X817000Y-3360000D01*
X816170Y-3375000D01*
X817830Y-3390000D01*
X820330Y-3400000D01*
X825330Y-3410000D01*
X831170Y-3416670D01*
X837000Y-3420000D01*
X842830D01*
X848670Y-3416670D01*
X853670Y-3411670D01*
X857830Y-3405000D01*
G01X870670Y-3420000D02*
Y-3320000D01*
G01X902330D02*
X870670Y-3381670D01*
G01X907330Y-3420000D02*
X884830Y-3353340D01*
G01X939330Y-3438330D02*
X942670Y-3416670D01*
G01X1045000Y-3420000D02*
Y-3320000D01*
X1035000Y-3340000D01*
G01Y-3420000D02*
X1055000D01*
G01X1097000Y-3423330D02*
X1095330Y-3421670D01*
Y-3418330D01*
X1097000Y-3416670D01*
X1098670Y-3418330D01*
Y-3421670D01*
X1097000Y-3423330D01*
G01X1149000Y-3320000D02*
X1142330Y-3323330D01*
X1137330Y-3331670D01*
X1134000Y-3341670D01*
X1131500Y-3355000D01*
X1130670Y-3370000D01*
X1131500Y-3385000D01*
X1134000Y-3398330D01*
X1137330Y-3408340D01*
X1142330Y-3416670D01*
X1149000Y-3420000D01*
X1155670Y-3416670D01*
X1160670Y-3408340D01*
X1164000Y-3398330D01*
X1166500Y-3385000D01*
X1167330Y-3370000D01*
X1166500Y-3355000D01*
X1164000Y-3341670D01*
X1160670Y-3331670D01*
X1155670Y-3323330D01*
X1149000Y-3320000D01*
G01X1176000Y-3420000D02*
Y-3353340D01*
G01Y-3371670D02*
X1178500Y-3363330D01*
X1182670Y-3356670D01*
X1188500Y-3353340D01*
X1194330Y-3356670D01*
X1198500Y-3363330D01*
X1201000Y-3371670D01*
Y-3420000D01*
G01Y-3371670D02*
X1203500Y-3363330D01*
X1207670Y-3356670D01*
X1213500Y-3353340D01*
X1219330Y-3356670D01*
X1223500Y-3363330D01*
X1226000Y-3373330D01*
Y-3420000D01*
G01X1228000D02*
Y-3353340D01*
G01Y-3371670D02*
X1230500Y-3363330D01*
X1234670Y-3356670D01*
X1240500Y-3353340D01*
X1246330Y-3356670D01*
X1250500Y-3363330D01*
X1253000Y-3371670D01*
Y-3420000D01*
G01Y-3371670D02*
X1255500Y-3363330D01*
X1259670Y-3356670D01*
X1265500Y-3353340D01*
X1271330Y-3356670D01*
X1275500Y-3363330D01*
X1278000Y-3373330D01*
Y-3420000D01*
G01X1357000Y-3320000D02*
Y-3420000D01*
G01X1337830Y-3320000D02*
X1376170D01*
G01X1391500Y-3420000D02*
Y-3320000D01*
G01X1426500D02*
Y-3420000D01*
G01Y-3370000D02*
X1391500D01*
G01X1451000Y-3320000D02*
X1471000D01*
G01X1461000D02*
Y-3420000D01*
G01X1451000D02*
X1471000D01*
G01X1493830D02*
Y-3320000D01*
X1532170Y-3420000D01*
Y-3320000D01*
G01X1546670Y-3420000D02*
Y-3320000D01*
G01X1578330D02*
X1546670Y-3381670D01*
G01X1583330Y-3420000D02*
X1560830Y-3353340D01*
G01X1597830Y-3420000D02*
Y-3320000D01*
X1636170Y-3420000D01*
Y-3320000D01*
G01X1685670Y-3420000D02*
X1652330D01*
Y-3320000D01*
X1685670D01*
G01X1672330Y-3368330D02*
X1652330D01*
G01X1703500Y-3406670D02*
X1710170Y-3415000D01*
X1717670Y-3420000D01*
X1724330D01*
X1731000Y-3415000D01*
X1736000Y-3406670D01*
X1738500Y-3395000D01*
X1736830Y-3383340D01*
X1732670Y-3373330D01*
X1725170Y-3366670D01*
X1715170Y-3363330D01*
X1709330Y-3356670D01*
X1706830Y-3345000D01*
X1708500Y-3333330D01*
X1712670Y-3325000D01*
X1718500Y-3320000D01*
X1724330D01*
X1730170Y-3323330D01*
X1735170Y-3331670D01*
G01X1755500Y-3406670D02*
X1762170Y-3415000D01*
X1769670Y-3420000D01*
X1776330D01*
X1783000Y-3415000D01*
X1788000Y-3406670D01*
X1790500Y-3395000D01*
X1788830Y-3383340D01*
X1784670Y-3373330D01*
X1777170Y-3366670D01*
X1767170Y-3363330D01*
X1761330Y-3356670D01*
X1758830Y-3345000D01*
X1760500Y-3333330D01*
X1764670Y-3325000D01*
X1770500Y-3320000D01*
X1776330D01*
X1782170Y-3323330D01*
X1787170Y-3331670D01*
G01X1823330Y-3438330D02*
X1826670Y-3416670D01*
G01X1909830Y-3420000D02*
Y-3320000D01*
X1948170Y-3420000D01*
Y-3320000D01*
G01X1981000Y-3420000D02*
X1974330Y-3418330D01*
X1968500Y-3411670D01*
X1963500Y-3401670D01*
X1960170Y-3390000D01*
X1958500Y-3376670D01*
Y-3363330D01*
X1960170Y-3350000D01*
X1963500Y-3338330D01*
X1968500Y-3328330D01*
X1974330Y-3321670D01*
X1981000Y-3320000D01*
X1987670Y-3321670D01*
X1993500Y-3328330D01*
X1998500Y-3338330D01*
X2001830Y-3350000D01*
X2003500Y-3363330D01*
Y-3376670D01*
X2001830Y-3390000D01*
X1998500Y-3401670D01*
X1993500Y-3411670D01*
X1987670Y-3418330D01*
X1981000Y-3420000D01*
G01X2075000Y-3320000D02*
X2095000D01*
G01X2085000D02*
Y-3420000D01*
G01X2075000D02*
X2095000D01*
G01X2115330D02*
Y-3320000D01*
X2137000Y-3403330D01*
X2158670Y-3320000D01*
Y-3420000D01*
G01X2172330D02*
Y-3320000D01*
X2192330D01*
X2199000Y-3325000D01*
X2204000Y-3336670D01*
X2205670Y-3350000D01*
X2204000Y-3363330D01*
X2199830Y-3373330D01*
X2192330Y-3378340D01*
X2172330D01*
G01X2257670Y-3420000D02*
X2224330D01*
Y-3320000D01*
X2257670D01*
G01X2244330Y-3368330D02*
X2224330D01*
G01X2274670Y-3420000D02*
Y-3320000D01*
X2291330D01*
X2298000Y-3325000D01*
X2303000Y-3331670D01*
X2307170Y-3341670D01*
X2310500Y-3353340D01*
X2311330Y-3370000D01*
X2310500Y-3386670D01*
X2307170Y-3398330D01*
X2303000Y-3408340D01*
X2298000Y-3415000D01*
X2291330Y-3420000D01*
X2274670D01*
G01X2324170D02*
X2345000Y-3320000D01*
X2365830Y-3420000D01*
G01X2358330Y-3385000D02*
X2331670D01*
G01X2377830Y-3420000D02*
Y-3320000D01*
X2416170Y-3420000D01*
Y-3320000D01*
G01X2467330Y-3328330D02*
X2462330Y-3323330D01*
X2456500Y-3320000D01*
X2449830D01*
X2442330Y-3325000D01*
X2436500Y-3333330D01*
X2432330Y-3343330D01*
X2429000Y-3360000D01*
X2428170Y-3375000D01*
X2429830Y-3390000D01*
X2432330Y-3400000D01*
X2437330Y-3410000D01*
X2443170Y-3416670D01*
X2449000Y-3420000D01*
X2454830D01*
X2460670Y-3416670D01*
X2465670Y-3411670D01*
X2469830Y-3405000D01*
G01X2517670Y-3420000D02*
X2484330D01*
Y-3320000D01*
X2517670D01*
G01X2504330Y-3368330D02*
X2484330D01*
G01X2583330Y-3420000D02*
Y-3320000D01*
X2605000Y-3403330D01*
X2626670Y-3320000D01*
Y-3420000D01*
G01X2636170D02*
X2657000Y-3320000D01*
X2677830Y-3420000D01*
G01X2670330Y-3385000D02*
X2643670D01*
G01X2709000Y-3320000D02*
Y-3420000D01*
G01X2689830Y-3320000D02*
X2728170D01*
G01X2779330Y-3328330D02*
X2774330Y-3323330D01*
X2768500Y-3320000D01*
X2761830D01*
X2754330Y-3325000D01*
X2748500Y-3333330D01*
X2744330Y-3343330D01*
X2741000Y-3360000D01*
X2740170Y-3375000D01*
X2741830Y-3390000D01*
X2744330Y-3400000D01*
X2749330Y-3410000D01*
X2755170Y-3416670D01*
X2761000Y-3420000D01*
X2766830D01*
X2772670Y-3416670D01*
X2777670Y-3411670D01*
X2781830Y-3405000D01*
G01X2795500Y-3420000D02*
Y-3320000D01*
G01X2830500D02*
Y-3420000D01*
G01Y-3370000D02*
X2795500D01*
G01X2898670Y-3420000D02*
Y-3320000D01*
X2915330D01*
X2922000Y-3325000D01*
X2927000Y-3331670D01*
X2931170Y-3341670D01*
X2934500Y-3353340D01*
X2935330Y-3370000D01*
X2934500Y-3386670D01*
X2931170Y-3398330D01*
X2927000Y-3408340D01*
X2922000Y-3415000D01*
X2915330Y-3420000D01*
X2898670D01*
G01X2985670D02*
X2952330D01*
Y-3320000D01*
X2985670D01*
G01X2972330Y-3368330D02*
X2952330D01*
G01X2999330Y-3420000D02*
Y-3320000D01*
X3021000Y-3403330D01*
X3042670Y-3320000D01*
Y-3420000D01*
G01X3052170D02*
X3073000Y-3320000D01*
X3093830Y-3420000D01*
G01X3086330Y-3385000D02*
X3059670D01*
G01X3105830Y-3420000D02*
Y-3320000D01*
X3144170Y-3420000D01*
Y-3320000D01*
G01X3158670Y-3420000D02*
Y-3320000D01*
X3175330D01*
X3182000Y-3325000D01*
X3187000Y-3331670D01*
X3191170Y-3341670D01*
X3194500Y-3353340D01*
X3195330Y-3370000D01*
X3194500Y-3386670D01*
X3191170Y-3398330D01*
X3187000Y-3408340D01*
X3182000Y-3415000D01*
X3175330Y-3420000D01*
X3158670D01*
G01X3229000Y-3423330D02*
X3227330Y-3421670D01*
Y-3418330D01*
X3229000Y-3416670D01*
X3230670Y-3418330D01*
Y-3421670D01*
X3229000Y-3423330D01*
G01X23853670Y-3583670D02*
Y-3483670D01*
X23870330D01*
X23877000Y-3488670D01*
X23882000Y-3495340D01*
X23886170Y-3505340D01*
X23889500Y-3517010D01*
X23890330Y-3533670D01*
X23889500Y-3550340D01*
X23886170Y-3562000D01*
X23882000Y-3572010D01*
X23877000Y-3578670D01*
X23870330Y-3583670D01*
X23853670D01*
G01X23940670D02*
X23907330D01*
Y-3483670D01*
X23940670D01*
G01X23927330Y-3532000D02*
X23907330D01*
G01X23958500Y-3570340D02*
X23965170Y-3578670D01*
X23972670Y-3583670D01*
X23979330D01*
X23986000Y-3578670D01*
X23991000Y-3570340D01*
X23993500Y-3558670D01*
X23991830Y-3547010D01*
X23987670Y-3537000D01*
X23980170Y-3530340D01*
X23970170Y-3527000D01*
X23964330Y-3520340D01*
X23961830Y-3508670D01*
X23963500Y-3497000D01*
X23967670Y-3488670D01*
X23973500Y-3483670D01*
X23979330D01*
X23985170Y-3487000D01*
X23990170Y-3495340D01*
G01X24018000Y-3483670D02*
X24038000D01*
G01X24028000D02*
Y-3583670D01*
G01X24018000D02*
X24038000D01*
G01X24085000Y-3533670D02*
X24101670D01*
Y-3563670D01*
X24096670Y-3573670D01*
X24090830Y-3580340D01*
X24082500Y-3583670D01*
X24074170Y-3580340D01*
X24068330Y-3573670D01*
X24063330Y-3563670D01*
X24060000Y-3552000D01*
X24058330Y-3538670D01*
Y-3527000D01*
X24060000Y-3517010D01*
X24063330Y-3505340D01*
X24068330Y-3495340D01*
X24073330Y-3488670D01*
X24080000Y-3483670D01*
X24085830D01*
X24092500Y-3487000D01*
X24097500Y-3493670D01*
G01X24112830Y-3583670D02*
Y-3483670D01*
X24151170Y-3583670D01*
Y-3483670D01*
G01X24254330Y-3492000D02*
X24249330Y-3487000D01*
X24243500Y-3483670D01*
X24236830D01*
X24229330Y-3488670D01*
X24223500Y-3497000D01*
X24219330Y-3507000D01*
X24216000Y-3523670D01*
X24215170Y-3538670D01*
X24216830Y-3553670D01*
X24219330Y-3563670D01*
X24224330Y-3573670D01*
X24230170Y-3580340D01*
X24236000Y-3583670D01*
X24241830D01*
X24247670Y-3580340D01*
X24252670Y-3575340D01*
X24256830Y-3568670D01*
G01X24271330Y-3583670D02*
Y-3483670D01*
X24292170D01*
X24298830Y-3488670D01*
X24303000Y-3495340D01*
X24304670Y-3508670D01*
X24303000Y-3522000D01*
X24298000Y-3530340D01*
X24292170Y-3535340D01*
X24271330D01*
G01X24292170D02*
X24304670Y-3583670D01*
G01X24340000D02*
X24333330Y-3582000D01*
X24327500Y-3575340D01*
X24322500Y-3565340D01*
X24319170Y-3553670D01*
X24317500Y-3540340D01*
Y-3527000D01*
X24319170Y-3513670D01*
X24322500Y-3502000D01*
X24327500Y-3492000D01*
X24333330Y-3485340D01*
X24340000Y-3483670D01*
X24346670Y-3485340D01*
X24352500Y-3492000D01*
X24357500Y-3502000D01*
X24360830Y-3513670D01*
X24362500Y-3527000D01*
Y-3540340D01*
X24360830Y-3553670D01*
X24357500Y-3565340D01*
X24352500Y-3575340D01*
X24346670Y-3582000D01*
X24340000Y-3583670D01*
G01X24374500Y-3570340D02*
X24381170Y-3578670D01*
X24388670Y-3583670D01*
X24395330D01*
X24402000Y-3578670D01*
X24407000Y-3570340D01*
X24409500Y-3558670D01*
X24407830Y-3547010D01*
X24403670Y-3537000D01*
X24396170Y-3530340D01*
X24386170Y-3527000D01*
X24380330Y-3520340D01*
X24377830Y-3508670D01*
X24379500Y-3497000D01*
X24383670Y-3488670D01*
X24389500Y-3483670D01*
X24395330D01*
X24401170Y-3487000D01*
X24406170Y-3495340D01*
G01X24426500Y-3570340D02*
X24433170Y-3578670D01*
X24440670Y-3583670D01*
X24447330D01*
X24454000Y-3578670D01*
X24459000Y-3570340D01*
X24461500Y-3558670D01*
X24459830Y-3547010D01*
X24455670Y-3537000D01*
X24448170Y-3530340D01*
X24438170Y-3527000D01*
X24432330Y-3520340D01*
X24429830Y-3508670D01*
X24431500Y-3497000D01*
X24435670Y-3488670D01*
X24441500Y-3483670D01*
X24447330D01*
X24453170Y-3487000D01*
X24458170Y-3495340D01*
G01X24530500Y-3570340D02*
X24537170Y-3578670D01*
X24544670Y-3583670D01*
X24551330D01*
X24558000Y-3578670D01*
X24563000Y-3570340D01*
X24565500Y-3558670D01*
X24563830Y-3547010D01*
X24559670Y-3537000D01*
X24552170Y-3530340D01*
X24542170Y-3527000D01*
X24536330Y-3520340D01*
X24533830Y-3508670D01*
X24535500Y-3497000D01*
X24539670Y-3488670D01*
X24545500Y-3483670D01*
X24551330D01*
X24557170Y-3487000D01*
X24562170Y-3495340D01*
G01X24616670Y-3583670D02*
X24583330D01*
Y-3483670D01*
X24616670D01*
G01X24603330Y-3532000D02*
X24583330D01*
G01X24670330Y-3492000D02*
X24665330Y-3487000D01*
X24659500Y-3483670D01*
X24652830D01*
X24645330Y-3488670D01*
X24639500Y-3497000D01*
X24635330Y-3507000D01*
X24632000Y-3523670D01*
X24631170Y-3538670D01*
X24632830Y-3553670D01*
X24635330Y-3563670D01*
X24640330Y-3573670D01*
X24646170Y-3580340D01*
X24652000Y-3583670D01*
X24657830D01*
X24663670Y-3580340D01*
X24668670Y-3575340D01*
X24672830Y-3568670D01*
G01X24704000Y-3483670D02*
Y-3583670D01*
G01X24684830Y-3483670D02*
X24723170D01*
G01X24746000D02*
X24766000D01*
G01X24756000D02*
Y-3583670D01*
G01X24746000D02*
X24766000D01*
G01X24808000D02*
X24801330Y-3582000D01*
X24795500Y-3575340D01*
X24790500Y-3565340D01*
X24787170Y-3553670D01*
X24785500Y-3540340D01*
Y-3527000D01*
X24787170Y-3513670D01*
X24790500Y-3502000D01*
X24795500Y-3492000D01*
X24801330Y-3485340D01*
X24808000Y-3483670D01*
X24814670Y-3485340D01*
X24820500Y-3492000D01*
X24825500Y-3502000D01*
X24828830Y-3513670D01*
X24830500Y-3527000D01*
Y-3540340D01*
X24828830Y-3553670D01*
X24825500Y-3565340D01*
X24820500Y-3575340D01*
X24814670Y-3582000D01*
X24808000Y-3583670D01*
G01X24840830D02*
Y-3483670D01*
X24879170Y-3583670D01*
Y-3483670D01*
G01X24982330Y-3492000D02*
X24977330Y-3487000D01*
X24971500Y-3483670D01*
X24964830D01*
X24957330Y-3488670D01*
X24951500Y-3497000D01*
X24947330Y-3507000D01*
X24944000Y-3523670D01*
X24943170Y-3538670D01*
X24944830Y-3553670D01*
X24947330Y-3563670D01*
X24952330Y-3573670D01*
X24958170Y-3580340D01*
X24964000Y-3583670D01*
X24969830D01*
X24975670Y-3580340D01*
X24980670Y-3575340D01*
X24984830Y-3568670D01*
G01X24998500Y-3583670D02*
Y-3483670D01*
G01X25033500D02*
Y-3583670D01*
G01Y-3533670D02*
X24998500D01*
G01X25047170Y-3583670D02*
X25068000Y-3483670D01*
X25088830Y-3583670D01*
G01X25081330Y-3548670D02*
X25054670D01*
G01X25103330Y-3583670D02*
Y-3483670D01*
X25124170D01*
X25130830Y-3488670D01*
X25135000Y-3495340D01*
X25136670Y-3508670D01*
X25135000Y-3522000D01*
X25130000Y-3530340D01*
X25124170Y-3535340D01*
X25103330D01*
G01X25124170D02*
X25136670Y-3583670D01*
G01X25172000Y-3483670D02*
Y-3583670D01*
G01X25152830Y-3483670D02*
X25191170D01*
G01X23821000Y-3617000D02*
X23871000D01*
G01X23873000D02*
X23923000D01*
G01X23925000D02*
X23975000D01*
G01X23977000D02*
X24027000D01*
G01X24029000D02*
X24079000D01*
G01X24081000D02*
X24131000D01*
G01X24133000D02*
X24183000D01*
G01X24185000D02*
X24235000D01*
G01X24237000D02*
X24287000D01*
G01X24289000D02*
X24339000D01*
G01X24341000D02*
X24391000D01*
G01X24393000D02*
X24443000D01*
G01X24445000D02*
X24495000D01*
G01X24497000D02*
X24547000D01*
G01X24549000D02*
X24599000D01*
G01X24601000D02*
X24651000D01*
G01X24653000D02*
X24703000D01*
G01X24705000D02*
X24755000D01*
G01X24757000D02*
X24807000D01*
G01X24809000D02*
X24859000D01*
G01X24861000D02*
X24911000D01*
G01X24913000D02*
X24963000D01*
G01X24965000D02*
X25015000D01*
G01X25017000D02*
X25067000D01*
G01X25069000D02*
X25119000D01*
G01X25121000D02*
X25171000D01*
G01X25173000D02*
X25223000D01*
G01X23898000Y-3663670D02*
Y-3763670D01*
G01X23878830Y-3663670D02*
X23917170D01*
G01X23950000Y-3763670D02*
X23943330Y-3762000D01*
X23937500Y-3755340D01*
X23932500Y-3745340D01*
X23929170Y-3733670D01*
X23927500Y-3720340D01*
Y-3707000D01*
X23929170Y-3693670D01*
X23932500Y-3682000D01*
X23937500Y-3672000D01*
X23943330Y-3665340D01*
X23950000Y-3663670D01*
X23956670Y-3665340D01*
X23962500Y-3672000D01*
X23967500Y-3682000D01*
X23970830Y-3693670D01*
X23972500Y-3707000D01*
Y-3720340D01*
X23970830Y-3733670D01*
X23967500Y-3745340D01*
X23962500Y-3755340D01*
X23956670Y-3762000D01*
X23950000Y-3763670D01*
G01X24002000Y-3663670D02*
Y-3763670D01*
G01X23982830Y-3663670D02*
X24021170D01*
G01X24033170Y-3763670D02*
X24054000Y-3663670D01*
X24074830Y-3763670D01*
G01X24067330Y-3728670D02*
X24040670D01*
G01X24089330Y-3663670D02*
Y-3763670D01*
X24122670D01*
G01X24210000Y-3663670D02*
Y-3763670D01*
G01X24190830Y-3663670D02*
X24229170D01*
G01X24244500Y-3763670D02*
Y-3663670D01*
G01X24279500D02*
Y-3763670D01*
G01Y-3713670D02*
X24244500D01*
G01X24304000Y-3663670D02*
X24324000D01*
G01X24314000D02*
Y-3763670D01*
G01X24304000D02*
X24324000D01*
G01X24384330Y-3672000D02*
X24379330Y-3667000D01*
X24373500Y-3663670D01*
X24366830D01*
X24359330Y-3668670D01*
X24353500Y-3677000D01*
X24349330Y-3687000D01*
X24346000Y-3703670D01*
X24345170Y-3718670D01*
X24346830Y-3733670D01*
X24349330Y-3743670D01*
X24354330Y-3753670D01*
X24360170Y-3760340D01*
X24366000Y-3763670D01*
X24371830D01*
X24377670Y-3760340D01*
X24382670Y-3755340D01*
X24386830Y-3748670D01*
G01X24399670Y-3763670D02*
Y-3663670D01*
G01X24431330D02*
X24399670Y-3725340D01*
G01X24436330Y-3763670D02*
X24413830Y-3697010D01*
G01X24450830Y-3763670D02*
Y-3663670D01*
X24489170Y-3763670D01*
Y-3663670D01*
G01X24538670Y-3763670D02*
X24505330D01*
Y-3663670D01*
X24538670D01*
G01X24525330Y-3712000D02*
X24505330D01*
G01X24556500Y-3750340D02*
X24563170Y-3758670D01*
X24570670Y-3763670D01*
X24577330D01*
X24584000Y-3758670D01*
X24589000Y-3750340D01*
X24591500Y-3738670D01*
X24589830Y-3727010D01*
X24585670Y-3717000D01*
X24578170Y-3710340D01*
X24568170Y-3707000D01*
X24562330Y-3700340D01*
X24559830Y-3688670D01*
X24561500Y-3677000D01*
X24565670Y-3668670D01*
X24571500Y-3663670D01*
X24577330D01*
X24583170Y-3667000D01*
X24588170Y-3675340D01*
G01X24608500Y-3750340D02*
X24615170Y-3758670D01*
X24622670Y-3763670D01*
X24629330D01*
X24636000Y-3758670D01*
X24641000Y-3750340D01*
X24643500Y-3738670D01*
X24641830Y-3727010D01*
X24637670Y-3717000D01*
X24630170Y-3710340D01*
X24620170Y-3707000D01*
X24614330Y-3700340D01*
X24611830Y-3688670D01*
X24613500Y-3677000D01*
X24617670Y-3668670D01*
X24623500Y-3663670D01*
X24629330D01*
X24635170Y-3667000D01*
X24640170Y-3675340D01*
G01X24730000Y-3763670D02*
Y-3663670D01*
X24720000Y-3683670D01*
G01Y-3763670D02*
X24740000D01*
G01X24782000Y-3767000D02*
X24780330Y-3765340D01*
Y-3762000D01*
X24782000Y-3760340D01*
X24783670Y-3762000D01*
Y-3765340D01*
X24782000Y-3767000D01*
G01X24834000Y-3663670D02*
X24827330Y-3667000D01*
X24822330Y-3675340D01*
X24819000Y-3685340D01*
X24816500Y-3698670D01*
X24815670Y-3713670D01*
X24816500Y-3728670D01*
X24819000Y-3742000D01*
X24822330Y-3752010D01*
X24827330Y-3760340D01*
X24834000Y-3763670D01*
X24840670Y-3760340D01*
X24845670Y-3752010D01*
X24849000Y-3742000D01*
X24851500Y-3728670D01*
X24852330Y-3713670D01*
X24851500Y-3698670D01*
X24849000Y-3685340D01*
X24845670Y-3675340D01*
X24840670Y-3667000D01*
X24834000Y-3663670D01*
G01X24870170Y-3680340D02*
X24875170Y-3670340D01*
X24881000Y-3665340D01*
X24887670Y-3663670D01*
X24896000Y-3667000D01*
X24901830Y-3675340D01*
X24903500Y-3685340D01*
X24902670Y-3695340D01*
X24899330Y-3703670D01*
X24882670Y-3720340D01*
X24875170Y-3732000D01*
X24870170Y-3748670D01*
X24868500Y-3763670D01*
X24903500D01*
G01X24938000D02*
Y-3663670D01*
X24928000Y-3683670D01*
G01Y-3763670D02*
X24948000D01*
G01X24974170Y-3680340D02*
X24979170Y-3670340D01*
X24985000Y-3665340D01*
X24991670Y-3663670D01*
X25000000Y-3667000D01*
X25005830Y-3675340D01*
X25007500Y-3685340D01*
X25006670Y-3695340D01*
X25003330Y-3703670D01*
X24986670Y-3720340D01*
X24979170Y-3732000D01*
X24974170Y-3748670D01*
X24972500Y-3763670D01*
X25007500D01*
G01X25072330D02*
Y-3663670D01*
X25094000Y-3747000D01*
X25115670Y-3663670D01*
Y-3763670D01*
G01X25124330D02*
Y-3663670D01*
X25146000Y-3747000D01*
X25167670Y-3663670D01*
Y-3763670D01*
G01X24458500Y2016980D02*
X24358500D01*
X24378500Y2006980D01*
G01X24458500D02*
Y2026980D01*
G01X24425170Y2058150D02*
Y2079810D01*
G01X24458500Y2130980D02*
X24358500D01*
X24430170Y2100150D01*
Y2141810D01*
G01X25344330Y-3072340D02*
Y-3172340D01*
X25377670D01*
G01X25423000D02*
Y-3072340D01*
X25392170Y-3144010D01*
X25433830D01*
G01X25523670Y-3119010D02*
X25527000Y-3114010D01*
X25529500Y-3105680D01*
X25531170Y-3094010D01*
X25529500Y-3084010D01*
X25526170Y-3077340D01*
X25520330Y-3072340D01*
X25497830D01*
Y-3172340D01*
X25525330D01*
X25531170Y-3165670D01*
X25534500Y-3155670D01*
X25536170Y-3144010D01*
X25534500Y-3132340D01*
X25529500Y-3122340D01*
X25523670Y-3119010D01*
X25497830D01*
G01X25569000Y-3172340D02*
X25562330Y-3170670D01*
X25556500Y-3164010D01*
X25551500Y-3154010D01*
X25548170Y-3142340D01*
X25546500Y-3129010D01*
Y-3115670D01*
X25548170Y-3102340D01*
X25551500Y-3090670D01*
X25556500Y-3080670D01*
X25562330Y-3074010D01*
X25569000Y-3072340D01*
X25575670Y-3074010D01*
X25581500Y-3080670D01*
X25586500Y-3090670D01*
X25589830Y-3102340D01*
X25591500Y-3115670D01*
Y-3129010D01*
X25589830Y-3142340D01*
X25586500Y-3154010D01*
X25581500Y-3164010D01*
X25575670Y-3170670D01*
X25569000Y-3172340D01*
G01X25621000Y-3072340D02*
Y-3172340D01*
G01X25601830Y-3072340D02*
X25640170D01*
G01X25673000D02*
Y-3172340D01*
G01X25653830Y-3072340D02*
X25692170D01*
G01X25725000Y-3172340D02*
X25718330Y-3170670D01*
X25712500Y-3164010D01*
X25707500Y-3154010D01*
X25704170Y-3142340D01*
X25702500Y-3129010D01*
Y-3115670D01*
X25704170Y-3102340D01*
X25707500Y-3090670D01*
X25712500Y-3080670D01*
X25718330Y-3074010D01*
X25725000Y-3072340D01*
X25731670Y-3074010D01*
X25737500Y-3080670D01*
X25742500Y-3090670D01*
X25745830Y-3102340D01*
X25747500Y-3115670D01*
Y-3129010D01*
X25745830Y-3142340D01*
X25742500Y-3154010D01*
X25737500Y-3164010D01*
X25731670Y-3170670D01*
X25725000Y-3172340D01*
G01X25755330D02*
Y-3072340D01*
X25777000Y-3155670D01*
X25798670Y-3072340D01*
Y-3172340D01*
G01X25899330Y-3080670D02*
X25894330Y-3075670D01*
X25888500Y-3072340D01*
X25881830D01*
X25874330Y-3077340D01*
X25868500Y-3085670D01*
X25864330Y-3095670D01*
X25861000Y-3112340D01*
X25860170Y-3127340D01*
X25861830Y-3142340D01*
X25864330Y-3152340D01*
X25869330Y-3162340D01*
X25875170Y-3169010D01*
X25881000Y-3172340D01*
X25886830D01*
X25892670Y-3169010D01*
X25897670Y-3164010D01*
X25901830Y-3157340D01*
G01X25933000Y-3172340D02*
X25926330Y-3170670D01*
X25920500Y-3164010D01*
X25915500Y-3154010D01*
X25912170Y-3142340D01*
X25910500Y-3129010D01*
Y-3115670D01*
X25912170Y-3102340D01*
X25915500Y-3090670D01*
X25920500Y-3080670D01*
X25926330Y-3074010D01*
X25933000Y-3072340D01*
X25939670Y-3074010D01*
X25945500Y-3080670D01*
X25950500Y-3090670D01*
X25953830Y-3102340D01*
X25955500Y-3115670D01*
Y-3129010D01*
X25953830Y-3142340D01*
X25950500Y-3154010D01*
X25945500Y-3164010D01*
X25939670Y-3170670D01*
X25933000Y-3172340D01*
G01X25965830D02*
Y-3072340D01*
X26004170Y-3172340D01*
Y-3072340D01*
G01X26018670Y-3172340D02*
Y-3072340D01*
X26035330D01*
X26042000Y-3077340D01*
X26047000Y-3084010D01*
X26051170Y-3094010D01*
X26054500Y-3105680D01*
X26055330Y-3122340D01*
X26054500Y-3139010D01*
X26051170Y-3150670D01*
X26047000Y-3160680D01*
X26042000Y-3167340D01*
X26035330Y-3172340D01*
X26018670D01*
G01X26070670Y-3072340D02*
Y-3144010D01*
X26074000Y-3159010D01*
X26080670Y-3169010D01*
X26089000Y-3172340D01*
X26097330Y-3169010D01*
X26104000Y-3159010D01*
X26107330Y-3144010D01*
Y-3072340D01*
G01X26159330Y-3080670D02*
X26154330Y-3075670D01*
X26148500Y-3072340D01*
X26141830D01*
X26134330Y-3077340D01*
X26128500Y-3085670D01*
X26124330Y-3095670D01*
X26121000Y-3112340D01*
X26120170Y-3127340D01*
X26121830Y-3142340D01*
X26124330Y-3152340D01*
X26129330Y-3162340D01*
X26135170Y-3169010D01*
X26141000Y-3172340D01*
X26146830D01*
X26152670Y-3169010D01*
X26157670Y-3164010D01*
X26161830Y-3157340D01*
G01X26193000Y-3072340D02*
Y-3172340D01*
G01X26173830Y-3072340D02*
X26212170D01*
G01X26245000Y-3172340D02*
X26238330Y-3170670D01*
X26232500Y-3164010D01*
X26227500Y-3154010D01*
X26224170Y-3142340D01*
X26222500Y-3129010D01*
Y-3115670D01*
X26224170Y-3102340D01*
X26227500Y-3090670D01*
X26232500Y-3080670D01*
X26238330Y-3074010D01*
X26245000Y-3072340D01*
X26251670Y-3074010D01*
X26257500Y-3080670D01*
X26262500Y-3090670D01*
X26265830Y-3102340D01*
X26267500Y-3115670D01*
Y-3129010D01*
X26265830Y-3142340D01*
X26262500Y-3154010D01*
X26257500Y-3164010D01*
X26251670Y-3170670D01*
X26245000Y-3172340D01*
G01X26280330D02*
Y-3072340D01*
X26301170D01*
X26307830Y-3077340D01*
X26312000Y-3084010D01*
X26313670Y-3097340D01*
X26312000Y-3110670D01*
X26307000Y-3119010D01*
X26301170Y-3124010D01*
X26280330D01*
G01X26301170D02*
X26313670Y-3172340D01*
G01X25446670Y-3350670D02*
X25483330Y-3277340D01*
G01X25465000Y-3264010D02*
Y-3364010D01*
G01X25483330Y-3350670D02*
X25446670Y-3277340D01*
G01X25440000Y-3314010D02*
X25490000D01*
G01X25603500Y-3334010D02*
X25610170Y-3342340D01*
X25617670Y-3347340D01*
X25624330D01*
X25631000Y-3342340D01*
X25636000Y-3334010D01*
X25638500Y-3322340D01*
X25636830Y-3310680D01*
X25632670Y-3300670D01*
X25625170Y-3294010D01*
X25615170Y-3290670D01*
X25609330Y-3284010D01*
X25606830Y-3272340D01*
X25608500Y-3260670D01*
X25612670Y-3252340D01*
X25618500Y-3247340D01*
X25624330D01*
X25630170Y-3250670D01*
X25635170Y-3259010D01*
G01X25654670Y-3247340D02*
Y-3319010D01*
X25658000Y-3334010D01*
X25664670Y-3344010D01*
X25673000Y-3347340D01*
X25681330Y-3344010D01*
X25688000Y-3334010D01*
X25691330Y-3319010D01*
Y-3247340D01*
G01X25708330Y-3347340D02*
Y-3247340D01*
X25729170D01*
X25735830Y-3252340D01*
X25740000Y-3259010D01*
X25741670Y-3272340D01*
X25740000Y-3285670D01*
X25735000Y-3294010D01*
X25729170Y-3299010D01*
X25708330D01*
G01X25729170D02*
X25741670Y-3347340D01*
G01X25761170D02*
Y-3247340D01*
X25792830D01*
G01X25781170Y-3295670D02*
X25761170D01*
G01X25808170Y-3347340D02*
X25829000Y-3247340D01*
X25849830Y-3347340D01*
G01X25842330Y-3312340D02*
X25815670D01*
G01X25899330Y-3255670D02*
X25894330Y-3250670D01*
X25888500Y-3247340D01*
X25881830D01*
X25874330Y-3252340D01*
X25868500Y-3260670D01*
X25864330Y-3270670D01*
X25861000Y-3287340D01*
X25860170Y-3302340D01*
X25861830Y-3317340D01*
X25864330Y-3327340D01*
X25869330Y-3337340D01*
X25875170Y-3344010D01*
X25881000Y-3347340D01*
X25886830D01*
X25892670Y-3344010D01*
X25897670Y-3339010D01*
X25901830Y-3332340D01*
G01X25949670Y-3347340D02*
X25916330D01*
Y-3247340D01*
X25949670D01*
G01X25936330Y-3295670D02*
X25916330D01*
G01X25446670Y-2516340D02*
X25483330Y-2443010D01*
G01X25465000Y-2429680D02*
Y-2529680D01*
G01X25483330Y-2516340D02*
X25446670Y-2443010D01*
G01X25440000Y-2479680D02*
X25490000D01*
G01X25602670Y-2513010D02*
Y-2413010D01*
X25619330D01*
X25626000Y-2418010D01*
X25631000Y-2424680D01*
X25635170Y-2434680D01*
X25638500Y-2446350D01*
X25639330Y-2463010D01*
X25638500Y-2479680D01*
X25635170Y-2491340D01*
X25631000Y-2501350D01*
X25626000Y-2508010D01*
X25619330Y-2513010D01*
X25602670D01*
G01X25663000Y-2413010D02*
X25683000D01*
G01X25673000D02*
Y-2513010D01*
G01X25663000D02*
X25683000D01*
G01X25741670D02*
X25708330D01*
Y-2413010D01*
X25741670D01*
G01X25728330Y-2461340D02*
X25708330D01*
G01X25760330Y-2413010D02*
Y-2513010D01*
X25793670D01*
G01X25845670D02*
X25812330D01*
Y-2413010D01*
X25845670D01*
G01X25832330Y-2461340D02*
X25812330D01*
G01X25899330Y-2421340D02*
X25894330Y-2416340D01*
X25888500Y-2413010D01*
X25881830D01*
X25874330Y-2418010D01*
X25868500Y-2426340D01*
X25864330Y-2436340D01*
X25861000Y-2453010D01*
X25860170Y-2468010D01*
X25861830Y-2483010D01*
X25864330Y-2493010D01*
X25869330Y-2503010D01*
X25875170Y-2509680D01*
X25881000Y-2513010D01*
X25886830D01*
X25892670Y-2509680D01*
X25897670Y-2504680D01*
X25901830Y-2498010D01*
G01X25933000Y-2413010D02*
Y-2513010D01*
G01X25913830Y-2413010D02*
X25952170D01*
G01X25968330Y-2513010D02*
Y-2413010D01*
X25989170D01*
X25995830Y-2418010D01*
X26000000Y-2424680D01*
X26001670Y-2438010D01*
X26000000Y-2451340D01*
X25995000Y-2459680D01*
X25989170Y-2464680D01*
X25968330D01*
G01X25989170D02*
X26001670Y-2513010D01*
G01X26027000Y-2413010D02*
X26047000D01*
G01X26037000D02*
Y-2513010D01*
G01X26027000D02*
X26047000D01*
G01X26107330Y-2421340D02*
X26102330Y-2416340D01*
X26096500Y-2413010D01*
X26089830D01*
X26082330Y-2418010D01*
X26076500Y-2426340D01*
X26072330Y-2436340D01*
X26069000Y-2453010D01*
X26068170Y-2468010D01*
X26069830Y-2483010D01*
X26072330Y-2493010D01*
X26077330Y-2503010D01*
X26083170Y-2509680D01*
X26089000Y-2513010D01*
X26094830D01*
X26100670Y-2509680D01*
X26105670Y-2504680D01*
X26109830Y-2498010D01*
G01X25344330Y-1944340D02*
Y-2044340D01*
X25377670D01*
G01X25394670Y-2024340D02*
X25399670Y-2036010D01*
X25406330Y-2042670D01*
X25413830Y-2044340D01*
X25420500Y-2042670D01*
X25427170Y-2034340D01*
X25431330Y-2024340D01*
X25432170Y-2014340D01*
X25430500Y-2002680D01*
X25424670Y-1994340D01*
X25418830Y-1991010D01*
X25411330D01*
G01X25418830D02*
X25423830Y-1986010D01*
X25428000Y-1977680D01*
X25429670Y-1967670D01*
X25428000Y-1957670D01*
X25423830Y-1949340D01*
X25416330Y-1944340D01*
X25408830Y-1946010D01*
X25401330Y-1952670D01*
G01X25496170Y-1944340D02*
X25517000Y-2044340D01*
X25537830Y-1944340D01*
G01X25587330Y-1952670D02*
X25582330Y-1947670D01*
X25576500Y-1944340D01*
X25569830D01*
X25562330Y-1949340D01*
X25556500Y-1957670D01*
X25552330Y-1967670D01*
X25549000Y-1984340D01*
X25548170Y-1999340D01*
X25549830Y-2014340D01*
X25552330Y-2024340D01*
X25557330Y-2034340D01*
X25563170Y-2041010D01*
X25569000Y-2044340D01*
X25574830D01*
X25580670Y-2041010D01*
X25585670Y-2036010D01*
X25589830Y-2029340D01*
G01X25639330Y-1952670D02*
X25634330Y-1947670D01*
X25628500Y-1944340D01*
X25621830D01*
X25614330Y-1949340D01*
X25608500Y-1957670D01*
X25604330Y-1967670D01*
X25601000Y-1984340D01*
X25600170Y-1999340D01*
X25601830Y-2014340D01*
X25604330Y-2024340D01*
X25609330Y-2034340D01*
X25615170Y-2041010D01*
X25621000Y-2044340D01*
X25626830D01*
X25632670Y-2041010D01*
X25637670Y-2036010D01*
X25641830Y-2029340D01*
G01X25743330Y-1952670D02*
X25738330Y-1947670D01*
X25732500Y-1944340D01*
X25725830D01*
X25718330Y-1949340D01*
X25712500Y-1957670D01*
X25708330Y-1967670D01*
X25705000Y-1984340D01*
X25704170Y-1999340D01*
X25705830Y-2014340D01*
X25708330Y-2024340D01*
X25713330Y-2034340D01*
X25719170Y-2041010D01*
X25725000Y-2044340D01*
X25730830D01*
X25736670Y-2041010D01*
X25741670Y-2036010D01*
X25745830Y-2029340D01*
G01X25777000Y-2044340D02*
X25770330Y-2042670D01*
X25764500Y-2036010D01*
X25759500Y-2026010D01*
X25756170Y-2014340D01*
X25754500Y-2001010D01*
Y-1987670D01*
X25756170Y-1974340D01*
X25759500Y-1962670D01*
X25764500Y-1952670D01*
X25770330Y-1946010D01*
X25777000Y-1944340D01*
X25783670Y-1946010D01*
X25789500Y-1952670D01*
X25794500Y-1962670D01*
X25797830Y-1974340D01*
X25799500Y-1987670D01*
Y-2001010D01*
X25797830Y-2014340D01*
X25794500Y-2026010D01*
X25789500Y-2036010D01*
X25783670Y-2042670D01*
X25777000Y-2044340D01*
G01X25809830D02*
Y-1944340D01*
X25848170Y-2044340D01*
Y-1944340D01*
G01X25862670Y-2044340D02*
Y-1944340D01*
X25879330D01*
X25886000Y-1949340D01*
X25891000Y-1956010D01*
X25895170Y-1966010D01*
X25898500Y-1977680D01*
X25899330Y-1994340D01*
X25898500Y-2011010D01*
X25895170Y-2022670D01*
X25891000Y-2032680D01*
X25886000Y-2039340D01*
X25879330Y-2044340D01*
X25862670D01*
G01X25914670Y-1944340D02*
Y-2016010D01*
X25918000Y-2031010D01*
X25924670Y-2041010D01*
X25933000Y-2044340D01*
X25941330Y-2041010D01*
X25948000Y-2031010D01*
X25951330Y-2016010D01*
Y-1944340D01*
G01X26003330Y-1952670D02*
X25998330Y-1947670D01*
X25992500Y-1944340D01*
X25985830D01*
X25978330Y-1949340D01*
X25972500Y-1957670D01*
X25968330Y-1967670D01*
X25965000Y-1984340D01*
X25964170Y-1999340D01*
X25965830Y-2014340D01*
X25968330Y-2024340D01*
X25973330Y-2034340D01*
X25979170Y-2041010D01*
X25985000Y-2044340D01*
X25990830D01*
X25996670Y-2041010D01*
X26001670Y-2036010D01*
X26005830Y-2029340D01*
G01X26037000Y-1944340D02*
Y-2044340D01*
G01X26017830Y-1944340D02*
X26056170D01*
G01X26089000Y-2044340D02*
X26082330Y-2042670D01*
X26076500Y-2036010D01*
X26071500Y-2026010D01*
X26068170Y-2014340D01*
X26066500Y-2001010D01*
Y-1987670D01*
X26068170Y-1974340D01*
X26071500Y-1962670D01*
X26076500Y-1952670D01*
X26082330Y-1946010D01*
X26089000Y-1944340D01*
X26095670Y-1946010D01*
X26101500Y-1952670D01*
X26106500Y-1962670D01*
X26109830Y-1974340D01*
X26111500Y-1987670D01*
Y-2001010D01*
X26109830Y-2014340D01*
X26106500Y-2026010D01*
X26101500Y-2036010D01*
X26095670Y-2042670D01*
X26089000Y-2044340D01*
G01X26124330D02*
Y-1944340D01*
X26145170D01*
X26151830Y-1949340D01*
X26156000Y-1956010D01*
X26157670Y-1969340D01*
X26156000Y-1982670D01*
X26151000Y-1991010D01*
X26145170Y-1996010D01*
X26124330D01*
G01X26145170D02*
X26157670Y-2044340D01*
G01X25446670Y-664340D02*
X25483330Y-591010D01*
G01X25465000Y-577680D02*
Y-677680D01*
G01X25483330Y-664340D02*
X25446670Y-591010D01*
G01X25440000Y-627680D02*
X25490000D01*
G01X25602670Y-661010D02*
Y-561010D01*
X25619330D01*
X25626000Y-566010D01*
X25631000Y-572680D01*
X25635170Y-582680D01*
X25638500Y-594350D01*
X25639330Y-611010D01*
X25638500Y-627680D01*
X25635170Y-639340D01*
X25631000Y-649350D01*
X25626000Y-656010D01*
X25619330Y-661010D01*
X25602670D01*
G01X25663000Y-561010D02*
X25683000D01*
G01X25673000D02*
Y-661010D01*
G01X25663000D02*
X25683000D01*
G01X25741670D02*
X25708330D01*
Y-561010D01*
X25741670D01*
G01X25728330Y-609340D02*
X25708330D01*
G01X25760330Y-561010D02*
Y-661010D01*
X25793670D01*
G01X25845670D02*
X25812330D01*
Y-561010D01*
X25845670D01*
G01X25832330Y-609340D02*
X25812330D01*
G01X25899330Y-569340D02*
X25894330Y-564340D01*
X25888500Y-561010D01*
X25881830D01*
X25874330Y-566010D01*
X25868500Y-574340D01*
X25864330Y-584340D01*
X25861000Y-601010D01*
X25860170Y-616010D01*
X25861830Y-631010D01*
X25864330Y-641010D01*
X25869330Y-651010D01*
X25875170Y-657680D01*
X25881000Y-661010D01*
X25886830D01*
X25892670Y-657680D01*
X25897670Y-652680D01*
X25901830Y-646010D01*
G01X25933000Y-561010D02*
Y-661010D01*
G01X25913830Y-561010D02*
X25952170D01*
G01X25968330Y-661010D02*
Y-561010D01*
X25989170D01*
X25995830Y-566010D01*
X26000000Y-572680D01*
X26001670Y-586010D01*
X26000000Y-599340D01*
X25995000Y-607680D01*
X25989170Y-612680D01*
X25968330D01*
G01X25989170D02*
X26001670Y-661010D01*
G01X26027000Y-561010D02*
X26047000D01*
G01X26037000D02*
Y-661010D01*
G01X26027000D02*
X26047000D01*
G01X26107330Y-569340D02*
X26102330Y-564340D01*
X26096500Y-561010D01*
X26089830D01*
X26082330Y-566010D01*
X26076500Y-574340D01*
X26072330Y-584340D01*
X26069000Y-601010D01*
X26068170Y-616010D01*
X26069830Y-631010D01*
X26072330Y-641010D01*
X26077330Y-651010D01*
X26083170Y-657680D01*
X26089000Y-661010D01*
X26094830D01*
X26100670Y-657680D01*
X26105670Y-652680D01*
X26109830Y-646010D01*
G01X25344330Y631650D02*
Y531650D01*
X25377670D01*
G01X25397170Y614980D02*
X25402170Y624980D01*
X25408000Y629980D01*
X25414670Y631650D01*
X25423000Y628320D01*
X25428830Y619980D01*
X25430500Y609980D01*
X25429670Y599980D01*
X25426330Y591650D01*
X25409670Y574980D01*
X25402170Y563320D01*
X25397170Y546650D01*
X25395500Y531650D01*
X25430500D01*
G01X25522000Y581650D02*
X25538670D01*
Y551650D01*
X25533670Y541650D01*
X25527830Y534980D01*
X25519500Y531650D01*
X25511170Y534980D01*
X25505330Y541650D01*
X25500330Y551650D01*
X25497000Y563320D01*
X25495330Y576650D01*
Y588320D01*
X25497000Y598310D01*
X25500330Y609980D01*
X25505330Y619980D01*
X25510330Y626650D01*
X25517000Y631650D01*
X25522830D01*
X25529500Y628320D01*
X25534500Y621650D01*
G01X25549830Y531650D02*
Y631650D01*
X25588170Y531650D01*
Y631650D01*
G01X25602670Y531650D02*
Y631650D01*
X25619330D01*
X25626000Y626650D01*
X25631000Y619980D01*
X25635170Y609980D01*
X25638500Y598310D01*
X25639330Y581650D01*
X25638500Y564980D01*
X25635170Y553320D01*
X25631000Y543310D01*
X25626000Y536650D01*
X25619330Y531650D01*
X25602670D01*
G01X25743330Y623320D02*
X25738330Y628320D01*
X25732500Y631650D01*
X25725830D01*
X25718330Y626650D01*
X25712500Y618320D01*
X25708330Y608320D01*
X25705000Y591650D01*
X25704170Y576650D01*
X25705830Y561650D01*
X25708330Y551650D01*
X25713330Y541650D01*
X25719170Y534980D01*
X25725000Y531650D01*
X25730830D01*
X25736670Y534980D01*
X25741670Y539980D01*
X25745830Y546650D01*
G01X25777000Y531650D02*
X25770330Y533320D01*
X25764500Y539980D01*
X25759500Y549980D01*
X25756170Y561650D01*
X25754500Y574980D01*
Y588320D01*
X25756170Y601650D01*
X25759500Y613320D01*
X25764500Y623320D01*
X25770330Y629980D01*
X25777000Y631650D01*
X25783670Y629980D01*
X25789500Y623320D01*
X25794500Y613320D01*
X25797830Y601650D01*
X25799500Y588320D01*
Y574980D01*
X25797830Y561650D01*
X25794500Y549980D01*
X25789500Y539980D01*
X25783670Y533320D01*
X25777000Y531650D01*
G01X25809830D02*
Y631650D01*
X25848170Y531650D01*
Y631650D01*
G01X25862670Y531650D02*
Y631650D01*
X25879330D01*
X25886000Y626650D01*
X25891000Y619980D01*
X25895170Y609980D01*
X25898500Y598310D01*
X25899330Y581650D01*
X25898500Y564980D01*
X25895170Y553320D01*
X25891000Y543310D01*
X25886000Y536650D01*
X25879330Y531650D01*
X25862670D01*
G01X25914670Y631650D02*
Y559980D01*
X25918000Y544980D01*
X25924670Y534980D01*
X25933000Y531650D01*
X25941330Y534980D01*
X25948000Y544980D01*
X25951330Y559980D01*
Y631650D01*
G01X26003330Y623320D02*
X25998330Y628320D01*
X25992500Y631650D01*
X25985830D01*
X25978330Y626650D01*
X25972500Y618320D01*
X25968330Y608320D01*
X25965000Y591650D01*
X25964170Y576650D01*
X25965830Y561650D01*
X25968330Y551650D01*
X25973330Y541650D01*
X25979170Y534980D01*
X25985000Y531650D01*
X25990830D01*
X25996670Y534980D01*
X26001670Y539980D01*
X26005830Y546650D01*
G01X26037000Y631650D02*
Y531650D01*
G01X26017830Y631650D02*
X26056170D01*
G01X26089000Y531650D02*
X26082330Y533320D01*
X26076500Y539980D01*
X26071500Y549980D01*
X26068170Y561650D01*
X26066500Y574980D01*
Y588320D01*
X26068170Y601650D01*
X26071500Y613320D01*
X26076500Y623320D01*
X26082330Y629980D01*
X26089000Y631650D01*
X26095670Y629980D01*
X26101500Y623320D01*
X26106500Y613320D01*
X26109830Y601650D01*
X26111500Y588320D01*
Y574980D01*
X26109830Y561650D01*
X26106500Y549980D01*
X26101500Y539980D01*
X26095670Y533320D01*
X26089000Y531650D01*
G01X26124330D02*
Y631650D01*
X26145170D01*
X26151830Y626650D01*
X26156000Y619980D01*
X26157670Y606650D01*
X26156000Y593320D01*
X26151000Y584980D01*
X26145170Y579980D01*
X26124330D01*
G01X26145170D02*
X26157670Y531650D01*
G01X25446670Y1187650D02*
X25483330Y1260980D01*
G01X25465000Y1274310D02*
Y1174310D01*
G01X25483330Y1187650D02*
X25446670Y1260980D01*
G01X25440000Y1224310D02*
X25490000D01*
G01X25602670Y1190980D02*
Y1290980D01*
X25619330D01*
X25626000Y1285980D01*
X25631000Y1279310D01*
X25635170Y1269310D01*
X25638500Y1257640D01*
X25639330Y1240980D01*
X25638500Y1224310D01*
X25635170Y1212650D01*
X25631000Y1202640D01*
X25626000Y1195980D01*
X25619330Y1190980D01*
X25602670D01*
G01X25663000Y1290980D02*
X25683000D01*
G01X25673000D02*
Y1190980D01*
G01X25663000D02*
X25683000D01*
G01X25741670D02*
X25708330D01*
Y1290980D01*
X25741670D01*
G01X25728330Y1242650D02*
X25708330D01*
G01X25760330Y1290980D02*
Y1190980D01*
X25793670D01*
G01X25845670D02*
X25812330D01*
Y1290980D01*
X25845670D01*
G01X25832330Y1242650D02*
X25812330D01*
G01X25899330Y1282650D02*
X25894330Y1287650D01*
X25888500Y1290980D01*
X25881830D01*
X25874330Y1285980D01*
X25868500Y1277650D01*
X25864330Y1267650D01*
X25861000Y1250980D01*
X25860170Y1235980D01*
X25861830Y1220980D01*
X25864330Y1210980D01*
X25869330Y1200980D01*
X25875170Y1194310D01*
X25881000Y1190980D01*
X25886830D01*
X25892670Y1194310D01*
X25897670Y1199310D01*
X25901830Y1205980D01*
G01X25933000Y1290980D02*
Y1190980D01*
G01X25913830Y1290980D02*
X25952170D01*
G01X25968330Y1190980D02*
Y1290980D01*
X25989170D01*
X25995830Y1285980D01*
X26000000Y1279310D01*
X26001670Y1265980D01*
X26000000Y1252650D01*
X25995000Y1244310D01*
X25989170Y1239310D01*
X25968330D01*
G01X25989170D02*
X26001670Y1190980D01*
G01X26027000Y1290980D02*
X26047000D01*
G01X26037000D02*
Y1190980D01*
G01X26027000D02*
X26047000D01*
G01X26107330Y1282650D02*
X26102330Y1287650D01*
X26096500Y1290980D01*
X26089830D01*
X26082330Y1285980D01*
X26076500Y1277650D01*
X26072330Y1267650D01*
X26069000Y1250980D01*
X26068170Y1235980D01*
X26069830Y1220980D01*
X26072330Y1210980D01*
X26077330Y1200980D01*
X26083170Y1194310D01*
X26089000Y1190980D01*
X26094830D01*
X26100670Y1194310D01*
X26105670Y1199310D01*
X26109830Y1205980D01*
G01X25344330Y1858650D02*
Y1758650D01*
X25377670D01*
G01X25413000D02*
Y1858650D01*
X25403000Y1838650D01*
G01Y1758650D02*
X25423000D01*
G01X25517000Y1858650D02*
Y1758650D01*
G01X25497830Y1858650D02*
X25536170D01*
G01X25569000Y1758650D02*
X25562330Y1760320D01*
X25556500Y1766980D01*
X25551500Y1776980D01*
X25548170Y1788650D01*
X25546500Y1801980D01*
Y1815320D01*
X25548170Y1828650D01*
X25551500Y1840320D01*
X25556500Y1850320D01*
X25562330Y1856980D01*
X25569000Y1858650D01*
X25575670Y1856980D01*
X25581500Y1850320D01*
X25586500Y1840320D01*
X25589830Y1828650D01*
X25591500Y1815320D01*
Y1801980D01*
X25589830Y1788650D01*
X25586500Y1776980D01*
X25581500Y1766980D01*
X25575670Y1760320D01*
X25569000Y1758650D01*
G01X25604330D02*
Y1858650D01*
X25624330D01*
X25631000Y1853650D01*
X25636000Y1841980D01*
X25637670Y1828650D01*
X25636000Y1815320D01*
X25631830Y1805320D01*
X25624330Y1800310D01*
X25604330D01*
G01X25743330Y1850320D02*
X25738330Y1855320D01*
X25732500Y1858650D01*
X25725830D01*
X25718330Y1853650D01*
X25712500Y1845320D01*
X25708330Y1835320D01*
X25705000Y1818650D01*
X25704170Y1803650D01*
X25705830Y1788650D01*
X25708330Y1778650D01*
X25713330Y1768650D01*
X25719170Y1761980D01*
X25725000Y1758650D01*
X25730830D01*
X25736670Y1761980D01*
X25741670Y1766980D01*
X25745830Y1773650D01*
G01X25777000Y1758650D02*
X25770330Y1760320D01*
X25764500Y1766980D01*
X25759500Y1776980D01*
X25756170Y1788650D01*
X25754500Y1801980D01*
Y1815320D01*
X25756170Y1828650D01*
X25759500Y1840320D01*
X25764500Y1850320D01*
X25770330Y1856980D01*
X25777000Y1858650D01*
X25783670Y1856980D01*
X25789500Y1850320D01*
X25794500Y1840320D01*
X25797830Y1828650D01*
X25799500Y1815320D01*
Y1801980D01*
X25797830Y1788650D01*
X25794500Y1776980D01*
X25789500Y1766980D01*
X25783670Y1760320D01*
X25777000Y1758650D01*
G01X25809830D02*
Y1858650D01*
X25848170Y1758650D01*
Y1858650D01*
G01X25862670Y1758650D02*
Y1858650D01*
X25879330D01*
X25886000Y1853650D01*
X25891000Y1846980D01*
X25895170Y1836980D01*
X25898500Y1825310D01*
X25899330Y1808650D01*
X25898500Y1791980D01*
X25895170Y1780320D01*
X25891000Y1770310D01*
X25886000Y1763650D01*
X25879330Y1758650D01*
X25862670D01*
G01X25914670Y1858650D02*
Y1786980D01*
X25918000Y1771980D01*
X25924670Y1761980D01*
X25933000Y1758650D01*
X25941330Y1761980D01*
X25948000Y1771980D01*
X25951330Y1786980D01*
Y1858650D01*
G01X26003330Y1850320D02*
X25998330Y1855320D01*
X25992500Y1858650D01*
X25985830D01*
X25978330Y1853650D01*
X25972500Y1845320D01*
X25968330Y1835320D01*
X25965000Y1818650D01*
X25964170Y1803650D01*
X25965830Y1788650D01*
X25968330Y1778650D01*
X25973330Y1768650D01*
X25979170Y1761980D01*
X25985000Y1758650D01*
X25990830D01*
X25996670Y1761980D01*
X26001670Y1766980D01*
X26005830Y1773650D01*
G01X26037000Y1858650D02*
Y1758650D01*
G01X26017830Y1858650D02*
X26056170D01*
G01X26089000Y1758650D02*
X26082330Y1760320D01*
X26076500Y1766980D01*
X26071500Y1776980D01*
X26068170Y1788650D01*
X26066500Y1801980D01*
Y1815320D01*
X26068170Y1828650D01*
X26071500Y1840320D01*
X26076500Y1850320D01*
X26082330Y1856980D01*
X26089000Y1858650D01*
X26095670Y1856980D01*
X26101500Y1850320D01*
X26106500Y1840320D01*
X26109830Y1828650D01*
X26111500Y1815320D01*
Y1801980D01*
X26109830Y1788650D01*
X26106500Y1776980D01*
X26101500Y1766980D01*
X26095670Y1760320D01*
X26089000Y1758650D01*
G01X26124330D02*
Y1858650D01*
X26145170D01*
X26151830Y1853650D01*
X26156000Y1846980D01*
X26157670Y1833650D01*
X26156000Y1820320D01*
X26151000Y1811980D01*
X26145170Y1806980D01*
X26124330D01*
G01X26145170D02*
X26157670Y1758650D01*
G01X25446670Y1921980D02*
X25483330Y1995310D01*
G01X25465000Y2008640D02*
Y1908640D01*
G01X25483330Y1921980D02*
X25446670Y1995310D01*
G01X25440000Y1958640D02*
X25490000D01*
G01X25603500Y1938640D02*
X25610170Y1930310D01*
X25617670Y1925310D01*
X25624330D01*
X25631000Y1930310D01*
X25636000Y1938640D01*
X25638500Y1950310D01*
X25636830Y1961970D01*
X25632670Y1971980D01*
X25625170Y1978640D01*
X25615170Y1981980D01*
X25609330Y1988640D01*
X25606830Y2000310D01*
X25608500Y2011980D01*
X25612670Y2020310D01*
X25618500Y2025310D01*
X25624330D01*
X25630170Y2021980D01*
X25635170Y2013640D01*
G01X25654670Y2025310D02*
Y1953640D01*
X25658000Y1938640D01*
X25664670Y1928640D01*
X25673000Y1925310D01*
X25681330Y1928640D01*
X25688000Y1938640D01*
X25691330Y1953640D01*
Y2025310D01*
G01X25708330Y1925310D02*
Y2025310D01*
X25729170D01*
X25735830Y2020310D01*
X25740000Y2013640D01*
X25741670Y2000310D01*
X25740000Y1986980D01*
X25735000Y1978640D01*
X25729170Y1973640D01*
X25708330D01*
G01X25729170D02*
X25741670Y1925310D01*
G01X25761170D02*
Y2025310D01*
X25792830D01*
G01X25781170Y1976980D02*
X25761170D01*
G01X25808170Y1925310D02*
X25829000Y2025310D01*
X25849830Y1925310D01*
G01X25842330Y1960310D02*
X25815670D01*
G01X25899330Y2016980D02*
X25894330Y2021980D01*
X25888500Y2025310D01*
X25881830D01*
X25874330Y2020310D01*
X25868500Y2011980D01*
X25864330Y2001980D01*
X25861000Y1985310D01*
X25860170Y1970310D01*
X25861830Y1955310D01*
X25864330Y1945310D01*
X25869330Y1935310D01*
X25875170Y1928640D01*
X25881000Y1925310D01*
X25886830D01*
X25892670Y1928640D01*
X25897670Y1933640D01*
X25901830Y1940310D01*
G01X25949670Y1925310D02*
X25916330D01*
Y2025310D01*
X25949670D01*
G01X25936330Y1976980D02*
X25916330D01*
G54D16*
X1030000Y-1240000D03*
D03*
X1530000D03*
D03*
X3390000D03*
D03*
X3890000D03*
D03*
G54D17*
X1030000D03*
X1530000D03*
X3390000D03*
X3890000D03*
X11061730Y-3192500D03*
G54D18*
X2210000Y-430000D03*
D03*
X2010000Y-250000D03*
D03*
X4330000Y-220000D03*
D03*
X4550000Y-400000D03*
D03*
G54D19*
X2210000Y-430000D03*
X2010000Y-250000D03*
X4330000Y-220000D03*
X4550000Y-400000D03*
X11061730Y-2557500D03*
M02*
