G04 ================== begin FILE IDENTIFICATION RECORD ==================*
G04 Layout Name:  F:/MyTemporary/Github/GLPP2024/1-PSU/PSU-A1.brd*
G04 Film Name:    GND*
G04 File Format:  Gerber RS274X*
G04 File Origin:  Cadence Allegro 22.1-P001*
G04 Origin Date:  Tue Apr 23 14:00:41 2024*
G04 *
G04 Layer:  ETCH/GND*
G04 Layer:  PIN/GND*
G04 Layer:  VIA CLASS/GND*
G04 *
G04 Offset:    (0.0000 0.0000)*
G04 Mirror:    No*
G04 Mode:      Positive*
G04 Rotation:  0*
G04 FullContactRelief:  No*
G04 UndefLineWidth:     0.2540*
G04 ================== end FILE IDENTIFICATION RECORD ====================*
%FSLAX25Y25*MOMM*%
%IR0*IPPOS*OFA0.00000B0.00000*MIA0B0*SFA1.00000B1.00000*%
%ADD12C,.3*%
%ADD11C,.4*%
%ADD16C,1.2*%
%ADD10C,3.1*%
%ADD15C,1.5*%
%ADD13C,2.5*%
%ADD14C,1.8*%
%ADD19C,2.2004*%
%ADD18C,1.3004*%
%ADD21C,4.1004*%
%ADD17C,1.4004*%
%ADD20C,3.5004*%
G75*
%LPD*%
G75*
G36*
G01X4432430Y-100010D02*
X8899990D01*
Y-2399990D01*
X401320D01*
G02X396540Y-2380870I6J10159D01*
G03X505020Y-2200000I-96543J180870D01*
G03X300000Y-1994980I-205020J0D01*
G03X119130Y-2103460I0J-205023D01*
G02X100010Y-2098680I-8961J4786D01*
G01Y-401320D01*
G02X119130Y-396540I10159J-6D01*
G03X300000Y-505020I180870J96543D01*
G03X505020Y-300000I0J205020D01*
G03X396540Y-119130I-205023J0D01*
G02X401320Y-100010I4786J8961D01*
G01X1955210D01*
G02X1958920Y-119630I5J-10160D01*
G03X1869980Y-250000I51079J-130370D01*
G03X2150020I140020J0D01*
G03X2061080Y-119630I-140019J0D01*
G02X2064790Y-100010I3705J9460D01*
G01X4227570D01*
G02X4234500Y-117600I2J-10159D01*
G03X4189980Y-220000I95505J-102400D01*
G03X4470020I140020J0D01*
G03X4425500Y-117600I-140025J0D01*
G02X4432430Y-100010I6928J7431D01*
G37*
%LPC*%
G75*
G36*
G01X1469880Y-2180020D02*
G02X1435000Y-2170640I128J70019D01*
G02X1400000Y-2180020I-35008J60638D01*
G02Y-2039980I0J70020D01*
G02X1435000Y-2049360I-8J-70018D01*
G02X1470000Y-2039980I35008J-60638D01*
G02X1540020Y-2110000I0J-70020D01*
G02X1539990Y-2112200I-70022J-145D01*
G03X1550120Y-2122680I10153J-322D01*
G02X1620020Y-2192700I-120J-70020D01*
G02X1613890Y-2221350I-70016J0D01*
G02Y-2278650I-63886J-28650D01*
G02X1620020Y-2307300I-63886J-28650D01*
G02X1479980I-70020J0D01*
G02X1486110Y-2278650I70016J0D01*
G02Y-2221350I63886J28650D01*
G02X1479980Y-2192700I63886J28650D01*
G02X1480010Y-2190500I70022J145D01*
G03X1469880Y-2180020I-10153J322D01*
G37*
G36*
G01X4845880Y-2127520D02*
G03Y-2112480I-6839J7520D01*
G02X4804980Y-2020000I84117J92486D01*
G02X4930000Y-1894980I125020J0D01*
G02X5022480Y-1935880I-6J-125017D01*
G03X5037520I7520J6839D01*
G02X5130000Y-1894980I92486J-84117D01*
G02X5255020Y-2020000I0J-125020D01*
G02X5214120Y-2112480I-125017J6D01*
G03Y-2127520I6839J-7520D01*
G02X5255020Y-2220000I-84117J-92486D01*
G02X5130000Y-2345020I-125020J0D01*
G02X5037520Y-2304120I6J125017D01*
G03X5022480I-7520J-6839D01*
G02X4930000Y-2345020I-92486J84117D01*
G02X4804980Y-2220000I0J125020D01*
G02X4845880Y-2127520I125017J-6D01*
G37*
G36*
G01X7055520Y-2000980D02*
G03X7058660Y-1987460I-5658J8439D01*
G02X7049980Y-1955000I56341J32456D01*
G02X7180020I65020J0D01*
G02X7151180Y-2009020I-65012J0D01*
G03X7148040Y-2022540I5658J-8439D01*
G02X7156720Y-2055000I-56341J-32456D01*
G02X7152390Y-2078320I-65018J10D01*
G02X7181320Y-2132400I-36082J-54080D01*
G02X7161740Y-2178900I-65018J5D01*
G03X7163290Y-2194680I7102J-7269D01*
G02X7195020Y-2253300I-38284J-58620D01*
G02X7054980I-70020J0D01*
G02X7078710Y-2200760I70029J0D01*
G03X7077980Y-2184930I-6715J7622D01*
G02X7051280Y-2132400I38324J52530D01*
G02X7055610Y-2109080I65018J-10D01*
G02X7026680Y-2055000I36082J54080D01*
G02X7055520Y-2000980I65012J0D01*
G37*
G36*
G01X7995120Y-1913580D02*
G02X8017300Y-1909980I22163J-66423D01*
G02Y-2050020I0J-70020D01*
G02X7958830Y-2018530I0J70028D01*
G02X7945000Y-2020020I-13840J63529D01*
G02Y-1889980I0J65020D01*
G02X7995120Y-1913580I0J-65021D01*
G37*
G36*
G01X864020Y-1681290D02*
G03X867250Y-1667380I-5422J8589D01*
G02X856880Y-1630700I59653J36671D01*
G02X910050Y-1562740I70017J0D01*
G02X976500Y-1514780I66450J-22054D01*
G02X1046520Y-1584800I0J-70020D01*
G02X993350Y-1652760I-70017J0D01*
G02X964280Y-1689910I-66456J22053D01*
G03X961050Y-1703820I5422J-8589D01*
G02X971420Y-1740500I-59653J-36671D01*
G02X945300Y-1795050I-70022J0D01*
G03X945180Y-1810790I6365J-7919D01*
G02X970520Y-1864700I-44676J-53910D01*
G02X830480I-70020J0D01*
G02X861550Y-1806520I70007J0D01*
G03X861610Y-1798110I-2826J4225D01*
G02X854200Y-1792220I39764J57632D01*
G02X805000Y-1812420I-49200J49817D01*
G02Y-1672380I0J70020D01*
G02X852200Y-1690680I0J-70020D01*
G02X864020Y-1681290I49211J-49811D01*
G37*
G36*
G01X4620000Y-1532290D02*
G02X4586700Y-1540720I-33308J61588D01*
G02X4516680Y-1470700I0J70020D01*
G02X4521890Y-1444200I70019J-4D01*
G02X4516680Y-1417700I64809J26504D01*
G02X4586700Y-1347680I70020J0D01*
G02X4620000Y-1356110I-8J-70018D01*
G02X4653300Y-1347680I33308J-61588D01*
G02X4723320Y-1417700I0J-70020D01*
G02X4718110Y-1444200I-70019J4D01*
G02X4723320Y-1470700I-64809J-26504D01*
G02X4653300Y-1540720I-70020J0D01*
G02X4620000Y-1532290I8J70018D01*
G37*
G36*
G01X8593390Y-1277860D02*
G02X8554400Y-1289720I-38990J58160D01*
G02X8515320Y-1277800I0J70022D01*
G02X8478900Y-1288020I-36424J59799D01*
G02Y-1147980I0J70020D01*
G02X8517980Y-1159900I0J-70022D01*
G02X8554400Y-1149680I36424J-59799D01*
G02X8596210Y-1163540I-8J-70017D01*
G02X8635200Y-1151680I38990J-58160D01*
G02Y-1291720I0J-70020D01*
G02X8593390Y-1277860I8J70017D01*
G37*
G36*
G01X4905290Y-1145380D02*
G02X4937600Y-1136780I32316J-56418D01*
G02X4959610Y-1140620I-4J-65019D01*
G02X4967970Y-1135270I41829J-56155D01*
G02X5029700Y-1090680I61730J-20434D01*
G02X5094720Y-1155700I0J-65020D01*
G02X5070800Y-1206080I-65015J0D01*
G02X5001400Y-1266820I-69400J9277D01*
G02X4968870Y-1258810I-9J70022D01*
G02X4937600Y-1266820I-31265J57011D01*
G02X4911580Y-1261390I-8J65022D01*
G02X4869400Y-1275520I-42180J55892D01*
G02X4832920Y-1265270I-6J70022D01*
G02X4797100Y-1275120I-35811J60173D01*
G02Y-1135080I0J70020D01*
G02X4833580Y-1145330I6J-70022D01*
G02X4869400Y-1135480I35811J-60173D01*
G02X4905290Y-1145380I-4J-70019D01*
G37*
G36*
G01X7921890Y-1062040D02*
G03X7922720Y-1055280I-3322J3839D01*
G02X7909980Y-1015000I57282J40272D01*
G02X7980000Y-944980I70020J0D01*
G02X8047430Y-996120I0J-70024D01*
G02X8060000Y-994980I12583J-68879D01*
G02X8130020Y-1065000I0J-70020D01*
G02X8122200Y-1097150I-70019J5D01*
G03X8124230Y-1103920I4513J-2336D01*
G02X8160020Y-1165000I-34225J-61080D01*
G02X8090000Y-1235020I-70020J0D01*
G02X8021580Y-1179900I0J70025D01*
G03X8006090Y-1173560I-9926J-2158D01*
G02X7967700Y-1185020I-38390J58572D01*
G02X7897680Y-1115000I0J70020D01*
G02X7921890Y-1062040I70031J0D01*
G37*
G36*
G01X7131020Y-972240D02*
G03X7130880Y-958730I-7658J6676D01*
G02X7113980Y-915000I48127J43730D01*
G02X7244020I65020J0D01*
G02X7227980Y-957760I-65016J0D01*
G03X7228120Y-971270I7658J-6676D01*
G02X7245020Y-1015000I-48127J-43730D01*
G02X7225830Y-1061120I-65016J0D01*
G03X7227180Y-1076660I7162J-7206D01*
G02X7252780Y-1113090I-37182J-53338D01*
G02X7299920Y-1175600I-17876J-62510D01*
G02X7234900Y-1240620I-65020J0D01*
G02X7172120Y-1192510I0J65017D01*
G02X7124980Y-1130000I17876J62510D01*
G02X7144170Y-1083880I65016J0D01*
G03X7142820Y-1068340I-7162J7206D01*
G02X7114980Y-1015000I37178J53340D01*
G02X7131020Y-972240I65016J0D01*
G37*
G36*
G01X2182490Y-693200D02*
G03X2190070Y-679740I-1964J9971D01*
G02X2185810Y-655700I65758J24050D01*
G02X2255830Y-585680I70020J0D01*
G02X2323690Y-638440I0J-70021D01*
G02X2366830Y-695050I-26393J-64856D01*
G02X2416020Y-761900I-20830J-66850D01*
G02X2346000Y-831920I-70020J0D01*
G02X2276470Y-770150I0J70017D01*
G02X2272050Y-768610I20815J66855D01*
G03X2265200Y-772570I-1830J-4739D01*
G02X2196000Y-831920I-69200J10667D01*
G02X2146020Y-810940I0J70023D01*
G03X2128790Y-816190I-7245J-7120D01*
G02X2059960Y-873340I-68830J12874D01*
G02X1989940Y-803320I0J70020D01*
G02X2001740Y-764410I70023J9D01*
G02X2000580Y-751700I68862J12693D01*
G02X2070600Y-681680I70020J0D01*
G02X2128870Y-712880I0J-70013D01*
G03X2144760Y-714170I8455J5632D01*
G02X2182490Y-693200I51225J-47738D01*
G37*
G36*
G01X5728410Y-716370D02*
G02X5709770Y-668800I51380J47570D01*
G02X5715250Y-641640I70021J5D01*
G02X5706480Y-607710I61250J33930D01*
G02X5776500Y-537690I70020J0D01*
G02X5802830Y-542830I0J-70009D01*
G02X5829200Y-537670I26381J-64858D01*
G02X5899220Y-607690I0J-70020D01*
G02X5893830Y-634630I-70020J0D01*
G02X5902510Y-668400I-61352J-33770D01*
G02X5861670Y-732050I-70020J0D01*
G02X5862720Y-744100I-68967J-12080D01*
G02X5722680I-70020J0D01*
G02X5728410Y-716370I70018J-11D01*
G37*
G36*
G01X778240Y-559510D02*
G03X776340Y-545370I-8119J6107D01*
G02X749180Y-490000I42860J55370D01*
G02X889220I70020J0D01*
G02X875160Y-532090I-70030J0D01*
G03X877060Y-546230I8119J-6107D01*
G02X904220Y-601600I-42860J-55370D01*
G02X845530Y-670700I-70023J0D01*
G02X782700Y-709820I-62830J30895D01*
G02X712680Y-639800I0J70020D01*
G02X771370Y-570700I70023J0D01*
G02X778240Y-559510I62843J-30878D01*
G37*
G36*
G01X7082670Y-512670D02*
G02X7012700Y-580020I-69970J2671D01*
G02X6942680Y-510000I0J70020D01*
G02X6950770Y-477340I70017J-12D01*
G02X6939980Y-440000I59229J37344D01*
G02X7010000Y-369980I70020J0D01*
G02X7047340Y-380770I-4J-70019D01*
G02X7080000Y-372680I32672J-61927D01*
G02X7150020Y-442700I0J-70020D01*
G02X7082670Y-512670I-70021J0D01*
G37*
G36*
G01X2599460Y-1605080D02*
G02X2578480Y-1555100I49043J49980D01*
G02X2648500Y-1625120I70020J0D01*
G02X2647320Y-1625110I3J70020D01*
G03X2640040Y-1642520I-165J-10158D01*
G02X2661020Y-1692500I-49043J-49980D01*
G02X2591000Y-1622480I-70020J0D01*
G02X2592180Y-1622490I-3J-70020D01*
G03X2599460Y-1605080I165J10158D01*
G37*
G36*
G01X7536940Y-1393600D02*
G02X7575840Y-1373030I48052J-43804D01*
G02X7635000Y-1334980I59160J-26966D01*
G02X7695650Y-1376570I0J-65017D01*
G03X7713350Y-1378880I9478J3661D01*
G02X7770000Y-1350010I56650J-41146D01*
G02Y-1490050I0J-70020D01*
G02X7703840Y-1442960I0J70021D01*
G03X7686240Y-1440030I-9598J-3328D01*
G02X7644160Y-1464370I-51235J40033D01*
G02X7585000Y-1502420I-59160J26966D01*
G02X7546570Y-1489850I0J65031D01*
G03X7533060Y-1491200I-6004J-8193D01*
G02X7485000Y-1512420I-48055J43802D01*
G02X7422060Y-1463720I0J65022D01*
G02X7369980Y-1400000I12941J63720D01*
G02X7435000Y-1334980I65020J0D01*
G02X7497940Y-1383680I0J-65022D01*
G02X7523430Y-1394950I-12937J-63721D01*
G03X7536940Y-1393600I6004J8193D01*
G37*
G54D19*
X4970000Y-1700000D03*
G54D18*
X7849200Y-2227600D03*
X7695000Y-2160000D03*
X6383100Y-1967800D03*
X6595000Y-2005000D03*
X7331800Y-1839300D03*
X7695000Y-1800000D03*
X1367900Y-1568100D03*
X6780000Y-1700000D03*
X7990000Y-715000D03*
X7735000Y-370000D03*
G54D21*
X5800000Y-1100000D03*
G54D17*
X5384100Y-2244200D03*
X5830000Y-2069800D03*
X6100000Y-2197300D03*
X6690000Y-2310000D03*
X1630000Y-1855000D03*
X2222500Y-1979800D03*
X2162900Y-1724200D03*
X2572500Y-1852500D03*
X3381000Y-1924400D03*
X3537800Y-2016300D03*
X3778500Y-1982300D03*
X4074900Y-1792800D03*
X4288100Y-1892800D03*
X5160000Y-1740000D03*
X6166600Y-1750000D03*
X6967820Y-1778320D03*
X1564500Y-1576500D03*
X1716600Y-1580000D03*
X2262900Y-1523500D03*
X2756900Y-1370700D03*
X3191000Y-1632000D03*
X3778100Y-1613300D03*
X6320000Y-1370000D03*
X6780000D03*
X2460000Y-1154600D03*
X2306100D03*
X2625100D03*
X5118000Y-1340000D03*
X6070000Y-950000D03*
X1251400Y-350500D03*
X2803300Y-490000D03*
X3232800Y-348900D03*
X7680000Y-615000D03*
X8217300Y-520000D03*
X8442700Y-521200D03*
G54D20*
X1530000Y-1240000D03*
X3390000D03*
%LPD*%
G75*
G54D10*
X300000Y-2200000D03*
Y-300000D03*
X5800000Y-1100000D03*
G54D11*
X805000Y-1742400D03*
X471500Y-1644800D03*
X602800Y-1490500D03*
X471500Y-1563700D03*
X498600Y-1492800D03*
X542800Y-840000D03*
X782700Y-639800D03*
X657700Y-338800D03*
X819200Y-490000D03*
X649400Y-137700D03*
X755100D03*
X901400Y-1740500D03*
X900500Y-1864700D03*
X976500Y-1584800D03*
X926900Y-1630700D03*
X960000Y-745600D03*
X834200Y-601600D03*
X860300Y-137100D03*
X992900Y-137300D03*
X1197700Y-2181700D03*
X1197200Y-2305600D03*
X1196600Y-2245600D03*
X1470000Y-2110000D03*
X1400000D03*
X1224300Y-1867100D03*
X1224500Y-2036200D03*
X1240000Y-1500000D03*
X1251400Y-350500D03*
X1550000Y-2192700D03*
Y-2250000D03*
Y-2307300D03*
X1630000Y-1855000D03*
X1740000Y-1402000D03*
X1564500Y-1576500D03*
X1716600Y-1580000D03*
X1812700Y-827700D03*
X1852200Y-897800D03*
X2024870Y-2127300D03*
X1943400Y-2124600D03*
X1890000Y-1970000D03*
X1979800Y-1890000D03*
X2222500Y-1979800D03*
X2162900Y-1724200D03*
X2159500Y-1277200D03*
X1893900Y-827700D03*
X2196000Y-761900D03*
X2070600Y-751700D03*
X2059960Y-803320D03*
X2462500Y-2105200D03*
X2555200Y-2042500D03*
X2369800D03*
X2572500Y-1852500D03*
X2277600Y-1692500D03*
X2591000D03*
X2262900Y-1523500D03*
X2460000Y-1154600D03*
X2306100D03*
X2255830Y-655700D03*
X2297300Y-703300D03*
X2346000Y-761900D03*
X2460000Y-470600D03*
X2648500Y-1555100D03*
X2756900Y-1370700D03*
X2625100Y-1154600D03*
X2620000Y-934200D03*
X2940000Y-741800D03*
X2803300Y-490000D03*
X2632900Y-342100D03*
X2623700Y-137700D03*
X2719500Y-137300D03*
X2823800D03*
X2951300Y-137600D03*
X3153200Y-1844100D03*
X3174500Y-1924400D03*
X3208000Y-1402000D03*
X3191000Y-1632000D03*
X3232800Y-348900D03*
X3600000Y-1834400D03*
X3381000Y-1924400D03*
X3537800Y-2016300D03*
X3556400Y-1588000D03*
X3878100Y-1792800D03*
Y-1722800D03*
X3778500Y-1982300D03*
X3778100Y-1613300D03*
X3812700Y-827700D03*
Y-930100D03*
X3893900Y-827700D03*
Y-932300D03*
X3853900Y-876800D03*
X4074900Y-1792800D03*
X4288100Y-1892800D03*
X4286100Y-1700400D03*
X4288100Y-1526000D03*
X4586700Y-1417700D03*
X4653300D03*
X4586700Y-1470700D03*
X4653300D03*
X4799700Y-1065600D03*
X4875000Y-1002700D03*
X5001400Y-1196800D03*
X4869400Y-1205500D03*
X4797100Y-1205100D03*
X4777700Y-896800D03*
X4790500Y-973600D03*
X5384100Y-2244200D03*
X5160000Y-1740000D03*
X5437300Y-1550000D03*
X5428100Y-1138300D03*
X5118000Y-1340000D03*
X5440700Y-905200D03*
X5530000Y-1487300D03*
X5656700Y-1340000D03*
X5499100Y-898700D03*
X5544450Y-926710D03*
X5779790Y-668800D03*
X5792700Y-744100D03*
X5776500Y-607710D03*
X5917300Y-2270000D03*
X5830000Y-2069800D03*
X6100000Y-2197300D03*
X5830000Y-1759400D03*
X6080000Y-1692700D03*
X6070000Y-1090000D03*
X6040000Y-870000D03*
X6070000Y-950000D03*
X5832490Y-668400D03*
X5829200Y-607690D03*
X6131900Y-226000D03*
X6048600Y-213450D03*
X6334400Y-1903900D03*
X6166600Y-1750000D03*
X6320000Y-1370000D03*
X6370000Y-280000D03*
X6212200Y-224900D03*
X6311400Y-221900D03*
X6464000Y-224700D03*
X6581200Y-2290000D03*
X6860000Y-2080000D03*
X6690000Y-2310000D03*
X6810000Y-1960000D03*
X6860000Y-2010000D03*
X6785000Y-1777700D03*
X6540000Y-1700000D03*
X6780000Y-1370000D03*
X6744000Y-1156700D03*
X6672700D03*
X6673800Y-1212100D03*
X6744000Y-1213200D03*
X6556400Y-222400D03*
X7125000Y-2253300D03*
X6910000Y-1960000D03*
X6967820Y-1778320D03*
X6980000Y-1500800D03*
X6920000Y-965000D03*
X7080000Y-442700D03*
X7012700Y-510000D03*
X7010000Y-440000D03*
X6920000Y-220000D03*
X7530000Y-1860000D03*
X7470000Y-1020000D03*
X7235000Y-597700D03*
X7694800Y-1474500D03*
X7770000Y-1420030D03*
X7700000Y-960000D03*
X7735900Y-680900D03*
X7680000Y-615000D03*
X8180000Y-2100000D03*
X8017300Y-1980000D03*
X8054500Y-1420000D03*
X8090000Y-1165000D03*
X7967700Y-1115000D03*
X8060000Y-1065000D03*
X7980000Y-1015000D03*
X8217300Y-645000D03*
Y-520000D03*
X8479200Y-2098500D03*
X8371700Y-2314300D03*
X8486200D03*
X8389800Y-2093000D03*
X8579300Y-2093400D03*
X8431500Y-2222300D03*
X8480800Y-1094600D03*
X8554400Y-1094500D03*
X8634200Y-1093600D03*
X8478900Y-1218000D03*
X8554400Y-1219700D03*
X8635200Y-1221700D03*
X8442700Y-644900D03*
X8565200Y-409100D03*
X8641200Y-410500D03*
X8442700Y-521200D03*
X8298700Y-220000D03*
X8797100Y-2090400D03*
X8687300Y-2093000D03*
X8733000Y-411000D03*
X8815000Y-410500D03*
G54D12*
X1145000Y-1951900D03*
X1070000Y-470000D03*
X1090000Y-540000D03*
X1120000Y-470000D03*
Y-600000D03*
X1070000D03*
X1367900Y-1568100D03*
X2896500Y-2088700D03*
X2937000Y-2088800D03*
X2979700Y-2088900D03*
X3050000Y-470000D03*
X3100000D03*
X3070000Y-540000D03*
X3050000Y-600000D03*
X3100000D03*
X5029700Y-1155700D03*
X4937600Y-1201800D03*
X5310000Y-1020000D03*
X6383100Y-1967800D03*
X6530000Y-2230300D03*
X6595000Y-2005000D03*
X6780000Y-1700000D03*
X7116300Y-2132400D03*
X7115000Y-1955000D03*
X7091700Y-2055000D03*
X7190000Y-1130000D03*
X7180000Y-1015000D03*
X7179000Y-915000D03*
X7331800Y-1839300D03*
X7485000Y-1447400D03*
X7435000Y-1400000D03*
X7234900Y-1175600D03*
X7849200Y-2227600D03*
X7695000Y-2160000D03*
X7720000Y-1980000D03*
X7660000Y-2000600D03*
X7778900Y-1961200D03*
X7695000Y-1800000D03*
X7635000Y-1400000D03*
X7585000Y-1437400D03*
X7735000Y-370000D03*
X7945000Y-1955000D03*
X7990000Y-715000D03*
G54D13*
X1030000Y-1240000D03*
X1530000D03*
X3390000D03*
X3890000D03*
G54D14*
X2210000Y-430000D03*
X2010000Y-250000D03*
X4330000Y-220000D03*
X4550000Y-400000D03*
G54D15*
X4930000Y-2220000D03*
Y-2020000D03*
X5130000Y-2220000D03*
Y-2020000D03*
G54D16*
X4970000Y-1700000D03*
Y-1446000D03*
M02*
