M48
METRIC,TZ
T01C.15
T02C.2
T03C.9
T04C1.
T05C1.2
T06C1.8
T07C3.
;LEADER: 12 
;HEADER: 
;CODE  : ASCII 
;FILE  : PSU-A1-1-4.drl for board F:/MyTemporary/Github/GLPP2024/1-PSU/#Taaaaro09292.tmp ... layers TOP and BOTTOM
;T01 Holesize 1. = 0.150000 Tolerance = +0.000000/-0.000000 PLATED MM Quantity = 43
;T02 Holesize 2. = 0.200000 Tolerance = +0.000000/-0.000000 PLATED MM Quantity = 197
;T03 Holesize 3. = 0.900000 Tolerance = +0.000000/-0.000000 PLATED MM Quantity = 2
;T04 Holesize 4. = 1.000000 Tolerance = +0.000000/-0.000000 PLATED MM Quantity = 4
;T05 Holesize 5. = 1.200000 Tolerance = +0.000000/-0.000000 PLATED MM Quantity = 4
;T06 Holesize 6. = 1.800000 Tolerance = +0.000000/-0.000000 PLATED MM Quantity = 4
;T07 Holesize 7. = 3.000000 Tolerance = +0.000000/-0.000000 NON_PLATED MM Quantity = 3
%
G90
T01
X1120000Y-470000
X1070000
X1090000Y-540000
X1120000Y-600000
X1070000
X1367900Y-1568100
X1145000Y-1951900
X2896500Y-2088700
X2937000Y-2088800
X2979700Y-2088900
X3050000Y-600000
X3100000
X3070000Y-540000
X3050000Y-470000
X3100000
X4937600Y-1201800
X5029700Y-1155700
X5310000Y-1020000
X6383100Y-1967800
X6595000Y-2005000
X6530000Y-2230300
X6780000Y-1700000
X7091700Y-2055000
X7116300Y-2132400
X7115000Y-1955000
X7331800Y-1839300
X7485000Y-1447400
X7585000Y-1437400
X7435000Y-1400000
X7234900Y-1175600
X7190000Y-1130000
X7180000Y-1015000
X7179000Y-915000
X7735000Y-370000
X7990000Y-715000
X7635000Y-1400000
X7695000Y-1800000
X7945000Y-1955000
X7778900Y-1961200
X7720000Y-1980000
X7660000Y-2000600
X7695000Y-2160000
X7849200Y-2227600
T02
X498600Y-1492800
X471500Y-1563700
Y-1644800
X900500Y-1864700
X805000Y-1742400
X901400Y-1740500
X926900Y-1630700
X976500Y-1584800
X602800Y-1490500
X542800Y-840000
X960000Y-745600
X782700Y-639800
X834200Y-601600
X819200Y-490000
X657700Y-338800
X649400Y-137700
X755100
X860300Y-137100
X992900Y-137300
X1251400Y-350500
X1240000Y-1500000
X1224300Y-1867100
X1224500Y-2036200
X1470000Y-2110000
X1400000
X1197700Y-2181700
X1196600Y-2245600
X1197200Y-2305600
X1550000Y-2307300
R02Y57300
X2024870Y-2127300
X1943400Y-2124600
X1890000Y-1970000
X1979800Y-1890000
X1630000Y-1855000
X1716600Y-1580000
X1564500Y-1576500
X1740000Y-1402000
X1852200Y-897800
X1812700Y-827700
X1893900
X2460000Y-470600
X2255830Y-655700
X2297300Y-703300
X2070600Y-751700
X2346000Y-761900
X2196000
X2059960Y-803320
X2460000Y-1154600
X2306100
X2159500Y-1277200
X2262900Y-1523500
X2277600Y-1692500
X2162900Y-1724200
X2222500Y-1979800
X2369800Y-2042500
X2462500Y-2105200
X2555200Y-2042500
X2572500Y-1852500
X2591000Y-1692500
X2648500Y-1555100
X2756900Y-1370700
X2625100Y-1154600
X2620000Y-934200
X2940000Y-741800
X2803300Y-490000
X2632900Y-342100
X2623700Y-137700
X2719500Y-137300
X2823800
X2951300Y-137600
X3232800Y-348900
X3208000Y-1402000
X3191000Y-1632000
X3153200Y-1844100
X3381000Y-1924400
X3174500
X3537800Y-2016300
X3778500Y-1982300
X3600000Y-1834400
X3878100Y-1792800
Y-1722800
X3778100Y-1613300
X3556400Y-1588000
X3893900Y-932300
X3812700Y-930100
X3853900Y-876800
X3812700Y-827700
X3893900
X4288100Y-1526000
X4286100Y-1700400
X4074900Y-1792800
X4288100Y-1892800
X4586700Y-1470700
X4653300
X4586700Y-1417700
X4653300
X4869400Y-1205500
X4797100Y-1205100
X5001400Y-1196800
X4799700Y-1065600
X4875000Y-1002700
X4790500Y-973600
X4777700Y-896800
X5499100Y-898700
X5440700Y-905200
X5544450Y-926710
X5428100Y-1138300
X5118000Y-1340000
X5530000Y-1487300
X5437300Y-1550000
X5160000Y-1740000
X5384100Y-2244200
X5917300Y-2270000
X5830000Y-2069800
Y-1759400
X6080000Y-1692700
X5656700Y-1340000
X6070000Y-1090000
Y-950000
X6040000Y-870000
X5792700Y-744100
X5779790Y-668800
X5832490Y-668400
X5776500Y-607710
X5829200Y-607690
X6048600Y-213450
X6311400Y-221900
X6556400Y-222400
X6464000Y-224700
X6212200Y-224900
X6131900Y-226000
X6370000Y-280000
X6320000Y-1370000
X6540000Y-1700000
X6166600Y-1750000
X6334400Y-1903900
X6100000Y-2197300
X6581200Y-2290000
X6690000Y-2310000
X6860000Y-2080000
Y-2010000
X6810000Y-1960000
X6910000
X6785000Y-1777700
X6967820Y-1778320
X6980000Y-1500800
X6780000Y-1370000
X6744000Y-1213200
X6673800Y-1212100
X6672700Y-1156700
X6744000
X6920000Y-965000
X7012700Y-510000
X7080000Y-442700
X7010000Y-440000
X6920000Y-220000
X7235000Y-597700
X7470000Y-1020000
X7530000Y-1860000
X7125000Y-2253300
X8017300Y-1980000
X7694800Y-1474500
X7770000Y-1420030
X8054500Y-1420000
X8090000Y-1165000
X7967700Y-1115000
X8060000Y-1065000
X7980000Y-1015000
X7700000Y-960000
X7735900Y-680900
X7680000Y-615000
X8298700Y-220000
X8565200Y-409100
X8442700Y-521200
X8217300Y-520000
X8442700Y-644900
X8217300Y-645000
X8634200Y-1093600
X8554400Y-1094500
X8480800Y-1094600
X8554400Y-1219700
X8478900Y-1218000
X8579300Y-2093400
X8389800Y-2093000
X8479200Y-2098500
X8180000Y-2100000
X8431500Y-2222300
X8486200Y-2314300
X8371700
X8687300Y-2093000
X8797100Y-2090400
X8635200Y-1221700
X8641200Y-410500
X8733000Y-411000
X8815000Y-410500
T03
X4970000Y-1700000
Y-1446000
T04
X4930000Y-2220000
X5130000
Y-2020000
X4930000
T05
X2010000Y-250000
X2210000Y-430000
X4330000Y-220000
X4550000Y-400000
T06
X1030000Y-1240000
X1530000
X3390000
X3890000
T07
X300000Y-2200000
Y-300000
X5800000Y-1100000
M30
