G04 ================== begin FILE IDENTIFICATION RECORD ==================*
G04 Layout Name:  F:/MyTemporary/Github/GLPP2024/1-PSU/PSU-A1.brd*
G04 Film Name:    SILKSCREEN_BOTTOM*
G04 File Format:  Gerber RS274X*
G04 File Origin:  Cadence Allegro 22.1-P001*
G04 Origin Date:  Tue Apr 23 14:00:41 2024*
G04 *
G04 Layer:  REF DES/SILKSCREEN_BOTTOM*
G04 Layer:  PACKAGE GEOMETRY/SILKSCREEN_BOTTOM*
G04 Layer:  BOARD GEOMETRY/SILKSCREEN_BOTTOM*
G04 *
G04 Offset:    (0.0000 0.0000)*
G04 Mirror:    No*
G04 Mode:      Positive*
G04 Rotation:  0*
G04 FullContactRelief:  No*
G04 UndefLineWidth:     0.2540*
G04 ================== end FILE IDENTIFICATION RECORD ====================*
%FSLAX25Y25*MOMM*%
%IR0*IPPOS*OFA0.00000B0.00000*MIA0B0*SFA1.00000B1.00000*%
%ADD10C,.1*%
%ADD11C,.2*%
%ADD12C,.05*%
%ADD13C,.06*%
%ADD14C,.035*%
G75*
%LPD*%
G75*
G36*
G01X1026200Y-2032500D02*
X1054800Y-2061100D01*
X1024800D01*
Y-2031100D01*
X1026200Y-2032500D01*
G37*
G36*
G01X899800Y-666800D02*
X933700Y-700700D01*
X893700D01*
Y-660700D01*
X899800Y-666800D01*
G37*
G36*
G01X2203100Y-1498600D02*
X2249600Y-1545100D01*
X2199600D01*
Y-1495100D01*
X2203100Y-1498600D01*
G37*
G36*
G01X2542500Y-1782500D02*
X2492500D01*
X2542500Y-1832500D01*
Y-1782500D01*
G37*
G36*
G01X2879800Y-666800D02*
X2913700Y-700700D01*
X2873700D01*
Y-660700D01*
X2879800Y-666800D01*
G37*
G36*
G01X3012500Y-1782500D02*
X2962500D01*
X3012500Y-1832500D01*
Y-1782500D01*
G37*
G36*
G01X3307300Y-1843100D02*
X3332300D01*
Y-1868100D01*
X3328000Y-1863800D01*
X3323200Y-1859000D01*
X3307300Y-1843100D01*
G37*
G36*
G01X4004400Y-1711500D02*
X4029400D01*
Y-1736500D01*
X4025100Y-1732200D01*
X4020300Y-1727400D01*
X4004400Y-1711500D01*
G37*
G36*
G01X5718000Y-709000D02*
X5834000D01*
X5718000Y-593000D01*
Y-709000D01*
G37*
G36*
G01X8331000Y-138000D02*
Y-254000D01*
X8447000Y-138000D01*
X8331000D01*
G37*
G54D10*
G01X8900000Y-100000D02*
X100000D01*
Y-2400000D01*
X8900000D01*
Y-100000D01*
G01X770000Y-1920000D02*
Y-2200000D01*
G01X710000Y-2100000D02*
G03Y-2170000I1667J-35000D01*
G01Y-2030000D02*
G03Y-2100000I1667J-35000D01*
G01X740000Y-1920000D02*
Y-2200000D01*
G01X520000Y-1840000D02*
Y-2350000D01*
X960000D01*
Y-1770000D01*
X520000D01*
Y-1840000D01*
G01X710000Y-1960000D02*
G03Y-2030000I1667J-35000D01*
G01X750000Y-1620000D02*
X730000D01*
G01X690000D02*
X670000D01*
G01X730000Y-1580000D02*
Y-1660000D01*
G01X690000Y-1580000D02*
Y-1660000D01*
G01X890000Y-1530000D02*
X520000D01*
Y-1710000D01*
X900000D01*
Y-1530000D01*
X890000D01*
G01X770000Y-730000D02*
Y-360000D01*
X590000D01*
Y-740000D01*
X770000D01*
Y-730000D01*
G01X744000Y-779000D02*
X570000D01*
Y-901000D01*
X792000D01*
Y-779000D01*
X744000D01*
G01X680000Y-590000D02*
Y-570000D01*
G01Y-530000D02*
Y-510000D01*
G01X720000Y-570000D02*
X640000D01*
G01X720000Y-530000D02*
X640000D01*
G01X784000Y-199000D02*
X610000D01*
Y-321000D01*
X832000D01*
Y-199000D01*
X784000D01*
G01X1510000Y-2140000D02*
X1000000D01*
Y-2360000D01*
X1530000D01*
Y-2140000D01*
X1510000D01*
G01X1424200Y-2026300D02*
Y-1837800D01*
X1019800D01*
Y-2066100D01*
X1424200D01*
Y-2026300D01*
G01X1141000Y-1704000D02*
Y-1530000D01*
X1019000D01*
Y-1752000D01*
X1141000D01*
Y-1704000D01*
G01X1302500Y-658200D02*
Y-369900D01*
X888700D01*
Y-705700D01*
X1302500D01*
Y-644440D01*
G01X1084000Y-779000D02*
X910000D01*
Y-901000D01*
X1132000D01*
Y-779000D01*
X1084000D01*
G01X1290000Y-150000D02*
X920000D01*
Y-330000D01*
X1300000D01*
Y-150000D01*
X1290000D01*
G01X1150000Y-240000D02*
X1130000D01*
G01X1090000D02*
X1070000D01*
G01X1130000Y-200000D02*
Y-280000D01*
G01X1090000Y-200000D02*
Y-280000D01*
G01X1340000Y-2250000D02*
X1300000D01*
G01X1230000D02*
X1190000D01*
G01X1300000Y-2210000D02*
Y-2290000D01*
G01X1230000Y-2210000D02*
Y-2290000D01*
G01X1544900Y-1702000D02*
Y-1528000D01*
X1422900D01*
Y-1750000D01*
X1544900D01*
Y-1702000D01*
G01X1179000Y-1576000D02*
Y-1750000D01*
X1301000D01*
Y-1528000D01*
X1179000D01*
Y-1576000D01*
G01X1430000Y-970000D02*
X1800000D01*
Y-790000D01*
X1420000D01*
Y-970000D01*
X1430000D01*
G01X1179000Y-816000D02*
Y-990000D01*
X1301000D01*
Y-768000D01*
X1179000D01*
Y-816000D01*
G01X1400000Y-220000D02*
Y-730000D01*
X1840000D01*
Y-150000D01*
X1400000D01*
Y-220000D01*
G01X1691000Y-2064000D02*
Y-1890000D01*
X1569000D01*
Y-2112000D01*
X1691000D01*
Y-2064000D01*
G01X1894000Y-1989000D02*
X1720000D01*
Y-2111000D01*
X1942000D01*
Y-1989000D01*
X1894000D01*
G01X1760000Y-2250000D02*
X1800000D01*
G01X1870000D02*
X1910000D01*
G01X1800000Y-2290000D02*
Y-2210000D01*
G01X1870000Y-2290000D02*
Y-2210000D01*
G01X1590000Y-2360000D02*
X2100000D01*
Y-2140000D01*
X1570000D01*
Y-2360000D01*
X1590000D01*
G01X1894000Y-1829000D02*
X1720000D01*
Y-1951000D01*
X1942000D01*
Y-1829000D01*
X1894000D01*
G01X1582900Y-1576000D02*
Y-1750000D01*
X1704900D01*
Y-1528000D01*
X1582900D01*
Y-1576000D01*
G01X1987500Y-1663200D02*
X1813500D01*
Y-1785200D01*
X2035500D01*
Y-1663200D01*
X1987500D01*
G01X1769000Y-1398000D02*
Y-1572000D01*
X1891000D01*
Y-1350000D01*
X1769000D01*
Y-1398000D01*
G01X1984000Y-1179000D02*
X1810000D01*
Y-1301000D01*
X2032000D01*
Y-1179000D01*
X1984000D01*
G01X1570000Y-880000D02*
X1590000D01*
G01X1630000D02*
X1650000D01*
G01X1590000Y-920000D02*
Y-840000D01*
G01X1630000Y-920000D02*
Y-840000D01*
G01X1650000Y-300000D02*
Y-580000D01*
G01X1590000Y-480000D02*
G03Y-550000I1667J-35000D01*
G01Y-410000D02*
G03Y-480000I1667J-35000D01*
G01Y-340000D02*
G03Y-410000I1667J-35000D01*
G01X1620000Y-300000D02*
Y-580000D01*
G01X2482500Y-1782500D02*
X2142500D01*
Y-2112500D01*
X2542500D01*
Y-1782500D01*
X2482500D01*
G01X2041000Y-1524000D02*
Y-1350000D01*
X1919000D01*
Y-1572000D01*
X2041000D01*
Y-1524000D01*
G01X2197300Y-618000D02*
X2023300D01*
Y-740000D01*
X2245300D01*
Y-618000D01*
X2197300D01*
G01X2496500Y-1631500D02*
X2322500D01*
Y-1753500D01*
X2544500D01*
Y-1631500D01*
X2496500D01*
G01X2750000Y-730000D02*
Y-360000D01*
X2570000D01*
Y-740000D01*
X2750000D01*
Y-730000D01*
G01X2744000Y-779000D02*
X2570000D01*
Y-901000D01*
X2792000D01*
Y-779000D01*
X2744000D01*
G01X2356000Y-741000D02*
X2530000D01*
Y-619000D01*
X2308000D01*
Y-741000D01*
X2356000D01*
G01X2744000Y-199000D02*
X2570000D01*
Y-321000D01*
X2792000D01*
Y-199000D01*
X2744000D01*
G01X2952500Y-1782500D02*
X2612500D01*
Y-2112500D01*
X3012500D01*
Y-1782500D01*
X2952500D01*
G01X2816500Y-1631500D02*
X2642500D01*
Y-1753500D01*
X2864500D01*
Y-1631500D01*
X2816500D01*
G01X3020000Y-1680000D02*
G03I-60000J0D01*
G01X3021000Y-1524000D02*
Y-1350000D01*
X2899000D01*
Y-1572000D01*
X3021000D01*
Y-1524000D01*
G01X3084000Y-1179000D02*
X2910000D01*
Y-1301000D01*
X3132000D01*
Y-1179000D01*
X3084000D01*
G01X3282500Y-658200D02*
Y-369900D01*
X2868700D01*
Y-705700D01*
X3282500D01*
Y-644440D01*
G01X3064000Y-779000D02*
X2890000D01*
Y-901000D01*
X3112000D01*
Y-779000D01*
X3064000D01*
G01X2660000Y-590000D02*
Y-570000D01*
G01Y-530000D02*
Y-510000D01*
G01X2700000Y-570000D02*
X2620000D01*
G01X2700000Y-530000D02*
X2620000D01*
G01X3250000Y-150000D02*
X2880000D01*
Y-330000D01*
X3260000D01*
Y-150000D01*
X3250000D01*
G01X3335000Y-2043400D02*
X3161000D01*
Y-2165400D01*
X3383000D01*
Y-2043400D01*
X3335000D01*
G01X3187000Y-1805400D02*
X3361000D01*
Y-1683400D01*
X3139000D01*
Y-1805400D01*
X3187000D01*
G01X3309100Y-1838100D02*
X3214100D01*
Y-2010600D01*
X3337300D01*
Y-1838100D01*
X3309100D01*
G01X3059000Y-1398000D02*
Y-1572000D01*
X3181000D01*
Y-1350000D01*
X3059000D01*
Y-1398000D01*
G01X3328700Y-1649000D02*
X3502700D01*
Y-1527000D01*
X3280700D01*
Y-1649000D01*
X3328700D01*
G01X3159000Y-816000D02*
Y-990000D01*
X3281000D01*
Y-768000D01*
X3159000D01*
Y-816000D01*
G01X3110000Y-240000D02*
X3090000D01*
G01X3050000D02*
X3030000D01*
G01X3090000Y-200000D02*
Y-280000D01*
G01X3050000Y-200000D02*
Y-280000D01*
G01X3478000Y-2165400D02*
X3652000D01*
Y-2043400D01*
X3430000D01*
Y-2165400D01*
X3478000D01*
G01X3604000Y-1863400D02*
X3430000D01*
Y-1985400D01*
X3652000D01*
Y-1863400D01*
X3604000D01*
G01Y-1683400D02*
X3430000D01*
Y-1805400D01*
X3652000D01*
Y-1683400D01*
X3604000D01*
G01X3570000Y-880000D02*
X3590000D01*
G01X3630000D02*
X3650000D01*
G01X3590000Y-920000D02*
Y-840000D01*
G01X3630000Y-920000D02*
Y-840000D01*
G01X3430000Y-970000D02*
X3800000D01*
Y-790000D01*
X3420000D01*
Y-970000D01*
X3430000D01*
G01X3360000Y-220000D02*
Y-730000D01*
X3800000D01*
Y-150000D01*
X3360000D01*
Y-220000D01*
G01X3610000Y-300000D02*
Y-580000D01*
G01X3550000Y-480000D02*
G03Y-550000I1667J-35000D01*
G01Y-410000D02*
G03Y-480000I1667J-35000D01*
G01Y-340000D02*
G03Y-410000I1667J-35000D01*
G01X3580000Y-300000D02*
Y-580000D01*
G01X3839100Y-1856800D02*
Y-1682800D01*
X3717100D01*
Y-1904800D01*
X3839100D01*
Y-1856800D01*
G01X4032100Y-1921800D02*
X3858100D01*
Y-2043800D01*
X4080100D01*
Y-1921800D01*
X4032100D01*
G01X4006200Y-1706500D02*
X3911200D01*
Y-1879000D01*
X4034400D01*
Y-1706500D01*
X4006200D01*
G01X3904100Y-1673800D02*
X4078100D01*
Y-1551800D01*
X3856100D01*
Y-1673800D01*
X3904100D01*
G01X4160000Y-700000D02*
X3980000Y-780000D01*
G01X4180000Y-660000D02*
X3960000Y-600000D01*
G01X4164100Y-2043800D02*
X4338100D01*
Y-1921800D01*
X4116100D01*
Y-2043800D01*
X4164100D01*
G01X4290100Y-1731800D02*
X4116100D01*
Y-1853800D01*
X4338100D01*
Y-1731800D01*
X4290100D01*
G01X4292100Y-1551800D02*
X4118100D01*
Y-1673800D01*
X4340100D01*
Y-1551800D01*
X4292100D01*
G01X4440000Y-760000D02*
X4580000Y-1060000D01*
X4180000D01*
X4300000Y-760000D01*
G01X4408280Y-1000000D02*
G03I-28280J0D01*
G01X4520000Y-680000D02*
Y-760000D01*
X4220000D01*
Y-680000D01*
X4520000D01*
G01X4460000D02*
Y-600000D01*
X4280000D01*
Y-680000D01*
G01X4380000Y-660000D02*
X4360000D01*
G01X4408280Y-820000D02*
G03I-28280J0D01*
G01Y-920000D02*
G03I-28280J0D01*
G01X4460000Y-580000D02*
X4380000Y-500000D01*
X4280000Y-580000D01*
G01X4300000Y-620000D02*
X4340000Y-640000D01*
G01X4180000Y-580000D02*
X4080000Y-500000D01*
G01X4681000Y-1386000D02*
Y-1123000D01*
X4559000D01*
Y-1397000D01*
X4681000D01*
Y-1386000D01*
G01X4600000Y-780000D02*
X4780000Y-820000D01*
G01X4580000Y-680000D02*
X4860000Y-720000D01*
G01X4440000Y-620000D02*
X4400000Y-640000D01*
G01X4540000Y-600000D02*
X4680000Y-520000D01*
G01X5336000Y-1701000D02*
X5510000D01*
Y-1579000D01*
X5288000D01*
Y-1701000D01*
X5336000D01*
G01X5344900Y-1410000D02*
G03I-60000J0D01*
G01X5769000Y-2166000D02*
Y-2340000D01*
X5891000D01*
Y-2118000D01*
X5769000D01*
Y-2166000D01*
G01X5891000Y-1964000D02*
Y-1790000D01*
X5769000D01*
Y-2012000D01*
X5891000D01*
Y-1964000D01*
G01X6104000Y-2209000D02*
X5930000D01*
Y-2331000D01*
X6152000D01*
Y-2209000D01*
X6104000D01*
G01X5976000Y-2161000D02*
X6150000D01*
Y-2039000D01*
X5928000D01*
Y-2161000D01*
X5976000D01*
G01X6041000Y-1964000D02*
Y-1790000D01*
X5919000D01*
Y-2012000D01*
X6041000D01*
Y-1964000D01*
G01X6099000Y-1836000D02*
Y-2010000D01*
X6221000D01*
Y-1788000D01*
X6099000D01*
Y-1836000D01*
G01X6261000Y-1594000D02*
Y-1420000D01*
X6139000D01*
Y-1642000D01*
X6261000D01*
Y-1594000D01*
G01X6851000Y-2294000D02*
Y-2120000D01*
X6729000D01*
Y-2342000D01*
X6851000D01*
Y-2294000D01*
G01X6721000Y-1594000D02*
Y-1420000D01*
X6599000D01*
Y-1642000D01*
X6721000D01*
Y-1594000D01*
G01X6869000Y-2166000D02*
Y-2340000D01*
X6991000D01*
Y-2118000D01*
X6869000D01*
Y-2166000D01*
G01X7321000Y-794000D02*
Y-620000D01*
X7199000D01*
Y-842000D01*
X7321000D01*
Y-794000D01*
G01X6985700Y-217600D02*
Y-391600D01*
X7107700D01*
Y-169600D01*
X6985700D01*
Y-217600D01*
G01X7394000Y-959000D02*
X7220000D01*
Y-1081000D01*
X7442000D01*
Y-959000D01*
X7394000D01*
G01X7606000Y-809000D02*
X7343000D01*
Y-931000D01*
X7617000D01*
Y-809000D01*
X7606000D01*
G01X7419900Y-766900D02*
X7593900D01*
Y-644900D01*
X7371900D01*
Y-766900D01*
X7419900D01*
G01X7984000Y-1359000D02*
X7810000D01*
Y-1481000D01*
X8032000D01*
Y-1359000D01*
X7984000D01*
G01X7761000Y-884000D02*
Y-710000D01*
X7639000D01*
Y-932000D01*
X7761000D01*
Y-884000D01*
G01X7790000Y-370000D02*
G03I-60000J0D01*
G01X8050000Y-710000D02*
G03I-60000J0D01*
G54D11*
G01X2726200Y-1499000D02*
Y-1193300D01*
X2189600D01*
Y-1555100D01*
X2726200D01*
Y-1499000D01*
G01X6531000Y-713000D02*
X6887000D01*
Y-168000D01*
X5717000D01*
Y-713000D01*
X6041000D01*
G01X8329000Y-466000D02*
Y-133000D01*
X8865000D01*
Y-2043000D01*
X8330000D01*
Y-1702000D01*
G54D12*
G01X5654170Y-2246360D02*
Y-2350000D01*
X5383400D01*
Y-2337840D01*
G01Y-2264690D02*
Y-2148680D01*
G01X5385830Y-1853640D02*
Y-1750000D01*
X5656600D01*
Y-1762160D01*
G01X5385830Y-1929300D02*
Y-2033000D01*
X5656600D01*
Y-2023320D01*
G01X5654170Y-2170700D02*
Y-2067000D01*
X5383400D01*
Y-2076680D01*
G01X5656600Y-1835310D02*
Y-1951320D01*
G54D13*
G01X220000Y-1774170D02*
X320000D01*
X220000Y-1735830D01*
X320000D01*
G01X220000Y-1703000D02*
X221670Y-1709670D01*
X228330Y-1715500D01*
X238330Y-1720500D01*
X250000Y-1723830D01*
X263330Y-1725500D01*
X276670D01*
X290000Y-1723830D01*
X301670Y-1720500D01*
X311670Y-1715500D01*
X318330Y-1709670D01*
X320000Y-1703000D01*
X318330Y-1696330D01*
X311670Y-1690500D01*
X301670Y-1685500D01*
X290000Y-1682170D01*
X276670Y-1680500D01*
X263330D01*
X250000Y-1682170D01*
X238330Y-1685500D01*
X228330Y-1690500D01*
X221670Y-1696330D01*
X220000Y-1703000D01*
G01Y-1615670D02*
X320000D01*
Y-1595670D01*
X315000Y-1589000D01*
X303330Y-1584000D01*
X290000Y-1582330D01*
X276670Y-1584000D01*
X266670Y-1588170D01*
X261660Y-1595670D01*
Y-1615670D01*
G01X220000Y-1547000D02*
X221670Y-1553670D01*
X228330Y-1559500D01*
X238330Y-1564500D01*
X250000Y-1567830D01*
X263330Y-1569500D01*
X276670D01*
X290000Y-1567830D01*
X301670Y-1564500D01*
X311670Y-1559500D01*
X318330Y-1553670D01*
X320000Y-1547000D01*
X318330Y-1540330D01*
X311670Y-1534500D01*
X301670Y-1529500D01*
X290000Y-1526170D01*
X276670Y-1524500D01*
X263330D01*
X250000Y-1526170D01*
X238330Y-1529500D01*
X228330Y-1534500D01*
X221670Y-1540330D01*
X220000Y-1547000D01*
G01X320000Y-1511670D02*
X220000D01*
Y-1478330D01*
G01Y-1463830D02*
X320000Y-1443000D01*
X220000Y-1422170D01*
G01X255000Y-1429670D02*
Y-1456330D01*
G01X220000Y-1407670D02*
X320000D01*
Y-1386830D01*
X315000Y-1380170D01*
X308330Y-1376000D01*
X295000Y-1374330D01*
X281670Y-1376000D01*
X273330Y-1381000D01*
X268330Y-1386830D01*
Y-1407670D01*
G01Y-1386830D02*
X220000Y-1374330D01*
G01X320000Y-1349000D02*
Y-1329000D01*
G01Y-1339000D02*
X220000D01*
G01Y-1349000D02*
Y-1329000D01*
G01X320000Y-1287000D02*
X220000D01*
G01X320000Y-1306170D02*
Y-1267830D01*
G01X220000Y-1235000D02*
X265000D01*
X320000Y-1251670D01*
G01Y-1218330D02*
X265000Y-1235000D01*
G01X220000Y-1147670D02*
X320000D01*
Y-1127670D01*
X315000Y-1121000D01*
X303330Y-1116000D01*
X290000Y-1114330D01*
X276670Y-1116000D01*
X266670Y-1120170D01*
X261660Y-1127670D01*
Y-1147670D01*
G01X220000Y-1095670D02*
X320000D01*
Y-1074830D01*
X315000Y-1068170D01*
X308330Y-1064000D01*
X295000Y-1062330D01*
X281670Y-1064000D01*
X273330Y-1069000D01*
X268330Y-1074830D01*
Y-1095670D01*
G01Y-1074830D02*
X220000Y-1062330D01*
G01Y-1027000D02*
X221670Y-1033670D01*
X228330Y-1039500D01*
X238330Y-1044500D01*
X250000Y-1047830D01*
X263330Y-1049500D01*
X276670D01*
X290000Y-1047830D01*
X301670Y-1044500D01*
X311670Y-1039500D01*
X318330Y-1033670D01*
X320000Y-1027000D01*
X318330Y-1020330D01*
X311670Y-1014500D01*
X301670Y-1009500D01*
X290000Y-1006170D01*
X276670Y-1004500D01*
X263330D01*
X250000Y-1006170D01*
X238330Y-1009500D01*
X228330Y-1014500D01*
X221670Y-1020330D01*
X220000Y-1027000D01*
G01X320000Y-975000D02*
X220000D01*
G01X320000Y-994170D02*
Y-955830D01*
G01X220000Y-906330D02*
Y-939670D01*
X320000D01*
Y-906330D01*
G01X271670Y-919670D02*
Y-939670D01*
G01X311670Y-852670D02*
X316670Y-857670D01*
X320000Y-863500D01*
Y-870170D01*
X315000Y-877670D01*
X306670Y-883500D01*
X296670Y-887670D01*
X280000Y-891000D01*
X265000Y-891830D01*
X250000Y-890170D01*
X240000Y-887670D01*
X230000Y-882670D01*
X223330Y-876830D01*
X220000Y-871000D01*
Y-865170D01*
X223330Y-859330D01*
X228330Y-854330D01*
X235000Y-850170D01*
G01X320000Y-819000D02*
X220000D01*
G01X320000Y-838170D02*
Y-799830D01*
G01Y-777000D02*
Y-757000D01*
G01Y-767000D02*
X220000D01*
G01Y-777000D02*
Y-757000D01*
G01Y-715000D02*
X221670Y-721670D01*
X228330Y-727500D01*
X238330Y-732500D01*
X250000Y-735830D01*
X263330Y-737500D01*
X276670D01*
X290000Y-735830D01*
X301670Y-732500D01*
X311670Y-727500D01*
X318330Y-721670D01*
X320000Y-715000D01*
X318330Y-708330D01*
X311670Y-702500D01*
X301670Y-697500D01*
X290000Y-694170D01*
X276670Y-692500D01*
X263330D01*
X250000Y-694170D01*
X238330Y-697500D01*
X228330Y-702500D01*
X221670Y-708330D01*
X220000Y-715000D01*
G01Y-682170D02*
X320000D01*
X220000Y-643830D01*
X320000D01*
G01X520000Y-1380000D02*
X420000Y-1368330D01*
X520000Y-1355000D01*
X420000Y-1341670D01*
X520000Y-1330000D01*
G01X420000Y-1323830D02*
X520000Y-1303000D01*
X420000Y-1282170D01*
G01X455000Y-1289670D02*
Y-1316330D01*
G01X420000Y-1267670D02*
X520000D01*
Y-1246830D01*
X515000Y-1240170D01*
X508330Y-1236000D01*
X495000Y-1234330D01*
X481670Y-1236000D01*
X473330Y-1241000D01*
X468330Y-1246830D01*
Y-1267670D01*
G01Y-1246830D02*
X420000Y-1234330D01*
G01Y-1218170D02*
X520000D01*
X420000Y-1179830D01*
X520000D01*
G01Y-1157000D02*
Y-1137000D01*
G01Y-1147000D02*
X420000D01*
G01Y-1157000D02*
Y-1137000D01*
G01Y-1114170D02*
X520000D01*
X420000Y-1075830D01*
X520000D01*
G01X470000Y-1038000D02*
Y-1021330D01*
X440000D01*
X430000Y-1026330D01*
X423330Y-1032170D01*
X420000Y-1040500D01*
X423330Y-1048830D01*
X430000Y-1054670D01*
X440000Y-1059670D01*
X451670Y-1063000D01*
X465000Y-1064670D01*
X476670D01*
X486660Y-1063000D01*
X498330Y-1059670D01*
X508330Y-1054670D01*
X515000Y-1049670D01*
X520000Y-1043000D01*
Y-1037170D01*
X516670Y-1030500D01*
X510000Y-1025500D01*
G01X2432070Y-989800D02*
Y-1089800D01*
X2398730D01*
G01X2381730D02*
Y-989800D01*
X2365070D01*
X2358400Y-994800D01*
X2353400Y-1001470D01*
X2349230Y-1011470D01*
X2345900Y-1023140D01*
X2345070Y-1039800D01*
X2345900Y-1056470D01*
X2349230Y-1068130D01*
X2353400Y-1078140D01*
X2358400Y-1084800D01*
X2365070Y-1089800D01*
X2381730D01*
G01X2311400D02*
X2318070Y-1088130D01*
X2323900Y-1081470D01*
X2328900Y-1071470D01*
X2332230Y-1059800D01*
X2333900Y-1046470D01*
Y-1033130D01*
X2332230Y-1019800D01*
X2328900Y-1008130D01*
X2323900Y-998130D01*
X2318070Y-991470D01*
X2311400Y-989800D01*
X2304730Y-991470D01*
X2298900Y-998130D01*
X2293900Y-1008130D01*
X2290570Y-1019800D01*
X2288900Y-1033130D01*
Y-1046470D01*
X2290570Y-1059800D01*
X2293900Y-1071470D01*
X2298900Y-1081470D01*
X2304730Y-1088130D01*
X2311400Y-1089800D01*
G01X2275230Y-1006470D02*
X2270230Y-996470D01*
X2264400Y-991470D01*
X2257730Y-989800D01*
X2249400Y-993130D01*
X2243570Y-1001470D01*
X2241900Y-1011470D01*
X2242730Y-1021470D01*
X2246070Y-1029800D01*
X2262730Y-1046470D01*
X2270230Y-1058130D01*
X2275230Y-1074800D01*
X2276900Y-1089800D01*
X2241900D01*
G01X2223230Y-1006470D02*
X2218230Y-996470D01*
X2212400Y-991470D01*
X2205730Y-989800D01*
X2197400Y-993130D01*
X2191570Y-1001470D01*
X2189900Y-1011470D01*
X2190730Y-1021470D01*
X2194070Y-1029800D01*
X2210730Y-1046470D01*
X2218230Y-1058130D01*
X2223230Y-1074800D01*
X2224900Y-1089800D01*
X2189900D01*
G01X2484430Y-954300D02*
X2517770D01*
Y-854300D01*
X2484430D01*
G01X2497770Y-902630D02*
X2517770D01*
G01X2466600Y-954300D02*
X2431600Y-854300D01*
G01X2466600D02*
X2431600Y-954300D01*
G01X2378770Y-862630D02*
X2383770Y-857630D01*
X2389600Y-854300D01*
X2396270D01*
X2403770Y-859300D01*
X2409600Y-867630D01*
X2413770Y-877630D01*
X2417100Y-894300D01*
X2417930Y-909300D01*
X2416270Y-924300D01*
X2413770Y-934300D01*
X2408770Y-944300D01*
X2402930Y-950970D01*
X2397100Y-954300D01*
X2391270D01*
X2385430Y-950970D01*
X2380430Y-945970D01*
X2376270Y-939300D01*
G01X2361770Y-854300D02*
Y-954300D01*
X2328430D01*
G01X2311430Y-854300D02*
Y-925970D01*
X2308100Y-940970D01*
X2301430Y-950970D01*
X2293100Y-954300D01*
X2284770Y-950970D01*
X2278100Y-940970D01*
X2274770Y-925970D01*
Y-854300D01*
G01X2258600Y-940970D02*
X2251930Y-949300D01*
X2244430Y-954300D01*
X2237770D01*
X2231100Y-949300D01*
X2226100Y-940970D01*
X2223600Y-929300D01*
X2225270Y-917640D01*
X2229430Y-907630D01*
X2236930Y-900970D01*
X2246930Y-897630D01*
X2252770Y-890970D01*
X2255270Y-879300D01*
X2253600Y-867630D01*
X2249430Y-859300D01*
X2243600Y-854300D01*
X2237770D01*
X2231930Y-857630D01*
X2226930Y-865970D01*
G01X2199100Y-854300D02*
X2179100D01*
G01X2189100D02*
Y-954300D01*
G01X2199100D02*
X2179100D01*
G01X2157930Y-854300D02*
X2137100Y-954300D01*
X2116270Y-854300D01*
G01X2068430Y-954300D02*
X2101770D01*
Y-854300D01*
X2068430D01*
G01X2081770Y-902630D02*
X2101770D01*
G01X5538330Y-420000D02*
X5571670D01*
Y-320000D01*
X5538330D01*
G01X5551670Y-368330D02*
X5571670D01*
G01X5522170Y-420000D02*
Y-320000D01*
X5483830Y-420000D01*
Y-320000D01*
G01X5434330Y-420000D02*
X5467670D01*
Y-320000D01*
X5434330D01*
G01X5447670Y-368330D02*
X5467670D01*
G01X5415670Y-420000D02*
Y-320000D01*
X5394830D01*
X5388170Y-325000D01*
X5384000Y-331670D01*
X5382330Y-345000D01*
X5384000Y-358330D01*
X5389000Y-366670D01*
X5394830Y-371670D01*
X5415670D01*
G01X5394830D02*
X5382330Y-420000D01*
G01X5342000Y-370000D02*
X5325330D01*
Y-400000D01*
X5330330Y-410000D01*
X5336170Y-416670D01*
X5344500Y-420000D01*
X5352830Y-416670D01*
X5358670Y-410000D01*
X5363670Y-400000D01*
X5367000Y-388330D01*
X5368670Y-375000D01*
Y-363330D01*
X5367000Y-353340D01*
X5363670Y-341670D01*
X5358670Y-331670D01*
X5353670Y-325000D01*
X5347000Y-320000D01*
X5341170D01*
X5334500Y-323330D01*
X5329500Y-330000D01*
G01X5295000Y-420000D02*
Y-375000D01*
X5311670Y-320000D01*
G01X5278330D02*
X5295000Y-375000D01*
G01X5208500Y-420000D02*
Y-320000D01*
G01X5173500D02*
Y-420000D01*
G01Y-370000D02*
X5208500D01*
G01X5159830Y-420000D02*
X5139000Y-320000D01*
X5118170Y-420000D01*
G01X5125670Y-385000D02*
X5152330D01*
G01X5103670Y-420000D02*
Y-320000D01*
X5082830D01*
X5076170Y-325000D01*
X5072000Y-331670D01*
X5070330Y-345000D01*
X5072000Y-358330D01*
X5077000Y-366670D01*
X5082830Y-371670D01*
X5103670D01*
G01X5082830D02*
X5070330Y-420000D01*
G01X5055830Y-320000D02*
X5035000Y-420000D01*
X5014170Y-320000D01*
G01X4966330Y-420000D02*
X4999670D01*
Y-320000D01*
X4966330D01*
G01X4979670Y-368330D02*
X4999670D01*
G01X4948500Y-406670D02*
X4941830Y-415000D01*
X4934330Y-420000D01*
X4927670D01*
X4921000Y-415000D01*
X4916000Y-406670D01*
X4913500Y-395000D01*
X4915170Y-383340D01*
X4919330Y-373330D01*
X4926830Y-366670D01*
X4936830Y-363330D01*
X4942670Y-356670D01*
X4945170Y-345000D01*
X4943500Y-333330D01*
X4939330Y-325000D01*
X4933500Y-320000D01*
X4927670D01*
X4921830Y-323330D01*
X4916830Y-331670D01*
G01X4879000Y-320000D02*
Y-420000D01*
G01X4898170Y-320000D02*
X4859830D01*
G01X4810330Y-420000D02*
X4843670D01*
Y-320000D01*
X4810330D01*
G01X4823670Y-368330D02*
X4843670D01*
G01X4791670Y-420000D02*
Y-320000D01*
X4770830D01*
X4764170Y-325000D01*
X4760000Y-331670D01*
X4758330Y-345000D01*
X4760000Y-358330D01*
X4765000Y-366670D01*
X4770830Y-371670D01*
X4791670D01*
G01X4770830D02*
X4758330Y-420000D01*
G01X5571670Y-280000D02*
Y-180000D01*
X5551670D01*
X5545000Y-185000D01*
X5540000Y-196670D01*
X5538330Y-210000D01*
X5540000Y-223330D01*
X5544170Y-233330D01*
X5551670Y-238340D01*
X5571670D01*
G01X5520500Y-280000D02*
Y-180000D01*
G01X5485500D02*
Y-280000D01*
G01Y-230000D02*
X5520500D01*
G01X5451000Y-280000D02*
X5457670Y-278330D01*
X5463500Y-271670D01*
X5468500Y-261670D01*
X5471830Y-250000D01*
X5473500Y-236670D01*
Y-223330D01*
X5471830Y-210000D01*
X5468500Y-198330D01*
X5463500Y-188330D01*
X5457670Y-181670D01*
X5451000Y-180000D01*
X5444330Y-181670D01*
X5438500Y-188330D01*
X5433500Y-198330D01*
X5430170Y-210000D01*
X5428500Y-223330D01*
Y-236670D01*
X5430170Y-250000D01*
X5433500Y-261670D01*
X5438500Y-271670D01*
X5444330Y-278330D01*
X5451000Y-280000D01*
G01X5399000Y-180000D02*
Y-280000D01*
G01X5418170Y-180000D02*
X5379830D01*
G01X5347000Y-280000D02*
X5353670Y-278330D01*
X5359500Y-271670D01*
X5364500Y-261670D01*
X5367830Y-250000D01*
X5369500Y-236670D01*
Y-223330D01*
X5367830Y-210000D01*
X5364500Y-198330D01*
X5359500Y-188330D01*
X5353670Y-181670D01*
X5347000Y-180000D01*
X5340330Y-181670D01*
X5334500Y-188330D01*
X5329500Y-198330D01*
X5326170Y-210000D01*
X5324500Y-223330D01*
Y-236670D01*
X5326170Y-250000D01*
X5329500Y-261670D01*
X5334500Y-271670D01*
X5340330Y-278330D01*
X5347000Y-280000D01*
G01X5315830Y-180000D02*
X5295000Y-280000D01*
X5274170Y-180000D01*
G01X5243000Y-280000D02*
X5249670Y-278330D01*
X5255500Y-271670D01*
X5260500Y-261670D01*
X5263830Y-250000D01*
X5265500Y-236670D01*
Y-223330D01*
X5263830Y-210000D01*
X5260500Y-198330D01*
X5255500Y-188330D01*
X5249670Y-181670D01*
X5243000Y-180000D01*
X5236330Y-181670D01*
X5230500Y-188330D01*
X5225500Y-198330D01*
X5222170Y-210000D01*
X5220500Y-223330D01*
Y-236670D01*
X5222170Y-250000D01*
X5225500Y-261670D01*
X5230500Y-271670D01*
X5236330Y-278330D01*
X5243000Y-280000D01*
G01X5207670Y-180000D02*
Y-280000D01*
X5174330D01*
G01X5139000Y-180000D02*
Y-280000D01*
G01X5158170Y-180000D02*
X5119830D01*
G01X5107830Y-280000D02*
X5087000Y-180000D01*
X5066170Y-280000D01*
G01X5073670Y-245000D02*
X5100330D01*
G01X5045000Y-180000D02*
X5025000D01*
G01X5035000D02*
Y-280000D01*
G01X5045000D02*
X5025000D01*
G01X4964670Y-188330D02*
X4969670Y-183330D01*
X4975500Y-180000D01*
X4982170D01*
X4989670Y-185000D01*
X4995500Y-193330D01*
X4999670Y-203330D01*
X5003000Y-220000D01*
X5003830Y-235000D01*
X5002170Y-250000D01*
X4999670Y-260000D01*
X4994670Y-270000D01*
X4988830Y-276670D01*
X4983000Y-280000D01*
X4977170D01*
X4971330Y-276670D01*
X4966330Y-271670D01*
X4962170Y-265000D01*
G01X5550000Y-510000D02*
X5533330D01*
Y-540000D01*
X5538330Y-550000D01*
X5544170Y-556670D01*
X5552500Y-560000D01*
X5560830Y-556670D01*
X5566670Y-550000D01*
X5571670Y-540000D01*
X5575000Y-528330D01*
X5576670Y-515000D01*
Y-503330D01*
X5575000Y-493340D01*
X5571670Y-481670D01*
X5566670Y-471670D01*
X5561670Y-465000D01*
X5555000Y-460000D01*
X5549170D01*
X5542500Y-463330D01*
X5537500Y-470000D01*
G01X5519670Y-460000D02*
Y-560000D01*
X5486330D01*
G01X5467670D02*
Y-460000D01*
X5447670D01*
X5441000Y-465000D01*
X5436000Y-476670D01*
X5434330Y-490000D01*
X5436000Y-503330D01*
X5440170Y-513330D01*
X5447670Y-518340D01*
X5467670D01*
G01X5415670Y-560000D02*
Y-460000D01*
X5395670D01*
X5389000Y-465000D01*
X5384000Y-476670D01*
X5382330Y-490000D01*
X5384000Y-503330D01*
X5388170Y-513330D01*
X5395670Y-518340D01*
X5415670D01*
G01X5362830Y-476670D02*
X5357830Y-466670D01*
X5352000Y-461670D01*
X5345330Y-460000D01*
X5337000Y-463330D01*
X5331170Y-471670D01*
X5329500Y-481670D01*
X5330330Y-491670D01*
X5333670Y-500000D01*
X5350330Y-516670D01*
X5357830Y-528330D01*
X5362830Y-545000D01*
X5364500Y-560000D01*
X5329500D01*
G01X5295000Y-460000D02*
X5301670Y-463330D01*
X5306670Y-471670D01*
X5310000Y-481670D01*
X5312500Y-495000D01*
X5313330Y-510000D01*
X5312500Y-525000D01*
X5310000Y-538330D01*
X5306670Y-548340D01*
X5301670Y-556670D01*
X5295000Y-560000D01*
X5288330Y-556670D01*
X5283330Y-548340D01*
X5280000Y-538330D01*
X5277500Y-525000D01*
X5276670Y-510000D01*
X5277500Y-495000D01*
X5280000Y-481670D01*
X5283330Y-471670D01*
X5288330Y-463330D01*
X5295000Y-460000D01*
G01X5258830Y-476670D02*
X5253830Y-466670D01*
X5248000Y-461670D01*
X5241330Y-460000D01*
X5233000Y-463330D01*
X5227170Y-471670D01*
X5225500Y-481670D01*
X5226330Y-491670D01*
X5229670Y-500000D01*
X5246330Y-516670D01*
X5253830Y-528330D01*
X5258830Y-545000D01*
X5260500Y-560000D01*
X5225500D01*
G01X5181000D02*
Y-460000D01*
X5211830Y-531670D01*
X5170170D01*
G01X5149830Y-526670D02*
X5128170D01*
G01X5103670Y-560000D02*
Y-460000D01*
X5083670D01*
X5077000Y-465000D01*
X5072000Y-476670D01*
X5070330Y-490000D01*
X5072000Y-503330D01*
X5076170Y-513330D01*
X5083670Y-518340D01*
X5103670D01*
G01X5052500Y-546670D02*
X5045830Y-555000D01*
X5038330Y-560000D01*
X5031670D01*
X5025000Y-555000D01*
X5020000Y-546670D01*
X5017500Y-535000D01*
X5019170Y-523340D01*
X5023330Y-513330D01*
X5030830Y-506670D01*
X5040830Y-503330D01*
X5046670Y-496670D01*
X5049170Y-485000D01*
X5047500Y-473330D01*
X5043330Y-465000D01*
X5037500Y-460000D01*
X5031670D01*
X5025830Y-463330D01*
X5020830Y-471670D01*
G01X5001330Y-460000D02*
Y-531670D01*
X4998000Y-546670D01*
X4991330Y-556670D01*
X4983000Y-560000D01*
X4974670Y-556670D01*
X4968000Y-546670D01*
X4964670Y-531670D01*
Y-460000D01*
G01X4941830Y-526670D02*
X4920170D01*
G01X4899830Y-560000D02*
X4879000Y-460000D01*
X4858170Y-560000D01*
G01X4865670Y-525000D02*
X4892330D01*
G01X4827000Y-560000D02*
Y-460000D01*
X4837000Y-480000D01*
G01Y-560000D02*
X4817000D01*
G01X8214170Y-2360000D02*
Y-2260000D01*
X8175830Y-2360000D01*
Y-2260000D01*
G01X8143000Y-2360000D02*
X8149670Y-2358330D01*
X8155500Y-2351670D01*
X8160500Y-2341670D01*
X8163830Y-2330000D01*
X8165500Y-2316670D01*
Y-2303330D01*
X8163830Y-2290000D01*
X8160500Y-2278330D01*
X8155500Y-2268330D01*
X8149670Y-2261670D01*
X8143000Y-2260000D01*
X8136330Y-2261670D01*
X8130500Y-2268330D01*
X8125500Y-2278330D01*
X8122170Y-2290000D01*
X8120500Y-2303330D01*
Y-2316670D01*
X8122170Y-2330000D01*
X8125500Y-2341670D01*
X8130500Y-2351670D01*
X8136330Y-2358330D01*
X8143000Y-2360000D01*
G01X8032330Y-2306670D02*
X8029000Y-2301670D01*
X8026500Y-2293340D01*
X8024830Y-2281670D01*
X8026500Y-2271670D01*
X8029830Y-2265000D01*
X8035670Y-2260000D01*
X8058170D01*
Y-2360000D01*
X8030670D01*
X8024830Y-2353330D01*
X8021500Y-2343330D01*
X8019830Y-2331670D01*
X8021500Y-2320000D01*
X8026500Y-2310000D01*
X8032330Y-2306670D01*
X8058170D01*
G01X8005330Y-2260000D02*
Y-2331670D01*
X8002000Y-2346670D01*
X7995330Y-2356670D01*
X7987000Y-2360000D01*
X7978670Y-2356670D01*
X7972000Y-2346670D01*
X7968670Y-2331670D01*
Y-2260000D01*
G01X7930000Y-2310000D02*
X7913330D01*
Y-2340000D01*
X7918330Y-2350000D01*
X7924170Y-2356670D01*
X7932500Y-2360000D01*
X7940830Y-2356670D01*
X7946670Y-2350000D01*
X7951670Y-2340000D01*
X7955000Y-2328330D01*
X7956670Y-2315000D01*
Y-2303330D01*
X7955000Y-2293340D01*
X7951670Y-2281670D01*
X7946670Y-2271670D01*
X7941670Y-2265000D01*
X7935000Y-2260000D01*
X7929170D01*
X7922500Y-2263330D01*
X7917500Y-2270000D01*
G01X7900500Y-2346670D02*
X7893830Y-2355000D01*
X7886330Y-2360000D01*
X7879670D01*
X7873000Y-2355000D01*
X7868000Y-2346670D01*
X7865500Y-2335000D01*
X7867170Y-2323340D01*
X7871330Y-2313330D01*
X7878830Y-2306670D01*
X7888830Y-2303330D01*
X7894670Y-2296670D01*
X7897170Y-2285000D01*
X7895500Y-2273330D01*
X7891330Y-2265000D01*
X7885500Y-2260000D01*
X7879670D01*
X7873830Y-2263330D01*
X7868830Y-2271670D01*
G01X7795670Y-2360000D02*
Y-2260000D01*
X7775670D01*
X7769000Y-2265000D01*
X7764000Y-2276670D01*
X7762330Y-2290000D01*
X7764000Y-2303330D01*
X7768170Y-2313330D01*
X7775670Y-2318340D01*
X7795670D01*
G01X7710330Y-2360000D02*
X7743670D01*
Y-2260000D01*
X7710330D01*
G01X7723670Y-2308330D02*
X7743670D01*
G01X7691670Y-2360000D02*
Y-2260000D01*
X7670830D01*
X7664170Y-2265000D01*
X7660000Y-2271670D01*
X7658330Y-2285000D01*
X7660000Y-2298330D01*
X7665000Y-2306670D01*
X7670830Y-2311670D01*
X7691670D01*
G01X7670830D02*
X7658330Y-2360000D01*
G01X7644670D02*
Y-2260000D01*
X7623000Y-2343330D01*
X7601330Y-2260000D01*
Y-2360000D01*
G01X7591830D02*
X7571000Y-2260000D01*
X7550170Y-2360000D01*
G01X7557670Y-2325000D02*
X7584330D01*
G01X7538170Y-2360000D02*
Y-2260000D01*
X7499830Y-2360000D01*
Y-2260000D01*
G01X7450330Y-2360000D02*
X7483670D01*
Y-2260000D01*
X7450330D01*
G01X7463670Y-2308330D02*
X7483670D01*
G01X7434170Y-2360000D02*
Y-2260000D01*
X7395830Y-2360000D01*
Y-2260000D01*
G01X7363000D02*
Y-2360000D01*
G01X7382170Y-2260000D02*
X7343830D01*
G01X7327670D02*
Y-2360000D01*
X7294330D01*
G01X7259000D02*
Y-2315000D01*
X7275670Y-2260000D01*
G01X7242330D02*
X7259000Y-2315000D01*
G54D14*
G01X465230Y-1925900D02*
Y-1983230D01*
X462900Y-1995240D01*
X458230Y-2003230D01*
X452400Y-2005900D01*
X446570Y-2003230D01*
X441900Y-1995240D01*
X439570Y-1983230D01*
Y-1925900D01*
G01X415900Y-2005900D02*
Y-1925900D01*
X422900Y-1941900D01*
G01Y-2005900D02*
X408900D01*
G01X392230Y-1993900D02*
X388730Y-2000570D01*
X384650Y-2004570D01*
X379400Y-2005900D01*
X374150Y-2003230D01*
X370070Y-1997900D01*
X367150Y-1988570D01*
X366570Y-1977900D01*
X367730Y-1967230D01*
X370650Y-1960570D01*
X374730Y-1955230D01*
X378820Y-1953900D01*
X382900Y-1955230D01*
X388150Y-1960570D01*
X386400Y-1925900D01*
X370650D01*
G01X465570Y-1789200D02*
Y-1869200D01*
X442230D01*
G01X418570D02*
X417400Y-1851870D01*
X415650Y-1837200D01*
X413320Y-1823870D01*
X410400Y-1809200D01*
X405730Y-1789200D01*
X429070D01*
G01X541630Y-677570D02*
X545630Y-681070D01*
X548300Y-685150D01*
Y-689820D01*
X544300Y-695070D01*
X537630Y-699150D01*
X529630Y-702070D01*
X516300Y-704400D01*
X504300Y-704980D01*
X492300Y-703820D01*
X484300Y-702070D01*
X476300Y-698570D01*
X470970Y-694480D01*
X468300Y-690400D01*
Y-686320D01*
X470970Y-682230D01*
X474970Y-678730D01*
X480300Y-675820D01*
G01X468300Y-653900D02*
X548300D01*
X532300Y-660900D01*
G01X468300D02*
Y-646900D01*
G01Y-618570D02*
X485630Y-617400D01*
X500300Y-615650D01*
X513630Y-613320D01*
X528300Y-610400D01*
X548300Y-605730D01*
Y-629070D01*
G01X504670Y-889600D02*
Y-809600D01*
X490080D01*
X485420Y-813600D01*
X482500Y-818930D01*
X481330Y-829600D01*
X482500Y-840270D01*
X486000Y-846930D01*
X490080Y-850930D01*
X504670D01*
G01X490080D02*
X481330Y-889600D01*
G01X456500D02*
Y-809600D01*
X463500Y-825600D01*
G01Y-889600D02*
X449500D01*
G01X432830Y-873600D02*
X429330Y-882930D01*
X424670Y-888270D01*
X419420Y-889600D01*
X414750Y-888270D01*
X410080Y-881600D01*
X407170Y-873600D01*
X406580Y-865600D01*
X407750Y-856270D01*
X411830Y-849600D01*
X415920Y-846930D01*
X421170D01*
G01X415920D02*
X412420Y-842930D01*
X409500Y-836270D01*
X408330Y-828270D01*
X409500Y-820270D01*
X412420Y-813600D01*
X417670Y-809600D01*
X422920Y-810930D01*
X428170Y-816270D01*
G01X848470Y-1438870D02*
X851970Y-1434870D01*
X856050Y-1432200D01*
X860720D01*
X865970Y-1436200D01*
X870050Y-1442870D01*
X872970Y-1450870D01*
X875300Y-1464200D01*
X875880Y-1476200D01*
X874720Y-1488200D01*
X872970Y-1496200D01*
X869470Y-1504200D01*
X865380Y-1509530D01*
X861300Y-1512200D01*
X857220D01*
X853130Y-1509530D01*
X849630Y-1505530D01*
X846720Y-1500200D01*
G01X837630Y-1496200D02*
X834130Y-1505530D01*
X829470Y-1510870D01*
X824220Y-1512200D01*
X819550Y-1510870D01*
X814880Y-1504200D01*
X811970Y-1496200D01*
X811380Y-1488200D01*
X812550Y-1478870D01*
X816630Y-1472200D01*
X820720Y-1469530D01*
X825970D01*
G01X820720D02*
X817220Y-1465530D01*
X814300Y-1458870D01*
X813130Y-1450870D01*
X814300Y-1442870D01*
X817220Y-1436200D01*
X822470Y-1432200D01*
X827720Y-1433530D01*
X832970Y-1438870D01*
G01X788300Y-1432200D02*
X792970Y-1434870D01*
X796470Y-1441530D01*
X798800Y-1449530D01*
X800550Y-1460200D01*
X801130Y-1472200D01*
X800550Y-1484200D01*
X798800Y-1494870D01*
X796470Y-1502870D01*
X792970Y-1509530D01*
X788300Y-1512200D01*
X783630Y-1509530D01*
X780130Y-1502870D01*
X777800Y-1494870D01*
X776050Y-1484200D01*
X775470Y-1472200D01*
X776050Y-1460200D01*
X777800Y-1449530D01*
X780130Y-1441530D01*
X783630Y-1434870D01*
X788300Y-1432200D01*
G01X543930Y-415900D02*
Y-473230D01*
X541600Y-485240D01*
X536930Y-493230D01*
X531100Y-495900D01*
X525270Y-493230D01*
X520600Y-485240D01*
X518270Y-473230D01*
Y-415900D01*
G01X504520Y-486570D02*
X500430Y-493230D01*
X495770Y-495900D01*
X491100Y-493230D01*
X487020Y-485240D01*
X484100Y-473230D01*
X482930Y-461230D01*
Y-446570D01*
X484100Y-434570D01*
X487020Y-423900D01*
X490520Y-418570D01*
X494600Y-415900D01*
X499270Y-418570D01*
X502770Y-423900D01*
X505100Y-431900D01*
X506270Y-442570D01*
X505100Y-451900D01*
X502180Y-461230D01*
X498680Y-466570D01*
X494600Y-467900D01*
X489930Y-465240D01*
X486430Y-458570D01*
X482930Y-446570D01*
G01X483800Y-313170D02*
X563800D01*
Y-298580D01*
X559800Y-293920D01*
X554470Y-291000D01*
X543800Y-289830D01*
X533130Y-291000D01*
X526470Y-294500D01*
X522470Y-298580D01*
Y-313170D01*
G01Y-298580D02*
X483800Y-289830D01*
G01Y-265000D02*
X563800D01*
X547800Y-272000D01*
G01X483800D02*
Y-258000D01*
G01X563800Y-228500D02*
X561130Y-233170D01*
X554470Y-236670D01*
X546470Y-239000D01*
X535800Y-240750D01*
X523800Y-241330D01*
X511800Y-240750D01*
X501130Y-239000D01*
X493130Y-236670D01*
X486470Y-233170D01*
X483800Y-228500D01*
X486470Y-223830D01*
X493130Y-220330D01*
X501130Y-218000D01*
X511800Y-216250D01*
X523800Y-215670D01*
X535800Y-216250D01*
X546470Y-218000D01*
X554470Y-220330D01*
X561130Y-223830D01*
X563800Y-228500D01*
G01X1028700Y-1499870D02*
X1108700D01*
Y-1485280D01*
X1104700Y-1480620D01*
X1099370Y-1477700D01*
X1088700Y-1476530D01*
X1078030Y-1477700D01*
X1071370Y-1481200D01*
X1067370Y-1485280D01*
Y-1499870D01*
G01Y-1485280D02*
X1028700Y-1476530D01*
G01X1095370Y-1462780D02*
X1103370Y-1459280D01*
X1107370Y-1455200D01*
X1108700Y-1450530D01*
X1106030Y-1444700D01*
X1099370Y-1440620D01*
X1091370Y-1439450D01*
X1083360Y-1440030D01*
X1076700Y-1442370D01*
X1063370Y-1454030D01*
X1054030Y-1459280D01*
X1040700Y-1462780D01*
X1028700Y-1463950D01*
Y-1439450D01*
G01X1040700Y-1428030D02*
X1034030Y-1424530D01*
X1030030Y-1420450D01*
X1028700Y-1415200D01*
X1031370Y-1409950D01*
X1036700Y-1405870D01*
X1046030Y-1402950D01*
X1056700Y-1402370D01*
X1067370Y-1403530D01*
X1074030Y-1406450D01*
X1079370Y-1410530D01*
X1080700Y-1414620D01*
X1079370Y-1418700D01*
X1074030Y-1423950D01*
X1108700Y-1422200D01*
Y-1406450D01*
G01X1029670Y-966670D02*
X1033170Y-962670D01*
X1037250Y-960000D01*
X1041920D01*
X1047170Y-964000D01*
X1051250Y-970670D01*
X1054170Y-978670D01*
X1056500Y-992000D01*
X1057080Y-1004000D01*
X1055920Y-1016000D01*
X1054170Y-1024000D01*
X1050670Y-1032000D01*
X1046580Y-1037330D01*
X1042500Y-1040000D01*
X1038420D01*
X1034330Y-1037330D01*
X1030830Y-1033330D01*
X1027920Y-1028000D01*
G01X1017080Y-973330D02*
X1013580Y-965330D01*
X1009500Y-961330D01*
X1004830Y-960000D01*
X999000Y-962670D01*
X994920Y-969330D01*
X993750Y-977330D01*
X994330Y-985340D01*
X996670Y-992000D01*
X1008330Y-1005330D01*
X1013580Y-1014670D01*
X1017080Y-1028000D01*
X1018250Y-1040000D01*
X993750D01*
G01X969500D02*
Y-960000D01*
X976500Y-976000D01*
G01Y-1040000D02*
X962500D01*
G01X1344900Y-1500970D02*
X1424900D01*
Y-1486380D01*
X1420900Y-1481720D01*
X1415570Y-1478800D01*
X1404900Y-1477630D01*
X1394230Y-1478800D01*
X1387570Y-1482300D01*
X1383570Y-1486380D01*
Y-1500970D01*
G01Y-1486380D02*
X1344900Y-1477630D01*
G01X1411570Y-1463880D02*
X1419570Y-1460380D01*
X1423570Y-1456300D01*
X1424900Y-1451630D01*
X1422230Y-1445800D01*
X1415570Y-1441720D01*
X1407570Y-1440550D01*
X1399560Y-1441130D01*
X1392900Y-1443470D01*
X1379570Y-1455130D01*
X1370230Y-1460380D01*
X1356900Y-1463880D01*
X1344900Y-1465050D01*
Y-1440550D01*
G01X1360900Y-1429130D02*
X1351570Y-1425630D01*
X1346230Y-1420970D01*
X1344900Y-1415720D01*
X1346230Y-1411050D01*
X1352900Y-1406380D01*
X1360900Y-1403470D01*
X1368900Y-1402880D01*
X1378230Y-1404050D01*
X1384900Y-1408130D01*
X1387570Y-1412220D01*
Y-1417470D01*
G01Y-1412220D02*
X1391570Y-1408720D01*
X1398230Y-1405800D01*
X1406230Y-1404630D01*
X1414230Y-1405800D01*
X1420900Y-1408720D01*
X1424900Y-1413970D01*
X1423570Y-1419220D01*
X1418230Y-1424470D01*
G01X1192200Y-1463170D02*
X1272200D01*
Y-1448580D01*
X1268200Y-1443920D01*
X1262870Y-1441000D01*
X1252200Y-1439830D01*
X1241530Y-1441000D01*
X1234870Y-1444500D01*
X1230870Y-1448580D01*
Y-1463170D01*
G01Y-1448580D02*
X1192200Y-1439830D01*
G01X1258870Y-1426080D02*
X1266870Y-1422580D01*
X1270870Y-1418500D01*
X1272200Y-1413830D01*
X1269530Y-1408000D01*
X1262870Y-1403920D01*
X1254870Y-1402750D01*
X1246860Y-1403330D01*
X1240200Y-1405670D01*
X1226870Y-1417330D01*
X1217530Y-1422580D01*
X1204200Y-1426080D01*
X1192200Y-1427250D01*
Y-1402750D01*
G01Y-1371500D02*
X1272200D01*
X1214870Y-1393080D01*
Y-1363920D01*
G01X1547530Y-1473970D02*
X1551530Y-1477470D01*
X1554200Y-1481550D01*
Y-1486220D01*
X1550200Y-1491470D01*
X1543530Y-1495550D01*
X1535530Y-1498470D01*
X1522200Y-1500800D01*
X1510200Y-1501380D01*
X1498200Y-1500220D01*
X1490200Y-1498470D01*
X1482200Y-1494970D01*
X1476870Y-1490880D01*
X1474200Y-1486800D01*
Y-1482720D01*
X1476870Y-1478630D01*
X1480870Y-1475130D01*
X1486200Y-1472220D01*
G01X1490200Y-1463130D02*
X1480870Y-1459630D01*
X1475530Y-1454970D01*
X1474200Y-1449720D01*
X1475530Y-1445050D01*
X1482200Y-1440380D01*
X1490200Y-1437470D01*
X1498200Y-1436880D01*
X1507530Y-1438050D01*
X1514200Y-1442130D01*
X1516870Y-1446220D01*
Y-1451470D01*
G01Y-1446220D02*
X1520870Y-1442720D01*
X1527530Y-1439800D01*
X1535530Y-1438630D01*
X1543530Y-1439800D01*
X1550200Y-1442720D01*
X1554200Y-1447970D01*
X1552870Y-1453220D01*
X1547530Y-1458470D01*
G01X1474200Y-1413800D02*
X1554200D01*
X1538200Y-1420800D01*
G01X1474200D02*
Y-1406800D01*
G01X1281170Y-1092600D02*
Y-1012600D01*
X1266580D01*
X1261920Y-1016600D01*
X1259000Y-1021930D01*
X1257830Y-1032600D01*
X1259000Y-1043270D01*
X1262500Y-1049930D01*
X1266580Y-1053930D01*
X1281170D01*
G01X1266580D02*
X1257830Y-1092600D01*
G01X1233000D02*
Y-1012600D01*
X1240000Y-1028600D01*
G01Y-1092600D02*
X1226000D01*
G01X1209330Y-1080600D02*
X1205830Y-1087270D01*
X1201750Y-1091270D01*
X1196500Y-1092600D01*
X1191250Y-1089930D01*
X1187170Y-1084600D01*
X1184250Y-1075270D01*
X1183670Y-1064600D01*
X1184830Y-1053930D01*
X1187750Y-1047270D01*
X1191830Y-1041930D01*
X1195920Y-1040600D01*
X1200000Y-1041930D01*
X1205250Y-1047270D01*
X1203500Y-1012600D01*
X1187750D01*
G01X1373330Y-269670D02*
X1377330Y-273170D01*
X1380000Y-277250D01*
Y-281920D01*
X1376000Y-287170D01*
X1369330Y-291250D01*
X1361330Y-294170D01*
X1348000Y-296500D01*
X1336000Y-297080D01*
X1324000Y-295920D01*
X1316000Y-294170D01*
X1308000Y-290670D01*
X1302670Y-286580D01*
X1300000Y-282500D01*
Y-278420D01*
X1302670Y-274330D01*
X1306670Y-270830D01*
X1312000Y-267920D01*
G01X1300000Y-246000D02*
X1380000D01*
X1364000Y-253000D01*
G01X1300000D02*
Y-239000D01*
G01X1312000Y-222330D02*
X1305330Y-218830D01*
X1301330Y-214750D01*
X1300000Y-209500D01*
X1302670Y-204250D01*
X1308000Y-200170D01*
X1317330Y-197250D01*
X1328000Y-196670D01*
X1338670Y-197830D01*
X1345330Y-200750D01*
X1350670Y-204830D01*
X1352000Y-208920D01*
X1350670Y-213000D01*
X1345330Y-218250D01*
X1380000Y-216500D01*
Y-200750D01*
G01X1636370Y-1841100D02*
Y-1761100D01*
X1621780D01*
X1617120Y-1765100D01*
X1614200Y-1770430D01*
X1613030Y-1781100D01*
X1614200Y-1791770D01*
X1617700Y-1798430D01*
X1621780Y-1802430D01*
X1636370D01*
G01X1621780D02*
X1613030Y-1841100D01*
G01X1601030Y-1825100D02*
X1597530Y-1834430D01*
X1592870Y-1839770D01*
X1587620Y-1841100D01*
X1582950Y-1839770D01*
X1578280Y-1833100D01*
X1575370Y-1825100D01*
X1574780Y-1817100D01*
X1575950Y-1807770D01*
X1580030Y-1801100D01*
X1584120Y-1798430D01*
X1589370D01*
G01X1584120D02*
X1580620Y-1794430D01*
X1577700Y-1787770D01*
X1576530Y-1779770D01*
X1577700Y-1771770D01*
X1580620Y-1765100D01*
X1585870Y-1761100D01*
X1591120Y-1762430D01*
X1596370Y-1767770D01*
G01X1564530Y-1829100D02*
X1561030Y-1835770D01*
X1556950Y-1839770D01*
X1551700Y-1841100D01*
X1546450Y-1838430D01*
X1542370Y-1833100D01*
X1539450Y-1823770D01*
X1538870Y-1813100D01*
X1540030Y-1802430D01*
X1542950Y-1795770D01*
X1547030Y-1790430D01*
X1551120Y-1789100D01*
X1555200Y-1790430D01*
X1560450Y-1795770D01*
X1558700Y-1761100D01*
X1542950D01*
G01X1706870Y-1458800D02*
Y-1378800D01*
X1692280D01*
X1687620Y-1382800D01*
X1684700Y-1388130D01*
X1683530Y-1398800D01*
X1684700Y-1409470D01*
X1688200Y-1416130D01*
X1692280Y-1420130D01*
X1706870D01*
G01X1692280D02*
X1683530Y-1458800D01*
G01X1669780Y-1392130D02*
X1666280Y-1384130D01*
X1662200Y-1380130D01*
X1657530Y-1378800D01*
X1651700Y-1381470D01*
X1647620Y-1388130D01*
X1646450Y-1396130D01*
X1647030Y-1404140D01*
X1649370Y-1410800D01*
X1661030Y-1424130D01*
X1666280Y-1433470D01*
X1669780Y-1446800D01*
X1670950Y-1458800D01*
X1646450D01*
G01X1622200D02*
Y-1378800D01*
X1629200Y-1394800D01*
G01Y-1458800D02*
X1615200D01*
G01X1752870Y-996070D02*
X1756370Y-992070D01*
X1760450Y-989400D01*
X1765120D01*
X1770370Y-993400D01*
X1774450Y-1000070D01*
X1777370Y-1008070D01*
X1779700Y-1021400D01*
X1780280Y-1033400D01*
X1779120Y-1045400D01*
X1777370Y-1053400D01*
X1773870Y-1061400D01*
X1769780Y-1066730D01*
X1765700Y-1069400D01*
X1761620D01*
X1757530Y-1066730D01*
X1754030Y-1062730D01*
X1751120Y-1057400D01*
G01X1740280Y-1002730D02*
X1736780Y-994730D01*
X1732700Y-990730D01*
X1728030Y-989400D01*
X1722200Y-992070D01*
X1718120Y-998730D01*
X1716950Y-1006730D01*
X1717530Y-1014740D01*
X1719870Y-1021400D01*
X1731530Y-1034730D01*
X1736780Y-1044070D01*
X1740280Y-1057400D01*
X1741450Y-1069400D01*
X1716950D01*
G01X1705530Y-1053400D02*
X1702030Y-1062730D01*
X1697370Y-1068070D01*
X1692120Y-1069400D01*
X1687450Y-1068070D01*
X1682780Y-1061400D01*
X1679870Y-1053400D01*
X1679280Y-1045400D01*
X1680450Y-1036070D01*
X1684530Y-1029400D01*
X1688620Y-1026730D01*
X1693870D01*
G01X1688620D02*
X1685120Y-1022730D01*
X1682200Y-1016070D01*
X1681030Y-1008070D01*
X1682200Y-1000070D01*
X1685120Y-993400D01*
X1690370Y-989400D01*
X1695620Y-990730D01*
X1700870Y-996070D01*
G01X1933170Y-1162300D02*
Y-1082300D01*
X1918580D01*
X1913920Y-1086300D01*
X1911000Y-1091630D01*
X1909830Y-1102300D01*
X1911000Y-1112970D01*
X1914500Y-1119630D01*
X1918580Y-1123630D01*
X1933170D01*
G01X1918580D02*
X1909830Y-1162300D01*
G01X1885000D02*
Y-1082300D01*
X1892000Y-1098300D01*
G01Y-1162300D02*
X1878000D01*
G01X1849670D02*
X1848500Y-1144970D01*
X1846750Y-1130300D01*
X1844420Y-1116970D01*
X1841500Y-1102300D01*
X1836830Y-1082300D01*
X1860170D01*
G01X2204130Y-2322870D02*
X2208130Y-2326370D01*
X2210800Y-2330450D01*
Y-2335120D01*
X2206800Y-2340370D01*
X2200130Y-2344450D01*
X2192130Y-2347370D01*
X2178800Y-2349700D01*
X2166800Y-2350280D01*
X2154800Y-2349120D01*
X2146800Y-2347370D01*
X2138800Y-2343870D01*
X2133470Y-2339780D01*
X2130800Y-2335700D01*
Y-2331620D01*
X2133470Y-2327530D01*
X2137470Y-2324030D01*
X2142800Y-2321120D01*
G01X2130800Y-2292200D02*
X2210800D01*
X2153470Y-2313780D01*
Y-2284620D01*
G01X2130800Y-2262700D02*
X2210800D01*
X2194800Y-2269700D01*
G01X2130800D02*
Y-2255700D01*
G01X2094170Y-2040000D02*
Y-1960000D01*
X2079580D01*
X2074920Y-1964000D01*
X2072000Y-1969330D01*
X2070830Y-1980000D01*
X2072000Y-1990670D01*
X2075500Y-1997330D01*
X2079580Y-2001330D01*
X2094170D01*
G01X2079580D02*
X2070830Y-2040000D01*
G01X2058830Y-2024000D02*
X2055330Y-2033330D01*
X2050670Y-2038670D01*
X2045420Y-2040000D01*
X2040750Y-2038670D01*
X2036080Y-2032000D01*
X2033170Y-2024000D01*
X2032580Y-2016000D01*
X2033750Y-2006670D01*
X2037830Y-2000000D01*
X2041920Y-1997330D01*
X2047170D01*
G01X2041920D02*
X2038420Y-1993330D01*
X2035500Y-1986670D01*
X2034330Y-1978670D01*
X2035500Y-1970670D01*
X2038420Y-1964000D01*
X2043670Y-1960000D01*
X2048920Y-1961330D01*
X2054170Y-1966670D01*
G01X2020580Y-2006670D02*
X2016500Y-1997330D01*
X2013000Y-1992000D01*
X2008330Y-1989330D01*
X2004250Y-1992000D01*
X2001330Y-1997330D01*
X1999000Y-2005330D01*
X1998420Y-2014670D01*
X1999000Y-2022670D01*
X2001330Y-2030670D01*
X2004830Y-2037330D01*
X2008920Y-2040000D01*
X2013580Y-2037330D01*
X2017670Y-2029340D01*
X2020000Y-2017330D01*
X2020580Y-2004000D01*
X2019420Y-1986670D01*
X2017670Y-1977330D01*
X2014750Y-1968000D01*
X2010670Y-1961330D01*
X2006580Y-1960000D01*
X2002500Y-1962670D01*
X1999580Y-1969330D01*
G01X2121470Y-1944500D02*
Y-1864500D01*
X2106880D01*
X2102220Y-1868500D01*
X2099300Y-1873830D01*
X2098130Y-1884500D01*
X2099300Y-1895170D01*
X2102800Y-1901830D01*
X2106880Y-1905830D01*
X2121470D01*
G01X2106880D02*
X2098130Y-1944500D01*
G01X2084380Y-1877830D02*
X2080880Y-1869830D01*
X2076800Y-1865830D01*
X2072130Y-1864500D01*
X2066300Y-1867170D01*
X2062220Y-1873830D01*
X2061050Y-1881830D01*
X2061630Y-1889840D01*
X2063970Y-1896500D01*
X2075630Y-1909830D01*
X2080880Y-1919170D01*
X2084380Y-1932500D01*
X2085550Y-1944500D01*
X2061050D01*
G01X2046720Y-1935170D02*
X2042630Y-1941830D01*
X2037970Y-1944500D01*
X2033300Y-1941830D01*
X2029220Y-1933840D01*
X2026300Y-1921830D01*
X2025130Y-1909830D01*
Y-1895170D01*
X2026300Y-1883170D01*
X2029220Y-1872500D01*
X2032720Y-1867170D01*
X2036800Y-1864500D01*
X2041470Y-1867170D01*
X2044970Y-1872500D01*
X2047300Y-1880500D01*
X2048470Y-1891170D01*
X2047300Y-1900500D01*
X2044380Y-1909830D01*
X2040880Y-1915170D01*
X2036800Y-1916500D01*
X2032130Y-1913840D01*
X2028630Y-1907170D01*
X2025130Y-1895170D01*
G01X2070800Y-1564270D02*
X2150800D01*
Y-1549680D01*
X2146800Y-1545020D01*
X2141470Y-1542100D01*
X2130800Y-1540930D01*
X2120130Y-1542100D01*
X2113470Y-1545600D01*
X2109470Y-1549680D01*
Y-1564270D01*
G01Y-1549680D02*
X2070800Y-1540930D01*
G01X2137470Y-1527180D02*
X2145470Y-1523680D01*
X2149470Y-1519600D01*
X2150800Y-1514930D01*
X2148130Y-1509100D01*
X2141470Y-1505020D01*
X2133470Y-1503850D01*
X2125460Y-1504430D01*
X2118800Y-1506770D01*
X2105470Y-1518430D01*
X2096130Y-1523680D01*
X2082800Y-1527180D01*
X2070800Y-1528350D01*
Y-1503850D01*
G01X2150800Y-1479600D02*
X2148130Y-1484270D01*
X2141470Y-1487770D01*
X2133470Y-1490100D01*
X2122800Y-1491850D01*
X2110800Y-1492430D01*
X2098800Y-1491850D01*
X2088130Y-1490100D01*
X2080130Y-1487770D01*
X2073470Y-1484270D01*
X2070800Y-1479600D01*
X2073470Y-1474930D01*
X2080130Y-1471430D01*
X2088130Y-1469100D01*
X2098800Y-1467350D01*
X2110800Y-1466770D01*
X2122800Y-1467350D01*
X2133470Y-1469100D01*
X2141470Y-1471430D01*
X2148130Y-1474930D01*
X2150800Y-1479600D01*
G01X2126770Y-1615870D02*
X2130270Y-1611870D01*
X2134350Y-1609200D01*
X2139020D01*
X2144270Y-1613200D01*
X2148350Y-1619870D01*
X2151270Y-1627870D01*
X2153600Y-1641200D01*
X2154180Y-1653200D01*
X2153020Y-1665200D01*
X2151270Y-1673200D01*
X2147770Y-1681200D01*
X2143680Y-1686530D01*
X2139600Y-1689200D01*
X2135520D01*
X2131430Y-1686530D01*
X2127930Y-1682530D01*
X2125020Y-1677200D01*
G01X2115930Y-1673200D02*
X2112430Y-1682530D01*
X2107770Y-1687870D01*
X2102520Y-1689200D01*
X2097850Y-1687870D01*
X2093180Y-1681200D01*
X2090270Y-1673200D01*
X2089680Y-1665200D01*
X2090850Y-1655870D01*
X2094930Y-1649200D01*
X2099020Y-1646530D01*
X2104270D01*
G01X2099020D02*
X2095520Y-1642530D01*
X2092600Y-1635870D01*
X2091430Y-1627870D01*
X2092600Y-1619870D01*
X2095520Y-1613200D01*
X2100770Y-1609200D01*
X2106020Y-1610530D01*
X2111270Y-1615870D01*
G01X2059600Y-1689200D02*
Y-1609200D01*
X2081180Y-1666530D01*
X2052020D01*
G01X2271770Y-1588970D02*
X2275270Y-1584970D01*
X2279350Y-1582300D01*
X2284020D01*
X2289270Y-1586300D01*
X2293350Y-1592970D01*
X2296270Y-1600970D01*
X2298600Y-1614300D01*
X2299180Y-1626300D01*
X2298020Y-1638300D01*
X2296270Y-1646300D01*
X2292770Y-1654300D01*
X2288680Y-1659630D01*
X2284600Y-1662300D01*
X2280520D01*
X2276430Y-1659630D01*
X2272930Y-1655630D01*
X2270020Y-1650300D01*
G01X2260930Y-1646300D02*
X2257430Y-1655630D01*
X2252770Y-1660970D01*
X2247520Y-1662300D01*
X2242850Y-1660970D01*
X2238180Y-1654300D01*
X2235270Y-1646300D01*
X2234680Y-1638300D01*
X2235850Y-1628970D01*
X2239930Y-1622300D01*
X2244020Y-1619630D01*
X2249270D01*
G01X2244020D02*
X2240520Y-1615630D01*
X2237600Y-1608970D01*
X2236430Y-1600970D01*
X2237600Y-1592970D01*
X2240520Y-1586300D01*
X2245770Y-1582300D01*
X2251020Y-1583630D01*
X2256270Y-1588970D01*
G01X2224430Y-1646300D02*
X2220930Y-1655630D01*
X2216270Y-1660970D01*
X2211020Y-1662300D01*
X2206350Y-1660970D01*
X2201680Y-1654300D01*
X2198770Y-1646300D01*
X2198180Y-1638300D01*
X2199350Y-1628970D01*
X2203430Y-1622300D01*
X2207520Y-1619630D01*
X2212770D01*
G01X2207520D02*
X2204020Y-1615630D01*
X2201100Y-1608970D01*
X2199930Y-1600970D01*
X2201100Y-1592970D01*
X2204020Y-1586300D01*
X2209270Y-1582300D01*
X2214520Y-1583630D01*
X2219770Y-1588970D01*
G01X2117270Y-593900D02*
Y-513900D01*
X2102680D01*
X2098020Y-517900D01*
X2095100Y-523230D01*
X2093930Y-533900D01*
X2095100Y-544570D01*
X2098600Y-551230D01*
X2102680Y-555230D01*
X2117270D01*
G01X2102680D02*
X2093930Y-593900D01*
G01X2062100D02*
Y-513900D01*
X2083680Y-571230D01*
X2054520D01*
G01X2043680Y-527230D02*
X2040180Y-519230D01*
X2036100Y-515230D01*
X2031430Y-513900D01*
X2025600Y-516570D01*
X2021520Y-523230D01*
X2020350Y-531230D01*
X2020930Y-539240D01*
X2023270Y-545900D01*
X2034930Y-559230D01*
X2040180Y-568570D01*
X2043680Y-581900D01*
X2044850Y-593900D01*
X2020350D01*
G01X1950970Y-370500D02*
Y-450500D01*
X1927630D01*
G01X1895800D02*
Y-370500D01*
X1917380Y-427830D01*
X1888220D01*
G01X2211600Y-126100D02*
Y-206100D01*
G01X2225020Y-126100D02*
X2198180D01*
G01X2186770Y-206100D02*
Y-126100D01*
X2172770D01*
X2168100Y-130100D01*
X2164600Y-139430D01*
X2163430Y-150100D01*
X2164600Y-160770D01*
X2167520Y-168770D01*
X2172770Y-172770D01*
X2186770D01*
G01X2149680Y-139430D02*
X2146180Y-131430D01*
X2142100Y-127430D01*
X2137430Y-126100D01*
X2131600Y-128770D01*
X2127520Y-135430D01*
X2126350Y-143430D01*
X2126930Y-151440D01*
X2129270Y-158100D01*
X2140930Y-171430D01*
X2146180Y-180770D01*
X2149680Y-194100D01*
X2150850Y-206100D01*
X2126350D01*
G01X2330930Y-2325270D02*
X2334930Y-2328770D01*
X2337600Y-2332850D01*
Y-2337520D01*
X2333600Y-2342770D01*
X2326930Y-2346850D01*
X2318930Y-2349770D01*
X2305600Y-2352100D01*
X2293600Y-2352680D01*
X2281600Y-2351520D01*
X2273600Y-2349770D01*
X2265600Y-2346270D01*
X2260270Y-2342180D01*
X2257600Y-2338100D01*
Y-2334020D01*
X2260270Y-2329930D01*
X2264270Y-2326430D01*
X2269600Y-2323520D01*
G01X2257600Y-2294600D02*
X2337600D01*
X2280270Y-2316180D01*
Y-2287020D01*
G01X2337600Y-2265100D02*
X2334930Y-2269770D01*
X2328270Y-2273270D01*
X2320270Y-2275600D01*
X2309600Y-2277350D01*
X2297600Y-2277930D01*
X2285600Y-2277350D01*
X2274930Y-2275600D01*
X2266930Y-2273270D01*
X2260270Y-2269770D01*
X2257600Y-2265100D01*
X2260270Y-2260430D01*
X2266930Y-2256930D01*
X2274930Y-2254600D01*
X2285600Y-2252850D01*
X2297600Y-2252270D01*
X2309600Y-2252850D01*
X2320270Y-2254600D01*
X2328270Y-2256930D01*
X2334930Y-2260430D01*
X2337600Y-2265100D01*
G01X2383530Y-2127700D02*
Y-2185030D01*
X2381200Y-2197040D01*
X2376530Y-2205030D01*
X2370700Y-2207700D01*
X2364870Y-2205030D01*
X2360200Y-2197040D01*
X2357870Y-2185030D01*
Y-2127700D01*
G01X2334200Y-2207700D02*
Y-2127700D01*
X2341200Y-2143700D01*
G01Y-2207700D02*
X2327200D01*
G01X2290700D02*
Y-2127700D01*
X2312280Y-2185030D01*
X2283120D01*
G01X2635030Y-1035800D02*
Y-1093130D01*
X2632700Y-1105140D01*
X2628030Y-1113130D01*
X2622200Y-1115800D01*
X2616370Y-1113130D01*
X2611700Y-1105140D01*
X2609370Y-1093130D01*
Y-1035800D01*
G01X2585700Y-1115800D02*
Y-1035800D01*
X2592700Y-1051800D01*
G01Y-1115800D02*
X2578700D01*
G01X2549200Y-1035800D02*
X2553870Y-1038470D01*
X2557370Y-1045130D01*
X2559700Y-1053130D01*
X2561450Y-1063800D01*
X2562030Y-1075800D01*
X2561450Y-1087800D01*
X2559700Y-1098470D01*
X2557370Y-1106470D01*
X2553870Y-1113130D01*
X2549200Y-1115800D01*
X2544530Y-1113130D01*
X2541030Y-1106470D01*
X2538700Y-1098470D01*
X2536950Y-1087800D01*
X2536370Y-1075800D01*
X2536950Y-1063800D01*
X2538700Y-1053130D01*
X2541030Y-1045130D01*
X2544530Y-1038470D01*
X2549200Y-1035800D01*
G01X2546330Y-565070D02*
X2550330Y-568570D01*
X2553000Y-572650D01*
Y-577320D01*
X2549000Y-582570D01*
X2542330Y-586650D01*
X2534330Y-589570D01*
X2521000Y-591900D01*
X2509000Y-592480D01*
X2497000Y-591320D01*
X2489000Y-589570D01*
X2481000Y-586070D01*
X2475670Y-581980D01*
X2473000Y-577900D01*
Y-573820D01*
X2475670Y-569730D01*
X2479670Y-566230D01*
X2485000Y-563320D01*
G01X2473000Y-541400D02*
X2553000D01*
X2537000Y-548400D01*
G01X2473000D02*
Y-534400D01*
G01X2506330Y-515980D02*
X2515670Y-511900D01*
X2521000Y-508400D01*
X2523670Y-503730D01*
X2521000Y-499650D01*
X2515670Y-496730D01*
X2507670Y-494400D01*
X2498330Y-493820D01*
X2490330Y-494400D01*
X2482330Y-496730D01*
X2475670Y-500230D01*
X2473000Y-504320D01*
X2475670Y-508980D01*
X2483660Y-513070D01*
X2495670Y-515400D01*
X2509000Y-515980D01*
X2526330Y-514820D01*
X2535670Y-513070D01*
X2545000Y-510150D01*
X2551670Y-506070D01*
X2553000Y-501980D01*
X2550330Y-497900D01*
X2543670Y-494980D01*
G01X2539530Y-359400D02*
Y-416730D01*
X2537200Y-428740D01*
X2532530Y-436730D01*
X2526700Y-439400D01*
X2520870Y-436730D01*
X2516200Y-428740D01*
X2513870Y-416730D01*
Y-359400D01*
G01X2490200Y-439400D02*
X2486120Y-438070D01*
X2481450Y-434070D01*
X2478530Y-427400D01*
X2477370Y-418070D01*
X2478530Y-408740D01*
X2482030Y-400730D01*
X2487280Y-396730D01*
X2493120D01*
X2496620Y-394070D01*
X2499530Y-387400D01*
X2500700Y-378070D01*
X2498950Y-368730D01*
X2494870Y-362070D01*
X2490200Y-359400D01*
X2485530Y-362070D01*
X2481450Y-368730D01*
X2479700Y-378070D01*
X2480870Y-387400D01*
X2483780Y-394070D01*
X2487280Y-396730D01*
X2493120D01*
X2498370Y-400730D01*
X2501870Y-408740D01*
X2503030Y-418070D01*
X2501870Y-427400D01*
X2498950Y-434070D01*
X2494280Y-438070D01*
X2490200Y-439400D01*
G01X2540970Y-300100D02*
Y-220100D01*
X2526380D01*
X2521720Y-224100D01*
X2518800Y-229430D01*
X2517630Y-240100D01*
X2518800Y-250770D01*
X2522300Y-257430D01*
X2526380Y-261430D01*
X2540970D01*
G01X2526380D02*
X2517630Y-300100D01*
G01X2502720Y-290770D02*
X2498630Y-297430D01*
X2493970Y-300100D01*
X2489300Y-297430D01*
X2485220Y-289440D01*
X2482300Y-277430D01*
X2481130Y-265430D01*
Y-250770D01*
X2482300Y-238770D01*
X2485220Y-228100D01*
X2488720Y-222770D01*
X2492800Y-220100D01*
X2497470Y-222770D01*
X2500970Y-228100D01*
X2503300Y-236100D01*
X2504470Y-246770D01*
X2503300Y-256100D01*
X2500380Y-265430D01*
X2496880Y-270770D01*
X2492800Y-272100D01*
X2488130Y-269440D01*
X2484630Y-262770D01*
X2481130Y-250770D01*
G01X2394070Y-593800D02*
Y-513800D01*
X2379480D01*
X2374820Y-517800D01*
X2371900Y-523130D01*
X2370730Y-533800D01*
X2371900Y-544470D01*
X2375400Y-551130D01*
X2379480Y-555130D01*
X2394070D01*
G01X2379480D02*
X2370730Y-593800D01*
G01X2338900D02*
Y-513800D01*
X2360480Y-571130D01*
X2331320D01*
G01X2322230Y-577800D02*
X2318730Y-587130D01*
X2314070Y-592470D01*
X2308820Y-593800D01*
X2304150Y-592470D01*
X2299480Y-585800D01*
X2296570Y-577800D01*
X2295980Y-569800D01*
X2297150Y-560470D01*
X2301230Y-553800D01*
X2305320Y-551130D01*
X2310570D01*
G01X2305320D02*
X2301820Y-547130D01*
X2298900Y-540470D01*
X2297730Y-532470D01*
X2298900Y-524470D01*
X2301820Y-517800D01*
X2307070Y-513800D01*
X2312320Y-515130D01*
X2317570Y-520470D01*
G01X2343400Y-249200D02*
Y-329200D01*
G01X2356820Y-249200D02*
X2329980D01*
G01X2318570Y-329200D02*
Y-249200D01*
X2304570D01*
X2299900Y-253200D01*
X2296400Y-262530D01*
X2295230Y-273200D01*
X2296400Y-283870D01*
X2299320Y-291870D01*
X2304570Y-295870D01*
X2318570D01*
G01X2263400Y-329200D02*
Y-249200D01*
X2284980Y-306530D01*
X2255820D01*
G01X2723530Y-2131100D02*
Y-2188430D01*
X2721200Y-2200440D01*
X2716530Y-2208430D01*
X2710700Y-2211100D01*
X2704870Y-2208430D01*
X2700200Y-2200440D01*
X2697870Y-2188430D01*
Y-2131100D01*
G01X2674200Y-2211100D02*
Y-2131100D01*
X2681200Y-2147100D01*
G01Y-2211100D02*
X2667200D01*
G01X2650530Y-2195100D02*
X2647030Y-2204430D01*
X2642370Y-2209770D01*
X2637120Y-2211100D01*
X2632450Y-2209770D01*
X2627780Y-2203100D01*
X2624870Y-2195100D01*
X2624280Y-2187100D01*
X2625450Y-2177770D01*
X2629530Y-2171100D01*
X2633620Y-2168430D01*
X2638870D01*
G01X2633620D02*
X2630120Y-2164430D01*
X2627200Y-2157770D01*
X2626030Y-2149770D01*
X2627200Y-2141770D01*
X2630120Y-2135100D01*
X2635370Y-2131100D01*
X2640620Y-2132430D01*
X2645870Y-2137770D01*
G01X2881970Y-1427400D02*
Y-1347400D01*
X2867380D01*
X2862720Y-1351400D01*
X2859800Y-1356730D01*
X2858630Y-1367400D01*
X2859800Y-1378070D01*
X2863300Y-1384730D01*
X2867380Y-1388730D01*
X2881970D01*
G01X2867380D02*
X2858630Y-1427400D01*
G01X2833800D02*
Y-1347400D01*
X2840800Y-1363400D01*
G01Y-1427400D02*
X2826800D01*
G01X2807220Y-1418070D02*
X2803130Y-1424730D01*
X2798470Y-1427400D01*
X2793800Y-1424730D01*
X2789720Y-1416740D01*
X2786800Y-1404730D01*
X2785630Y-1392730D01*
Y-1378070D01*
X2786800Y-1366070D01*
X2789720Y-1355400D01*
X2793220Y-1350070D01*
X2797300Y-1347400D01*
X2801970Y-1350070D01*
X2805470Y-1355400D01*
X2807800Y-1363400D01*
X2808970Y-1374070D01*
X2807800Y-1383400D01*
X2804880Y-1392730D01*
X2801380Y-1398070D01*
X2797300Y-1399400D01*
X2792630Y-1396740D01*
X2789130Y-1390070D01*
X2785630Y-1378070D01*
G01X2857770Y-1615900D02*
Y-1535900D01*
X2843180D01*
X2838520Y-1539900D01*
X2835600Y-1545230D01*
X2834430Y-1555900D01*
X2835600Y-1566570D01*
X2839100Y-1573230D01*
X2843180Y-1577230D01*
X2857770D01*
G01X2843180D02*
X2834430Y-1615900D01*
G01X2820680Y-1549230D02*
X2817180Y-1541230D01*
X2813100Y-1537230D01*
X2808430Y-1535900D01*
X2802600Y-1538570D01*
X2798520Y-1545230D01*
X2797350Y-1553230D01*
X2797930Y-1561240D01*
X2800270Y-1567900D01*
X2811930Y-1581230D01*
X2817180Y-1590570D01*
X2820680Y-1603900D01*
X2821850Y-1615900D01*
X2797350D01*
G01X2784180Y-1582570D02*
X2780100Y-1573230D01*
X2776600Y-1567900D01*
X2771930Y-1565230D01*
X2767850Y-1567900D01*
X2764930Y-1573230D01*
X2762600Y-1581230D01*
X2762020Y-1590570D01*
X2762600Y-1598570D01*
X2764930Y-1606570D01*
X2768430Y-1613230D01*
X2772520Y-1615900D01*
X2777180Y-1613230D01*
X2781270Y-1605240D01*
X2783600Y-1593230D01*
X2784180Y-1579900D01*
X2783020Y-1562570D01*
X2781270Y-1553230D01*
X2778350Y-1543900D01*
X2774270Y-1537230D01*
X2770180Y-1535900D01*
X2766100Y-1538570D01*
X2763180Y-1545230D01*
G01X2743970Y-1024600D02*
Y-944600D01*
X2729380D01*
X2724720Y-948600D01*
X2721800Y-953930D01*
X2720630Y-964600D01*
X2721800Y-975270D01*
X2725300Y-981930D01*
X2729380Y-985930D01*
X2743970D01*
G01X2729380D02*
X2720630Y-1024600D01*
G01X2695800D02*
Y-944600D01*
X2702800Y-960600D01*
G01Y-1024600D02*
X2688800D01*
G01X2670380Y-957930D02*
X2666880Y-949930D01*
X2662800Y-945930D01*
X2658130Y-944600D01*
X2652300Y-947270D01*
X2648220Y-953930D01*
X2647050Y-961930D01*
X2647630Y-969940D01*
X2649970Y-976600D01*
X2661630Y-989930D01*
X2666880Y-999270D01*
X2670380Y-1012600D01*
X2671550Y-1024600D01*
X2647050D01*
G01X3313370Y-2297000D02*
Y-2217000D01*
X3298780D01*
X3294120Y-2221000D01*
X3291200Y-2226330D01*
X3290030Y-2237000D01*
X3291200Y-2247670D01*
X3294700Y-2254330D01*
X3298780Y-2258330D01*
X3313370D01*
G01X3298780D02*
X3290030Y-2297000D01*
G01X3278030Y-2281000D02*
X3274530Y-2290330D01*
X3269870Y-2295670D01*
X3264620Y-2297000D01*
X3259950Y-2295670D01*
X3255280Y-2289000D01*
X3252370Y-2281000D01*
X3251780Y-2273000D01*
X3252950Y-2263670D01*
X3257030Y-2257000D01*
X3261120Y-2254330D01*
X3266370D01*
G01X3261120D02*
X3257620Y-2250330D01*
X3254700Y-2243670D01*
X3253530Y-2235670D01*
X3254700Y-2227670D01*
X3257620Y-2221000D01*
X3262870Y-2217000D01*
X3268120Y-2218330D01*
X3273370Y-2223670D01*
G01X3238620Y-2287670D02*
X3234530Y-2294330D01*
X3229870Y-2297000D01*
X3225200Y-2294330D01*
X3221120Y-2286340D01*
X3218200Y-2274330D01*
X3217030Y-2262330D01*
Y-2247670D01*
X3218200Y-2235670D01*
X3221120Y-2225000D01*
X3224620Y-2219670D01*
X3228700Y-2217000D01*
X3233370Y-2219670D01*
X3236870Y-2225000D01*
X3239200Y-2233000D01*
X3240370Y-2243670D01*
X3239200Y-2253000D01*
X3236280Y-2262330D01*
X3232780Y-2267670D01*
X3228700Y-2269000D01*
X3224030Y-2266340D01*
X3220530Y-2259670D01*
X3217030Y-2247670D01*
G01X3041800Y-1806970D02*
X3121800D01*
Y-1792380D01*
X3117800Y-1787720D01*
X3112470Y-1784800D01*
X3101800Y-1783630D01*
X3091130Y-1784800D01*
X3084470Y-1788300D01*
X3080470Y-1792380D01*
Y-1806970D01*
G01Y-1792380D02*
X3041800Y-1783630D01*
G01X3108470Y-1769880D02*
X3116470Y-1766380D01*
X3120470Y-1762300D01*
X3121800Y-1757630D01*
X3119130Y-1751800D01*
X3112470Y-1747720D01*
X3104470Y-1746550D01*
X3096460Y-1747130D01*
X3089800Y-1749470D01*
X3076470Y-1761130D01*
X3067130Y-1766380D01*
X3053800Y-1769880D01*
X3041800Y-1771050D01*
Y-1746550D01*
G01Y-1723470D02*
X3059130Y-1722300D01*
X3073800Y-1720550D01*
X3087130Y-1718220D01*
X3101800Y-1715300D01*
X3121800Y-1710630D01*
Y-1733970D01*
G01X3191030Y-1950300D02*
Y-2007630D01*
X3188700Y-2019640D01*
X3184030Y-2027630D01*
X3178200Y-2030300D01*
X3172370Y-2027630D01*
X3167700Y-2019640D01*
X3165370Y-2007630D01*
Y-1950300D01*
G01X3141700Y-2030300D02*
Y-1950300D01*
X3148700Y-1966300D01*
G01Y-2030300D02*
X3134700D01*
G01X3116280Y-1963630D02*
X3112780Y-1955630D01*
X3108700Y-1951630D01*
X3104030Y-1950300D01*
X3098200Y-1952970D01*
X3094120Y-1959630D01*
X3092950Y-1967630D01*
X3093530Y-1975640D01*
X3095870Y-1982300D01*
X3107530Y-1995630D01*
X3112780Y-2004970D01*
X3116280Y-2018300D01*
X3117450Y-2030300D01*
X3092950D01*
G01X3365170Y-1483000D02*
Y-1403000D01*
X3350580D01*
X3345920Y-1407000D01*
X3343000Y-1412330D01*
X3341830Y-1423000D01*
X3343000Y-1433670D01*
X3346500Y-1440330D01*
X3350580Y-1444330D01*
X3365170D01*
G01X3350580D02*
X3341830Y-1483000D01*
G01X3317000D02*
Y-1403000D01*
X3324000Y-1419000D01*
G01Y-1483000D02*
X3310000D01*
G01X3280500D02*
X3276420Y-1481670D01*
X3271750Y-1477670D01*
X3268830Y-1471000D01*
X3267670Y-1461670D01*
X3268830Y-1452340D01*
X3272330Y-1444330D01*
X3277580Y-1440330D01*
X3283420D01*
X3286920Y-1437670D01*
X3289830Y-1431000D01*
X3291000Y-1421670D01*
X3289250Y-1412330D01*
X3285170Y-1405670D01*
X3280500Y-1403000D01*
X3275830Y-1405670D01*
X3271750Y-1412330D01*
X3270000Y-1421670D01*
X3271170Y-1431000D01*
X3274080Y-1437670D01*
X3277580Y-1440330D01*
X3283420D01*
X3288670Y-1444330D01*
X3292170Y-1452340D01*
X3293330Y-1461670D01*
X3292170Y-1471000D01*
X3289250Y-1477670D01*
X3284580Y-1481670D01*
X3280500Y-1483000D01*
G01X3121700Y-1594400D02*
Y-1674400D01*
G01X3135120Y-1594400D02*
X3108280D01*
G01X3096870Y-1674400D02*
Y-1594400D01*
X3082870D01*
X3078200Y-1598400D01*
X3074700Y-1607730D01*
X3073530Y-1618400D01*
X3074700Y-1629070D01*
X3077620Y-1637070D01*
X3082870Y-1641070D01*
X3096870D01*
G01X3048700Y-1674400D02*
X3044620Y-1673070D01*
X3039950Y-1669070D01*
X3037030Y-1662400D01*
X3035870Y-1653070D01*
X3037030Y-1643740D01*
X3040530Y-1635730D01*
X3045780Y-1631730D01*
X3051620D01*
X3055120Y-1629070D01*
X3058030Y-1622400D01*
X3059200Y-1613070D01*
X3057450Y-1603730D01*
X3053370Y-1597070D01*
X3048700Y-1594400D01*
X3044030Y-1597070D01*
X3039950Y-1603730D01*
X3038200Y-1613070D01*
X3039370Y-1622400D01*
X3042280Y-1629070D01*
X3045780Y-1631730D01*
X3051620D01*
X3056870Y-1635730D01*
X3060370Y-1643740D01*
X3061530Y-1653070D01*
X3060370Y-1662400D01*
X3057450Y-1669070D01*
X3052780Y-1673070D01*
X3048700Y-1674400D01*
G01X3050670Y-1165000D02*
Y-1085000D01*
X3036080D01*
X3031420Y-1089000D01*
X3028500Y-1094330D01*
X3027330Y-1105000D01*
X3028500Y-1115670D01*
X3032000Y-1122330D01*
X3036080Y-1126330D01*
X3050670D01*
G01X3036080D02*
X3027330Y-1165000D01*
G01X3002500D02*
Y-1085000D01*
X3009500Y-1101000D01*
G01Y-1165000D02*
X2995500D01*
G01X2977080Y-1131670D02*
X2973000Y-1122330D01*
X2969500Y-1117000D01*
X2964830Y-1114330D01*
X2960750Y-1117000D01*
X2957830Y-1122330D01*
X2955500Y-1130330D01*
X2954920Y-1139670D01*
X2955500Y-1147670D01*
X2957830Y-1155670D01*
X2961330Y-1162330D01*
X2965420Y-1165000D01*
X2970080Y-1162330D01*
X2974170Y-1154340D01*
X2976500Y-1142330D01*
X2977080Y-1129000D01*
X2975920Y-1111670D01*
X2974170Y-1102330D01*
X2971250Y-1093000D01*
X2967170Y-1086330D01*
X2963080Y-1085000D01*
X2959000Y-1087670D01*
X2956080Y-1094330D01*
G01X3266070Y-1090000D02*
Y-1010000D01*
X3251480D01*
X3246820Y-1014000D01*
X3243900Y-1019330D01*
X3242730Y-1030000D01*
X3243900Y-1040670D01*
X3247400Y-1047330D01*
X3251480Y-1051330D01*
X3266070D01*
G01X3251480D02*
X3242730Y-1090000D01*
G01X3217900D02*
Y-1010000D01*
X3224900Y-1026000D01*
G01Y-1090000D02*
X3210900D01*
G01X3174400D02*
Y-1010000D01*
X3195980Y-1067330D01*
X3166820D01*
G01X3025370Y-917470D02*
X3028870Y-913470D01*
X3032950Y-910800D01*
X3037620D01*
X3042870Y-914800D01*
X3046950Y-921470D01*
X3049870Y-929470D01*
X3052200Y-942800D01*
X3052780Y-954800D01*
X3051620Y-966800D01*
X3049870Y-974800D01*
X3046370Y-982800D01*
X3042280Y-988130D01*
X3038200Y-990800D01*
X3034120D01*
X3030030Y-988130D01*
X3026530Y-984130D01*
X3023620Y-978800D01*
G01X3012780Y-924130D02*
X3009280Y-916130D01*
X3005200Y-912130D01*
X3000530Y-910800D01*
X2994700Y-913470D01*
X2990620Y-920130D01*
X2989450Y-928130D01*
X2990030Y-936140D01*
X2992370Y-942800D01*
X3004030Y-956130D01*
X3009280Y-965470D01*
X3012780Y-978800D01*
X3013950Y-990800D01*
X2989450D01*
G01X2965200Y-910800D02*
X2969870Y-913470D01*
X2973370Y-920130D01*
X2975700Y-928130D01*
X2977450Y-938800D01*
X2978030Y-950800D01*
X2977450Y-962800D01*
X2975700Y-973470D01*
X2973370Y-981470D01*
X2969870Y-988130D01*
X2965200Y-990800D01*
X2960530Y-988130D01*
X2957030Y-981470D01*
X2954700Y-973470D01*
X2952950Y-962800D01*
X2952370Y-950800D01*
X2952950Y-938800D01*
X2954700Y-928130D01*
X2957030Y-920130D01*
X2960530Y-913470D01*
X2965200Y-910800D01*
G01X3344130Y-262570D02*
X3348130Y-266070D01*
X3350800Y-270150D01*
Y-274820D01*
X3346800Y-280070D01*
X3340130Y-284150D01*
X3332130Y-287070D01*
X3318800Y-289400D01*
X3306800Y-289980D01*
X3294800Y-288820D01*
X3286800Y-287070D01*
X3278800Y-283570D01*
X3273470Y-279480D01*
X3270800Y-275400D01*
Y-271320D01*
X3273470Y-267230D01*
X3277470Y-263730D01*
X3282800Y-260820D01*
G01X3270800Y-238900D02*
X3350800D01*
X3334800Y-245900D01*
G01X3270800D02*
Y-231900D01*
G01Y-195400D02*
X3350800D01*
X3293470Y-216980D01*
Y-187820D01*
G01X3590970Y-2297000D02*
Y-2217000D01*
X3576380D01*
X3571720Y-2221000D01*
X3568800Y-2226330D01*
X3567630Y-2237000D01*
X3568800Y-2247670D01*
X3572300Y-2254330D01*
X3576380Y-2258330D01*
X3590970D01*
G01X3576380D02*
X3567630Y-2297000D01*
G01X3555630Y-2281000D02*
X3552130Y-2290330D01*
X3547470Y-2295670D01*
X3542220Y-2297000D01*
X3537550Y-2295670D01*
X3532880Y-2289000D01*
X3529970Y-2281000D01*
X3529380Y-2273000D01*
X3530550Y-2263670D01*
X3534630Y-2257000D01*
X3538720Y-2254330D01*
X3543970D01*
G01X3538720D02*
X3535220Y-2250330D01*
X3532300Y-2243670D01*
X3531130Y-2235670D01*
X3532300Y-2227670D01*
X3535220Y-2221000D01*
X3540470Y-2217000D01*
X3545720Y-2218330D01*
X3550970Y-2223670D01*
G01X3506300Y-2297000D02*
X3502220Y-2295670D01*
X3497550Y-2291670D01*
X3494630Y-2285000D01*
X3493470Y-2275670D01*
X3494630Y-2266340D01*
X3498130Y-2258330D01*
X3503380Y-2254330D01*
X3509220D01*
X3512720Y-2251670D01*
X3515630Y-2245000D01*
X3516800Y-2235670D01*
X3515050Y-2226330D01*
X3510970Y-2219670D01*
X3506300Y-2217000D01*
X3501630Y-2219670D01*
X3497550Y-2226330D01*
X3495800Y-2235670D01*
X3496970Y-2245000D01*
X3499880Y-2251670D01*
X3503380Y-2254330D01*
X3509220D01*
X3514470Y-2258330D01*
X3517970Y-2266340D01*
X3519130Y-2275670D01*
X3517970Y-2285000D01*
X3515050Y-2291670D01*
X3510380Y-2295670D01*
X3506300Y-2297000D01*
G01X3502670Y-1427370D02*
X3506170Y-1423370D01*
X3510250Y-1420700D01*
X3514920D01*
X3520170Y-1424700D01*
X3524250Y-1431370D01*
X3527170Y-1439370D01*
X3529500Y-1452700D01*
X3530080Y-1464700D01*
X3528920Y-1476700D01*
X3527170Y-1484700D01*
X3523670Y-1492700D01*
X3519580Y-1498030D01*
X3515500Y-1500700D01*
X3511420D01*
X3507330Y-1498030D01*
X3503830Y-1494030D01*
X3500920Y-1488700D01*
G01X3490080Y-1434030D02*
X3486580Y-1426030D01*
X3482500Y-1422030D01*
X3477830Y-1420700D01*
X3472000Y-1423370D01*
X3467920Y-1430030D01*
X3466750Y-1438030D01*
X3467330Y-1446040D01*
X3469670Y-1452700D01*
X3481330Y-1466030D01*
X3486580Y-1475370D01*
X3490080Y-1488700D01*
X3491250Y-1500700D01*
X3466750D01*
G01X3442500D02*
X3438420Y-1499370D01*
X3433750Y-1495370D01*
X3430830Y-1488700D01*
X3429670Y-1479370D01*
X3430830Y-1470040D01*
X3434330Y-1462030D01*
X3439580Y-1458030D01*
X3445420D01*
X3448920Y-1455370D01*
X3451830Y-1448700D01*
X3453000Y-1439370D01*
X3451250Y-1430030D01*
X3447170Y-1423370D01*
X3442500Y-1420700D01*
X3437830Y-1423370D01*
X3433750Y-1430030D01*
X3432000Y-1439370D01*
X3433170Y-1448700D01*
X3436080Y-1455370D01*
X3439580Y-1458030D01*
X3445420D01*
X3450670Y-1462030D01*
X3454170Y-1470040D01*
X3455330Y-1479370D01*
X3454170Y-1488700D01*
X3451250Y-1495370D01*
X3446580Y-1499370D01*
X3442500Y-1500700D01*
G01X3699630Y-1635270D02*
X3703630Y-1638770D01*
X3706300Y-1642850D01*
Y-1647520D01*
X3702300Y-1652770D01*
X3695630Y-1656850D01*
X3687630Y-1659770D01*
X3674300Y-1662100D01*
X3662300Y-1662680D01*
X3650300Y-1661520D01*
X3642300Y-1659770D01*
X3634300Y-1656270D01*
X3628970Y-1652180D01*
X3626300Y-1648100D01*
Y-1644020D01*
X3628970Y-1639930D01*
X3632970Y-1636430D01*
X3638300Y-1633520D01*
G01X3642300Y-1624430D02*
X3632970Y-1620930D01*
X3627630Y-1616270D01*
X3626300Y-1611020D01*
X3627630Y-1606350D01*
X3634300Y-1601680D01*
X3642300Y-1598770D01*
X3650300Y-1598180D01*
X3659630Y-1599350D01*
X3666300Y-1603430D01*
X3668970Y-1607520D01*
Y-1612770D01*
G01Y-1607520D02*
X3672970Y-1604020D01*
X3679630Y-1601100D01*
X3687630Y-1599930D01*
X3695630Y-1601100D01*
X3702300Y-1604020D01*
X3706300Y-1609270D01*
X3704970Y-1614520D01*
X3699630Y-1619770D01*
G01X3638300Y-1587930D02*
X3631630Y-1584430D01*
X3627630Y-1580350D01*
X3626300Y-1575100D01*
X3628970Y-1569850D01*
X3634300Y-1565770D01*
X3643630Y-1562850D01*
X3654300Y-1562270D01*
X3664970Y-1563430D01*
X3671630Y-1566350D01*
X3676970Y-1570430D01*
X3678300Y-1574520D01*
X3676970Y-1578600D01*
X3671630Y-1583850D01*
X3706300Y-1582100D01*
Y-1566350D01*
G01X4011170Y-2141200D02*
Y-2061200D01*
X3996580D01*
X3991920Y-2065200D01*
X3989000Y-2070530D01*
X3987830Y-2081200D01*
X3989000Y-2091870D01*
X3992500Y-2098530D01*
X3996580Y-2102530D01*
X4011170D01*
G01X3996580D02*
X3987830Y-2141200D01*
G01X3975830Y-2125200D02*
X3972330Y-2134530D01*
X3967670Y-2139870D01*
X3962420Y-2141200D01*
X3957750Y-2139870D01*
X3953080Y-2133200D01*
X3950170Y-2125200D01*
X3949580Y-2117200D01*
X3950750Y-2107870D01*
X3954830Y-2101200D01*
X3958920Y-2098530D01*
X3964170D01*
G01X3958920D02*
X3955420Y-2094530D01*
X3952500Y-2087870D01*
X3951330Y-2079870D01*
X3952500Y-2071870D01*
X3955420Y-2065200D01*
X3960670Y-2061200D01*
X3965920Y-2062530D01*
X3971170Y-2067870D01*
G01X3919500Y-2141200D02*
Y-2061200D01*
X3941080Y-2118530D01*
X3911920D01*
G01X3729870Y-1964170D02*
X3733370Y-1960170D01*
X3737450Y-1957500D01*
X3742120D01*
X3747370Y-1961500D01*
X3751450Y-1968170D01*
X3754370Y-1976170D01*
X3756700Y-1989500D01*
X3757280Y-2001500D01*
X3756120Y-2013500D01*
X3754370Y-2021500D01*
X3750870Y-2029500D01*
X3746780Y-2034830D01*
X3742700Y-2037500D01*
X3738620D01*
X3734530Y-2034830D01*
X3731030Y-2030830D01*
X3728120Y-2025500D01*
G01X3719030Y-2021500D02*
X3715530Y-2030830D01*
X3710870Y-2036170D01*
X3705620Y-2037500D01*
X3700950Y-2036170D01*
X3696280Y-2029500D01*
X3693370Y-2021500D01*
X3692780Y-2013500D01*
X3693950Y-2004170D01*
X3698030Y-1997500D01*
X3702120Y-1994830D01*
X3707370D01*
G01X3702120D02*
X3698620Y-1990830D01*
X3695700Y-1984170D01*
X3694530Y-1976170D01*
X3695700Y-1968170D01*
X3698620Y-1961500D01*
X3703870Y-1957500D01*
X3709120Y-1958830D01*
X3714370Y-1964170D01*
G01X3670870Y-2037500D02*
X3669700Y-2020170D01*
X3667950Y-2005500D01*
X3665620Y-1992170D01*
X3662700Y-1977500D01*
X3658030Y-1957500D01*
X3681370D01*
G01X4072970Y-1530800D02*
Y-1450800D01*
X4058380D01*
X4053720Y-1454800D01*
X4050800Y-1460130D01*
X4049630Y-1470800D01*
X4050800Y-1481470D01*
X4054300Y-1488130D01*
X4058380Y-1492130D01*
X4072970D01*
G01X4058380D02*
X4049630Y-1530800D01*
G01X4035880Y-1464130D02*
X4032380Y-1456130D01*
X4028300Y-1452130D01*
X4023630Y-1450800D01*
X4017800Y-1453470D01*
X4013720Y-1460130D01*
X4012550Y-1468130D01*
X4013130Y-1476140D01*
X4015470Y-1482800D01*
X4027130Y-1496130D01*
X4032380Y-1505470D01*
X4035880Y-1518800D01*
X4037050Y-1530800D01*
X4012550D01*
G01X3999380Y-1464130D02*
X3995880Y-1456130D01*
X3991800Y-1452130D01*
X3987130Y-1450800D01*
X3981300Y-1453470D01*
X3977220Y-1460130D01*
X3976050Y-1468130D01*
X3976630Y-1476140D01*
X3978970Y-1482800D01*
X3990630Y-1496130D01*
X3995880Y-1505470D01*
X3999380Y-1518800D01*
X4000550Y-1530800D01*
X3976050D01*
G01X3736400Y-1576170D02*
X3816400D01*
Y-1561580D01*
X3812400Y-1556920D01*
X3807070Y-1554000D01*
X3796400Y-1552830D01*
X3785730Y-1554000D01*
X3779070Y-1557500D01*
X3775070Y-1561580D01*
Y-1576170D01*
G01Y-1561580D02*
X3736400Y-1552830D01*
G01X3803070Y-1539080D02*
X3811070Y-1535580D01*
X3815070Y-1531500D01*
X3816400Y-1526830D01*
X3813730Y-1521000D01*
X3807070Y-1516920D01*
X3799070Y-1515750D01*
X3791060Y-1516330D01*
X3784400Y-1518670D01*
X3771070Y-1530330D01*
X3761730Y-1535580D01*
X3748400Y-1539080D01*
X3736400Y-1540250D01*
Y-1515750D01*
G01Y-1491500D02*
X3737730Y-1487420D01*
X3741730Y-1482750D01*
X3748400Y-1479830D01*
X3757730Y-1478670D01*
X3767060Y-1479830D01*
X3775070Y-1483330D01*
X3779070Y-1488580D01*
Y-1494420D01*
X3781730Y-1497920D01*
X3788400Y-1500830D01*
X3797730Y-1502000D01*
X3807070Y-1500250D01*
X3813730Y-1496170D01*
X3816400Y-1491500D01*
X3813730Y-1486830D01*
X3807070Y-1482750D01*
X3797730Y-1481000D01*
X3788400Y-1482170D01*
X3781730Y-1485080D01*
X3779070Y-1488580D01*
Y-1494420D01*
X3775070Y-1499670D01*
X3767060Y-1503170D01*
X3757730Y-1504330D01*
X3748400Y-1503170D01*
X3741730Y-1500250D01*
X3737730Y-1495580D01*
X3736400Y-1491500D01*
G01X4022930Y-919870D02*
X4026930Y-923370D01*
X4029600Y-927450D01*
Y-932120D01*
X4025600Y-937370D01*
X4018930Y-941450D01*
X4010930Y-944370D01*
X3997600Y-946700D01*
X3985600Y-947280D01*
X3973600Y-946120D01*
X3965600Y-944370D01*
X3957600Y-940870D01*
X3952270Y-936780D01*
X3949600Y-932700D01*
Y-928620D01*
X3952270Y-924530D01*
X3956270Y-921030D01*
X3961600Y-918120D01*
G01X4016270Y-907280D02*
X4024270Y-903780D01*
X4028270Y-899700D01*
X4029600Y-895030D01*
X4026930Y-889200D01*
X4020270Y-885120D01*
X4012270Y-883950D01*
X4004260Y-884530D01*
X3997600Y-886870D01*
X3984270Y-898530D01*
X3974930Y-903780D01*
X3961600Y-907280D01*
X3949600Y-908450D01*
Y-883950D01*
G01X4016270Y-870780D02*
X4024270Y-867280D01*
X4028270Y-863200D01*
X4029600Y-858530D01*
X4026930Y-852700D01*
X4020270Y-848620D01*
X4012270Y-847450D01*
X4004260Y-848030D01*
X3997600Y-850370D01*
X3984270Y-862030D01*
X3974930Y-867280D01*
X3961600Y-870780D01*
X3949600Y-871950D01*
Y-847450D01*
G01X3922970Y-455100D02*
Y-535100D01*
X3899630D01*
G01X3887630Y-519100D02*
X3884130Y-528430D01*
X3879470Y-533770D01*
X3874220Y-535100D01*
X3869550Y-533770D01*
X3864880Y-527100D01*
X3861970Y-519100D01*
X3861380Y-511100D01*
X3862550Y-501770D01*
X3866630Y-495100D01*
X3870720Y-492430D01*
X3875970D01*
G01X3870720D02*
X3867220Y-488430D01*
X3864300Y-481770D01*
X3863130Y-473770D01*
X3864300Y-465770D01*
X3867220Y-459100D01*
X3872470Y-455100D01*
X3877720Y-456430D01*
X3882970Y-461770D01*
G01X4458770Y-2015900D02*
Y-1935900D01*
X4444180D01*
X4439520Y-1939900D01*
X4436600Y-1945230D01*
X4435430Y-1955900D01*
X4436600Y-1966570D01*
X4440100Y-1973230D01*
X4444180Y-1977230D01*
X4458770D01*
G01X4444180D02*
X4435430Y-2015900D01*
G01X4423430Y-1999900D02*
X4419930Y-2009230D01*
X4415270Y-2014570D01*
X4410020Y-2015900D01*
X4405350Y-2014570D01*
X4400680Y-2007900D01*
X4397770Y-1999900D01*
X4397180Y-1991900D01*
X4398350Y-1982570D01*
X4402430Y-1975900D01*
X4406520Y-1973230D01*
X4411770D01*
G01X4406520D02*
X4403020Y-1969230D01*
X4400100Y-1962570D01*
X4398930Y-1954570D01*
X4400100Y-1946570D01*
X4403020Y-1939900D01*
X4408270Y-1935900D01*
X4413520Y-1937230D01*
X4418770Y-1942570D01*
G01X4386930Y-1999900D02*
X4383430Y-2009230D01*
X4378770Y-2014570D01*
X4373520Y-2015900D01*
X4368850Y-2014570D01*
X4364180Y-2007900D01*
X4361270Y-1999900D01*
X4360680Y-1991900D01*
X4361850Y-1982570D01*
X4365930Y-1975900D01*
X4370020Y-1973230D01*
X4375270D01*
G01X4370020D02*
X4366520Y-1969230D01*
X4363600Y-1962570D01*
X4362430Y-1954570D01*
X4363600Y-1946570D01*
X4366520Y-1939900D01*
X4371770Y-1935900D01*
X4377020Y-1937230D01*
X4382270Y-1942570D01*
G01X4437670Y-1753970D02*
X4441170Y-1749970D01*
X4445250Y-1747300D01*
X4449920D01*
X4455170Y-1751300D01*
X4459250Y-1757970D01*
X4462170Y-1765970D01*
X4464500Y-1779300D01*
X4465080Y-1791300D01*
X4463920Y-1803300D01*
X4462170Y-1811300D01*
X4458670Y-1819300D01*
X4454580Y-1824630D01*
X4450500Y-1827300D01*
X4446420D01*
X4442330Y-1824630D01*
X4438830Y-1820630D01*
X4435920Y-1815300D01*
G01X4426830Y-1811300D02*
X4423330Y-1820630D01*
X4418670Y-1825970D01*
X4413420Y-1827300D01*
X4408750Y-1825970D01*
X4404080Y-1819300D01*
X4401170Y-1811300D01*
X4400580Y-1803300D01*
X4401750Y-1793970D01*
X4405830Y-1787300D01*
X4409920Y-1784630D01*
X4415170D01*
G01X4409920D02*
X4406420Y-1780630D01*
X4403500Y-1773970D01*
X4402330Y-1765970D01*
X4403500Y-1757970D01*
X4406420Y-1751300D01*
X4411670Y-1747300D01*
X4416920Y-1748630D01*
X4422170Y-1753970D01*
G01X4388580Y-1793970D02*
X4384500Y-1784630D01*
X4381000Y-1779300D01*
X4376330Y-1776630D01*
X4372250Y-1779300D01*
X4369330Y-1784630D01*
X4367000Y-1792630D01*
X4366420Y-1801970D01*
X4367000Y-1809970D01*
X4369330Y-1817970D01*
X4372830Y-1824630D01*
X4376920Y-1827300D01*
X4381580Y-1824630D01*
X4385670Y-1816640D01*
X4388000Y-1804630D01*
X4388580Y-1791300D01*
X4387420Y-1773970D01*
X4385670Y-1764630D01*
X4382750Y-1755300D01*
X4378670Y-1748630D01*
X4374580Y-1747300D01*
X4370500Y-1749970D01*
X4367580Y-1756630D01*
G01X4436170Y-1576370D02*
X4439670Y-1572370D01*
X4443750Y-1569700D01*
X4448420D01*
X4453670Y-1573700D01*
X4457750Y-1580370D01*
X4460670Y-1588370D01*
X4463000Y-1601700D01*
X4463580Y-1613700D01*
X4462420Y-1625700D01*
X4460670Y-1633700D01*
X4457170Y-1641700D01*
X4453080Y-1647030D01*
X4449000Y-1649700D01*
X4444920D01*
X4440830Y-1647030D01*
X4437330Y-1643030D01*
X4434420Y-1637700D01*
G01X4423580Y-1583030D02*
X4420080Y-1575030D01*
X4416000Y-1571030D01*
X4411330Y-1569700D01*
X4405500Y-1572370D01*
X4401420Y-1579030D01*
X4400250Y-1587030D01*
X4400830Y-1595040D01*
X4403170Y-1601700D01*
X4414830Y-1615030D01*
X4420080Y-1624370D01*
X4423580Y-1637700D01*
X4424750Y-1649700D01*
X4400250D01*
G01X4385920Y-1640370D02*
X4381830Y-1647030D01*
X4377170Y-1649700D01*
X4372500Y-1647030D01*
X4368420Y-1639040D01*
X4365500Y-1627030D01*
X4364330Y-1615030D01*
Y-1600370D01*
X4365500Y-1588370D01*
X4368420Y-1577700D01*
X4371920Y-1572370D01*
X4376000Y-1569700D01*
X4380670Y-1572370D01*
X4384170Y-1577700D01*
X4386500Y-1585700D01*
X4387670Y-1596370D01*
X4386500Y-1605700D01*
X4383580Y-1615030D01*
X4380080Y-1620370D01*
X4376000Y-1621700D01*
X4371330Y-1619040D01*
X4367830Y-1612370D01*
X4364330Y-1600370D01*
G01X4182500Y-300000D02*
Y-380000D01*
G01X4195920Y-300000D02*
X4169080D01*
G01X4157670Y-380000D02*
Y-300000D01*
X4143670D01*
X4139000Y-304000D01*
X4135500Y-313330D01*
X4134330Y-324000D01*
X4135500Y-334670D01*
X4138420Y-342670D01*
X4143670Y-346670D01*
X4157670D01*
G01X4109500Y-380000D02*
Y-300000D01*
X4116500Y-316000D01*
G01Y-380000D02*
X4102500D01*
G01X4402500D02*
Y-460000D01*
G01X4415920Y-380000D02*
X4389080D01*
G01X4377670Y-460000D02*
Y-380000D01*
X4363670D01*
X4359000Y-384000D01*
X4355500Y-393330D01*
X4354330Y-404000D01*
X4355500Y-414670D01*
X4358420Y-422670D01*
X4363670Y-426670D01*
X4377670D01*
G01X4342330Y-444000D02*
X4338830Y-453330D01*
X4334170Y-458670D01*
X4328920Y-460000D01*
X4324250Y-458670D01*
X4319580Y-452000D01*
X4316670Y-444000D01*
X4316080Y-436000D01*
X4317250Y-426670D01*
X4321330Y-420000D01*
X4325420Y-417330D01*
X4330670D01*
G01X4325420D02*
X4321920Y-413330D01*
X4319000Y-406670D01*
X4317830Y-398670D01*
X4319000Y-390670D01*
X4321920Y-384000D01*
X4327170Y-380000D01*
X4332420Y-381330D01*
X4337670Y-386670D01*
G01X4646830Y-1686700D02*
Y-1744030D01*
X4644500Y-1756040D01*
X4639830Y-1764030D01*
X4634000Y-1766700D01*
X4628170Y-1764030D01*
X4623500Y-1756040D01*
X4621170Y-1744030D01*
Y-1686700D01*
G01X4597500Y-1766700D02*
Y-1686700D01*
X4604500Y-1702700D01*
G01Y-1766700D02*
X4590500D01*
G01X4561000D02*
Y-1686700D01*
X4568000Y-1702700D01*
G01Y-1766700D02*
X4554000D01*
G01X4513370Y-1215500D02*
Y-1295500D01*
X4490030D01*
G01X4476280Y-1262170D02*
X4472200Y-1252830D01*
X4468700Y-1247500D01*
X4464030Y-1244830D01*
X4459950Y-1247500D01*
X4457030Y-1252830D01*
X4454700Y-1260830D01*
X4454120Y-1270170D01*
X4454700Y-1278170D01*
X4457030Y-1286170D01*
X4460530Y-1292830D01*
X4464620Y-1295500D01*
X4469280Y-1292830D01*
X4473370Y-1284840D01*
X4475700Y-1272830D01*
X4476280Y-1259500D01*
X4475120Y-1242170D01*
X4473370Y-1232830D01*
X4470450Y-1223500D01*
X4466370Y-1216830D01*
X4462280Y-1215500D01*
X4458200Y-1218170D01*
X4455280Y-1224830D01*
G01X5316100Y-2251100D02*
X5320770Y-2249770D01*
X5324850Y-2244430D01*
X5328350Y-2236430D01*
X5330680Y-2227100D01*
X5331850Y-2216430D01*
Y-2205770D01*
X5330680Y-2195100D01*
X5328350Y-2185770D01*
X5324850Y-2177770D01*
X5320770Y-2172430D01*
X5316100Y-2171100D01*
X5311430Y-2172430D01*
X5307350Y-2177770D01*
X5303850Y-2185770D01*
X5301520Y-2195100D01*
X5300350Y-2205770D01*
Y-2216430D01*
X5301520Y-2227100D01*
X5303850Y-2236430D01*
X5307350Y-2244430D01*
X5311430Y-2249770D01*
X5316100Y-2251100D01*
G01X5311430Y-2229770D02*
X5304430Y-2251100D01*
G01X5292430Y-2235100D02*
X5288930Y-2244430D01*
X5284270Y-2249770D01*
X5279020Y-2251100D01*
X5274350Y-2249770D01*
X5269680Y-2243100D01*
X5266770Y-2235100D01*
X5266180Y-2227100D01*
X5267350Y-2217770D01*
X5271430Y-2211100D01*
X5275520Y-2208430D01*
X5280770D01*
G01X5275520D02*
X5272020Y-2204430D01*
X5269100Y-2197770D01*
X5267930Y-2189770D01*
X5269100Y-2181770D01*
X5272020Y-2175100D01*
X5277270Y-2171100D01*
X5282520Y-2172430D01*
X5287770Y-2177770D01*
G01X5328400Y-2047500D02*
X5333070Y-2046170D01*
X5337150Y-2040830D01*
X5340650Y-2032830D01*
X5342980Y-2023500D01*
X5344150Y-2012830D01*
Y-2002170D01*
X5342980Y-1991500D01*
X5340650Y-1982170D01*
X5337150Y-1974170D01*
X5333070Y-1968830D01*
X5328400Y-1967500D01*
X5323730Y-1968830D01*
X5319650Y-1974170D01*
X5316150Y-1982170D01*
X5313820Y-1991500D01*
X5312650Y-2002170D01*
Y-2012830D01*
X5313820Y-2023500D01*
X5316150Y-2032830D01*
X5319650Y-2040830D01*
X5323730Y-2046170D01*
X5328400Y-2047500D01*
G01X5323730Y-2026170D02*
X5316730Y-2047500D01*
G01X5302980Y-1980830D02*
X5299480Y-1972830D01*
X5295400Y-1968830D01*
X5290730Y-1967500D01*
X5284900Y-1970170D01*
X5280820Y-1976830D01*
X5279650Y-1984830D01*
X5280230Y-1992840D01*
X5282570Y-1999500D01*
X5294230Y-2012830D01*
X5299480Y-2022170D01*
X5302980Y-2035500D01*
X5304150Y-2047500D01*
X5279650D01*
G01X5433600Y-1286300D02*
Y-1366300D01*
G01X5447020Y-1286300D02*
X5420180D01*
G01X5408770Y-1366300D02*
Y-1286300D01*
X5394770D01*
X5390100Y-1290300D01*
X5386600Y-1299630D01*
X5385430Y-1310300D01*
X5386600Y-1320970D01*
X5389520Y-1328970D01*
X5394770Y-1332970D01*
X5408770D01*
G01X5361770Y-1366300D02*
X5360600Y-1348970D01*
X5358850Y-1334300D01*
X5356520Y-1320970D01*
X5353600Y-1306300D01*
X5348930Y-1286300D01*
X5372270D01*
G01X5660500Y-2142170D02*
X5740500D01*
Y-2127580D01*
X5736500Y-2122920D01*
X5731170Y-2120000D01*
X5720500Y-2118830D01*
X5709830Y-2120000D01*
X5703170Y-2123500D01*
X5699170Y-2127580D01*
Y-2142170D01*
G01Y-2127580D02*
X5660500Y-2118830D01*
G01Y-2087000D02*
X5740500D01*
X5683170Y-2108580D01*
Y-2079420D01*
G01X5740500Y-2057500D02*
X5737830Y-2062170D01*
X5731170Y-2065670D01*
X5723170Y-2068000D01*
X5712500Y-2069750D01*
X5700500Y-2070330D01*
X5688500Y-2069750D01*
X5677830Y-2068000D01*
X5669830Y-2065670D01*
X5663170Y-2062170D01*
X5660500Y-2057500D01*
X5663170Y-2052830D01*
X5669830Y-2049330D01*
X5677830Y-2047000D01*
X5688500Y-2045250D01*
X5700500Y-2044670D01*
X5712500Y-2045250D01*
X5723170Y-2047000D01*
X5731170Y-2049330D01*
X5737830Y-2052830D01*
X5740500Y-2057500D01*
G01X5777900Y-1721170D02*
X5857900D01*
Y-1706580D01*
X5853900Y-1701920D01*
X5848570Y-1699000D01*
X5837900Y-1697830D01*
X5827230Y-1699000D01*
X5820570Y-1702500D01*
X5816570Y-1706580D01*
Y-1721170D01*
G01Y-1706580D02*
X5777900Y-1697830D01*
G01X5793900Y-1685830D02*
X5784570Y-1682330D01*
X5779230Y-1677670D01*
X5777900Y-1672420D01*
X5779230Y-1667750D01*
X5785900Y-1663080D01*
X5793900Y-1660170D01*
X5801900Y-1659580D01*
X5811230Y-1660750D01*
X5817900Y-1664830D01*
X5820570Y-1668920D01*
Y-1674170D01*
G01Y-1668920D02*
X5824570Y-1665420D01*
X5831230Y-1662500D01*
X5839230Y-1661330D01*
X5847230Y-1662500D01*
X5853900Y-1665420D01*
X5857900Y-1670670D01*
X5856570Y-1675920D01*
X5851230Y-1681170D01*
G01X5844570Y-1647580D02*
X5852570Y-1644080D01*
X5856570Y-1640000D01*
X5857900Y-1635330D01*
X5855230Y-1629500D01*
X5848570Y-1625420D01*
X5840570Y-1624250D01*
X5832560Y-1624830D01*
X5825900Y-1627170D01*
X5812570Y-1638830D01*
X5803230Y-1644080D01*
X5789900Y-1647580D01*
X5777900Y-1648750D01*
Y-1624250D01*
G01X5624670Y-1573870D02*
X5628170Y-1569870D01*
X5632250Y-1567200D01*
X5636920D01*
X5642170Y-1571200D01*
X5646250Y-1577870D01*
X5649170Y-1585870D01*
X5651500Y-1599200D01*
X5652080Y-1611200D01*
X5650920Y-1623200D01*
X5649170Y-1631200D01*
X5645670Y-1639200D01*
X5641580Y-1644530D01*
X5637500Y-1647200D01*
X5633420D01*
X5629330Y-1644530D01*
X5625830Y-1640530D01*
X5622920Y-1635200D01*
G01X5613830Y-1631200D02*
X5610330Y-1640530D01*
X5605670Y-1645870D01*
X5600420Y-1647200D01*
X5595750Y-1645870D01*
X5591080Y-1639200D01*
X5588170Y-1631200D01*
X5587580Y-1623200D01*
X5588750Y-1613870D01*
X5592830Y-1607200D01*
X5596920Y-1604530D01*
X5602170D01*
G01X5596920D02*
X5593420Y-1600530D01*
X5590500Y-1593870D01*
X5589330Y-1585870D01*
X5590500Y-1577870D01*
X5593420Y-1571200D01*
X5598670Y-1567200D01*
X5603920Y-1568530D01*
X5609170Y-1573870D01*
G01X5575580Y-1580530D02*
X5572080Y-1572530D01*
X5568000Y-1568530D01*
X5563330Y-1567200D01*
X5557500Y-1569870D01*
X5553420Y-1576530D01*
X5552250Y-1584530D01*
X5552830Y-1592540D01*
X5555170Y-1599200D01*
X5566830Y-1612530D01*
X5572080Y-1621870D01*
X5575580Y-1635200D01*
X5576750Y-1647200D01*
X5552250D01*
G01X5934900Y-1756770D02*
X6014900D01*
Y-1742180D01*
X6010900Y-1737520D01*
X6005570Y-1734600D01*
X5994900Y-1733430D01*
X5984230Y-1734600D01*
X5977570Y-1738100D01*
X5973570Y-1742180D01*
Y-1756770D01*
G01Y-1742180D02*
X5934900Y-1733430D01*
G01X5950900Y-1721430D02*
X5941570Y-1717930D01*
X5936230Y-1713270D01*
X5934900Y-1708020D01*
X5936230Y-1703350D01*
X5942900Y-1698680D01*
X5950900Y-1695770D01*
X5958900Y-1695180D01*
X5968230Y-1696350D01*
X5974900Y-1700430D01*
X5977570Y-1704520D01*
Y-1709770D01*
G01Y-1704520D02*
X5981570Y-1701020D01*
X5988230Y-1698100D01*
X5996230Y-1696930D01*
X6004230Y-1698100D01*
X6010900Y-1701020D01*
X6014900Y-1706270D01*
X6013570Y-1711520D01*
X6008230Y-1716770D01*
G01X5934900Y-1672100D02*
X6014900D01*
X5998900Y-1679100D01*
G01X5934900D02*
Y-1665100D01*
G01X6289170Y-2315000D02*
Y-2235000D01*
X6274580D01*
X6269920Y-2239000D01*
X6267000Y-2244330D01*
X6265830Y-2255000D01*
X6267000Y-2265670D01*
X6270500Y-2272330D01*
X6274580Y-2276330D01*
X6289170D01*
G01X6274580D02*
X6265830Y-2315000D01*
G01X6234000D02*
Y-2235000D01*
X6255580Y-2292330D01*
X6226420D01*
G01X6204500Y-2315000D02*
Y-2235000D01*
X6211500Y-2251000D01*
G01Y-2315000D02*
X6197500D01*
G01X6284770Y-2154400D02*
Y-2074400D01*
X6270180D01*
X6265520Y-2078400D01*
X6262600Y-2083730D01*
X6261430Y-2094400D01*
X6262600Y-2105070D01*
X6266100Y-2111730D01*
X6270180Y-2115730D01*
X6284770D01*
G01X6270180D02*
X6261430Y-2154400D01*
G01X6249430Y-2138400D02*
X6245930Y-2147730D01*
X6241270Y-2153070D01*
X6236020Y-2154400D01*
X6231350Y-2153070D01*
X6226680Y-2146400D01*
X6223770Y-2138400D01*
X6223180Y-2130400D01*
X6224350Y-2121070D01*
X6228430Y-2114400D01*
X6232520Y-2111730D01*
X6237770D01*
G01X6232520D02*
X6229020Y-2107730D01*
X6226100Y-2101070D01*
X6224930Y-2093070D01*
X6226100Y-2085070D01*
X6229020Y-2078400D01*
X6234270Y-2074400D01*
X6239520Y-2075730D01*
X6244770Y-2081070D01*
G01X6201270Y-2154400D02*
X6200100Y-2137070D01*
X6198350Y-2122400D01*
X6196020Y-2109070D01*
X6193100Y-2094400D01*
X6188430Y-2074400D01*
X6211770D01*
G01X6238600Y-1868770D02*
X6318600D01*
Y-1854180D01*
X6314600Y-1849520D01*
X6309270Y-1846600D01*
X6298600Y-1845430D01*
X6287930Y-1846600D01*
X6281270Y-1850100D01*
X6277270Y-1854180D01*
Y-1868770D01*
G01Y-1854180D02*
X6238600Y-1845430D01*
G01X6254600Y-1833430D02*
X6245270Y-1829930D01*
X6239930Y-1825270D01*
X6238600Y-1820020D01*
X6239930Y-1815350D01*
X6246600Y-1810680D01*
X6254600Y-1807770D01*
X6262600Y-1807180D01*
X6271930Y-1808350D01*
X6278600Y-1812430D01*
X6281270Y-1816520D01*
Y-1821770D01*
G01Y-1816520D02*
X6285270Y-1813020D01*
X6291930Y-1810100D01*
X6299930Y-1808930D01*
X6307930Y-1810100D01*
X6314600Y-1813020D01*
X6318600Y-1818270D01*
X6317270Y-1823520D01*
X6311930Y-1828770D01*
G01X6318600Y-1784100D02*
X6315930Y-1788770D01*
X6309270Y-1792270D01*
X6301270Y-1794600D01*
X6290600Y-1796350D01*
X6278600Y-1796930D01*
X6266600Y-1796350D01*
X6255930Y-1794600D01*
X6247930Y-1792270D01*
X6241270Y-1788770D01*
X6238600Y-1784100D01*
X6241270Y-1779430D01*
X6247930Y-1775930D01*
X6255930Y-1773600D01*
X6266600Y-1771850D01*
X6278600Y-1771270D01*
X6290600Y-1771850D01*
X6301270Y-1773600D01*
X6309270Y-1775930D01*
X6315930Y-1779430D01*
X6318600Y-1784100D01*
G01X6344330Y-1576670D02*
X6348330Y-1580170D01*
X6351000Y-1584250D01*
Y-1588920D01*
X6347000Y-1594170D01*
X6340330Y-1598250D01*
X6332330Y-1601170D01*
X6319000Y-1603500D01*
X6307000Y-1604080D01*
X6295000Y-1602920D01*
X6287000Y-1601170D01*
X6279000Y-1597670D01*
X6273670Y-1593580D01*
X6271000Y-1589500D01*
Y-1585420D01*
X6273670Y-1581330D01*
X6277670Y-1577830D01*
X6283000Y-1574920D01*
G01X6337670Y-1564080D02*
X6345670Y-1560580D01*
X6349670Y-1556500D01*
X6351000Y-1551830D01*
X6348330Y-1546000D01*
X6341670Y-1541920D01*
X6333670Y-1540750D01*
X6325660Y-1541330D01*
X6319000Y-1543670D01*
X6305670Y-1555330D01*
X6296330Y-1560580D01*
X6283000Y-1564080D01*
X6271000Y-1565250D01*
Y-1540750D01*
G01Y-1517670D02*
X6288330Y-1516500D01*
X6303000Y-1514750D01*
X6316330Y-1512420D01*
X6331000Y-1509500D01*
X6351000Y-1504830D01*
Y-1528170D01*
G01X6707430Y-2218270D02*
X6711430Y-2221770D01*
X6714100Y-2225850D01*
Y-2230520D01*
X6710100Y-2235770D01*
X6703430Y-2239850D01*
X6695430Y-2242770D01*
X6682100Y-2245100D01*
X6670100Y-2245680D01*
X6658100Y-2244520D01*
X6650100Y-2242770D01*
X6642100Y-2239270D01*
X6636770Y-2235180D01*
X6634100Y-2231100D01*
Y-2227020D01*
X6636770Y-2222930D01*
X6640770Y-2219430D01*
X6646100Y-2216520D01*
G01X6650100Y-2207430D02*
X6640770Y-2203930D01*
X6635430Y-2199270D01*
X6634100Y-2194020D01*
X6635430Y-2189350D01*
X6642100Y-2184680D01*
X6650100Y-2181770D01*
X6658100Y-2181180D01*
X6667430Y-2182350D01*
X6674100Y-2186430D01*
X6676770Y-2190520D01*
Y-2195770D01*
G01Y-2190520D02*
X6680770Y-2187020D01*
X6687430Y-2184100D01*
X6695430Y-2182930D01*
X6703430Y-2184100D01*
X6710100Y-2187020D01*
X6714100Y-2192270D01*
X6712770Y-2197520D01*
X6707430Y-2202770D01*
G01X6643430Y-2168020D02*
X6636770Y-2163930D01*
X6634100Y-2159270D01*
X6636770Y-2154600D01*
X6644760Y-2150520D01*
X6656770Y-2147600D01*
X6668770Y-2146430D01*
X6683430D01*
X6695430Y-2147600D01*
X6706100Y-2150520D01*
X6711430Y-2154020D01*
X6714100Y-2158100D01*
X6711430Y-2162770D01*
X6706100Y-2166270D01*
X6698100Y-2168600D01*
X6687430Y-2169770D01*
X6678100Y-2168600D01*
X6668770Y-2165680D01*
X6663430Y-2162180D01*
X6662100Y-2158100D01*
X6664760Y-2153430D01*
X6671430Y-2149930D01*
X6683430Y-2146430D01*
G01X6804330Y-1576670D02*
X6808330Y-1580170D01*
X6811000Y-1584250D01*
Y-1588920D01*
X6807000Y-1594170D01*
X6800330Y-1598250D01*
X6792330Y-1601170D01*
X6779000Y-1603500D01*
X6767000Y-1604080D01*
X6755000Y-1602920D01*
X6747000Y-1601170D01*
X6739000Y-1597670D01*
X6733670Y-1593580D01*
X6731000Y-1589500D01*
Y-1585420D01*
X6733670Y-1581330D01*
X6737670Y-1577830D01*
X6743000Y-1574920D01*
G01X6797670Y-1564080D02*
X6805670Y-1560580D01*
X6809670Y-1556500D01*
X6811000Y-1551830D01*
X6808330Y-1546000D01*
X6801670Y-1541920D01*
X6793670Y-1540750D01*
X6785660Y-1541330D01*
X6779000Y-1543670D01*
X6765670Y-1555330D01*
X6756330Y-1560580D01*
X6743000Y-1564080D01*
X6731000Y-1565250D01*
Y-1540750D01*
G01X6764330Y-1527580D02*
X6773670Y-1523500D01*
X6779000Y-1520000D01*
X6781670Y-1515330D01*
X6779000Y-1511250D01*
X6773670Y-1508330D01*
X6765670Y-1506000D01*
X6756330Y-1505420D01*
X6748330Y-1506000D01*
X6740330Y-1508330D01*
X6733670Y-1511830D01*
X6731000Y-1515920D01*
X6733670Y-1520580D01*
X6741660Y-1524670D01*
X6753670Y-1527000D01*
X6767000Y-1527580D01*
X6784330Y-1526420D01*
X6793670Y-1524670D01*
X6803000Y-1521750D01*
X6809670Y-1517670D01*
X6811000Y-1513580D01*
X6808330Y-1509500D01*
X6801670Y-1506580D01*
G01X6775270Y-829600D02*
X6772350Y-837600D01*
X6768850Y-842930D01*
X6764770Y-845600D01*
X6760100Y-842930D01*
X6756600Y-837600D01*
X6753100Y-829600D01*
X6751930Y-818930D01*
Y-765600D01*
G01X6738180Y-778930D02*
X6734680Y-770930D01*
X6730600Y-766930D01*
X6725930Y-765600D01*
X6720100Y-768270D01*
X6716020Y-774930D01*
X6714850Y-782930D01*
X6715430Y-790940D01*
X6717770Y-797600D01*
X6729430Y-810930D01*
X6734680Y-820270D01*
X6738180Y-833600D01*
X6739350Y-845600D01*
X6714850D01*
G01X7083130Y-2232170D02*
X7087130Y-2235670D01*
X7089800Y-2239750D01*
Y-2244420D01*
X7085800Y-2249670D01*
X7079130Y-2253750D01*
X7071130Y-2256670D01*
X7057800Y-2259000D01*
X7045800Y-2259580D01*
X7033800Y-2258420D01*
X7025800Y-2256670D01*
X7017800Y-2253170D01*
X7012470Y-2249080D01*
X7009800Y-2245000D01*
Y-2240920D01*
X7012470Y-2236830D01*
X7016470Y-2233330D01*
X7021800Y-2230420D01*
G01X7025800Y-2221330D02*
X7016470Y-2217830D01*
X7011130Y-2213170D01*
X7009800Y-2207920D01*
X7011130Y-2203250D01*
X7017800Y-2198580D01*
X7025800Y-2195670D01*
X7033800Y-2195080D01*
X7043130Y-2196250D01*
X7049800Y-2200330D01*
X7052470Y-2204420D01*
Y-2209670D01*
G01Y-2204420D02*
X7056470Y-2200920D01*
X7063130Y-2198000D01*
X7071130Y-2196830D01*
X7079130Y-2198000D01*
X7085800Y-2200920D01*
X7089800Y-2206170D01*
X7088470Y-2211420D01*
X7083130Y-2216670D01*
G01X7009800Y-2172000D02*
X7011130Y-2167920D01*
X7015130Y-2163250D01*
X7021800Y-2160330D01*
X7031130Y-2159170D01*
X7040460Y-2160330D01*
X7048470Y-2163830D01*
X7052470Y-2169080D01*
Y-2174920D01*
X7055130Y-2178420D01*
X7061800Y-2181330D01*
X7071130Y-2182500D01*
X7080470Y-2180750D01*
X7087130Y-2176670D01*
X7089800Y-2172000D01*
X7087130Y-2167330D01*
X7080470Y-2163250D01*
X7071130Y-2161500D01*
X7061800Y-2162670D01*
X7055130Y-2165580D01*
X7052470Y-2169080D01*
Y-2174920D01*
X7048470Y-2180170D01*
X7040460Y-2183670D01*
X7031130Y-2184830D01*
X7021800Y-2183670D01*
X7015130Y-2180750D01*
X7011130Y-2176080D01*
X7009800Y-2172000D01*
G01X7118170Y-997470D02*
X7121670Y-993470D01*
X7125750Y-990800D01*
X7130420D01*
X7135670Y-994800D01*
X7139750Y-1001470D01*
X7142670Y-1009470D01*
X7145000Y-1022800D01*
X7145580Y-1034800D01*
X7144420Y-1046800D01*
X7142670Y-1054800D01*
X7139170Y-1062800D01*
X7135080Y-1068130D01*
X7131000Y-1070800D01*
X7126920D01*
X7122830Y-1068130D01*
X7119330Y-1064130D01*
X7116420Y-1058800D01*
G01X7105580Y-1004130D02*
X7102080Y-996130D01*
X7098000Y-992130D01*
X7093330Y-990800D01*
X7087500Y-993470D01*
X7083420Y-1000130D01*
X7082250Y-1008130D01*
X7082830Y-1016140D01*
X7085170Y-1022800D01*
X7096830Y-1036130D01*
X7102080Y-1045470D01*
X7105580Y-1058800D01*
X7106750Y-1070800D01*
X7082250D01*
G01X7051000D02*
Y-990800D01*
X7072580Y-1048130D01*
X7043420D01*
G01X7145130Y-761170D02*
X7149130Y-764670D01*
X7151800Y-768750D01*
Y-773420D01*
X7147800Y-778670D01*
X7141130Y-782750D01*
X7133130Y-785670D01*
X7119800Y-788000D01*
X7107800Y-788580D01*
X7095800Y-787420D01*
X7087800Y-785670D01*
X7079800Y-782170D01*
X7074470Y-778080D01*
X7071800Y-774000D01*
Y-769920D01*
X7074470Y-765830D01*
X7078470Y-762330D01*
X7083800Y-759420D01*
G01X7071800Y-737500D02*
X7151800D01*
X7135800Y-744500D01*
G01X7071800D02*
Y-730500D01*
G01Y-701000D02*
X7073130Y-696920D01*
X7077130Y-692250D01*
X7083800Y-689330D01*
X7093130Y-688170D01*
X7102460Y-689330D01*
X7110470Y-692830D01*
X7114470Y-698080D01*
Y-703920D01*
X7117130Y-707420D01*
X7123800Y-710330D01*
X7133130Y-711500D01*
X7142470Y-709750D01*
X7149130Y-705670D01*
X7151800Y-701000D01*
X7149130Y-696330D01*
X7142470Y-692250D01*
X7133130Y-690500D01*
X7123800Y-691670D01*
X7117130Y-694580D01*
X7114470Y-698080D01*
Y-703920D01*
X7110470Y-709170D01*
X7102460Y-712670D01*
X7093130Y-713830D01*
X7083800Y-712670D01*
X7077130Y-709750D01*
X7073130Y-705080D01*
X7071800Y-701000D01*
G01X7205030Y-305970D02*
X7209030Y-309470D01*
X7211700Y-313550D01*
Y-318220D01*
X7207700Y-323470D01*
X7201030Y-327550D01*
X7193030Y-330470D01*
X7179700Y-332800D01*
X7167700Y-333380D01*
X7155700Y-332220D01*
X7147700Y-330470D01*
X7139700Y-326970D01*
X7134370Y-322880D01*
X7131700Y-318800D01*
Y-314720D01*
X7134370Y-310630D01*
X7138370Y-307130D01*
X7143700Y-304220D01*
G01X7131700Y-282300D02*
X7211700D01*
X7195700Y-289300D01*
G01X7131700D02*
Y-275300D01*
G01X7147700Y-258630D02*
X7138370Y-255130D01*
X7133030Y-250470D01*
X7131700Y-245220D01*
X7133030Y-240550D01*
X7139700Y-235880D01*
X7147700Y-232970D01*
X7155700Y-232380D01*
X7165030Y-233550D01*
X7171700Y-237630D01*
X7174370Y-241720D01*
Y-246970D01*
G01Y-241720D02*
X7178370Y-238220D01*
X7185030Y-235300D01*
X7193030Y-234130D01*
X7201030Y-235300D01*
X7207700Y-238220D01*
X7211700Y-243470D01*
X7210370Y-248720D01*
X7205030Y-253970D01*
G01X7607370Y-971000D02*
Y-1051000D01*
X7584030D01*
G01X7572030Y-1039000D02*
X7568530Y-1045670D01*
X7564450Y-1049670D01*
X7559200Y-1051000D01*
X7553950Y-1048330D01*
X7549870Y-1043000D01*
X7546950Y-1033670D01*
X7546370Y-1023000D01*
X7547530Y-1012330D01*
X7550450Y-1005670D01*
X7554530Y-1000330D01*
X7558620Y-999000D01*
X7562700Y-1000330D01*
X7567950Y-1005670D01*
X7566200Y-971000D01*
X7550450D01*
G01X7534170Y-624200D02*
Y-544200D01*
X7519580D01*
X7514920Y-548200D01*
X7512000Y-553530D01*
X7510830Y-564200D01*
X7512000Y-574870D01*
X7515500Y-581530D01*
X7519580Y-585530D01*
X7534170D01*
G01X7519580D02*
X7510830Y-624200D01*
G01X7486000D02*
Y-544200D01*
X7493000Y-560200D01*
G01Y-624200D02*
X7479000D01*
G01X7449500D02*
Y-544200D01*
X7456500Y-560200D01*
G01Y-624200D02*
X7442500D01*
G01X7753170Y-1315470D02*
X7756670Y-1311470D01*
X7760750Y-1308800D01*
X7765420D01*
X7770670Y-1312800D01*
X7774750Y-1319470D01*
X7777670Y-1327470D01*
X7780000Y-1340800D01*
X7780580Y-1352800D01*
X7779420Y-1364800D01*
X7777670Y-1372800D01*
X7774170Y-1380800D01*
X7770080Y-1386130D01*
X7766000Y-1388800D01*
X7761920D01*
X7757830Y-1386130D01*
X7754330Y-1382130D01*
X7751420Y-1376800D01*
G01X7740580Y-1322130D02*
X7737080Y-1314130D01*
X7733000Y-1310130D01*
X7728330Y-1308800D01*
X7722500Y-1311470D01*
X7718420Y-1318130D01*
X7717250Y-1326130D01*
X7717830Y-1334140D01*
X7720170Y-1340800D01*
X7731830Y-1354130D01*
X7737080Y-1363470D01*
X7740580Y-1376800D01*
X7741750Y-1388800D01*
X7717250D01*
G01X7705830Y-1376800D02*
X7702330Y-1383470D01*
X7698250Y-1387470D01*
X7693000Y-1388800D01*
X7687750Y-1386130D01*
X7683670Y-1380800D01*
X7680750Y-1371470D01*
X7680170Y-1360800D01*
X7681330Y-1350130D01*
X7684250Y-1343470D01*
X7688330Y-1338130D01*
X7692420Y-1336800D01*
X7696500Y-1338130D01*
X7701750Y-1343470D01*
X7700000Y-1308800D01*
X7684250D01*
G01X7844330Y-866670D02*
X7848330Y-870170D01*
X7851000Y-874250D01*
Y-878920D01*
X7847000Y-884170D01*
X7840330Y-888250D01*
X7832330Y-891170D01*
X7819000Y-893500D01*
X7807000Y-894080D01*
X7795000Y-892920D01*
X7787000Y-891170D01*
X7779000Y-887670D01*
X7773670Y-883580D01*
X7771000Y-879500D01*
Y-875420D01*
X7773670Y-871330D01*
X7777670Y-867830D01*
X7783000Y-864920D01*
G01X7771000Y-843000D02*
X7851000D01*
X7835000Y-850000D01*
G01X7771000D02*
Y-836000D01*
G01X7780330Y-816420D02*
X7773670Y-812330D01*
X7771000Y-807670D01*
X7773670Y-803000D01*
X7781660Y-798920D01*
X7793670Y-796000D01*
X7805670Y-794830D01*
X7820330D01*
X7832330Y-796000D01*
X7843000Y-798920D01*
X7848330Y-802420D01*
X7851000Y-806500D01*
X7848330Y-811170D01*
X7843000Y-814670D01*
X7835000Y-817000D01*
X7824330Y-818170D01*
X7815000Y-817000D01*
X7805670Y-814080D01*
X7800330Y-810580D01*
X7799000Y-806500D01*
X7801660Y-801830D01*
X7808330Y-798330D01*
X7820330Y-794830D01*
G01X7912500Y-330000D02*
Y-410000D01*
G01X7925920Y-330000D02*
X7899080D01*
G01X7887670Y-410000D02*
Y-330000D01*
X7873670D01*
X7869000Y-334000D01*
X7865500Y-343330D01*
X7864330Y-354000D01*
X7865500Y-364670D01*
X7868420Y-372670D01*
X7873670Y-376670D01*
X7887670D01*
G01X7852330Y-398000D02*
X7848830Y-404670D01*
X7844750Y-408670D01*
X7839500Y-410000D01*
X7834250Y-407330D01*
X7830170Y-402000D01*
X7827250Y-392670D01*
X7826670Y-382000D01*
X7827830Y-371330D01*
X7830750Y-364670D01*
X7834830Y-359330D01*
X7838920Y-358000D01*
X7843000Y-359330D01*
X7848250Y-364670D01*
X7846500Y-330000D01*
X7830750D01*
G01X8022500Y-550000D02*
Y-630000D01*
G01X8035920Y-550000D02*
X8009080D01*
G01X7997670Y-630000D02*
Y-550000D01*
X7983670D01*
X7979000Y-554000D01*
X7975500Y-563330D01*
X7974330Y-574000D01*
X7975500Y-584670D01*
X7978420Y-592670D01*
X7983670Y-596670D01*
X7997670D01*
G01X7960580D02*
X7956500Y-587330D01*
X7953000Y-582000D01*
X7948330Y-579330D01*
X7944250Y-582000D01*
X7941330Y-587330D01*
X7939000Y-595330D01*
X7938420Y-604670D01*
X7939000Y-612670D01*
X7941330Y-620670D01*
X7944830Y-627330D01*
X7948920Y-630000D01*
X7953580Y-627330D01*
X7957670Y-619340D01*
X7960000Y-607330D01*
X7960580Y-594000D01*
X7959420Y-576670D01*
X7957670Y-567330D01*
X7954750Y-558000D01*
X7950670Y-551330D01*
X7946580Y-550000D01*
X7942500Y-552670D01*
X7939580Y-559330D01*
G01X8234170Y-224000D02*
X8231250Y-232000D01*
X8227750Y-237330D01*
X8223670Y-240000D01*
X8219000Y-237330D01*
X8215500Y-232000D01*
X8212000Y-224000D01*
X8210830Y-213330D01*
Y-160000D01*
G01X8198830Y-224000D02*
X8195330Y-233330D01*
X8190670Y-238670D01*
X8185420Y-240000D01*
X8180750Y-238670D01*
X8176080Y-232000D01*
X8173170Y-224000D01*
X8172580Y-216000D01*
X8173750Y-206670D01*
X8177830Y-200000D01*
X8181920Y-197330D01*
X8187170D01*
G01X8181920D02*
X8178420Y-193330D01*
X8175500Y-186670D01*
X8174330Y-178670D01*
X8175500Y-170670D01*
X8178420Y-164000D01*
X8183670Y-160000D01*
X8188920Y-161330D01*
X8194170Y-166670D01*
M02*
