G04 ================== begin FILE IDENTIFICATION RECORD ==================*
G04 Layout Name:  F:/MyTemporary/Github/GLPP2024/1-PSU/PSU-A1.brd*
G04 Film Name:    SOLDERMASK_TOP*
G04 File Format:  Gerber RS274X*
G04 File Origin:  Cadence Allegro 22.1-P001*
G04 Origin Date:  Tue Apr 23 14:00:41 2024*
G04 *
G04 Layer:  VIA CLASS/SOLDERMASK_TOP*
G04 Layer:  PIN/SOLDERMASK_TOP*
G04 *
G04 Offset:    (0.0000 0.0000)*
G04 Mirror:    No*
G04 Mode:      Positive*
G04 Rotation:  0*
G04 FullContactRelief:  No*
G04 UndefLineWidth:     0.2540*
G04 ================== end FILE IDENTIFICATION RECORD ====================*
%FSLAX25Y25*MOMM*%
%IR0*IPPOS*OFA0.00000B0.00000*MIA0B0*SFA1.00000B1.00000*%
%ADD33R,1.6X.4*%
%ADD20R,1.3X.7*%
%ADD32R,.4X1.6*%
%ADD34R,1.7X.9*%
%ADD24R,.61X1.37*%
%ADD21R,.7X.7*%
%ADD27R,1.1X1.*%
%ADD18R,1.X1.1*%
%ADD26R,1.3X1.1*%
%ADD35R,3.1X2.1*%
%ADD30R,2.1X3.1*%
%ADD31R,1.9X1.1*%
%ADD19R,3.1X6.1*%
%ADD12C,1.1*%
%ADD25R,1.9X1.6*%
%ADD16C,1.4*%
%ADD10C,3.2*%
%ADD23R,.8X.35*%
%ADD15C,1.6*%
%ADD14R,.9X.7*%
%ADD22R,.35X.8*%
%ADD17R,.7X.9*%
%ADD11C,2.6*%
%ADD13C,1.9*%
%ADD29R,.78X.38*%
%ADD28R,.38X.78*%
%LPD*%
G75*
G54D10*
X300000Y-2200000D03*
Y-300000D03*
X5800000Y-1100000D03*
G54D11*
X1030000Y-1240000D03*
X1530000D03*
X3390000D03*
X3890000D03*
G54D20*
X5290000Y-1740000D03*
Y-1550000D03*
X5530000Y-1740000D03*
Y-1550000D03*
Y-1645000D03*
X6080000Y-1630000D03*
Y-1535000D03*
Y-1440000D03*
X6540000Y-1630000D03*
Y-1535000D03*
Y-1440000D03*
X6320000Y-1630000D03*
Y-1440000D03*
X6780000Y-1630000D03*
Y-1440000D03*
G54D12*
X2220000Y-1980000D03*
X2570000Y-1850000D03*
G54D30*
X6860000Y-2080000D03*
G54D21*
X5310000Y-1020000D03*
G54D13*
X2210000Y-430000D03*
X2010000Y-250000D03*
X4330000Y-220000D03*
X4550000Y-400000D03*
G54D22*
X5335000Y-1120000D03*
X5285000D03*
X5335000Y-920000D03*
X5285000D03*
G54D31*
X6690000Y-630000D03*
Y-370000D03*
G54D14*
X2460000Y-920000D03*
Y-800000D03*
Y-670000D03*
Y-550000D03*
X5720000Y-1530000D03*
Y-1650000D03*
X5870000Y-1530000D03*
Y-1650000D03*
X6466600Y-1967800D03*
Y-1847800D03*
X6980000Y-1700000D03*
Y-1580000D03*
X8090000Y-2100000D03*
Y-1980000D03*
G54D23*
X5410000Y-1095000D03*
X5210000D03*
X5410000Y-1045000D03*
X5210000D03*
X5410000Y-995000D03*
X5210000D03*
X5410000Y-945000D03*
X5210000D03*
G54D32*
X7185000Y-1290000D03*
Y-490000D03*
X7235000Y-1290000D03*
X7285000D03*
X7335000D03*
X7385000D03*
X7435000D03*
X7485000D03*
X7535000D03*
X7235000Y-490000D03*
X7285000D03*
X7335000D03*
X7385000D03*
X7435000D03*
X7485000D03*
X7535000D03*
X7585000Y-1290000D03*
X7635000D03*
X7685000D03*
X7735000D03*
X7585000Y-490000D03*
X7635000D03*
X7685000D03*
X7735000D03*
G54D15*
X4930000Y-2220000D03*
Y-2020000D03*
X5130000Y-2220000D03*
Y-2020000D03*
G54D24*
X6070900Y-2013400D03*
X6262400D03*
X6168500Y-2284170D03*
G54D33*
X7060000Y-1165000D03*
Y-1115000D03*
Y-1065000D03*
Y-1015000D03*
Y-965000D03*
Y-915000D03*
Y-865000D03*
Y-815000D03*
Y-765000D03*
Y-715000D03*
Y-665000D03*
Y-615000D03*
X7860000Y-1165000D03*
Y-1115000D03*
Y-1065000D03*
Y-1015000D03*
Y-965000D03*
Y-915000D03*
Y-865000D03*
Y-815000D03*
Y-765000D03*
Y-715000D03*
Y-665000D03*
Y-615000D03*
G54D16*
X4970000Y-1700000D03*
Y-1446000D03*
G54D25*
X5950000Y-650000D03*
Y-320000D03*
G54D34*
X7720000Y-1980000D03*
X8330000Y-1720000D03*
Y-1845000D03*
Y-1970000D03*
Y-1345000D03*
Y-1470000D03*
Y-1595000D03*
Y-970000D03*
Y-1095000D03*
Y-1220000D03*
Y-845000D03*
G54D17*
X4910000Y-1080000D03*
X5030000D03*
X5200000Y-1340000D03*
X5320000D03*
X5450000D03*
X5570000D03*
X6100000Y-1850000D03*
X6150000Y-1090000D03*
Y-950000D03*
Y-810000D03*
X6410000Y-2140000D03*
Y-2290000D03*
X6220000Y-1850000D03*
X6270000Y-1090000D03*
Y-950000D03*
Y-810000D03*
X6370000Y-630000D03*
X6490000D03*
X6370000Y-370000D03*
X6490000D03*
X6530000Y-2140000D03*
Y-2290000D03*
X7120000Y-220000D03*
X7000000D03*
X7280000D03*
X7400000D03*
X8220000D03*
X8100000D03*
G54D35*
X8680000Y-2230000D03*
Y-580000D03*
G54D26*
X6500000Y-1074000D03*
Y-874000D03*
X6700000Y-1074000D03*
Y-874000D03*
G54D18*
X4890000Y-920000D03*
X5050000D03*
G54D27*
X6210000Y-630000D03*
Y-470000D03*
G54D28*
X6785000Y-2295700D03*
Y-1864200D03*
X6935000Y-2295700D03*
Y-1864200D03*
X7595000Y-2095700D03*
X7645000D03*
X7695000D03*
X7745000D03*
X7795000D03*
X7845000D03*
X7595000Y-1864200D03*
X7645000D03*
X7695000D03*
X7745000D03*
X7795000D03*
X7845000D03*
G54D19*
X4980000Y-480000D03*
X5610000D03*
G54D29*
X6690000Y-2105000D03*
Y-2155000D03*
Y-2205000D03*
Y-2255000D03*
Y-1905000D03*
Y-1955000D03*
Y-2005000D03*
Y-2055000D03*
X7030000Y-2105000D03*
Y-2155000D03*
Y-2205000D03*
Y-2255000D03*
Y-1905000D03*
Y-1955000D03*
Y-2005000D03*
Y-2055000D03*
X7554300Y-1955000D03*
Y-2005000D03*
X7885800Y-1955000D03*
Y-2005000D03*
M02*
