G04 ================== begin FILE IDENTIFICATION RECORD ==================*
G04 Layout Name:  F:/MyTemporary/Github/GLPP2024/1-PSU/PSU-A1.brd*
G04 Film Name:    TOP*
G04 File Format:  Gerber RS274X*
G04 File Origin:  Cadence Allegro 22.1-P001*
G04 Origin Date:  Tue Apr 23 14:00:41 2024*
G04 *
G04 Layer:  ETCH/TOP*
G04 Layer:  PIN/TOP*
G04 Layer:  VIA CLASS/TOP*
G04 *
G04 Offset:    (0.0000 0.0000)*
G04 Mirror:    No*
G04 Mode:      Positive*
G04 Rotation:  0*
G04 FullContactRelief:  No*
G04 UndefLineWidth:     0.2540*
G04 ================== end FILE IDENTIFICATION RECORD ====================*
%FSLAX25Y25*MOMM*%
%IR0*IPPOS*OFA0.00000B0.00000*MIA0B0*SFA1.00000B1.00000*%
%ADD35R,1.5X.3*%
%ADD22R,1.2X.6*%
%ADD34R,.3X1.5*%
%ADD29R,1.X.9*%
%ADD20R,.9X1.*%
%ADD36R,1.6X.8*%
%ADD26R,.51X1.27*%
%ADD12C,.3*%
%ADD11C,.4*%
%ADD23R,.6X.6*%
%ADD28R,1.2X1.*%
%ADD37R,3.X2.*%
%ADD32R,2.X3.*%
%ADD33R,1.8X1.*%
%ADD21R,3.X6.*%
%ADD27R,1.8X1.5*%
%ADD14C,1.*%
%ADD18C,1.2*%
%ADD10C,3.1*%
%ADD25R,.7X.25*%
%ADD16R,.8X.6*%
%ADD24R,.25X.7*%
%ADD19R,.6X.8*%
%ADD17C,1.5*%
%ADD13C,2.5*%
%ADD15C,1.8*%
%ADD31R,.68X.28*%
%ADD30R,.28X.68*%
%ADD38C,.2*%
%ADD39C,.32*%
%ADD40C,.5*%
%ADD41C,.15*%
%ADD42C,.42*%
%ADD43C,.25*%
%ADD44C,.26*%
%ADD45C,.36*%
%ADD46C,.28*%
%ADD47C,.127*%
%ADD48C,.46*%
%ADD49C,.38*%
G75*
%LPD*%
G75*
G36*
G01X4939700Y-1120000D02*
Y-1028700D01*
X4935000Y-1024000D01*
Y-870000D01*
Y-864100D01*
X4745000D01*
Y-1120000D01*
X4939700D01*
G37*
G36*
G01X5005000Y-870000D02*
X5108000D01*
X5170500Y-932500D01*
X5245000D01*
Y-1007500D01*
X5085300D01*
X5060000Y-1032800D01*
Y-1229500D01*
X4750320D01*
Y-1179900D01*
X4966100D01*
X5000000Y-1146000D01*
Y-1029000D01*
X5005000Y-1024000D01*
Y-870000D01*
G37*
G36*
G01X5272500Y-955000D02*
Y-885000D01*
X5167500Y-780000D01*
X4830000D01*
Y-180000D01*
X5130000D01*
Y-669000D01*
Y-698500D01*
X5297500Y-866000D01*
Y-955000D01*
X5272500D01*
G37*
G36*
G01X5280000Y-990000D02*
X5340000D01*
Y-1032500D01*
X5466000D01*
Y-1171000D01*
X5375000D01*
Y-1050000D01*
X5280000D01*
Y-990000D01*
G37*
G36*
G01X5441500Y-866000D02*
X5574100D01*
Y-957500D01*
X5455600D01*
X5375000D01*
Y-932500D01*
X5441500Y-866000D01*
G37*
G36*
G01X5347500Y-955000D02*
Y-892500D01*
X5355000Y-885000D01*
X5460000Y-780000D01*
X5805000D01*
X5860000Y-725000D01*
X6040000D01*
Y-619000D01*
X6144000Y-515000D01*
X6260000D01*
Y-425000D01*
X6146200D01*
X6144000D01*
Y-427200D01*
Y-453100D01*
X6107800Y-489300D01*
X6022100Y-575000D01*
X5996200D01*
X5760000D01*
Y-180000D01*
X5460000D01*
Y-677700D01*
Y-728400D01*
X5322500Y-865900D01*
Y-883000D01*
Y-955000D01*
X5347500D01*
G37*
G36*
G01X6030500Y-177900D02*
X6341700D01*
Y-178000D01*
X6400000D01*
Y-410000D01*
X6314800D01*
Y-281300D01*
X6065300D01*
Y-395000D01*
X5859800D01*
Y-178000D01*
X6030500D01*
Y-177900D01*
G37*
G36*
G01X6723990Y-2241000D02*
Y-2344990D01*
X6639000D01*
Y-2241000D01*
X6723990D01*
G37*
G36*
G01X6640000Y-1024000D02*
Y-1242400D01*
X6776700D01*
Y-1024000D01*
X6640000D01*
G37*
G36*
G01X7200000Y-410000D02*
Y-560000D01*
X7130000Y-630000D01*
X6980000D01*
Y-410000D01*
X7200000D01*
G37*
G36*
G01X8250000Y-1055000D02*
Y-1135000D01*
X8689000D01*
Y-1055000D01*
X8250000D01*
G37*
G36*
G01Y-1180000D02*
Y-1260000D01*
X8689000D01*
Y-1180000D01*
X8250000D01*
G37*
G36*
G01Y-605000D02*
Y-685000D01*
X8187600D01*
Y-605000D01*
X8250000D01*
G37*
G36*
G01Y-480000D02*
Y-560000D01*
X8187600D01*
Y-480000D01*
X8250000D01*
G37*
G36*
G01X8339000Y-2053000D02*
Y-2347000D01*
X8855000D01*
Y-2053000D01*
X8339000D01*
G37*
G36*
G01X8530000Y-680000D02*
Y-143000D01*
X8855000D01*
Y-680000D01*
X8530000D01*
G37*
G54D10*
X300000Y-2200000D03*
Y-300000D03*
X5800000Y-1100000D03*
G54D11*
X805000Y-1742400D03*
X471500Y-1644800D03*
X602800Y-1490500D03*
X471500Y-1563700D03*
X498600Y-1492800D03*
X542800Y-840000D03*
X782700Y-639800D03*
X657700Y-338800D03*
X819200Y-490000D03*
X649400Y-137700D03*
X755100D03*
X901400Y-1740500D03*
X900500Y-1864700D03*
X976500Y-1584800D03*
X926900Y-1630700D03*
X960000Y-745600D03*
X834200Y-601600D03*
X860300Y-137100D03*
X992900Y-137300D03*
X1197700Y-2181700D03*
X1197200Y-2305600D03*
X1196600Y-2245600D03*
X1470000Y-2110000D03*
X1400000D03*
X1224300Y-1867100D03*
X1224500Y-2036200D03*
X1240000Y-1500000D03*
X1251400Y-350500D03*
X1550000Y-2192700D03*
Y-2250000D03*
Y-2307300D03*
X1630000Y-1855000D03*
X1740000Y-1402000D03*
X1564500Y-1576500D03*
X1716600Y-1580000D03*
X1812700Y-827700D03*
X1852200Y-897800D03*
X2024870Y-2127300D03*
X1943400Y-2124600D03*
X1890000Y-1970000D03*
X1979800Y-1890000D03*
X2222500Y-1979800D03*
X2162900Y-1724200D03*
X2159500Y-1277200D03*
X1893900Y-827700D03*
X2196000Y-761900D03*
X2070600Y-751700D03*
X2059960Y-803320D03*
X2462500Y-2105200D03*
X2555200Y-2042500D03*
X2369800D03*
X2572500Y-1852500D03*
X2277600Y-1692500D03*
X2591000D03*
X2262900Y-1523500D03*
X2460000Y-1154600D03*
X2306100D03*
X2255830Y-655700D03*
X2297300Y-703300D03*
X2346000Y-761900D03*
X2460000Y-470600D03*
X2648500Y-1555100D03*
X2756900Y-1370700D03*
X2625100Y-1154600D03*
X2620000Y-934200D03*
X2940000Y-741800D03*
X2803300Y-490000D03*
X2632900Y-342100D03*
X2623700Y-137700D03*
X2719500Y-137300D03*
X2823800D03*
X2951300Y-137600D03*
X3153200Y-1844100D03*
X3174500Y-1924400D03*
X3208000Y-1402000D03*
X3191000Y-1632000D03*
X3232800Y-348900D03*
X3600000Y-1834400D03*
X3381000Y-1924400D03*
X3537800Y-2016300D03*
X3556400Y-1588000D03*
X3878100Y-1792800D03*
Y-1722800D03*
X3778500Y-1982300D03*
X3778100Y-1613300D03*
X3812700Y-827700D03*
Y-930100D03*
X3893900Y-827700D03*
Y-932300D03*
X3853900Y-876800D03*
X4074900Y-1792800D03*
X4288100Y-1892800D03*
X4286100Y-1700400D03*
X4288100Y-1526000D03*
X4586700Y-1417700D03*
X4653300D03*
X4586700Y-1470700D03*
X4653300D03*
X4799700Y-1065600D03*
X4875000Y-1002700D03*
X5001400Y-1196800D03*
X4869400Y-1205500D03*
X4797100Y-1205100D03*
X4777700Y-896800D03*
X4790500Y-973600D03*
X5384100Y-2244200D03*
X5160000Y-1740000D03*
X5437300Y-1550000D03*
X5428100Y-1138300D03*
X5118000Y-1340000D03*
X5440700Y-905200D03*
X5530000Y-1487300D03*
X5656700Y-1340000D03*
X5499100Y-898700D03*
X5544450Y-926710D03*
X5779790Y-668800D03*
X5792700Y-744100D03*
X5776500Y-607710D03*
X5917300Y-2270000D03*
X5830000Y-2069800D03*
X6100000Y-2197300D03*
X5830000Y-1759400D03*
X6080000Y-1692700D03*
X6070000Y-1090000D03*
X6040000Y-870000D03*
X6070000Y-950000D03*
X5832490Y-668400D03*
X5829200Y-607690D03*
X6131900Y-226000D03*
X6048600Y-213450D03*
X6334400Y-1903900D03*
X6166600Y-1750000D03*
X6320000Y-1370000D03*
X6370000Y-280000D03*
X6212200Y-224900D03*
X6311400Y-221900D03*
X6464000Y-224700D03*
X6581200Y-2290000D03*
X6860000Y-2080000D03*
X6690000Y-2310000D03*
X6810000Y-1960000D03*
X6860000Y-2010000D03*
X6785000Y-1777700D03*
X6540000Y-1700000D03*
X6780000Y-1370000D03*
X6744000Y-1156700D03*
X6672700D03*
X6673800Y-1212100D03*
X6744000Y-1213200D03*
X6556400Y-222400D03*
X7125000Y-2253300D03*
X6910000Y-1960000D03*
X6967820Y-1778320D03*
X6980000Y-1500800D03*
X6920000Y-965000D03*
X7080000Y-442700D03*
X7012700Y-510000D03*
X7010000Y-440000D03*
X6920000Y-220000D03*
X7530000Y-1860000D03*
X7470000Y-1020000D03*
X7235000Y-597700D03*
X7694800Y-1474500D03*
X7770000Y-1420030D03*
X7700000Y-960000D03*
X7735900Y-680900D03*
X7680000Y-615000D03*
X8180000Y-2100000D03*
X8017300Y-1980000D03*
X8054500Y-1420000D03*
X8090000Y-1165000D03*
X7967700Y-1115000D03*
X8060000Y-1065000D03*
X7980000Y-1015000D03*
X8217300Y-645000D03*
Y-520000D03*
X8479200Y-2098500D03*
X8371700Y-2314300D03*
X8486200D03*
X8389800Y-2093000D03*
X8579300Y-2093400D03*
X8431500Y-2222300D03*
X8480800Y-1094600D03*
X8554400Y-1094500D03*
X8634200Y-1093600D03*
X8478900Y-1218000D03*
X8554400Y-1219700D03*
X8635200Y-1221700D03*
X8442700Y-644900D03*
X8565200Y-409100D03*
X8641200Y-410500D03*
X8442700Y-521200D03*
X8298700Y-220000D03*
X8797100Y-2090400D03*
X8687300Y-2093000D03*
X8733000Y-411000D03*
X8815000Y-410500D03*
G54D20*
X4890000Y-920000D03*
X5050000D03*
G54D30*
X6785000Y-2295700D03*
Y-1864200D03*
X6935000Y-2295700D03*
Y-1864200D03*
X7595000Y-2095700D03*
X7645000D03*
X7695000D03*
X7745000D03*
X7795000D03*
X7845000D03*
X7595000Y-1864200D03*
X7645000D03*
X7695000D03*
X7745000D03*
X7795000D03*
X7845000D03*
G54D21*
X4980000Y-480000D03*
X5610000D03*
G54D12*
G01X3232800Y-348900D02*
X2867030D01*
X2803300Y-412630D01*
Y-490000D01*
G01X6581200Y-2290000D02*
X6530000D01*
G01D02*
Y-2230300D01*
G01X6980000Y-1700000D02*
Y-1766140D01*
X6967820Y-1778320D01*
G01X7060000Y-1015000D02*
X7180000D01*
G01X7060000Y-965000D02*
X6920000D01*
G01X7179000Y-915000D02*
X7060000D01*
G01X7235000Y-490000D02*
Y-597700D01*
G01X7685000Y-1290000D02*
Y-1425000D01*
X7695000Y-1435000D01*
Y-1474300D01*
X7694800Y-1474500D01*
G01X7735000Y-1290000D02*
Y-1385030D01*
X7770000Y-1420030D01*
G01X7860000Y-665000D02*
X7751800D01*
X7735900Y-680900D01*
G01X7680000Y-615000D02*
X7860000D01*
X1145000Y-1951900D03*
X1070000Y-470000D03*
X1090000Y-540000D03*
X1120000Y-470000D03*
Y-600000D03*
X1070000D03*
X1367900Y-1568100D03*
X2896500Y-2088700D03*
X2937000Y-2088800D03*
X2979700Y-2088900D03*
X3050000Y-470000D03*
X3100000D03*
X3070000Y-540000D03*
X3050000Y-600000D03*
X3100000D03*
X5029700Y-1155700D03*
X4937600Y-1201800D03*
X5310000Y-1020000D03*
X6383100Y-1967800D03*
X6530000Y-2230300D03*
X6595000Y-2005000D03*
X6780000Y-1700000D03*
X7116300Y-2132400D03*
X7115000Y-1955000D03*
X7091700Y-2055000D03*
X7190000Y-1130000D03*
X7180000Y-1015000D03*
X7179000Y-915000D03*
X7331800Y-1839300D03*
X7485000Y-1447400D03*
X7435000Y-1400000D03*
X7234900Y-1175600D03*
X7849200Y-2227600D03*
X7695000Y-2160000D03*
X7720000Y-1980000D03*
X7660000Y-2000600D03*
X7778900Y-1961200D03*
X7695000Y-1800000D03*
X7635000Y-1400000D03*
X7585000Y-1437400D03*
X7735000Y-370000D03*
X7945000Y-1955000D03*
X7990000Y-715000D03*
G54D40*
G01X5160000Y-1740000D02*
X5290000D01*
G01X5200000Y-1340000D02*
X5118000D01*
G01X6070900Y-2013400D02*
Y-1939100D01*
X6100000Y-1910000D01*
Y-1850000D01*
G01X6320000Y-1440000D02*
Y-1370000D01*
G01X6270000Y-950000D02*
Y-1090000D01*
G01D02*
X6360000D01*
X6376000Y-1074000D01*
X6500000D01*
G01X6210000Y-630000D02*
Y-694060D01*
X6270000Y-754060D01*
Y-810000D01*
G01D02*
X6356940D01*
X6420940Y-874000D01*
X6500000D01*
G01X6370000Y-630000D02*
Y-370000D01*
G01D02*
Y-280000D01*
G01X6490000Y-370000D02*
X6690000D01*
G01X6490000Y-630000D02*
X6690000D01*
G01X6780000Y-1440000D02*
Y-1370000D01*
G01X7120000Y-220000D02*
Y-310000D01*
X7080000Y-350000D01*
Y-442700D01*
G01X7000000Y-220000D02*
X6920000D01*
G01X7280000D02*
X7120000D01*
G01X8220000D02*
X8298700D01*
G54D31*
X6690000Y-2105000D03*
Y-2155000D03*
Y-2205000D03*
Y-2255000D03*
Y-1905000D03*
Y-1955000D03*
Y-2005000D03*
Y-2055000D03*
X7030000Y-2105000D03*
Y-2155000D03*
Y-2205000D03*
Y-2255000D03*
Y-1905000D03*
Y-1955000D03*
Y-2005000D03*
Y-2055000D03*
X7554300Y-1955000D03*
Y-2005000D03*
X7885800Y-1955000D03*
Y-2005000D03*
G54D13*
X1030000Y-1240000D03*
X1530000D03*
X3390000D03*
X3890000D03*
G54D22*
X5290000Y-1740000D03*
Y-1550000D03*
X5530000Y-1740000D03*
Y-1550000D03*
Y-1645000D03*
X6080000Y-1630000D03*
Y-1535000D03*
Y-1440000D03*
X6540000Y-1630000D03*
Y-1535000D03*
Y-1440000D03*
X6320000Y-1630000D03*
Y-1440000D03*
X6780000Y-1630000D03*
Y-1440000D03*
G54D41*
G01X7030000Y-2205000D02*
X7084200D01*
X7116300Y-2172900D01*
Y-2132400D01*
G01X7060000Y-1065000D02*
X6945000D01*
X6880000Y-1130000D01*
Y-1270000D01*
X7080000Y-1470000D01*
Y-1560000D01*
X7194200Y-1674200D01*
Y-1894200D01*
X7395700Y-2095700D01*
X7595000D01*
G01X7030000Y-1955000D02*
X7115000D01*
G01X7030000Y-2005000D02*
X7205000D01*
X7421500Y-2221500D01*
X7705200D01*
X7745000Y-2181700D01*
Y-2095700D01*
G01X7060000Y-1115000D02*
X6964800D01*
X6930000Y-1149800D01*
Y-1240000D01*
X7130000Y-1440000D01*
Y-1540000D01*
X7268900Y-1678900D01*
Y-1881600D01*
X7392300Y-2005000D01*
X7554300D01*
G01X7185000Y-1290000D02*
Y-1190300D01*
X7199700Y-1175600D01*
X7234900D01*
G01X7060000Y-1165000D02*
X7155000D01*
X7190000Y-1130000D01*
G01X7795000Y-1864200D02*
Y-1805000D01*
X7730000Y-1740000D01*
X7431100D01*
X7331800Y-1839300D01*
G01X7235000Y-1290000D02*
Y-1555000D01*
X7373700Y-1693700D01*
X8053600D01*
X8079900Y-1720000D01*
X8330000D01*
G01X7285000Y-1290000D02*
Y-1525000D01*
X7401800Y-1641800D01*
X8168200D01*
X8215000Y-1595000D01*
X8330000D01*
G01X7335000Y-1290000D02*
Y-1505000D01*
X7419900Y-1589900D01*
X8100100D01*
X8220000Y-1470000D01*
X8330000D01*
G01X7385000Y-1290000D02*
Y-1455000D01*
X7470000Y-1540000D01*
X8034800D01*
X8229800Y-1345000D01*
X8330000D01*
G01X7435000Y-490000D02*
Y-355000D01*
X7530000Y-260000D01*
X7980000D01*
X8124700Y-404700D01*
Y-802200D01*
X8167500Y-845000D01*
X8330000D01*
G01X7485000Y-490000D02*
Y-375000D01*
X7550000Y-310000D01*
X7950000D01*
X8065300Y-425300D01*
Y-619670D01*
X8066100Y-620470D01*
Y-878800D01*
X8157300Y-970000D01*
X8330000D01*
G01X7795000Y-2095700D02*
Y-2212600D01*
X7810000Y-2227600D01*
X7849200D01*
G01X7695000Y-2095700D02*
Y-2160000D01*
G01Y-1864200D02*
Y-1800000D01*
G54D14*
X2220000Y-1980000D03*
X2570000Y-1850000D03*
G54D32*
X6860000Y-2080000D03*
G54D23*
X5310000Y-1020000D03*
G54D42*
G01X6150000Y-1090000D02*
X6070000D01*
G01X6150000Y-810000D02*
X6068000D01*
X6040000Y-838000D01*
Y-870000D01*
G01X6150000Y-950000D02*
X6070000D01*
G54D15*
X2210000Y-430000D03*
X2010000Y-250000D03*
X4330000Y-220000D03*
X4550000Y-400000D03*
G54D24*
X5335000Y-1120000D03*
X5285000D03*
X5335000Y-920000D03*
X5285000D03*
G54D33*
X6690000Y-630000D03*
Y-370000D03*
G54D43*
G01X819200Y-490000D02*
Y-424300D01*
X893000Y-350500D01*
X1251400D01*
G01X5720000Y-1530000D02*
Y-1470000D01*
X5681400Y-1431400D01*
X5348600D01*
X5290000Y-1490000D01*
Y-1550000D01*
G01X5530000Y-1740000D02*
X5680200D01*
X5720000Y-1700200D01*
Y-1650000D01*
G01Y-1530000D02*
X5870000D01*
G01Y-1650000D02*
X5720000D01*
G01X5830000Y-2069800D02*
X5958100D01*
X6015800Y-2127500D01*
X6127600D01*
X6168500Y-2168400D01*
Y-2284170D01*
G01X6080000Y-1535000D02*
X5994800D01*
X5970000Y-1559800D01*
Y-1610200D01*
X5930200Y-1650000D01*
X5870000D01*
G01X7060000Y-815000D02*
X6950300D01*
X6891300Y-874000D01*
X6700000D01*
G01X6690000Y-630000D02*
X6805200D01*
X6830000Y-654800D01*
Y-700000D01*
X6895000Y-765000D01*
X7060000D01*
G01X6690000Y-370000D02*
X6850000D01*
X6900000Y-420000D01*
Y-680000D01*
X6935000Y-715000D01*
X7060000D01*
G54D16*
X2460000Y-920000D03*
Y-800000D03*
Y-670000D03*
Y-550000D03*
X5720000Y-1530000D03*
Y-1650000D03*
X5870000Y-1530000D03*
Y-1650000D03*
X6466600Y-1967800D03*
Y-1847800D03*
X6980000Y-1700000D03*
Y-1580000D03*
X8090000Y-2100000D03*
Y-1980000D03*
G54D25*
X5410000Y-1095000D03*
X5210000D03*
X5410000Y-1045000D03*
X5210000D03*
X5410000Y-995000D03*
X5210000D03*
X5410000Y-945000D03*
X5210000D03*
G54D34*
X7185000Y-1290000D03*
Y-490000D03*
X7235000Y-1290000D03*
X7285000D03*
X7335000D03*
X7385000D03*
X7435000D03*
X7485000D03*
X7535000D03*
X7235000Y-490000D03*
X7285000D03*
X7335000D03*
X7385000D03*
X7435000D03*
X7485000D03*
X7535000D03*
X7585000Y-1290000D03*
X7635000D03*
X7685000D03*
X7735000D03*
X7585000Y-490000D03*
X7635000D03*
X7685000D03*
X7735000D03*
G54D44*
G01X7885800Y-2005000D02*
X7992300D01*
X8017300Y-1980000D01*
G54D17*
X4930000Y-2220000D03*
Y-2020000D03*
X5130000Y-2220000D03*
Y-2020000D03*
G54D26*
X6070900Y-2013400D03*
X6262400D03*
X6168500Y-2284170D03*
G54D35*
X7060000Y-1165000D03*
Y-1115000D03*
Y-1065000D03*
Y-1015000D03*
Y-965000D03*
Y-915000D03*
Y-865000D03*
Y-815000D03*
Y-765000D03*
Y-715000D03*
Y-665000D03*
Y-615000D03*
X7860000Y-1165000D03*
Y-1115000D03*
Y-1065000D03*
Y-1015000D03*
Y-965000D03*
Y-915000D03*
Y-865000D03*
Y-815000D03*
Y-765000D03*
Y-715000D03*
Y-665000D03*
Y-615000D03*
G54D45*
G01X6168500Y-2284170D02*
X6097530D01*
X6025500Y-2356200D01*
X4971000D01*
X4930000Y-2315200D01*
Y-2220000D01*
G01X4970000Y-1700000D02*
X5050200D01*
X5090000Y-1660200D01*
Y-1660000D01*
X5200000Y-1550000D01*
X5290000D01*
G01X6100000Y-2197300D02*
X5967300D01*
X5940000Y-2170000D01*
X5458300D01*
X5384100Y-2244200D01*
G01X5570000Y-1340000D02*
X5656700D01*
G01X6100000Y-1850000D02*
Y-1810200D01*
X6160200Y-1750000D01*
X6166600D01*
G01X6080000Y-1630000D02*
Y-1692700D01*
G01X6383100Y-1967800D02*
X6466600D01*
G01X6262400Y-2013400D02*
Y-1952400D01*
X6220000Y-1910000D01*
Y-1850000D01*
G01X6320000Y-1630000D02*
X6350000D01*
X6445000Y-1535000D01*
X6540000D01*
G54D18*
X4970000Y-1700000D03*
Y-1446000D03*
G54D27*
X5950000Y-650000D03*
Y-320000D03*
G54D36*
X7720000Y-1980000D03*
X8330000Y-1720000D03*
Y-1845000D03*
Y-1970000D03*
Y-1345000D03*
Y-1470000D03*
Y-1595000D03*
Y-970000D03*
Y-1095000D03*
Y-1220000D03*
Y-845000D03*
G54D46*
G01X6690000Y-1955000D02*
X6597500D01*
X6569500Y-1927000D01*
Y-1875800D01*
X6541500Y-1847800D01*
X6466600D01*
G01X6690000Y-2205000D02*
X6645200D01*
X6580200Y-2140000D01*
X6530000D01*
G01X6785000Y-1864200D02*
Y-1777700D01*
G01X6690000Y-2005000D02*
X6595000D01*
G01X6780000Y-1700000D02*
Y-1630000D01*
G01X7030000Y-2255000D02*
X7123300D01*
X7125000Y-2253300D01*
G01X6935000Y-1864200D02*
Y-1811140D01*
X6967820Y-1778320D01*
G01X7645000Y-1864200D02*
Y-1811140D01*
X7623860Y-1790000D01*
X7552700D01*
X7530000Y-1812700D01*
Y-1860000D01*
G01X7554300Y-1955000D02*
X7522700D01*
X7510000Y-1942300D01*
Y-1880000D01*
X7530000Y-1860000D01*
G01X8330000Y-1970000D02*
X8230940D01*
X8210000Y-1990940D01*
Y-2040000D01*
X8252800Y-2082800D01*
Y-2137200D01*
X8210000Y-2180000D01*
X7868600D01*
X7845000Y-2156400D01*
Y-2095700D01*
G01X8330000Y-1845000D02*
X8069990D01*
X8004990Y-1780000D01*
X7875000D01*
X7845000Y-1810000D01*
Y-1864200D01*
G01X7885800Y-1955000D02*
X7945000D01*
G54D19*
X4910000Y-1080000D03*
X5030000D03*
X5200000Y-1340000D03*
X5320000D03*
X5450000D03*
X5570000D03*
X6100000Y-1850000D03*
X6150000Y-1090000D03*
Y-950000D03*
Y-810000D03*
X6410000Y-2140000D03*
Y-2290000D03*
X6220000Y-1850000D03*
X6270000Y-1090000D03*
Y-950000D03*
Y-810000D03*
X6370000Y-630000D03*
X6490000D03*
X6370000Y-370000D03*
X6490000D03*
X6530000Y-2140000D03*
Y-2290000D03*
X7120000Y-220000D03*
X7000000D03*
X7280000D03*
X7400000D03*
X8220000D03*
X8100000D03*
G54D37*
X8680000Y-2230000D03*
Y-580000D03*
G54D28*
X6500000Y-1074000D03*
Y-874000D03*
X6700000Y-1074000D03*
Y-874000D03*
G54D47*
G01X3745000Y-1732500D02*
Y-1748940D01*
G01X7091700Y-2055000D02*
X7030000D01*
G01X7735000Y-370000D02*
Y-490000D01*
G54D38*
G01X2222500Y-1979800D02*
X1957000Y-1714300D01*
X1514100D01*
X1367900Y-1568100D01*
G01X3778500Y-1982300D02*
Y-2044500D01*
X3650700Y-2172300D01*
X3158300D01*
X2839000Y-1853000D01*
X2612060D01*
X2611560Y-1852500D01*
X2572500D01*
G01X2262900Y-1523500D02*
X2368500Y-1629100D01*
X2733990D01*
X3201190Y-2096300D01*
X3610790D01*
X3680600Y-2026490D01*
Y-1941600D01*
X3729400Y-1892800D01*
X4288100D01*
G01X3537800Y-2016300D02*
X3480700Y-1959200D01*
Y-1755500D01*
X3248100Y-1522900D01*
X2909100D01*
X2756900Y-1370700D01*
G01X5210000Y-1095000D02*
X5155000D01*
X5120000Y-1130000D01*
G01X5285000Y-1120000D02*
Y-1204300D01*
X5301700Y-1221000D01*
G01D02*
X5161000D01*
X5120000Y-1180000D01*
Y-1130000D01*
G01X5410000Y-995000D02*
X5498200D01*
X5523700Y-1020500D01*
Y-1184020D01*
X5486720Y-1221000D01*
X5301700D01*
G01X5210000Y-1045000D02*
X5145000D01*
X5120000Y-1070000D01*
Y-1130000D01*
G01X6690000Y-2055000D02*
X6576500D01*
X6568600Y-2047100D01*
X6356800D01*
X6323100Y-2013400D01*
X6262400D01*
G01X7485000Y-1290000D02*
Y-1447400D01*
G01X7435000Y-1290000D02*
Y-1400000D01*
G01X7385000Y-490000D02*
Y-329000D01*
X7400000Y-314000D01*
Y-220000D01*
G01D02*
X7478200D01*
X7513800Y-184400D01*
X8012300D01*
X8047900Y-220000D01*
X8100000D01*
G01X7635000Y-1290000D02*
Y-1400000D01*
G01X7585000Y-1437400D02*
Y-1290000D01*
G01X7860000Y-1165000D02*
X8090000D01*
G01X7860000Y-1115000D02*
X7967700D01*
G01X8060000Y-1065000D02*
X7860000D01*
G01Y-1015000D02*
X7980000D01*
G01X7990000Y-715000D02*
X7860000D01*
G54D29*
X6210000Y-630000D03*
Y-470000D03*
G54D48*
G01X2460000Y-920000D02*
Y-1154600D01*
G01Y-800000D02*
Y-670000D01*
G01Y-550000D02*
Y-470600D01*
G01X5530000Y-1550000D02*
X5437300D01*
G01X5530000Y-1487300D02*
Y-1550000D01*
G01Y-1645000D02*
Y-1550000D01*
G01X6410000Y-2140000D02*
Y-2290000D01*
G01X6540000Y-1630000D02*
Y-1700000D01*
G54D39*
G01X8090000Y-2100000D02*
X8180000D01*
G01X8090000Y-1980000D02*
X8017300D01*
G54D49*
G01X5450000Y-1340000D02*
X5320000D01*
G01X6980000Y-1580000D02*
Y-1500800D01*
M02*
